G04 #@! TF.GenerationSoftware,KiCad,Pcbnew,(5.1.10)-1*
G04 #@! TF.CreationDate,2021-08-06T21:51:28+08:00*
G04 #@! TF.ProjectId,digital_thermometer,64696769-7461-46c5-9f74-6865726d6f6d,rev?*
G04 #@! TF.SameCoordinates,Original*
G04 #@! TF.FileFunction,Soldermask,Bot*
G04 #@! TF.FilePolarity,Negative*
%FSLAX45Y45*%
G04 Gerber Fmt 4.5, Leading zero omitted, Abs format (unit mm)*
G04 Created by KiCad (PCBNEW (5.1.10)-1) date 2021-08-06 21:51:28*
%MOMM*%
%LPD*%
G01*
G04 APERTURE LIST*
%ADD10C,1.600000*%
%ADD11R,1.600000X1.600000*%
%ADD12O,1.700000X2.000000*%
%ADD13R,1.500000X1.500000*%
%ADD14C,1.500000*%
%ADD15C,1.440000*%
%ADD16O,1.900000X1.050000*%
%ADD17O,1.700000X1.700000*%
%ADD18R,1.700000X1.700000*%
G04 APERTURE END LIST*
D10*
G04 #@! TO.C,SW5*
X8545000Y-12946000D03*
X8145000Y-12496000D03*
X8345000Y-12946000D03*
X8345000Y-12496000D03*
X8145000Y-12946000D03*
D11*
X8545000Y-12496000D03*
G04 #@! TD*
D10*
G04 #@! TO.C,SW4*
X11695000Y-8390000D03*
X11245000Y-8790000D03*
X11695000Y-8590000D03*
X11245000Y-8590000D03*
X11695000Y-8790000D03*
D11*
X11245000Y-8390000D03*
G04 #@! TD*
D12*
G04 #@! TO.C,J3*
X6844000Y-14518000D03*
G36*
G01*
X7179000Y-14443000D02*
X7179000Y-14593000D01*
G75*
G02*
X7154000Y-14618000I-25000J0D01*
G01*
X7034000Y-14618000D01*
G75*
G02*
X7009000Y-14593000I0J25000D01*
G01*
X7009000Y-14443000D01*
G75*
G02*
X7034000Y-14418000I25000J0D01*
G01*
X7154000Y-14418000D01*
G75*
G02*
X7179000Y-14443000I0J-25000D01*
G01*
G37*
G04 #@! TD*
D13*
G04 #@! TO.C,Q4*
X13802200Y-6056000D03*
D14*
X14310200Y-6056000D03*
X14056200Y-6056000D03*
G04 #@! TD*
G04 #@! TO.C,U1*
X9433400Y-5776600D03*
X9687400Y-5776600D03*
X9941400Y-5776600D03*
X10195400Y-5776600D03*
X10449400Y-5776600D03*
X10703400Y-5776600D03*
X10703400Y-7300600D03*
X10449400Y-7300600D03*
X10195400Y-7300600D03*
X9941400Y-7300600D03*
X9687400Y-7300600D03*
D13*
X9433400Y-7300600D03*
G04 #@! TD*
G04 #@! TO.C,U4*
X5667000Y-11209500D03*
D14*
X6175000Y-11209500D03*
X5921000Y-11209500D03*
G04 #@! TD*
D10*
G04 #@! TO.C,SW6*
X13751400Y-12008400D03*
X14151400Y-12458400D03*
X13951400Y-12008400D03*
X13951400Y-12458400D03*
X14151400Y-12008400D03*
D11*
X13751400Y-12458400D03*
G04 #@! TD*
D15*
G04 #@! TO.C,RV2*
X8608000Y-11207000D03*
X8354000Y-11207000D03*
X8100000Y-11207000D03*
G04 #@! TD*
G04 #@! TO.C,RV1*
X8608000Y-11764500D03*
X8354000Y-11764500D03*
X8100000Y-11764500D03*
G04 #@! TD*
D12*
G04 #@! TO.C,J2*
X5993000Y-14518000D03*
G36*
G01*
X6328000Y-14443000D02*
X6328000Y-14593000D01*
G75*
G02*
X6303000Y-14618000I-25000J0D01*
G01*
X6183000Y-14618000D01*
G75*
G02*
X6158000Y-14593000I0J25000D01*
G01*
X6158000Y-14443000D01*
G75*
G02*
X6183000Y-14418000I25000J0D01*
G01*
X6303000Y-14418000D01*
G75*
G02*
X6328000Y-14443000I0J-25000D01*
G01*
G37*
G04 #@! TD*
D13*
G04 #@! TO.C,Q3*
X13802200Y-6716400D03*
D14*
X14310200Y-6716400D03*
X14056200Y-6716400D03*
G04 #@! TD*
D13*
G04 #@! TO.C,Q2*
X13802200Y-7376800D03*
D14*
X14310200Y-7376800D03*
X14056200Y-7376800D03*
G04 #@! TD*
D13*
G04 #@! TO.C,Q1*
X13802200Y-8037200D03*
D14*
X14310200Y-8037200D03*
X14056200Y-8037200D03*
G04 #@! TD*
D16*
G04 #@! TO.C,J4*
X14836600Y-11071600D03*
X14836600Y-11711600D03*
G04 #@! TD*
D17*
G04 #@! TO.C,J1*
X14310000Y-8753000D03*
X14310000Y-9007000D03*
X14310000Y-9261000D03*
D18*
X14310000Y-9515000D03*
G04 #@! TD*
M02*
