G04 #@! TF.GenerationSoftware,KiCad,Pcbnew,(5.1.10)-1*
G04 #@! TF.CreationDate,2021-08-06T21:51:28+08:00*
G04 #@! TF.ProjectId,digital_thermometer,64696769-7461-46c5-9f74-6865726d6f6d,rev?*
G04 #@! TF.SameCoordinates,Original*
G04 #@! TF.FileFunction,Legend,Top*
G04 #@! TF.FilePolarity,Positive*
%FSLAX45Y45*%
G04 Gerber Fmt 4.5, Leading zero omitted, Abs format (unit mm)*
G04 Created by KiCad (PCBNEW (5.1.10)-1) date 2021-08-06 21:51:28*
%MOMM*%
%LPD*%
G01*
G04 APERTURE LIST*
%ADD10C,0.300000*%
%ADD11C,0.187500*%
%ADD12C,0.120000*%
%ADD13C,0.150000*%
%ADD14C,0.200000*%
%ADD15C,0.156250*%
%ADD16C,0.100000*%
%ADD17C,0.254000*%
G04 APERTURE END LIST*
D10*
X11206857Y-8216476D02*
X11206857Y-8016476D01*
X11206857Y-8111714D02*
X11292571Y-8111714D01*
X11292571Y-8216476D02*
X11292571Y-8016476D01*
X11392571Y-8016476D02*
X11421143Y-8016476D01*
X11435428Y-8026000D01*
X11449714Y-8045048D01*
X11456857Y-8083143D01*
X11456857Y-8149809D01*
X11449714Y-8187905D01*
X11435428Y-8206952D01*
X11421143Y-8216476D01*
X11392571Y-8216476D01*
X11378286Y-8206952D01*
X11364000Y-8187905D01*
X11356857Y-8149809D01*
X11356857Y-8083143D01*
X11364000Y-8045048D01*
X11378286Y-8026000D01*
X11392571Y-8016476D01*
X11592571Y-8216476D02*
X11521143Y-8216476D01*
X11521143Y-8016476D01*
X11642571Y-8216476D02*
X11642571Y-8016476D01*
X11678286Y-8016476D01*
X11699714Y-8026000D01*
X11714000Y-8045048D01*
X11721143Y-8064095D01*
X11728286Y-8102190D01*
X11728286Y-8130762D01*
X11721143Y-8168857D01*
X11714000Y-8187905D01*
X11699714Y-8206952D01*
X11678286Y-8216476D01*
X11642571Y-8216476D01*
D11*
X13063643Y-5933928D02*
X13056500Y-5930357D01*
X13052928Y-5926786D01*
X13049357Y-5919643D01*
X13049357Y-5898214D01*
X13052928Y-5891071D01*
X13056500Y-5887500D01*
X13063643Y-5883928D01*
X13074357Y-5883928D01*
X13081500Y-5887500D01*
X13085071Y-5891071D01*
X13088643Y-5898214D01*
X13088643Y-5919643D01*
X13085071Y-5926786D01*
X13081500Y-5930357D01*
X13074357Y-5933928D01*
X13063643Y-5933928D01*
D10*
X13108714Y-6325476D02*
X13108714Y-6125476D01*
X13194428Y-6325476D02*
X13130143Y-6211190D01*
X13194428Y-6125476D02*
X13108714Y-6239762D01*
X13202428Y-5994714D02*
X13152428Y-5994714D01*
X13152428Y-6099476D02*
X13152428Y-5899476D01*
X13223857Y-5899476D01*
D11*
X13067643Y-5688928D02*
X13060500Y-5685357D01*
X13056928Y-5681786D01*
X13053357Y-5674643D01*
X13053357Y-5653214D01*
X13056928Y-5646071D01*
X13060500Y-5642500D01*
X13067643Y-5638928D01*
X13078357Y-5638928D01*
X13085500Y-5642500D01*
X13089071Y-5646071D01*
X13092643Y-5653214D01*
X13092643Y-5674643D01*
X13089071Y-5681786D01*
X13085500Y-5685357D01*
X13078357Y-5688928D01*
X13067643Y-5688928D01*
D10*
X13227428Y-5831428D02*
X13220286Y-5840952D01*
X13198857Y-5850476D01*
X13184571Y-5850476D01*
X13163143Y-5840952D01*
X13148857Y-5821905D01*
X13141714Y-5802857D01*
X13134571Y-5764762D01*
X13134571Y-5736190D01*
X13141714Y-5698095D01*
X13148857Y-5679048D01*
X13163143Y-5660000D01*
X13184571Y-5650476D01*
X13198857Y-5650476D01*
X13220286Y-5660000D01*
X13227428Y-5669524D01*
X10813000Y-11971952D02*
X10834429Y-11981476D01*
X10870143Y-11981476D01*
X10884429Y-11971952D01*
X10891571Y-11962428D01*
X10898714Y-11943381D01*
X10898714Y-11924333D01*
X10891571Y-11905286D01*
X10884429Y-11895762D01*
X10870143Y-11886238D01*
X10841571Y-11876714D01*
X10827286Y-11867190D01*
X10820143Y-11857667D01*
X10813000Y-11838619D01*
X10813000Y-11819571D01*
X10820143Y-11800524D01*
X10827286Y-11791000D01*
X10841571Y-11781476D01*
X10877286Y-11781476D01*
X10898714Y-11791000D01*
X10948714Y-11781476D02*
X10984429Y-11981476D01*
X11013000Y-11838619D01*
X11041571Y-11981476D01*
X11077286Y-11781476D01*
X11134429Y-11981476D02*
X11134429Y-11781476D01*
X11184429Y-11781476D02*
X11270143Y-11781476D01*
X11227286Y-11981476D02*
X11227286Y-11781476D01*
X11405857Y-11962428D02*
X11398714Y-11971952D01*
X11377286Y-11981476D01*
X11363000Y-11981476D01*
X11341571Y-11971952D01*
X11327286Y-11952905D01*
X11320143Y-11933857D01*
X11313000Y-11895762D01*
X11313000Y-11867190D01*
X11320143Y-11829095D01*
X11327286Y-11810048D01*
X11341571Y-11791000D01*
X11363000Y-11781476D01*
X11377286Y-11781476D01*
X11398714Y-11791000D01*
X11405857Y-11800524D01*
X11470143Y-11981476D02*
X11470143Y-11781476D01*
X11470143Y-11876714D02*
X11555857Y-11876714D01*
X11555857Y-11981476D02*
X11555857Y-11781476D01*
X9945857Y-11986476D02*
X9945857Y-11786476D01*
X9945857Y-11881714D02*
X10031571Y-11881714D01*
X10031571Y-11986476D02*
X10031571Y-11786476D01*
X10131571Y-11786476D02*
X10160143Y-11786476D01*
X10174429Y-11796000D01*
X10188714Y-11815048D01*
X10195857Y-11853143D01*
X10195857Y-11919809D01*
X10188714Y-11957905D01*
X10174429Y-11976952D01*
X10160143Y-11986476D01*
X10131571Y-11986476D01*
X10117286Y-11976952D01*
X10103000Y-11957905D01*
X10095857Y-11919809D01*
X10095857Y-11853143D01*
X10103000Y-11815048D01*
X10117286Y-11796000D01*
X10131571Y-11786476D01*
X10331571Y-11986476D02*
X10260143Y-11986476D01*
X10260143Y-11786476D01*
X10381571Y-11986476D02*
X10381571Y-11786476D01*
X10417286Y-11786476D01*
X10438714Y-11796000D01*
X10453000Y-11815048D01*
X10460143Y-11834095D01*
X10467286Y-11872190D01*
X10467286Y-11900762D01*
X10460143Y-11938857D01*
X10453000Y-11957905D01*
X10438714Y-11976952D01*
X10417286Y-11986476D01*
X10381571Y-11986476D01*
X10500857Y-14207476D02*
X10500857Y-14007476D01*
X10536571Y-14007476D01*
X10558000Y-14017000D01*
X10572286Y-14036048D01*
X10579429Y-14055095D01*
X10586571Y-14093190D01*
X10586571Y-14121762D01*
X10579429Y-14159857D01*
X10572286Y-14178905D01*
X10558000Y-14197952D01*
X10536571Y-14207476D01*
X10500857Y-14207476D01*
X10650857Y-14207476D02*
X10650857Y-14074143D01*
X10650857Y-14007476D02*
X10643714Y-14017000D01*
X10650857Y-14026524D01*
X10658000Y-14017000D01*
X10650857Y-14007476D01*
X10650857Y-14026524D01*
X10786571Y-14074143D02*
X10786571Y-14236048D01*
X10779429Y-14255095D01*
X10772286Y-14264619D01*
X10758000Y-14274143D01*
X10736571Y-14274143D01*
X10722286Y-14264619D01*
X10786571Y-14197952D02*
X10772286Y-14207476D01*
X10743714Y-14207476D01*
X10729429Y-14197952D01*
X10722286Y-14188428D01*
X10715143Y-14169381D01*
X10715143Y-14112238D01*
X10722286Y-14093190D01*
X10729429Y-14083667D01*
X10743714Y-14074143D01*
X10772286Y-14074143D01*
X10786571Y-14083667D01*
X10858000Y-14207476D02*
X10858000Y-14074143D01*
X10858000Y-14007476D02*
X10850857Y-14017000D01*
X10858000Y-14026524D01*
X10865143Y-14017000D01*
X10858000Y-14007476D01*
X10858000Y-14026524D01*
X10908000Y-14074143D02*
X10965143Y-14074143D01*
X10929429Y-14007476D02*
X10929429Y-14178905D01*
X10936571Y-14197952D01*
X10950857Y-14207476D01*
X10965143Y-14207476D01*
X11079429Y-14207476D02*
X11079429Y-14102714D01*
X11072286Y-14083667D01*
X11058000Y-14074143D01*
X11029429Y-14074143D01*
X11015143Y-14083667D01*
X11079429Y-14197952D02*
X11065143Y-14207476D01*
X11029429Y-14207476D01*
X11015143Y-14197952D01*
X11008000Y-14178905D01*
X11008000Y-14159857D01*
X11015143Y-14140809D01*
X11029429Y-14131286D01*
X11065143Y-14131286D01*
X11079429Y-14121762D01*
X11172286Y-14207476D02*
X11158000Y-14197952D01*
X11150857Y-14178905D01*
X11150857Y-14007476D01*
X11322286Y-14007476D02*
X11408000Y-14007476D01*
X11365143Y-14207476D02*
X11365143Y-14007476D01*
X11458000Y-14207476D02*
X11458000Y-14007476D01*
X11522286Y-14207476D02*
X11522286Y-14102714D01*
X11515143Y-14083667D01*
X11500857Y-14074143D01*
X11479428Y-14074143D01*
X11465143Y-14083667D01*
X11458000Y-14093190D01*
X11650857Y-14197952D02*
X11636571Y-14207476D01*
X11608000Y-14207476D01*
X11593714Y-14197952D01*
X11586571Y-14178905D01*
X11586571Y-14102714D01*
X11593714Y-14083667D01*
X11608000Y-14074143D01*
X11636571Y-14074143D01*
X11650857Y-14083667D01*
X11658000Y-14102714D01*
X11658000Y-14121762D01*
X11586571Y-14140809D01*
X11722286Y-14207476D02*
X11722286Y-14074143D01*
X11722286Y-14112238D02*
X11729428Y-14093190D01*
X11736571Y-14083667D01*
X11750857Y-14074143D01*
X11765143Y-14074143D01*
X11815143Y-14207476D02*
X11815143Y-14074143D01*
X11815143Y-14093190D02*
X11822286Y-14083667D01*
X11836571Y-14074143D01*
X11858000Y-14074143D01*
X11872286Y-14083667D01*
X11879428Y-14102714D01*
X11879428Y-14207476D01*
X11879428Y-14102714D02*
X11886571Y-14083667D01*
X11900857Y-14074143D01*
X11922286Y-14074143D01*
X11936571Y-14083667D01*
X11943714Y-14102714D01*
X11943714Y-14207476D01*
X12036571Y-14207476D02*
X12022286Y-14197952D01*
X12015143Y-14188428D01*
X12008000Y-14169381D01*
X12008000Y-14112238D01*
X12015143Y-14093190D01*
X12022286Y-14083667D01*
X12036571Y-14074143D01*
X12058000Y-14074143D01*
X12072286Y-14083667D01*
X12079428Y-14093190D01*
X12086571Y-14112238D01*
X12086571Y-14169381D01*
X12079428Y-14188428D01*
X12072286Y-14197952D01*
X12058000Y-14207476D01*
X12036571Y-14207476D01*
X12150857Y-14207476D02*
X12150857Y-14074143D01*
X12150857Y-14093190D02*
X12158000Y-14083667D01*
X12172286Y-14074143D01*
X12193714Y-14074143D01*
X12208000Y-14083667D01*
X12215143Y-14102714D01*
X12215143Y-14207476D01*
X12215143Y-14102714D02*
X12222286Y-14083667D01*
X12236571Y-14074143D01*
X12258000Y-14074143D01*
X12272286Y-14083667D01*
X12279428Y-14102714D01*
X12279428Y-14207476D01*
X12408000Y-14197952D02*
X12393714Y-14207476D01*
X12365143Y-14207476D01*
X12350857Y-14197952D01*
X12343714Y-14178905D01*
X12343714Y-14102714D01*
X12350857Y-14083667D01*
X12365143Y-14074143D01*
X12393714Y-14074143D01*
X12408000Y-14083667D01*
X12415143Y-14102714D01*
X12415143Y-14121762D01*
X12343714Y-14140809D01*
X12458000Y-14074143D02*
X12515143Y-14074143D01*
X12479428Y-14007476D02*
X12479428Y-14178905D01*
X12486571Y-14197952D01*
X12500857Y-14207476D01*
X12515143Y-14207476D01*
X12622286Y-14197952D02*
X12608000Y-14207476D01*
X12579428Y-14207476D01*
X12565143Y-14197952D01*
X12558000Y-14178905D01*
X12558000Y-14102714D01*
X12565143Y-14083667D01*
X12579428Y-14074143D01*
X12608000Y-14074143D01*
X12622286Y-14083667D01*
X12629428Y-14102714D01*
X12629428Y-14121762D01*
X12558000Y-14140809D01*
X12693714Y-14207476D02*
X12693714Y-14074143D01*
X12693714Y-14112238D02*
X12700857Y-14093190D01*
X12708000Y-14083667D01*
X12722286Y-14074143D01*
X12736571Y-14074143D01*
D12*
X14548095Y-12428809D02*
X14567143Y-12428809D01*
X14576667Y-12435000D01*
X14586190Y-12447381D01*
X14590952Y-12472143D01*
X14590952Y-12515476D01*
X14586190Y-12540238D01*
X14576667Y-12552619D01*
X14567143Y-12558809D01*
X14548095Y-12558809D01*
X14538571Y-12552619D01*
X14529048Y-12540238D01*
X14524286Y-12515476D01*
X14524286Y-12472143D01*
X14529048Y-12447381D01*
X14538571Y-12435000D01*
X14548095Y-12428809D01*
X14633809Y-12558809D02*
X14633809Y-12428809D01*
X14690952Y-12558809D01*
X14690952Y-12428809D01*
X14514762Y-11988809D02*
X14533809Y-11988809D01*
X14543333Y-11995000D01*
X14552857Y-12007381D01*
X14557619Y-12032143D01*
X14557619Y-12075476D01*
X14552857Y-12100238D01*
X14543333Y-12112619D01*
X14533809Y-12118809D01*
X14514762Y-12118809D01*
X14505238Y-12112619D01*
X14495714Y-12100238D01*
X14490952Y-12075476D01*
X14490952Y-12032143D01*
X14495714Y-12007381D01*
X14505238Y-11995000D01*
X14514762Y-11988809D01*
X14633809Y-12050714D02*
X14600476Y-12050714D01*
X14600476Y-12118809D02*
X14600476Y-11988809D01*
X14648095Y-11988809D01*
X14719524Y-12050714D02*
X14686190Y-12050714D01*
X14686190Y-12118809D02*
X14686190Y-11988809D01*
X14733809Y-11988809D01*
X14300000Y-12110000D02*
X14300000Y-11990000D01*
X14400000Y-12480000D02*
X14400000Y-12520000D01*
X14300000Y-12480000D02*
X14400000Y-12480000D01*
X14300000Y-12520000D02*
X14300000Y-12480000D01*
X14300000Y-11990000D02*
X14400000Y-11990000D01*
X14400000Y-11990000D02*
X14400000Y-12110000D01*
X8903333Y-13022809D02*
X8903333Y-12892809D01*
X8960476Y-13022809D01*
X8960476Y-12892809D01*
X8993810Y-12892809D02*
X9050952Y-12892809D01*
X9022381Y-13022809D02*
X9022381Y-12892809D01*
X9141429Y-13010428D02*
X9136667Y-13016619D01*
X9122381Y-13022809D01*
X9112857Y-13022809D01*
X9098571Y-13016619D01*
X9089048Y-13004238D01*
X9084286Y-12991857D01*
X9079524Y-12967095D01*
X9079524Y-12948524D01*
X9084286Y-12923762D01*
X9089048Y-12911381D01*
X9098571Y-12899000D01*
X9112857Y-12892809D01*
X9122381Y-12892809D01*
X9136667Y-12899000D01*
X9141429Y-12905190D01*
X8890952Y-12586619D02*
X8905238Y-12592809D01*
X8929048Y-12592809D01*
X8938571Y-12586619D01*
X8943333Y-12580428D01*
X8948095Y-12568048D01*
X8948095Y-12555667D01*
X8943333Y-12543286D01*
X8938571Y-12537095D01*
X8929048Y-12530905D01*
X8910000Y-12524714D01*
X8900476Y-12518524D01*
X8895714Y-12512333D01*
X8890952Y-12499952D01*
X8890952Y-12487571D01*
X8895714Y-12475190D01*
X8900476Y-12469000D01*
X8910000Y-12462809D01*
X8933810Y-12462809D01*
X8948095Y-12469000D01*
X8995714Y-12592809D02*
X9014762Y-12592809D01*
X9024286Y-12586619D01*
X9029048Y-12580428D01*
X9038571Y-12561857D01*
X9043333Y-12537095D01*
X9043333Y-12487571D01*
X9038571Y-12475190D01*
X9033810Y-12469000D01*
X9024286Y-12462809D01*
X9005238Y-12462809D01*
X8995714Y-12469000D01*
X8990952Y-12475190D01*
X8986190Y-12487571D01*
X8986190Y-12518524D01*
X8990952Y-12530905D01*
X8995714Y-12537095D01*
X9005238Y-12543286D01*
X9024286Y-12543286D01*
X9033810Y-12537095D01*
X9038571Y-12530905D01*
X9043333Y-12518524D01*
X9105238Y-12462809D02*
X9114762Y-12462809D01*
X9124286Y-12469000D01*
X9129048Y-12475190D01*
X9133810Y-12487571D01*
X9138571Y-12512333D01*
X9138571Y-12543286D01*
X9133810Y-12568048D01*
X9129048Y-12580428D01*
X9124286Y-12586619D01*
X9114762Y-12592809D01*
X9105238Y-12592809D01*
X9095714Y-12586619D01*
X9090952Y-12580428D01*
X9086190Y-12568048D01*
X9081429Y-12543286D01*
X9081429Y-12512333D01*
X9086190Y-12487571D01*
X9090952Y-12475190D01*
X9095714Y-12469000D01*
X9105238Y-12462809D01*
X9233810Y-12592809D02*
X9176667Y-12592809D01*
X9205238Y-12592809D02*
X9205238Y-12462809D01*
X9195714Y-12481381D01*
X9186190Y-12493762D01*
X9176667Y-12499952D01*
X9267143Y-12462809D02*
X9329048Y-12462809D01*
X9295714Y-12512333D01*
X9310000Y-12512333D01*
X9319524Y-12518524D01*
X9324286Y-12524714D01*
X9329048Y-12537095D01*
X9329048Y-12568048D01*
X9324286Y-12580428D01*
X9319524Y-12586619D01*
X9310000Y-12592809D01*
X9281429Y-12592809D01*
X9271905Y-12586619D01*
X9267143Y-12580428D01*
X8690000Y-12584000D02*
X8690000Y-12464000D01*
X8790000Y-12954000D02*
X8790000Y-12994000D01*
X8690000Y-12954000D02*
X8790000Y-12954000D01*
X8690000Y-12994000D02*
X8690000Y-12954000D01*
X8690000Y-12464000D02*
X8790000Y-12464000D01*
X8790000Y-12464000D02*
X8790000Y-12584000D01*
X12029048Y-8820714D02*
X12062381Y-8820714D01*
X12076667Y-8888810D02*
X12029048Y-8888810D01*
X12029048Y-8758810D01*
X12076667Y-8758810D01*
X12119524Y-8888810D02*
X12119524Y-8802143D01*
X12119524Y-8826905D02*
X12124286Y-8814524D01*
X12129048Y-8808333D01*
X12138571Y-8802143D01*
X12148095Y-8802143D01*
X12224286Y-8888810D02*
X12224286Y-8820714D01*
X12219524Y-8808333D01*
X12210000Y-8802143D01*
X12190952Y-8802143D01*
X12181428Y-8808333D01*
X12224286Y-8882619D02*
X12214762Y-8888810D01*
X12190952Y-8888810D01*
X12181428Y-8882619D01*
X12176667Y-8870238D01*
X12176667Y-8857857D01*
X12181428Y-8845476D01*
X12190952Y-8839286D01*
X12214762Y-8839286D01*
X12224286Y-8833095D01*
X12267143Y-8882619D02*
X12276667Y-8888810D01*
X12295714Y-8888810D01*
X12305238Y-8882619D01*
X12310000Y-8870238D01*
X12310000Y-8864048D01*
X12305238Y-8851667D01*
X12295714Y-8845476D01*
X12281428Y-8845476D01*
X12271905Y-8839286D01*
X12267143Y-8826905D01*
X12267143Y-8820714D01*
X12271905Y-8808333D01*
X12281428Y-8802143D01*
X12295714Y-8802143D01*
X12305238Y-8808333D01*
X12390952Y-8882619D02*
X12381428Y-8888810D01*
X12362381Y-8888810D01*
X12352857Y-8882619D01*
X12348095Y-8870238D01*
X12348095Y-8820714D01*
X12352857Y-8808333D01*
X12362381Y-8802143D01*
X12381428Y-8802143D01*
X12390952Y-8808333D01*
X12395714Y-8820714D01*
X12395714Y-8833095D01*
X12348095Y-8845476D01*
X12027143Y-8458810D02*
X12027143Y-8328809D01*
X12084286Y-8458810D01*
X12084286Y-8328809D01*
X12146190Y-8458810D02*
X12136667Y-8452619D01*
X12131905Y-8446429D01*
X12127143Y-8434048D01*
X12127143Y-8396905D01*
X12131905Y-8384524D01*
X12136667Y-8378333D01*
X12146190Y-8372143D01*
X12160476Y-8372143D01*
X12170000Y-8378333D01*
X12174762Y-8384524D01*
X12179524Y-8396905D01*
X12179524Y-8434048D01*
X12174762Y-8446429D01*
X12170000Y-8452619D01*
X12160476Y-8458810D01*
X12146190Y-8458810D01*
X12222381Y-8458810D02*
X12222381Y-8372143D01*
X12222381Y-8396905D02*
X12227143Y-8384524D01*
X12231905Y-8378333D01*
X12241428Y-8372143D01*
X12250952Y-8372143D01*
X12284286Y-8458810D02*
X12284286Y-8372143D01*
X12284286Y-8384524D02*
X12289048Y-8378333D01*
X12298571Y-8372143D01*
X12312857Y-8372143D01*
X12322381Y-8378333D01*
X12327143Y-8390714D01*
X12327143Y-8458810D01*
X12327143Y-8390714D02*
X12331905Y-8378333D01*
X12341428Y-8372143D01*
X12355714Y-8372143D01*
X12365238Y-8378333D01*
X12370000Y-8390714D01*
X12370000Y-8458810D01*
X12460476Y-8458810D02*
X12460476Y-8390714D01*
X12455714Y-8378333D01*
X12446190Y-8372143D01*
X12427143Y-8372143D01*
X12417619Y-8378333D01*
X12460476Y-8452619D02*
X12450952Y-8458810D01*
X12427143Y-8458810D01*
X12417619Y-8452619D01*
X12412857Y-8440238D01*
X12412857Y-8427857D01*
X12417619Y-8415476D01*
X12427143Y-8409286D01*
X12450952Y-8409286D01*
X12460476Y-8403095D01*
X12522381Y-8458810D02*
X12512857Y-8452619D01*
X12508095Y-8440238D01*
X12508095Y-8328809D01*
X11950000Y-8330000D02*
X11950000Y-8450000D01*
X11850000Y-8330000D02*
X11950000Y-8330000D01*
X11850000Y-8450000D02*
X11850000Y-8330000D01*
X11950000Y-8820000D02*
X11950000Y-8860000D01*
X11850000Y-8820000D02*
X11950000Y-8820000D01*
X11850000Y-8860000D02*
X11850000Y-8820000D01*
X6849333Y-14113809D02*
X6849333Y-13983809D01*
X6906476Y-14113809D01*
X6906476Y-13983809D01*
X6939809Y-13983809D02*
X6996952Y-13983809D01*
X6968381Y-14113809D02*
X6968381Y-13983809D01*
X7087428Y-14101428D02*
X7082667Y-14107619D01*
X7068381Y-14113809D01*
X7058857Y-14113809D01*
X7044571Y-14107619D01*
X7035048Y-14095238D01*
X7030286Y-14082857D01*
X7025524Y-14058095D01*
X7025524Y-14039524D01*
X7030286Y-14014762D01*
X7035048Y-14002381D01*
X7044571Y-13990000D01*
X7058857Y-13983809D01*
X7068381Y-13983809D01*
X7082667Y-13990000D01*
X7087428Y-13996190D01*
X5894952Y-14107619D02*
X5909238Y-14113809D01*
X5933048Y-14113809D01*
X5942571Y-14107619D01*
X5947333Y-14101428D01*
X5952095Y-14089048D01*
X5952095Y-14076667D01*
X5947333Y-14064286D01*
X5942571Y-14058095D01*
X5933048Y-14051905D01*
X5914000Y-14045714D01*
X5904476Y-14039524D01*
X5899714Y-14033333D01*
X5894952Y-14020952D01*
X5894952Y-14008571D01*
X5899714Y-13996190D01*
X5904476Y-13990000D01*
X5914000Y-13983809D01*
X5937809Y-13983809D01*
X5952095Y-13990000D01*
X5999714Y-14113809D02*
X6018762Y-14113809D01*
X6028286Y-14107619D01*
X6033048Y-14101428D01*
X6042571Y-14082857D01*
X6047333Y-14058095D01*
X6047333Y-14008571D01*
X6042571Y-13996190D01*
X6037809Y-13990000D01*
X6028286Y-13983809D01*
X6009238Y-13983809D01*
X5999714Y-13990000D01*
X5994952Y-13996190D01*
X5990190Y-14008571D01*
X5990190Y-14039524D01*
X5994952Y-14051905D01*
X5999714Y-14058095D01*
X6009238Y-14064286D01*
X6028286Y-14064286D01*
X6037809Y-14058095D01*
X6042571Y-14051905D01*
X6047333Y-14039524D01*
X6109238Y-13983809D02*
X6118762Y-13983809D01*
X6128286Y-13990000D01*
X6133048Y-13996190D01*
X6137809Y-14008571D01*
X6142571Y-14033333D01*
X6142571Y-14064286D01*
X6137809Y-14089048D01*
X6133048Y-14101428D01*
X6128286Y-14107619D01*
X6118762Y-14113809D01*
X6109238Y-14113809D01*
X6099714Y-14107619D01*
X6094952Y-14101428D01*
X6090190Y-14089048D01*
X6085428Y-14064286D01*
X6085428Y-14033333D01*
X6090190Y-14008571D01*
X6094952Y-13996190D01*
X6099714Y-13990000D01*
X6109238Y-13983809D01*
X6237809Y-14113809D02*
X6180667Y-14113809D01*
X6209238Y-14113809D02*
X6209238Y-13983809D01*
X6199714Y-14002381D01*
X6190190Y-14014762D01*
X6180667Y-14020952D01*
X6271143Y-13983809D02*
X6333048Y-13983809D01*
X6299714Y-14033333D01*
X6314000Y-14033333D01*
X6323524Y-14039524D01*
X6328286Y-14045714D01*
X6333048Y-14058095D01*
X6333048Y-14089048D01*
X6328286Y-14101428D01*
X6323524Y-14107619D01*
X6314000Y-14113809D01*
X6285428Y-14113809D01*
X6275905Y-14107619D01*
X6271143Y-14101428D01*
D13*
X13775238Y-5630476D02*
X13789524Y-5635238D01*
X13813333Y-5635238D01*
X13822857Y-5630476D01*
X13827619Y-5625714D01*
X13832381Y-5616190D01*
X13832381Y-5606667D01*
X13827619Y-5597143D01*
X13822857Y-5592381D01*
X13813333Y-5587619D01*
X13794286Y-5582857D01*
X13784762Y-5578095D01*
X13780000Y-5573333D01*
X13775238Y-5563810D01*
X13775238Y-5554286D01*
X13780000Y-5544762D01*
X13784762Y-5540000D01*
X13794286Y-5535238D01*
X13818095Y-5535238D01*
X13832381Y-5540000D01*
X13880000Y-5635238D02*
X13899048Y-5635238D01*
X13908571Y-5630476D01*
X13913333Y-5625714D01*
X13922857Y-5611428D01*
X13927619Y-5592381D01*
X13927619Y-5554286D01*
X13922857Y-5544762D01*
X13918095Y-5540000D01*
X13908571Y-5535238D01*
X13889524Y-5535238D01*
X13880000Y-5540000D01*
X13875238Y-5544762D01*
X13870476Y-5554286D01*
X13870476Y-5578095D01*
X13875238Y-5587619D01*
X13880000Y-5592381D01*
X13889524Y-5597143D01*
X13908571Y-5597143D01*
X13918095Y-5592381D01*
X13922857Y-5587619D01*
X13927619Y-5578095D01*
X13989524Y-5535238D02*
X13999048Y-5535238D01*
X14008571Y-5540000D01*
X14013333Y-5544762D01*
X14018095Y-5554286D01*
X14022857Y-5573333D01*
X14022857Y-5597143D01*
X14018095Y-5616190D01*
X14013333Y-5625714D01*
X14008571Y-5630476D01*
X13999048Y-5635238D01*
X13989524Y-5635238D01*
X13980000Y-5630476D01*
X13975238Y-5625714D01*
X13970476Y-5616190D01*
X13965714Y-5597143D01*
X13965714Y-5573333D01*
X13970476Y-5554286D01*
X13975238Y-5544762D01*
X13980000Y-5540000D01*
X13989524Y-5535238D01*
X14118095Y-5635238D02*
X14060952Y-5635238D01*
X14089524Y-5635238D02*
X14089524Y-5535238D01*
X14080000Y-5549524D01*
X14070476Y-5559048D01*
X14060952Y-5563810D01*
X14151428Y-5535238D02*
X14213333Y-5535238D01*
X14180000Y-5573333D01*
X14194286Y-5573333D01*
X14203809Y-5578095D01*
X14208571Y-5582857D01*
X14213333Y-5592381D01*
X14213333Y-5616190D01*
X14208571Y-5625714D01*
X14203809Y-5630476D01*
X14194286Y-5635238D01*
X14165714Y-5635238D01*
X14156190Y-5630476D01*
X14151428Y-5625714D01*
X14270476Y-5535238D02*
X14270476Y-5559048D01*
X14246667Y-5549524D02*
X14270476Y-5559048D01*
X14294286Y-5549524D01*
X14256190Y-5578095D02*
X14270476Y-5559048D01*
X14284762Y-5578095D01*
X14375238Y-5568571D02*
X14375238Y-5635238D01*
X14351428Y-5530476D02*
X14327619Y-5601905D01*
X14389524Y-5601905D01*
D14*
X13787976Y-9569524D02*
X13799405Y-9574762D01*
X13818452Y-9574762D01*
X13826071Y-9569524D01*
X13829881Y-9564286D01*
X13833690Y-9553810D01*
X13833690Y-9543333D01*
X13829881Y-9532857D01*
X13826071Y-9527619D01*
X13818452Y-9522381D01*
X13803214Y-9517143D01*
X13795595Y-9511905D01*
X13791786Y-9506667D01*
X13787976Y-9496190D01*
X13787976Y-9485714D01*
X13791786Y-9475238D01*
X13795595Y-9470000D01*
X13803214Y-9464762D01*
X13822262Y-9464762D01*
X13833690Y-9470000D01*
X13860357Y-9464762D02*
X13879405Y-9574762D01*
X13894643Y-9496190D01*
X13909881Y-9574762D01*
X13928928Y-9464762D01*
X13959405Y-9574762D02*
X13959405Y-9464762D01*
X13978452Y-9464762D01*
X13989881Y-9470000D01*
X13997500Y-9480476D01*
X14001309Y-9490952D01*
X14005119Y-9511905D01*
X14005119Y-9527619D01*
X14001309Y-9548571D01*
X13997500Y-9559048D01*
X13989881Y-9569524D01*
X13978452Y-9574762D01*
X13959405Y-9574762D01*
X14039405Y-9574762D02*
X14039405Y-9464762D01*
X14092738Y-9464762D02*
X14107976Y-9464762D01*
X14115595Y-9470000D01*
X14123214Y-9480476D01*
X14127024Y-9501429D01*
X14127024Y-9538095D01*
X14123214Y-9559048D01*
X14115595Y-9569524D01*
X14107976Y-9574762D01*
X14092738Y-9574762D01*
X14085119Y-9569524D01*
X14077500Y-9559048D01*
X14073690Y-9538095D01*
X14073690Y-9501429D01*
X14077500Y-9480476D01*
X14085119Y-9470000D01*
X14092738Y-9464762D01*
X13771548Y-9317024D02*
X13782976Y-9322262D01*
X13802024Y-9322262D01*
X13809643Y-9317024D01*
X13813452Y-9311786D01*
X13817262Y-9301310D01*
X13817262Y-9290833D01*
X13813452Y-9280357D01*
X13809643Y-9275119D01*
X13802024Y-9269881D01*
X13786786Y-9264643D01*
X13779167Y-9259405D01*
X13775357Y-9254167D01*
X13771548Y-9243690D01*
X13771548Y-9233214D01*
X13775357Y-9222738D01*
X13779167Y-9217500D01*
X13786786Y-9212262D01*
X13805833Y-9212262D01*
X13817262Y-9217500D01*
X13843928Y-9212262D02*
X13862976Y-9322262D01*
X13878214Y-9243690D01*
X13893452Y-9322262D01*
X13912500Y-9212262D01*
X13988690Y-9311786D02*
X13984881Y-9317024D01*
X13973452Y-9322262D01*
X13965833Y-9322262D01*
X13954405Y-9317024D01*
X13946786Y-9306548D01*
X13942976Y-9296071D01*
X13939167Y-9275119D01*
X13939167Y-9259405D01*
X13942976Y-9238452D01*
X13946786Y-9227976D01*
X13954405Y-9217500D01*
X13965833Y-9212262D01*
X13973452Y-9212262D01*
X13984881Y-9217500D01*
X13988690Y-9222738D01*
X14061071Y-9322262D02*
X14022976Y-9322262D01*
X14022976Y-9212262D01*
X14087738Y-9322262D02*
X14087738Y-9212262D01*
X14133452Y-9322262D02*
X14099167Y-9259405D01*
X14133452Y-9212262D02*
X14087738Y-9275119D01*
D11*
X13928333Y-8954762D02*
X13955000Y-9064762D01*
X13981667Y-8954762D01*
X14008333Y-9064762D02*
X14008333Y-8954762D01*
X14027381Y-8954762D01*
X14038809Y-8960000D01*
X14046428Y-8970476D01*
X14050238Y-8980952D01*
X14054048Y-9001905D01*
X14054048Y-9017619D01*
X14050238Y-9038571D01*
X14046428Y-9049048D01*
X14038809Y-9059524D01*
X14027381Y-9064762D01*
X14008333Y-9064762D01*
X14088333Y-9064762D02*
X14088333Y-8954762D01*
X14107381Y-8954762D01*
X14118809Y-8960000D01*
X14126428Y-8970476D01*
X14130238Y-8980952D01*
X14134048Y-9001905D01*
X14134048Y-9017619D01*
X14130238Y-9038571D01*
X14126428Y-9049048D01*
X14118809Y-9059524D01*
X14107381Y-9064762D01*
X14088333Y-9064762D01*
D15*
X13966548Y-8702500D02*
X13958928Y-8697262D01*
X13947500Y-8697262D01*
X13936071Y-8702500D01*
X13928452Y-8712976D01*
X13924643Y-8723452D01*
X13920833Y-8744405D01*
X13920833Y-8760119D01*
X13924643Y-8781071D01*
X13928452Y-8791548D01*
X13936071Y-8802024D01*
X13947500Y-8807262D01*
X13955119Y-8807262D01*
X13966548Y-8802024D01*
X13970357Y-8796786D01*
X13970357Y-8760119D01*
X13955119Y-8760119D01*
X14004643Y-8807262D02*
X14004643Y-8697262D01*
X14050357Y-8807262D01*
X14050357Y-8697262D01*
X14088452Y-8807262D02*
X14088452Y-8697262D01*
X14107500Y-8697262D01*
X14118928Y-8702500D01*
X14126548Y-8712976D01*
X14130357Y-8723452D01*
X14134167Y-8744405D01*
X14134167Y-8760119D01*
X14130357Y-8781071D01*
X14126548Y-8791548D01*
X14118928Y-8802024D01*
X14107500Y-8807262D01*
X14088452Y-8807262D01*
D14*
X10501905Y-14405714D02*
X10635238Y-14405714D01*
X10501905Y-14705714D01*
X10635238Y-14705714D01*
X10711429Y-14705714D02*
X10711429Y-14405714D01*
X10711429Y-14548571D02*
X10825714Y-14548571D01*
X10825714Y-14705714D02*
X10825714Y-14405714D01*
X10911429Y-14620000D02*
X11006667Y-14620000D01*
X10892381Y-14705714D02*
X10959048Y-14405714D01*
X11025714Y-14705714D01*
X11130476Y-14405714D02*
X11168571Y-14405714D01*
X11187619Y-14420000D01*
X11206667Y-14448571D01*
X11216190Y-14505714D01*
X11216190Y-14605714D01*
X11206667Y-14662857D01*
X11187619Y-14691428D01*
X11168571Y-14705714D01*
X11130476Y-14705714D01*
X11111429Y-14691428D01*
X11092381Y-14662857D01*
X11082857Y-14605714D01*
X11082857Y-14505714D01*
X11092381Y-14448571D01*
X11111429Y-14420000D01*
X11130476Y-14405714D01*
X11549524Y-14705714D02*
X11454286Y-14705714D01*
X11454286Y-14405714D01*
X11606667Y-14620000D02*
X11701905Y-14620000D01*
X11587619Y-14705714D02*
X11654286Y-14405714D01*
X11720952Y-14705714D01*
X11787619Y-14705714D02*
X11787619Y-14405714D01*
X11901905Y-14705714D01*
X11901905Y-14405714D01*
X12101905Y-14420000D02*
X12082857Y-14405714D01*
X12054286Y-14405714D01*
X12025714Y-14420000D01*
X12006667Y-14448571D01*
X11997143Y-14477143D01*
X11987619Y-14534286D01*
X11987619Y-14577143D01*
X11997143Y-14634286D01*
X12006667Y-14662857D01*
X12025714Y-14691428D01*
X12054286Y-14705714D01*
X12073333Y-14705714D01*
X12101905Y-14691428D01*
X12111428Y-14677143D01*
X12111428Y-14577143D01*
X12073333Y-14577143D01*
X12178095Y-14405714D02*
X12311428Y-14405714D01*
X12178095Y-14705714D01*
X12311428Y-14705714D01*
X12387619Y-14705714D02*
X12387619Y-14405714D01*
X12387619Y-14548571D02*
X12501905Y-14548571D01*
X12501905Y-14705714D02*
X12501905Y-14405714D01*
X12635238Y-14405714D02*
X12673333Y-14405714D01*
X12692381Y-14420000D01*
X12711428Y-14448571D01*
X12720952Y-14505714D01*
X12720952Y-14605714D01*
X12711428Y-14662857D01*
X12692381Y-14691428D01*
X12673333Y-14705714D01*
X12635238Y-14705714D01*
X12616190Y-14691428D01*
X12597143Y-14662857D01*
X12587619Y-14605714D01*
X12587619Y-14505714D01*
X12597143Y-14448571D01*
X12616190Y-14420000D01*
X12635238Y-14405714D01*
X12806667Y-14405714D02*
X12806667Y-14648571D01*
X12816190Y-14677143D01*
X12825714Y-14691428D01*
X12844762Y-14705714D01*
X12882857Y-14705714D01*
X12901905Y-14691428D01*
X12911428Y-14677143D01*
X12920952Y-14648571D01*
X12920952Y-14405714D01*
X13425714Y-14705714D02*
X13311428Y-14705714D01*
X13368571Y-14705714D02*
X13368571Y-14405714D01*
X13349524Y-14448571D01*
X13330476Y-14477143D01*
X13311428Y-14491428D01*
X13520952Y-14705714D02*
X13559048Y-14705714D01*
X13578095Y-14691428D01*
X13587619Y-14677143D01*
X13606667Y-14634286D01*
X13616190Y-14577143D01*
X13616190Y-14462857D01*
X13606667Y-14434286D01*
X13597143Y-14420000D01*
X13578095Y-14405714D01*
X13540000Y-14405714D01*
X13520952Y-14420000D01*
X13511428Y-14434286D01*
X13501905Y-14462857D01*
X13501905Y-14534286D01*
X13511428Y-14562857D01*
X13520952Y-14577143D01*
X13540000Y-14591428D01*
X13578095Y-14591428D01*
X13597143Y-14577143D01*
X13606667Y-14562857D01*
X13616190Y-14534286D01*
X13797143Y-14405714D02*
X13701905Y-14405714D01*
X13692381Y-14548571D01*
X13701905Y-14534286D01*
X13720952Y-14520000D01*
X13768571Y-14520000D01*
X13787619Y-14534286D01*
X13797143Y-14548571D01*
X13806667Y-14577143D01*
X13806667Y-14648571D01*
X13797143Y-14677143D01*
X13787619Y-14691428D01*
X13768571Y-14705714D01*
X13720952Y-14705714D01*
X13701905Y-14691428D01*
X13692381Y-14677143D01*
X13930476Y-14405714D02*
X13949524Y-14405714D01*
X13968571Y-14420000D01*
X13978095Y-14434286D01*
X13987619Y-14462857D01*
X13997143Y-14520000D01*
X13997143Y-14591428D01*
X13987619Y-14648571D01*
X13978095Y-14677143D01*
X13968571Y-14691428D01*
X13949524Y-14705714D01*
X13930476Y-14705714D01*
X13911428Y-14691428D01*
X13901905Y-14677143D01*
X13892381Y-14648571D01*
X13882857Y-14591428D01*
X13882857Y-14520000D01*
X13892381Y-14462857D01*
X13901905Y-14434286D01*
X13911428Y-14420000D01*
X13930476Y-14405714D01*
X14120952Y-14405714D02*
X14140000Y-14405714D01*
X14159048Y-14420000D01*
X14168571Y-14434286D01*
X14178095Y-14462857D01*
X14187619Y-14520000D01*
X14187619Y-14591428D01*
X14178095Y-14648571D01*
X14168571Y-14677143D01*
X14159048Y-14691428D01*
X14140000Y-14705714D01*
X14120952Y-14705714D01*
X14101905Y-14691428D01*
X14092381Y-14677143D01*
X14082857Y-14648571D01*
X14073333Y-14591428D01*
X14073333Y-14520000D01*
X14082857Y-14462857D01*
X14092381Y-14434286D01*
X14101905Y-14420000D01*
X14120952Y-14405714D01*
X14368571Y-14405714D02*
X14273333Y-14405714D01*
X14263809Y-14548571D01*
X14273333Y-14534286D01*
X14292381Y-14520000D01*
X14340000Y-14520000D01*
X14359048Y-14534286D01*
X14368571Y-14548571D01*
X14378095Y-14577143D01*
X14378095Y-14648571D01*
X14368571Y-14677143D01*
X14359048Y-14691428D01*
X14340000Y-14705714D01*
X14292381Y-14705714D01*
X14273333Y-14691428D01*
X14263809Y-14677143D01*
X14444762Y-14405714D02*
X14568571Y-14405714D01*
X14501905Y-14520000D01*
X14530476Y-14520000D01*
X14549524Y-14534286D01*
X14559048Y-14548571D01*
X14568571Y-14577143D01*
X14568571Y-14648571D01*
X14559048Y-14677143D01*
X14549524Y-14691428D01*
X14530476Y-14705714D01*
X14473333Y-14705714D01*
X14454286Y-14691428D01*
X14444762Y-14677143D01*
D12*
G04 #@! TO.C,R16*
X11941000Y-7986500D02*
X11821000Y-7986500D01*
G04 #@! TO.C,R34*
X12584000Y-7982000D02*
X12464000Y-7982000D01*
G04 #@! TO.C,R33*
X12369667Y-7981500D02*
X12249667Y-7981500D01*
G04 #@! TO.C,R32*
X12155333Y-7981500D02*
X12035333Y-7981500D01*
G04 #@! TO.C,D6*
X11557000Y-7788000D02*
X11288500Y-7788000D01*
X11288500Y-7788000D02*
X11288500Y-7980000D01*
X11288500Y-7980000D02*
X11557000Y-7980000D01*
G04 #@! TO.C,D5*
X12722750Y-6326000D02*
X12991250Y-6326000D01*
X12991250Y-6326000D02*
X12991250Y-6134000D01*
X12991250Y-6134000D02*
X12722750Y-6134000D01*
G04 #@! TO.C,D4*
X12722750Y-6088000D02*
X12991250Y-6088000D01*
X12991250Y-6088000D02*
X12991250Y-5896000D01*
X12991250Y-5896000D02*
X12722750Y-5896000D01*
G04 #@! TO.C,D3*
X12722750Y-5841000D02*
X12991250Y-5841000D01*
X12991250Y-5841000D02*
X12991250Y-5649000D01*
X12991250Y-5649000D02*
X12722750Y-5649000D01*
G04 #@! TO.C,R31*
X6961500Y-13679000D02*
X6961500Y-13559000D01*
G04 #@! TO.C,R30*
X6111500Y-13686000D02*
X6111500Y-13566000D01*
G04 #@! TO.C,D2*
X6801500Y-13952000D02*
X7070000Y-13952000D01*
X6801500Y-13760000D02*
X6801500Y-13952000D01*
X7070000Y-13760000D02*
X6801500Y-13760000D01*
G04 #@! TO.C,D1*
X5950500Y-13952000D02*
X6219000Y-13952000D01*
X5950500Y-13760000D02*
X5950500Y-13952000D01*
X6219000Y-13760000D02*
X5950500Y-13760000D01*
D16*
G04 #@! TO.C,SW5*
G36*
X8495000Y-12346000D02*
G01*
X8595000Y-12346000D01*
X8545000Y-12396000D01*
X8495000Y-12346000D01*
G37*
X8495000Y-12346000D02*
X8595000Y-12346000D01*
X8545000Y-12396000D01*
X8495000Y-12346000D01*
D12*
X8055000Y-13006000D02*
X8075000Y-13006000D01*
X8055000Y-12426000D02*
X8055000Y-13006000D01*
X8075000Y-12426000D02*
X8055000Y-12426000D01*
X8635000Y-13006000D02*
X8635000Y-12426000D01*
X8615000Y-13006000D02*
X8635000Y-13006000D01*
G04 #@! TO.C,SW4*
X11755000Y-8320000D02*
X11755000Y-8300000D01*
X11755000Y-8300000D02*
X11175000Y-8300000D01*
X11175000Y-8860000D02*
X11175000Y-8880000D01*
X11175000Y-8880000D02*
X11755000Y-8880000D01*
X11755000Y-8880000D02*
X11755000Y-8860000D01*
D16*
G36*
X11095000Y-8440000D02*
G01*
X11095000Y-8340000D01*
X11145000Y-8390000D01*
X11095000Y-8440000D01*
G37*
X11095000Y-8440000D02*
X11095000Y-8340000D01*
X11145000Y-8390000D01*
X11095000Y-8440000D01*
D12*
G04 #@! TO.C,R28*
X6970500Y-11145000D02*
X6970500Y-11265000D01*
G04 #@! TO.C,J3*
X7350000Y-14764000D02*
X7350000Y-14167000D01*
X7350000Y-14167000D02*
X6588000Y-14167000D01*
X6588000Y-14167000D02*
X6588000Y-14764000D01*
X6588000Y-14764000D02*
X7350000Y-14764000D01*
X7019000Y-14763000D02*
X7019000Y-14688000D01*
X7019000Y-14688000D02*
X6919000Y-14688000D01*
X6919000Y-14688000D02*
X6919000Y-14763000D01*
X6919000Y-14763000D02*
X7019000Y-14763000D01*
X7349000Y-14763000D02*
X7349000Y-14688000D01*
X7349000Y-14688000D02*
X7169000Y-14688000D01*
X7169000Y-14688000D02*
X7169000Y-14763000D01*
X7169000Y-14763000D02*
X7349000Y-14763000D01*
X6769000Y-14763000D02*
X6769000Y-14688000D01*
X6769000Y-14688000D02*
X6589000Y-14688000D01*
X6589000Y-14688000D02*
X6589000Y-14763000D01*
X6589000Y-14763000D02*
X6769000Y-14763000D01*
X7349000Y-14538000D02*
X7274000Y-14538000D01*
X7274000Y-14538000D02*
X7274000Y-14243000D01*
X7274000Y-14243000D02*
X6969000Y-14243000D01*
X6589000Y-14538000D02*
X6664000Y-14538000D01*
X6664000Y-14538000D02*
X6664000Y-14243000D01*
X6664000Y-14243000D02*
X6969000Y-14243000D01*
X7254000Y-14793000D02*
X7379000Y-14793000D01*
X7379000Y-14793000D02*
X7379000Y-14668000D01*
D17*
G04 #@! TO.C,SW2*
X11249800Y-11532000D02*
G75*
G03*
X11249800Y-11532000I-56800J0D01*
G01*
X11293000Y-11532000D02*
G75*
G03*
X11293000Y-11532000I-100000J0D01*
G01*
X11503000Y-11712000D02*
X11503000Y-11613900D01*
X10883000Y-11712000D02*
X11503000Y-11712000D01*
X10883000Y-11712000D02*
X10883000Y-11613900D01*
X11503000Y-11352000D02*
X10883000Y-11352000D01*
X10883000Y-11352000D02*
X10883000Y-11450100D01*
X11503000Y-11352000D02*
X11503000Y-11450100D01*
G04 #@! TO.C,SW1*
X10251800Y-11530000D02*
G75*
G03*
X10251800Y-11530000I-56800J0D01*
G01*
X10295000Y-11530000D02*
G75*
G03*
X10295000Y-11530000I-100000J0D01*
G01*
X9885000Y-11350000D02*
X9885000Y-11448100D01*
X10505000Y-11350000D02*
X9885000Y-11350000D01*
X10505000Y-11350000D02*
X10505000Y-11448100D01*
X9885000Y-11710000D02*
X10505000Y-11710000D01*
X10505000Y-11710000D02*
X10505000Y-11611900D01*
X9885000Y-11710000D02*
X9885000Y-11611900D01*
D12*
G04 #@! TO.C,R14*
X10912500Y-11189000D02*
X10912500Y-11069000D01*
G04 #@! TO.C,R13*
X10473500Y-11064000D02*
X10473500Y-11184000D01*
G04 #@! TO.C,Y1*
X9215000Y-8795000D02*
X9215000Y-10055000D01*
X9725000Y-8795000D02*
X9215000Y-8795000D01*
X9725000Y-10055000D02*
X9725000Y-8795000D01*
G04 #@! TO.C,U2*
X10569850Y-9371800D02*
X10440850Y-9371800D01*
X10569850Y-9326800D02*
X10569850Y-9371800D01*
X10614850Y-9326800D02*
X10569850Y-9326800D01*
X11291850Y-9326800D02*
X11291850Y-9371800D01*
X11246850Y-9326800D02*
X11291850Y-9326800D01*
X10569850Y-10048800D02*
X10569850Y-10003800D01*
X10614850Y-10048800D02*
X10569850Y-10048800D01*
X11291850Y-10048800D02*
X11291850Y-10003800D01*
X11246850Y-10048800D02*
X11291850Y-10048800D01*
G04 #@! TO.C,Q4*
X13876200Y-6241000D02*
X14236200Y-6241000D01*
X14288618Y-6168279D02*
G75*
G02*
X14236200Y-6241000I-232418J112280D01*
G01*
X14291840Y-5946119D02*
G75*
G03*
X14056200Y-5796000I-235640J-109881D01*
G01*
X13820560Y-5946119D02*
G75*
G02*
X14056200Y-5796000I235640J-109881D01*
G01*
X13823782Y-6168279D02*
G75*
G03*
X13876200Y-6241000I232418J112280D01*
G01*
G04 #@! TO.C,U1*
X9333400Y-7525600D02*
X9533400Y-7525600D01*
X12595400Y-5576600D02*
X7541400Y-5576600D01*
X12595400Y-7500600D02*
X12595400Y-5576600D01*
X7541400Y-7500600D02*
X12595400Y-7500600D01*
X7541400Y-7500600D02*
X7541400Y-5576600D01*
G04 #@! TO.C,U4*
X5741000Y-11394500D02*
X6101000Y-11394500D01*
X6153418Y-11321779D02*
G75*
G02*
X6101000Y-11394500I-232418J112280D01*
G01*
X6156640Y-11099619D02*
G75*
G03*
X5921000Y-10949500I-235640J-109881D01*
G01*
X5685360Y-11099619D02*
G75*
G02*
X5921000Y-10949500I235640J-109881D01*
G01*
X5688582Y-11321779D02*
G75*
G03*
X5741000Y-11394500I232418J112280D01*
G01*
G04 #@! TO.C,U3*
X6936800Y-12467800D02*
X6591800Y-12467800D01*
X6936800Y-12467800D02*
X7131800Y-12467800D01*
X6936800Y-13354800D02*
X6741800Y-13354800D01*
X6936800Y-13354800D02*
X7131800Y-13354800D01*
G04 #@! TO.C,U6*
X13849500Y-11581100D02*
X14194500Y-11581100D01*
X13849500Y-11581100D02*
X13654500Y-11581100D01*
X13849500Y-11069100D02*
X14044500Y-11069100D01*
X13849500Y-11069100D02*
X13654500Y-11069100D01*
G04 #@! TO.C,U5*
X13714400Y-13713800D02*
X13113400Y-13713800D01*
X13489400Y-13031800D02*
X13113400Y-13031800D01*
X13113400Y-13713800D02*
X13113400Y-13587800D01*
X13113400Y-13031800D02*
X13113400Y-13157800D01*
D16*
G04 #@! TO.C,SW6*
G36*
X13801400Y-12608400D02*
G01*
X13701400Y-12608400D01*
X13751400Y-12558400D01*
X13801400Y-12608400D01*
G37*
X13801400Y-12608400D02*
X13701400Y-12608400D01*
X13751400Y-12558400D01*
X13801400Y-12608400D01*
D12*
X14241400Y-11948400D02*
X14221400Y-11948400D01*
X14241400Y-12528400D02*
X14241400Y-11948400D01*
X14221400Y-12528400D02*
X14241400Y-12528400D01*
X13661400Y-11948400D02*
X13661400Y-12528400D01*
X13681400Y-11948400D02*
X13661400Y-11948400D01*
G04 #@! TO.C,RV2*
X7865500Y-11460000D02*
X7865500Y-10953000D01*
X8842500Y-11460000D02*
X8842500Y-10953000D01*
X8842500Y-10953000D02*
X7865500Y-10953000D01*
X8842500Y-11460000D02*
X7865500Y-11460000D01*
G04 #@! TO.C,RV1*
X7865500Y-12017500D02*
X7865500Y-11510500D01*
X8842500Y-12017500D02*
X8842500Y-11510500D01*
X8842500Y-11510500D02*
X7865500Y-11510500D01*
X8842500Y-12017500D02*
X7865500Y-12017500D01*
G04 #@! TO.C,R29*
X7284000Y-12347000D02*
X7284000Y-12227000D01*
G04 #@! TO.C,R27*
X7745000Y-13352000D02*
X7745000Y-13232000D01*
G04 #@! TO.C,R26*
X7285000Y-12097000D02*
X7285000Y-11977000D01*
G04 #@! TO.C,R25*
X6583700Y-11549500D02*
X6583700Y-11429500D01*
G04 #@! TO.C,R24*
X6018300Y-13352300D02*
X6018300Y-13232300D01*
G04 #@! TO.C,R23*
X6581900Y-11877500D02*
X6581900Y-11757500D01*
G04 #@! TO.C,R22*
X6018300Y-12549500D02*
X6018300Y-12429500D01*
G04 #@! TO.C,R21*
X6583700Y-12145500D02*
X6583700Y-12025500D01*
G04 #@! TO.C,R20*
X6969500Y-10893000D02*
X6969500Y-11013000D01*
G04 #@! TO.C,R18*
X6018300Y-11929500D02*
X6018300Y-12049500D01*
G04 #@! TO.C,R17*
X6018300Y-12299500D02*
X6018300Y-12179500D01*
G04 #@! TO.C,J2*
X6528000Y-14793000D02*
X6528000Y-14668000D01*
X6403000Y-14793000D02*
X6528000Y-14793000D01*
X5813000Y-14243000D02*
X6118000Y-14243000D01*
X5813000Y-14538000D02*
X5813000Y-14243000D01*
X5738000Y-14538000D02*
X5813000Y-14538000D01*
X6423000Y-14243000D02*
X6118000Y-14243000D01*
X6423000Y-14538000D02*
X6423000Y-14243000D01*
X6498000Y-14538000D02*
X6423000Y-14538000D01*
X5738000Y-14763000D02*
X5918000Y-14763000D01*
X5738000Y-14688000D02*
X5738000Y-14763000D01*
X5918000Y-14688000D02*
X5738000Y-14688000D01*
X5918000Y-14763000D02*
X5918000Y-14688000D01*
X6318000Y-14763000D02*
X6498000Y-14763000D01*
X6318000Y-14688000D02*
X6318000Y-14763000D01*
X6498000Y-14688000D02*
X6318000Y-14688000D01*
X6498000Y-14763000D02*
X6498000Y-14688000D01*
X6068000Y-14763000D02*
X6168000Y-14763000D01*
X6068000Y-14688000D02*
X6068000Y-14763000D01*
X6168000Y-14688000D02*
X6068000Y-14688000D01*
X6168000Y-14763000D02*
X6168000Y-14688000D01*
X5737000Y-14764000D02*
X6499000Y-14764000D01*
X5737000Y-14167000D02*
X5737000Y-14764000D01*
X6499000Y-14167000D02*
X5737000Y-14167000D01*
X6499000Y-14764000D02*
X6499000Y-14167000D01*
G04 #@! TO.C,C16*
X13140000Y-11632500D02*
X13260000Y-11632500D01*
G04 #@! TO.C,C15*
X13260000Y-11017500D02*
X13140000Y-11017500D01*
G04 #@! TO.C,R19*
X11006000Y-8700500D02*
X10886000Y-8700500D01*
G04 #@! TO.C,R15*
X9609400Y-10524800D02*
X9489400Y-10524800D01*
G04 #@! TO.C,R12*
X13394900Y-6300800D02*
X13394900Y-6420800D01*
G04 #@! TO.C,R11*
X13394900Y-6961200D02*
X13394900Y-7081200D01*
G04 #@! TO.C,R10*
X13394900Y-7621600D02*
X13394900Y-7741600D01*
G04 #@! TO.C,R9*
X13394900Y-8282000D02*
X13394900Y-8402000D01*
G04 #@! TO.C,R8*
X9881400Y-7838100D02*
X10001400Y-7838100D01*
G04 #@! TO.C,R7*
X10389400Y-7838100D02*
X10509400Y-7838100D01*
G04 #@! TO.C,R6*
X10643400Y-7838100D02*
X10763400Y-7838100D01*
G04 #@! TO.C,R5*
X9373400Y-7838100D02*
X9493400Y-7838100D01*
G04 #@! TO.C,R4*
X9627400Y-7838100D02*
X9747400Y-7838100D01*
G04 #@! TO.C,R3*
X10135400Y-7838100D02*
X10255400Y-7838100D01*
G04 #@! TO.C,R2*
X10897400Y-7838100D02*
X11017400Y-7838100D01*
G04 #@! TO.C,R1*
X9119400Y-7838100D02*
X9239400Y-7838100D01*
G04 #@! TO.C,C14*
X14055300Y-13636000D02*
X14055300Y-13516000D01*
G04 #@! TO.C,C13*
X14055000Y-13432800D02*
X14055000Y-13312800D01*
G04 #@! TO.C,C12*
X14050000Y-12999600D02*
X14050000Y-12879600D01*
G04 #@! TO.C,C11*
X14050000Y-13202800D02*
X14050000Y-13082800D01*
G04 #@! TO.C,C10*
X6018300Y-12978300D02*
X6018300Y-13098300D01*
G04 #@! TO.C,C9*
X6018300Y-12729500D02*
X6018300Y-12849500D01*
G04 #@! TO.C,C8*
X9794200Y-9763700D02*
X9914200Y-9763700D01*
G04 #@! TO.C,C7*
X9914200Y-9204000D02*
X9794200Y-9204000D01*
G04 #@! TO.C,C6*
X9794200Y-10524800D02*
X9914200Y-10524800D01*
G04 #@! TO.C,C5*
X10140000Y-10424100D02*
X10260000Y-10424100D01*
G04 #@! TO.C,C4*
X10263000Y-9905500D02*
X10143000Y-9905500D01*
G04 #@! TO.C,C3*
X10655000Y-8712500D02*
X10535000Y-8712500D01*
G04 #@! TO.C,C2*
X11696500Y-9461000D02*
X11696500Y-9341000D01*
G04 #@! TO.C,C1*
X11340000Y-10502500D02*
X11460000Y-10502500D01*
G04 #@! TO.C,Q3*
X13876200Y-6901400D02*
X14236200Y-6901400D01*
X14288618Y-6828679D02*
G75*
G02*
X14236200Y-6901400I-232418J112280D01*
G01*
X14291840Y-6606519D02*
G75*
G03*
X14056200Y-6456400I-235640J-109881D01*
G01*
X13820560Y-6606519D02*
G75*
G02*
X14056200Y-6456400I235640J-109881D01*
G01*
X13823782Y-6828679D02*
G75*
G03*
X13876200Y-6901400I232418J112280D01*
G01*
G04 #@! TO.C,Q2*
X13876200Y-7561800D02*
X14236200Y-7561800D01*
X14288618Y-7489079D02*
G75*
G02*
X14236200Y-7561800I-232418J112280D01*
G01*
X14291840Y-7266919D02*
G75*
G03*
X14056200Y-7116800I-235640J-109881D01*
G01*
X13820560Y-7266919D02*
G75*
G02*
X14056200Y-7116800I235640J-109881D01*
G01*
X13823782Y-7489079D02*
G75*
G03*
X13876200Y-7561800I232418J112280D01*
G01*
G04 #@! TO.C,Q1*
X13876200Y-8222200D02*
X14236200Y-8222200D01*
X14288618Y-8149479D02*
G75*
G02*
X14236200Y-8222200I-232418J112280D01*
G01*
X14291840Y-7927319D02*
G75*
G03*
X14056200Y-7777200I-235640J-109881D01*
G01*
X13820560Y-7927319D02*
G75*
G02*
X14056200Y-7777200I235640J-109881D01*
G01*
X13823782Y-8149479D02*
G75*
G03*
X13876200Y-8222200I232418J112280D01*
G01*
G04 #@! TO.C,J4*
X14545600Y-11772600D02*
X14545600Y-11706600D01*
X14718600Y-11772600D02*
X14545600Y-11772600D01*
X14975600Y-11010600D02*
X14954600Y-11010600D01*
X14975600Y-11772600D02*
X14954600Y-11772600D01*
X14718600Y-11010600D02*
X14545600Y-11010600D01*
X14545600Y-11010600D02*
X14545600Y-11075600D01*
X14475600Y-11567600D02*
X14475600Y-11522600D01*
X14475600Y-11567600D02*
X14514600Y-11567600D01*
G04 #@! TO.C,J1*
X14443000Y-9648000D02*
X14310000Y-9648000D01*
X14443000Y-9515000D02*
X14443000Y-9648000D01*
X14443000Y-9388000D02*
X14177000Y-9388000D01*
X14177000Y-9388000D02*
X14177000Y-8620000D01*
X14443000Y-9388000D02*
X14443000Y-8620000D01*
X14443000Y-8620000D02*
X14177000Y-8620000D01*
G04 #@! TO.C,R16*
D13*
X11926238Y-7730286D02*
X11878619Y-7763619D01*
X11926238Y-7787428D02*
X11826238Y-7787428D01*
X11826238Y-7749333D01*
X11831000Y-7739809D01*
X11835762Y-7735048D01*
X11845286Y-7730286D01*
X11859571Y-7730286D01*
X11869095Y-7735048D01*
X11873857Y-7739809D01*
X11878619Y-7749333D01*
X11878619Y-7787428D01*
X11926238Y-7635048D02*
X11926238Y-7692190D01*
X11926238Y-7663619D02*
X11826238Y-7663619D01*
X11840524Y-7673143D01*
X11850048Y-7682667D01*
X11854809Y-7692190D01*
X11826238Y-7549333D02*
X11826238Y-7568381D01*
X11831000Y-7577905D01*
X11835762Y-7582667D01*
X11850048Y-7592190D01*
X11869095Y-7596952D01*
X11907190Y-7596952D01*
X11916714Y-7592190D01*
X11921476Y-7587428D01*
X11926238Y-7577905D01*
X11926238Y-7558857D01*
X11921476Y-7549333D01*
X11916714Y-7544571D01*
X11907190Y-7539809D01*
X11883381Y-7539809D01*
X11873857Y-7544571D01*
X11869095Y-7549333D01*
X11864333Y-7558857D01*
X11864333Y-7577905D01*
X11869095Y-7587428D01*
X11873857Y-7592190D01*
X11883381Y-7596952D01*
G04 #@! TO.C,R34*
X12569238Y-7718786D02*
X12521619Y-7752119D01*
X12569238Y-7775928D02*
X12469238Y-7775928D01*
X12469238Y-7737833D01*
X12474000Y-7728309D01*
X12478762Y-7723548D01*
X12488286Y-7718786D01*
X12502571Y-7718786D01*
X12512095Y-7723548D01*
X12516857Y-7728309D01*
X12521619Y-7737833D01*
X12521619Y-7775928D01*
X12469238Y-7685452D02*
X12469238Y-7623548D01*
X12507333Y-7656881D01*
X12507333Y-7642595D01*
X12512095Y-7633071D01*
X12516857Y-7628309D01*
X12526381Y-7623548D01*
X12550190Y-7623548D01*
X12559714Y-7628309D01*
X12564476Y-7633071D01*
X12569238Y-7642595D01*
X12569238Y-7671167D01*
X12564476Y-7680690D01*
X12559714Y-7685452D01*
X12502571Y-7537833D02*
X12569238Y-7537833D01*
X12464476Y-7561643D02*
X12535905Y-7585452D01*
X12535905Y-7523548D01*
G04 #@! TO.C,R33*
X12354905Y-7723286D02*
X12307286Y-7756619D01*
X12354905Y-7780428D02*
X12254905Y-7780428D01*
X12254905Y-7742333D01*
X12259667Y-7732809D01*
X12264428Y-7728048D01*
X12273952Y-7723286D01*
X12288238Y-7723286D01*
X12297762Y-7728048D01*
X12302524Y-7732809D01*
X12307286Y-7742333D01*
X12307286Y-7780428D01*
X12254905Y-7689952D02*
X12254905Y-7628048D01*
X12293000Y-7661381D01*
X12293000Y-7647095D01*
X12297762Y-7637571D01*
X12302524Y-7632809D01*
X12312047Y-7628048D01*
X12335857Y-7628048D01*
X12345381Y-7632809D01*
X12350143Y-7637571D01*
X12354905Y-7647095D01*
X12354905Y-7675667D01*
X12350143Y-7685190D01*
X12345381Y-7689952D01*
X12254905Y-7594714D02*
X12254905Y-7532809D01*
X12293000Y-7566143D01*
X12293000Y-7551857D01*
X12297762Y-7542333D01*
X12302524Y-7537571D01*
X12312047Y-7532809D01*
X12335857Y-7532809D01*
X12345381Y-7537571D01*
X12350143Y-7542333D01*
X12354905Y-7551857D01*
X12354905Y-7580428D01*
X12350143Y-7589952D01*
X12345381Y-7594714D01*
G04 #@! TO.C,R32*
X12145571Y-7731786D02*
X12097952Y-7765119D01*
X12145571Y-7788928D02*
X12045571Y-7788928D01*
X12045571Y-7750833D01*
X12050333Y-7741309D01*
X12055095Y-7736548D01*
X12064619Y-7731786D01*
X12078905Y-7731786D01*
X12088428Y-7736548D01*
X12093190Y-7741309D01*
X12097952Y-7750833D01*
X12097952Y-7788928D01*
X12045571Y-7698452D02*
X12045571Y-7636548D01*
X12083667Y-7669881D01*
X12083667Y-7655595D01*
X12088428Y-7646071D01*
X12093190Y-7641309D01*
X12102714Y-7636548D01*
X12126524Y-7636548D01*
X12136047Y-7641309D01*
X12140809Y-7646071D01*
X12145571Y-7655595D01*
X12145571Y-7684167D01*
X12140809Y-7693690D01*
X12136047Y-7698452D01*
X12055095Y-7598452D02*
X12050333Y-7593690D01*
X12045571Y-7584167D01*
X12045571Y-7560357D01*
X12050333Y-7550833D01*
X12055095Y-7546071D01*
X12064619Y-7541309D01*
X12074143Y-7541309D01*
X12088428Y-7546071D01*
X12145571Y-7603214D01*
X12145571Y-7541309D01*
G04 #@! TO.C,D6*
X11383190Y-7764238D02*
X11383190Y-7664238D01*
X11407000Y-7664238D01*
X11421286Y-7669000D01*
X11430809Y-7678524D01*
X11435571Y-7688048D01*
X11440333Y-7707095D01*
X11440333Y-7721381D01*
X11435571Y-7740428D01*
X11430809Y-7749952D01*
X11421286Y-7759476D01*
X11407000Y-7764238D01*
X11383190Y-7764238D01*
X11526048Y-7664238D02*
X11507000Y-7664238D01*
X11497476Y-7669000D01*
X11492714Y-7673762D01*
X11483190Y-7688048D01*
X11478428Y-7707095D01*
X11478428Y-7745190D01*
X11483190Y-7754714D01*
X11487952Y-7759476D01*
X11497476Y-7764238D01*
X11516524Y-7764238D01*
X11526048Y-7759476D01*
X11530809Y-7754714D01*
X11535571Y-7745190D01*
X11535571Y-7721381D01*
X11530809Y-7711857D01*
X11526048Y-7707095D01*
X11516524Y-7702333D01*
X11497476Y-7702333D01*
X11487952Y-7707095D01*
X11483190Y-7711857D01*
X11478428Y-7721381D01*
G04 #@! TO.C,D5*
X12389190Y-6280238D02*
X12389190Y-6180238D01*
X12413000Y-6180238D01*
X12427286Y-6185000D01*
X12436809Y-6194524D01*
X12441571Y-6204048D01*
X12446333Y-6223095D01*
X12446333Y-6237381D01*
X12441571Y-6256428D01*
X12436809Y-6265952D01*
X12427286Y-6275476D01*
X12413000Y-6280238D01*
X12389190Y-6280238D01*
X12536809Y-6180238D02*
X12489190Y-6180238D01*
X12484428Y-6227857D01*
X12489190Y-6223095D01*
X12498714Y-6218333D01*
X12522524Y-6218333D01*
X12532048Y-6223095D01*
X12536809Y-6227857D01*
X12541571Y-6237381D01*
X12541571Y-6261190D01*
X12536809Y-6270714D01*
X12532048Y-6275476D01*
X12522524Y-6280238D01*
X12498714Y-6280238D01*
X12489190Y-6275476D01*
X12484428Y-6270714D01*
G04 #@! TO.C,D4*
X12393190Y-6052238D02*
X12393190Y-5952238D01*
X12417000Y-5952238D01*
X12431286Y-5957000D01*
X12440809Y-5966524D01*
X12445571Y-5976048D01*
X12450333Y-5995095D01*
X12450333Y-6009381D01*
X12445571Y-6028428D01*
X12440809Y-6037952D01*
X12431286Y-6047476D01*
X12417000Y-6052238D01*
X12393190Y-6052238D01*
X12536048Y-5985571D02*
X12536048Y-6052238D01*
X12512238Y-5947476D02*
X12488428Y-6018905D01*
X12550333Y-6018905D01*
G04 #@! TO.C,D3*
X12389190Y-5798238D02*
X12389190Y-5698238D01*
X12413000Y-5698238D01*
X12427286Y-5703000D01*
X12436809Y-5712524D01*
X12441571Y-5722048D01*
X12446333Y-5741095D01*
X12446333Y-5755381D01*
X12441571Y-5774428D01*
X12436809Y-5783952D01*
X12427286Y-5793476D01*
X12413000Y-5798238D01*
X12389190Y-5798238D01*
X12479667Y-5698238D02*
X12541571Y-5698238D01*
X12508238Y-5736333D01*
X12522524Y-5736333D01*
X12532048Y-5741095D01*
X12536809Y-5745857D01*
X12541571Y-5755381D01*
X12541571Y-5779190D01*
X12536809Y-5788714D01*
X12532048Y-5793476D01*
X12522524Y-5798238D01*
X12493952Y-5798238D01*
X12484428Y-5793476D01*
X12479667Y-5788714D01*
G04 #@! TO.C,R31*
X7253714Y-13664238D02*
X7220381Y-13616619D01*
X7196571Y-13664238D02*
X7196571Y-13564238D01*
X7234667Y-13564238D01*
X7244190Y-13569000D01*
X7248952Y-13573762D01*
X7253714Y-13583286D01*
X7253714Y-13597571D01*
X7248952Y-13607095D01*
X7244190Y-13611857D01*
X7234667Y-13616619D01*
X7196571Y-13616619D01*
X7287048Y-13564238D02*
X7348952Y-13564238D01*
X7315619Y-13602333D01*
X7329905Y-13602333D01*
X7339428Y-13607095D01*
X7344190Y-13611857D01*
X7348952Y-13621381D01*
X7348952Y-13645190D01*
X7344190Y-13654714D01*
X7339428Y-13659476D01*
X7329905Y-13664238D01*
X7301333Y-13664238D01*
X7291809Y-13659476D01*
X7287048Y-13654714D01*
X7444190Y-13664238D02*
X7387048Y-13664238D01*
X7415619Y-13664238D02*
X7415619Y-13564238D01*
X7406095Y-13578524D01*
X7396571Y-13588048D01*
X7387048Y-13592809D01*
G04 #@! TO.C,R30*
X6401714Y-13680238D02*
X6368381Y-13632619D01*
X6344571Y-13680238D02*
X6344571Y-13580238D01*
X6382667Y-13580238D01*
X6392190Y-13585000D01*
X6396952Y-13589762D01*
X6401714Y-13599286D01*
X6401714Y-13613571D01*
X6396952Y-13623095D01*
X6392190Y-13627857D01*
X6382667Y-13632619D01*
X6344571Y-13632619D01*
X6435048Y-13580238D02*
X6496952Y-13580238D01*
X6463619Y-13618333D01*
X6477905Y-13618333D01*
X6487428Y-13623095D01*
X6492190Y-13627857D01*
X6496952Y-13637381D01*
X6496952Y-13661190D01*
X6492190Y-13670714D01*
X6487428Y-13675476D01*
X6477905Y-13680238D01*
X6449333Y-13680238D01*
X6439809Y-13675476D01*
X6435048Y-13670714D01*
X6558857Y-13580238D02*
X6568381Y-13580238D01*
X6577905Y-13585000D01*
X6582667Y-13589762D01*
X6587428Y-13599286D01*
X6592190Y-13618333D01*
X6592190Y-13642143D01*
X6587428Y-13661190D01*
X6582667Y-13670714D01*
X6577905Y-13675476D01*
X6568381Y-13680238D01*
X6558857Y-13680238D01*
X6549333Y-13675476D01*
X6544571Y-13670714D01*
X6539809Y-13661190D01*
X6535048Y-13642143D01*
X6535048Y-13618333D01*
X6539809Y-13599286D01*
X6544571Y-13589762D01*
X6549333Y-13585000D01*
X6558857Y-13580238D01*
G04 #@! TO.C,SW5*
X8211667Y-12732476D02*
X8225952Y-12737238D01*
X8249762Y-12737238D01*
X8259286Y-12732476D01*
X8264048Y-12727714D01*
X8268809Y-12718190D01*
X8268809Y-12708667D01*
X8264048Y-12699143D01*
X8259286Y-12694381D01*
X8249762Y-12689619D01*
X8230714Y-12684857D01*
X8221190Y-12680095D01*
X8216428Y-12675333D01*
X8211667Y-12665809D01*
X8211667Y-12656286D01*
X8216428Y-12646762D01*
X8221190Y-12642000D01*
X8230714Y-12637238D01*
X8254524Y-12637238D01*
X8268809Y-12642000D01*
X8302143Y-12637238D02*
X8325952Y-12737238D01*
X8345000Y-12665809D01*
X8364048Y-12737238D01*
X8387857Y-12637238D01*
X8473571Y-12637238D02*
X8425952Y-12637238D01*
X8421190Y-12684857D01*
X8425952Y-12680095D01*
X8435476Y-12675333D01*
X8459286Y-12675333D01*
X8468810Y-12680095D01*
X8473571Y-12684857D01*
X8478333Y-12694381D01*
X8478333Y-12718190D01*
X8473571Y-12727714D01*
X8468810Y-12732476D01*
X8459286Y-12737238D01*
X8435476Y-12737238D01*
X8425952Y-12732476D01*
X8421190Y-12727714D01*
G04 #@! TO.C,SW4*
X11483476Y-8777333D02*
X11488238Y-8763048D01*
X11488238Y-8739238D01*
X11483476Y-8729714D01*
X11478714Y-8724952D01*
X11469190Y-8720190D01*
X11459667Y-8720190D01*
X11450143Y-8724952D01*
X11445381Y-8729714D01*
X11440619Y-8739238D01*
X11435857Y-8758286D01*
X11431095Y-8767810D01*
X11426333Y-8772571D01*
X11416809Y-8777333D01*
X11407286Y-8777333D01*
X11397762Y-8772571D01*
X11393000Y-8767810D01*
X11388238Y-8758286D01*
X11388238Y-8734476D01*
X11393000Y-8720190D01*
X11388238Y-8686857D02*
X11488238Y-8663048D01*
X11416809Y-8644000D01*
X11488238Y-8624952D01*
X11388238Y-8601143D01*
X11421571Y-8520190D02*
X11488238Y-8520190D01*
X11383476Y-8544000D02*
X11454905Y-8567810D01*
X11454905Y-8505905D01*
G04 #@! TO.C,R28*
X7290714Y-11257238D02*
X7257381Y-11209619D01*
X7233571Y-11257238D02*
X7233571Y-11157238D01*
X7271667Y-11157238D01*
X7281190Y-11162000D01*
X7285952Y-11166762D01*
X7290714Y-11176286D01*
X7290714Y-11190571D01*
X7285952Y-11200095D01*
X7281190Y-11204857D01*
X7271667Y-11209619D01*
X7233571Y-11209619D01*
X7328809Y-11166762D02*
X7333571Y-11162000D01*
X7343095Y-11157238D01*
X7366905Y-11157238D01*
X7376428Y-11162000D01*
X7381190Y-11166762D01*
X7385952Y-11176286D01*
X7385952Y-11185809D01*
X7381190Y-11200095D01*
X7324048Y-11257238D01*
X7385952Y-11257238D01*
X7443095Y-11200095D02*
X7433571Y-11195333D01*
X7428809Y-11190571D01*
X7424048Y-11181048D01*
X7424048Y-11176286D01*
X7428809Y-11166762D01*
X7433571Y-11162000D01*
X7443095Y-11157238D01*
X7462143Y-11157238D01*
X7471667Y-11162000D01*
X7476428Y-11166762D01*
X7481190Y-11176286D01*
X7481190Y-11181048D01*
X7476428Y-11190571D01*
X7471667Y-11195333D01*
X7462143Y-11200095D01*
X7443095Y-11200095D01*
X7433571Y-11204857D01*
X7428809Y-11209619D01*
X7424048Y-11219143D01*
X7424048Y-11238190D01*
X7428809Y-11247714D01*
X7433571Y-11252476D01*
X7443095Y-11257238D01*
X7462143Y-11257238D01*
X7471667Y-11252476D01*
X7476428Y-11247714D01*
X7481190Y-11238190D01*
X7481190Y-11219143D01*
X7476428Y-11209619D01*
X7471667Y-11204857D01*
X7462143Y-11200095D01*
G04 #@! TO.C,J3*
X6935667Y-14818238D02*
X6935667Y-14889667D01*
X6930905Y-14903952D01*
X6921381Y-14913476D01*
X6907095Y-14918238D01*
X6897571Y-14918238D01*
X6973762Y-14818238D02*
X7035667Y-14818238D01*
X7002333Y-14856333D01*
X7016619Y-14856333D01*
X7026143Y-14861095D01*
X7030905Y-14865857D01*
X7035667Y-14875381D01*
X7035667Y-14899190D01*
X7030905Y-14908714D01*
X7026143Y-14913476D01*
X7016619Y-14918238D01*
X6988048Y-14918238D01*
X6978524Y-14913476D01*
X6973762Y-14908714D01*
G04 #@! TO.C,SW2*
X11433476Y-11653333D02*
X11438238Y-11639048D01*
X11438238Y-11615238D01*
X11433476Y-11605714D01*
X11428714Y-11600952D01*
X11419190Y-11596190D01*
X11409667Y-11596190D01*
X11400143Y-11600952D01*
X11395381Y-11605714D01*
X11390619Y-11615238D01*
X11385857Y-11634286D01*
X11381095Y-11643809D01*
X11376333Y-11648571D01*
X11366809Y-11653333D01*
X11357286Y-11653333D01*
X11347762Y-11648571D01*
X11343000Y-11643809D01*
X11338238Y-11634286D01*
X11338238Y-11610476D01*
X11343000Y-11596190D01*
X11338238Y-11562857D02*
X11438238Y-11539048D01*
X11366809Y-11520000D01*
X11438238Y-11500952D01*
X11338238Y-11477143D01*
X11347762Y-11443809D02*
X11343000Y-11439048D01*
X11338238Y-11429524D01*
X11338238Y-11405714D01*
X11343000Y-11396190D01*
X11347762Y-11391428D01*
X11357286Y-11386667D01*
X11366809Y-11386667D01*
X11381095Y-11391428D01*
X11438238Y-11448571D01*
X11438238Y-11386667D01*
G04 #@! TO.C,SW1*
X10442476Y-11650333D02*
X10447238Y-11636048D01*
X10447238Y-11612238D01*
X10442476Y-11602714D01*
X10437714Y-11597952D01*
X10428190Y-11593190D01*
X10418667Y-11593190D01*
X10409143Y-11597952D01*
X10404381Y-11602714D01*
X10399619Y-11612238D01*
X10394857Y-11631286D01*
X10390095Y-11640809D01*
X10385333Y-11645571D01*
X10375810Y-11650333D01*
X10366286Y-11650333D01*
X10356762Y-11645571D01*
X10352000Y-11640809D01*
X10347238Y-11631286D01*
X10347238Y-11607476D01*
X10352000Y-11593190D01*
X10347238Y-11559857D02*
X10447238Y-11536048D01*
X10375810Y-11517000D01*
X10447238Y-11497952D01*
X10347238Y-11474143D01*
X10447238Y-11383667D02*
X10447238Y-11440809D01*
X10447238Y-11412238D02*
X10347238Y-11412238D01*
X10361524Y-11421762D01*
X10371048Y-11431286D01*
X10375810Y-11440809D01*
G04 #@! TO.C,R14*
X10845714Y-11018238D02*
X10812381Y-10970619D01*
X10788571Y-11018238D02*
X10788571Y-10918238D01*
X10826667Y-10918238D01*
X10836190Y-10923000D01*
X10840952Y-10927762D01*
X10845714Y-10937286D01*
X10845714Y-10951571D01*
X10840952Y-10961095D01*
X10836190Y-10965857D01*
X10826667Y-10970619D01*
X10788571Y-10970619D01*
X10940952Y-11018238D02*
X10883810Y-11018238D01*
X10912381Y-11018238D02*
X10912381Y-10918238D01*
X10902857Y-10932524D01*
X10893333Y-10942048D01*
X10883810Y-10946810D01*
X11026667Y-10951571D02*
X11026667Y-11018238D01*
X11002857Y-10913476D02*
X10979048Y-10984905D01*
X11040952Y-10984905D01*
G04 #@! TO.C,R13*
X10409714Y-11010238D02*
X10376381Y-10962619D01*
X10352571Y-11010238D02*
X10352571Y-10910238D01*
X10390667Y-10910238D01*
X10400190Y-10915000D01*
X10404952Y-10919762D01*
X10409714Y-10929286D01*
X10409714Y-10943571D01*
X10404952Y-10953095D01*
X10400190Y-10957857D01*
X10390667Y-10962619D01*
X10352571Y-10962619D01*
X10504952Y-11010238D02*
X10447810Y-11010238D01*
X10476381Y-11010238D02*
X10476381Y-10910238D01*
X10466857Y-10924524D01*
X10457333Y-10934048D01*
X10447810Y-10938810D01*
X10538286Y-10910238D02*
X10600190Y-10910238D01*
X10566857Y-10948333D01*
X10581143Y-10948333D01*
X10590667Y-10953095D01*
X10595429Y-10957857D01*
X10600190Y-10967381D01*
X10600190Y-10991190D01*
X10595429Y-11000714D01*
X10590667Y-11005476D01*
X10581143Y-11010238D01*
X10552571Y-11010238D01*
X10543048Y-11005476D01*
X10538286Y-11000714D01*
G04 #@! TO.C,Y1*
X9422381Y-8700619D02*
X9422381Y-8748238D01*
X9389048Y-8648238D02*
X9422381Y-8700619D01*
X9455714Y-8648238D01*
X9541429Y-8748238D02*
X9484286Y-8748238D01*
X9512857Y-8748238D02*
X9512857Y-8648238D01*
X9503333Y-8662524D01*
X9493810Y-8672048D01*
X9484286Y-8676810D01*
G04 #@! TO.C,U2*
X11287659Y-9185688D02*
X11287659Y-9266640D01*
X11292421Y-9276164D01*
X11297183Y-9280926D01*
X11306707Y-9285688D01*
X11325755Y-9285688D01*
X11335278Y-9280926D01*
X11340040Y-9276164D01*
X11344802Y-9266640D01*
X11344802Y-9185688D01*
X11387659Y-9195212D02*
X11392421Y-9190450D01*
X11401945Y-9185688D01*
X11425755Y-9185688D01*
X11435278Y-9190450D01*
X11440040Y-9195212D01*
X11444802Y-9204736D01*
X11444802Y-9214260D01*
X11440040Y-9228545D01*
X11382898Y-9285688D01*
X11444802Y-9285688D01*
G04 #@! TO.C,Q4*
X13741876Y-5831362D02*
X13732352Y-5826600D01*
X13722828Y-5817076D01*
X13708543Y-5802790D01*
X13699019Y-5798028D01*
X13689495Y-5798028D01*
X13694257Y-5821838D02*
X13684733Y-5817076D01*
X13675209Y-5807552D01*
X13670448Y-5788505D01*
X13670448Y-5755171D01*
X13675209Y-5736124D01*
X13684733Y-5726600D01*
X13694257Y-5721838D01*
X13713305Y-5721838D01*
X13722828Y-5726600D01*
X13732352Y-5736124D01*
X13737114Y-5755171D01*
X13737114Y-5788505D01*
X13732352Y-5807552D01*
X13722828Y-5817076D01*
X13713305Y-5821838D01*
X13694257Y-5821838D01*
X13822828Y-5755171D02*
X13822828Y-5821838D01*
X13799019Y-5717076D02*
X13775209Y-5788505D01*
X13837114Y-5788505D01*
G04 #@! TO.C,U1*
X12642809Y-7391238D02*
X12642809Y-7472190D01*
X12647571Y-7481714D01*
X12652333Y-7486476D01*
X12661857Y-7491238D01*
X12680905Y-7491238D01*
X12690428Y-7486476D01*
X12695190Y-7481714D01*
X12699952Y-7472190D01*
X12699952Y-7391238D01*
X12799952Y-7491238D02*
X12742809Y-7491238D01*
X12771381Y-7491238D02*
X12771381Y-7391238D01*
X12761857Y-7405524D01*
X12752333Y-7415048D01*
X12742809Y-7419809D01*
G04 #@! TO.C,U4*
X5844809Y-10798738D02*
X5844809Y-10879690D01*
X5849571Y-10889214D01*
X5854333Y-10893976D01*
X5863857Y-10898738D01*
X5882905Y-10898738D01*
X5892428Y-10893976D01*
X5897190Y-10889214D01*
X5901952Y-10879690D01*
X5901952Y-10798738D01*
X5992428Y-10832071D02*
X5992428Y-10898738D01*
X5968619Y-10793976D02*
X5944809Y-10865405D01*
X6006714Y-10865405D01*
G04 #@! TO.C,U3*
X6860609Y-12328538D02*
X6860609Y-12409490D01*
X6865371Y-12419014D01*
X6870133Y-12423776D01*
X6879657Y-12428538D01*
X6898705Y-12428538D01*
X6908228Y-12423776D01*
X6912990Y-12419014D01*
X6917752Y-12409490D01*
X6917752Y-12328538D01*
X6955848Y-12328538D02*
X7017752Y-12328538D01*
X6984419Y-12366633D01*
X6998705Y-12366633D01*
X7008228Y-12371395D01*
X7012990Y-12376157D01*
X7017752Y-12385681D01*
X7017752Y-12409490D01*
X7012990Y-12419014D01*
X7008228Y-12423776D01*
X6998705Y-12428538D01*
X6970133Y-12428538D01*
X6960609Y-12423776D01*
X6955848Y-12419014D01*
G04 #@! TO.C,U6*
X13773309Y-11610338D02*
X13773309Y-11691290D01*
X13778071Y-11700814D01*
X13782833Y-11705576D01*
X13792357Y-11710338D01*
X13811405Y-11710338D01*
X13820928Y-11705576D01*
X13825690Y-11700814D01*
X13830452Y-11691290D01*
X13830452Y-11610338D01*
X13920928Y-11610338D02*
X13901881Y-11610338D01*
X13892357Y-11615100D01*
X13887595Y-11619862D01*
X13878071Y-11634148D01*
X13873309Y-11653195D01*
X13873309Y-11691290D01*
X13878071Y-11700814D01*
X13882833Y-11705576D01*
X13892357Y-11710338D01*
X13911405Y-11710338D01*
X13920928Y-11705576D01*
X13925690Y-11700814D01*
X13930452Y-11691290D01*
X13930452Y-11667481D01*
X13925690Y-11657957D01*
X13920928Y-11653195D01*
X13911405Y-11648433D01*
X13892357Y-11648433D01*
X13882833Y-11653195D01*
X13878071Y-11657957D01*
X13873309Y-11667481D01*
G04 #@! TO.C,U5*
X13228209Y-13768038D02*
X13228209Y-13848990D01*
X13232971Y-13858514D01*
X13237733Y-13863276D01*
X13247257Y-13868038D01*
X13266305Y-13868038D01*
X13275828Y-13863276D01*
X13280590Y-13858514D01*
X13285352Y-13848990D01*
X13285352Y-13768038D01*
X13380590Y-13768038D02*
X13332971Y-13768038D01*
X13328209Y-13815657D01*
X13332971Y-13810895D01*
X13342495Y-13806133D01*
X13366305Y-13806133D01*
X13375828Y-13810895D01*
X13380590Y-13815657D01*
X13385352Y-13825181D01*
X13385352Y-13848990D01*
X13380590Y-13858514D01*
X13375828Y-13863276D01*
X13366305Y-13868038D01*
X13342495Y-13868038D01*
X13332971Y-13863276D01*
X13328209Y-13858514D01*
G04 #@! TO.C,SW6*
X13821267Y-12300876D02*
X13835552Y-12305638D01*
X13859362Y-12305638D01*
X13868886Y-12300876D01*
X13873648Y-12296114D01*
X13878409Y-12286590D01*
X13878409Y-12277067D01*
X13873648Y-12267543D01*
X13868886Y-12262781D01*
X13859362Y-12258019D01*
X13840314Y-12253257D01*
X13830790Y-12248495D01*
X13826028Y-12243733D01*
X13821267Y-12234209D01*
X13821267Y-12224686D01*
X13826028Y-12215162D01*
X13830790Y-12210400D01*
X13840314Y-12205638D01*
X13864124Y-12205638D01*
X13878409Y-12210400D01*
X13911743Y-12205638D02*
X13935552Y-12305638D01*
X13954600Y-12234209D01*
X13973648Y-12305638D01*
X13997457Y-12205638D01*
X14078409Y-12205638D02*
X14059362Y-12205638D01*
X14049838Y-12210400D01*
X14045076Y-12215162D01*
X14035552Y-12229448D01*
X14030790Y-12248495D01*
X14030790Y-12286590D01*
X14035552Y-12296114D01*
X14040314Y-12300876D01*
X14049838Y-12305638D01*
X14068886Y-12305638D01*
X14078409Y-12300876D01*
X14083171Y-12296114D01*
X14087933Y-12286590D01*
X14087933Y-12262781D01*
X14083171Y-12253257D01*
X14078409Y-12248495D01*
X14068886Y-12243733D01*
X14049838Y-12243733D01*
X14040314Y-12248495D01*
X14035552Y-12253257D01*
X14030790Y-12262781D01*
G04 #@! TO.C,RV2*
X8640476Y-10899738D02*
X8607143Y-10852119D01*
X8583333Y-10899738D02*
X8583333Y-10799738D01*
X8621429Y-10799738D01*
X8630952Y-10804500D01*
X8635714Y-10809262D01*
X8640476Y-10818786D01*
X8640476Y-10833071D01*
X8635714Y-10842595D01*
X8630952Y-10847357D01*
X8621429Y-10852119D01*
X8583333Y-10852119D01*
X8669048Y-10799738D02*
X8702381Y-10899738D01*
X8735714Y-10799738D01*
X8764286Y-10809262D02*
X8769048Y-10804500D01*
X8778571Y-10799738D01*
X8802381Y-10799738D01*
X8811905Y-10804500D01*
X8816667Y-10809262D01*
X8821429Y-10818786D01*
X8821429Y-10828310D01*
X8816667Y-10842595D01*
X8759524Y-10899738D01*
X8821429Y-10899738D01*
G04 #@! TO.C,RV1*
X8660476Y-12187238D02*
X8627143Y-12139619D01*
X8603333Y-12187238D02*
X8603333Y-12087238D01*
X8641429Y-12087238D01*
X8650952Y-12092000D01*
X8655714Y-12096762D01*
X8660476Y-12106286D01*
X8660476Y-12120571D01*
X8655714Y-12130095D01*
X8650952Y-12134857D01*
X8641429Y-12139619D01*
X8603333Y-12139619D01*
X8689048Y-12087238D02*
X8722381Y-12187238D01*
X8755714Y-12087238D01*
X8841429Y-12187238D02*
X8784286Y-12187238D01*
X8812857Y-12187238D02*
X8812857Y-12087238D01*
X8803333Y-12101524D01*
X8793810Y-12111048D01*
X8784286Y-12115809D01*
G04 #@! TO.C,R29*
X7596714Y-12339238D02*
X7563381Y-12291619D01*
X7539571Y-12339238D02*
X7539571Y-12239238D01*
X7577667Y-12239238D01*
X7587190Y-12244000D01*
X7591952Y-12248762D01*
X7596714Y-12258286D01*
X7596714Y-12272571D01*
X7591952Y-12282095D01*
X7587190Y-12286857D01*
X7577667Y-12291619D01*
X7539571Y-12291619D01*
X7634809Y-12248762D02*
X7639571Y-12244000D01*
X7649095Y-12239238D01*
X7672905Y-12239238D01*
X7682428Y-12244000D01*
X7687190Y-12248762D01*
X7691952Y-12258286D01*
X7691952Y-12267809D01*
X7687190Y-12282095D01*
X7630048Y-12339238D01*
X7691952Y-12339238D01*
X7739571Y-12339238D02*
X7758619Y-12339238D01*
X7768143Y-12334476D01*
X7772905Y-12329714D01*
X7782428Y-12315428D01*
X7787190Y-12296381D01*
X7787190Y-12258286D01*
X7782428Y-12248762D01*
X7777667Y-12244000D01*
X7768143Y-12239238D01*
X7749095Y-12239238D01*
X7739571Y-12244000D01*
X7734809Y-12248762D01*
X7730048Y-12258286D01*
X7730048Y-12282095D01*
X7734809Y-12291619D01*
X7739571Y-12296381D01*
X7749095Y-12301143D01*
X7768143Y-12301143D01*
X7777667Y-12296381D01*
X7782428Y-12291619D01*
X7787190Y-12282095D01*
G04 #@! TO.C,R27*
X7680714Y-13172238D02*
X7647381Y-13124619D01*
X7623571Y-13172238D02*
X7623571Y-13072238D01*
X7661667Y-13072238D01*
X7671190Y-13077000D01*
X7675952Y-13081762D01*
X7680714Y-13091286D01*
X7680714Y-13105571D01*
X7675952Y-13115095D01*
X7671190Y-13119857D01*
X7661667Y-13124619D01*
X7623571Y-13124619D01*
X7718809Y-13081762D02*
X7723571Y-13077000D01*
X7733095Y-13072238D01*
X7756905Y-13072238D01*
X7766428Y-13077000D01*
X7771190Y-13081762D01*
X7775952Y-13091286D01*
X7775952Y-13100809D01*
X7771190Y-13115095D01*
X7714048Y-13172238D01*
X7775952Y-13172238D01*
X7809286Y-13072238D02*
X7875952Y-13072238D01*
X7833095Y-13172238D01*
G04 #@! TO.C,R26*
X7588214Y-12079738D02*
X7554881Y-12032119D01*
X7531071Y-12079738D02*
X7531071Y-11979738D01*
X7569167Y-11979738D01*
X7578690Y-11984500D01*
X7583452Y-11989262D01*
X7588214Y-11998786D01*
X7588214Y-12013071D01*
X7583452Y-12022595D01*
X7578690Y-12027357D01*
X7569167Y-12032119D01*
X7531071Y-12032119D01*
X7626309Y-11989262D02*
X7631071Y-11984500D01*
X7640595Y-11979738D01*
X7664405Y-11979738D01*
X7673928Y-11984500D01*
X7678690Y-11989262D01*
X7683452Y-11998786D01*
X7683452Y-12008309D01*
X7678690Y-12022595D01*
X7621548Y-12079738D01*
X7683452Y-12079738D01*
X7769167Y-11979738D02*
X7750119Y-11979738D01*
X7740595Y-11984500D01*
X7735833Y-11989262D01*
X7726309Y-12003548D01*
X7721548Y-12022595D01*
X7721548Y-12060690D01*
X7726309Y-12070214D01*
X7731071Y-12074976D01*
X7740595Y-12079738D01*
X7759643Y-12079738D01*
X7769167Y-12074976D01*
X7773928Y-12070214D01*
X7778690Y-12060690D01*
X7778690Y-12036881D01*
X7773928Y-12027357D01*
X7769167Y-12022595D01*
X7759643Y-12017833D01*
X7740595Y-12017833D01*
X7731071Y-12022595D01*
X7726309Y-12027357D01*
X7721548Y-12036881D01*
G04 #@! TO.C,R25*
X6863214Y-11534738D02*
X6829881Y-11487119D01*
X6806071Y-11534738D02*
X6806071Y-11434738D01*
X6844167Y-11434738D01*
X6853690Y-11439500D01*
X6858452Y-11444262D01*
X6863214Y-11453786D01*
X6863214Y-11468071D01*
X6858452Y-11477595D01*
X6853690Y-11482357D01*
X6844167Y-11487119D01*
X6806071Y-11487119D01*
X6901309Y-11444262D02*
X6906071Y-11439500D01*
X6915595Y-11434738D01*
X6939405Y-11434738D01*
X6948928Y-11439500D01*
X6953690Y-11444262D01*
X6958452Y-11453786D01*
X6958452Y-11463309D01*
X6953690Y-11477595D01*
X6896548Y-11534738D01*
X6958452Y-11534738D01*
X7048928Y-11434738D02*
X7001309Y-11434738D01*
X6996548Y-11482357D01*
X7001309Y-11477595D01*
X7010833Y-11472833D01*
X7034643Y-11472833D01*
X7044167Y-11477595D01*
X7048928Y-11482357D01*
X7053690Y-11491881D01*
X7053690Y-11515690D01*
X7048928Y-11525214D01*
X7044167Y-11529976D01*
X7034643Y-11534738D01*
X7010833Y-11534738D01*
X7001309Y-11529976D01*
X6996548Y-11525214D01*
G04 #@! TO.C,R24*
X5572114Y-13337538D02*
X5538781Y-13289919D01*
X5514971Y-13337538D02*
X5514971Y-13237538D01*
X5553067Y-13237538D01*
X5562590Y-13242300D01*
X5567352Y-13247062D01*
X5572114Y-13256586D01*
X5572114Y-13270871D01*
X5567352Y-13280395D01*
X5562590Y-13285157D01*
X5553067Y-13289919D01*
X5514971Y-13289919D01*
X5610209Y-13247062D02*
X5614971Y-13242300D01*
X5624495Y-13237538D01*
X5648305Y-13237538D01*
X5657828Y-13242300D01*
X5662590Y-13247062D01*
X5667352Y-13256586D01*
X5667352Y-13266109D01*
X5662590Y-13280395D01*
X5605448Y-13337538D01*
X5667352Y-13337538D01*
X5753067Y-13270871D02*
X5753067Y-13337538D01*
X5729257Y-13232776D02*
X5705448Y-13304205D01*
X5767352Y-13304205D01*
G04 #@! TO.C,R23*
X6868214Y-11867238D02*
X6834881Y-11819619D01*
X6811071Y-11867238D02*
X6811071Y-11767238D01*
X6849167Y-11767238D01*
X6858690Y-11772000D01*
X6863452Y-11776762D01*
X6868214Y-11786286D01*
X6868214Y-11800571D01*
X6863452Y-11810095D01*
X6858690Y-11814857D01*
X6849167Y-11819619D01*
X6811071Y-11819619D01*
X6906309Y-11776762D02*
X6911071Y-11772000D01*
X6920595Y-11767238D01*
X6944405Y-11767238D01*
X6953928Y-11772000D01*
X6958690Y-11776762D01*
X6963452Y-11786286D01*
X6963452Y-11795809D01*
X6958690Y-11810095D01*
X6901548Y-11867238D01*
X6963452Y-11867238D01*
X6996786Y-11767238D02*
X7058690Y-11767238D01*
X7025357Y-11805333D01*
X7039643Y-11805333D01*
X7049167Y-11810095D01*
X7053928Y-11814857D01*
X7058690Y-11824381D01*
X7058690Y-11848190D01*
X7053928Y-11857714D01*
X7049167Y-11862476D01*
X7039643Y-11867238D01*
X7011071Y-11867238D01*
X7001548Y-11862476D01*
X6996786Y-11857714D01*
G04 #@! TO.C,R22*
X5570714Y-12534738D02*
X5537381Y-12487119D01*
X5513571Y-12534738D02*
X5513571Y-12434738D01*
X5551667Y-12434738D01*
X5561190Y-12439500D01*
X5565952Y-12444262D01*
X5570714Y-12453786D01*
X5570714Y-12468071D01*
X5565952Y-12477595D01*
X5561190Y-12482357D01*
X5551667Y-12487119D01*
X5513571Y-12487119D01*
X5608809Y-12444262D02*
X5613571Y-12439500D01*
X5623095Y-12434738D01*
X5646905Y-12434738D01*
X5656428Y-12439500D01*
X5661190Y-12444262D01*
X5665952Y-12453786D01*
X5665952Y-12463309D01*
X5661190Y-12477595D01*
X5604048Y-12534738D01*
X5665952Y-12534738D01*
X5704048Y-12444262D02*
X5708809Y-12439500D01*
X5718333Y-12434738D01*
X5742143Y-12434738D01*
X5751667Y-12439500D01*
X5756428Y-12444262D01*
X5761190Y-12453786D01*
X5761190Y-12463309D01*
X5756428Y-12477595D01*
X5699286Y-12534738D01*
X5761190Y-12534738D01*
G04 #@! TO.C,R21*
X6870714Y-12134738D02*
X6837381Y-12087119D01*
X6813571Y-12134738D02*
X6813571Y-12034738D01*
X6851667Y-12034738D01*
X6861190Y-12039500D01*
X6865952Y-12044262D01*
X6870714Y-12053786D01*
X6870714Y-12068071D01*
X6865952Y-12077595D01*
X6861190Y-12082357D01*
X6851667Y-12087119D01*
X6813571Y-12087119D01*
X6908809Y-12044262D02*
X6913571Y-12039500D01*
X6923095Y-12034738D01*
X6946905Y-12034738D01*
X6956428Y-12039500D01*
X6961190Y-12044262D01*
X6965952Y-12053786D01*
X6965952Y-12063309D01*
X6961190Y-12077595D01*
X6904048Y-12134738D01*
X6965952Y-12134738D01*
X7061190Y-12134738D02*
X7004048Y-12134738D01*
X7032619Y-12134738D02*
X7032619Y-12034738D01*
X7023095Y-12049024D01*
X7013571Y-12058548D01*
X7004048Y-12063309D01*
G04 #@! TO.C,R20*
X7298214Y-10992238D02*
X7264881Y-10944619D01*
X7241071Y-10992238D02*
X7241071Y-10892238D01*
X7279167Y-10892238D01*
X7288690Y-10897000D01*
X7293452Y-10901762D01*
X7298214Y-10911286D01*
X7298214Y-10925571D01*
X7293452Y-10935095D01*
X7288690Y-10939857D01*
X7279167Y-10944619D01*
X7241071Y-10944619D01*
X7336309Y-10901762D02*
X7341071Y-10897000D01*
X7350595Y-10892238D01*
X7374405Y-10892238D01*
X7383928Y-10897000D01*
X7388690Y-10901762D01*
X7393452Y-10911286D01*
X7393452Y-10920810D01*
X7388690Y-10935095D01*
X7331548Y-10992238D01*
X7393452Y-10992238D01*
X7455357Y-10892238D02*
X7464881Y-10892238D01*
X7474405Y-10897000D01*
X7479167Y-10901762D01*
X7483928Y-10911286D01*
X7488690Y-10930333D01*
X7488690Y-10954143D01*
X7483928Y-10973190D01*
X7479167Y-10982714D01*
X7474405Y-10987476D01*
X7464881Y-10992238D01*
X7455357Y-10992238D01*
X7445833Y-10987476D01*
X7441071Y-10982714D01*
X7436309Y-10973190D01*
X7431548Y-10954143D01*
X7431548Y-10930333D01*
X7436309Y-10911286D01*
X7441071Y-10901762D01*
X7445833Y-10897000D01*
X7455357Y-10892238D01*
G04 #@! TO.C,R18*
X5573014Y-12034738D02*
X5539681Y-11987119D01*
X5515871Y-12034738D02*
X5515871Y-11934738D01*
X5553967Y-11934738D01*
X5563490Y-11939500D01*
X5568252Y-11944262D01*
X5573014Y-11953786D01*
X5573014Y-11968071D01*
X5568252Y-11977595D01*
X5563490Y-11982357D01*
X5553967Y-11987119D01*
X5515871Y-11987119D01*
X5668252Y-12034738D02*
X5611109Y-12034738D01*
X5639681Y-12034738D02*
X5639681Y-11934738D01*
X5630157Y-11949024D01*
X5620633Y-11958548D01*
X5611109Y-11963309D01*
X5725395Y-11977595D02*
X5715871Y-11972833D01*
X5711109Y-11968071D01*
X5706348Y-11958548D01*
X5706348Y-11953786D01*
X5711109Y-11944262D01*
X5715871Y-11939500D01*
X5725395Y-11934738D01*
X5744443Y-11934738D01*
X5753967Y-11939500D01*
X5758728Y-11944262D01*
X5763490Y-11953786D01*
X5763490Y-11958548D01*
X5758728Y-11968071D01*
X5753967Y-11972833D01*
X5744443Y-11977595D01*
X5725395Y-11977595D01*
X5715871Y-11982357D01*
X5711109Y-11987119D01*
X5706348Y-11996643D01*
X5706348Y-12015690D01*
X5711109Y-12025214D01*
X5715871Y-12029976D01*
X5725395Y-12034738D01*
X5744443Y-12034738D01*
X5753967Y-12029976D01*
X5758728Y-12025214D01*
X5763490Y-12015690D01*
X5763490Y-11996643D01*
X5758728Y-11987119D01*
X5753967Y-11982357D01*
X5744443Y-11977595D01*
G04 #@! TO.C,R17*
X5572114Y-12284738D02*
X5538781Y-12237119D01*
X5514971Y-12284738D02*
X5514971Y-12184738D01*
X5553067Y-12184738D01*
X5562590Y-12189500D01*
X5567352Y-12194262D01*
X5572114Y-12203786D01*
X5572114Y-12218071D01*
X5567352Y-12227595D01*
X5562590Y-12232357D01*
X5553067Y-12237119D01*
X5514971Y-12237119D01*
X5667352Y-12284738D02*
X5610209Y-12284738D01*
X5638781Y-12284738D02*
X5638781Y-12184738D01*
X5629257Y-12199024D01*
X5619733Y-12208548D01*
X5610209Y-12213309D01*
X5700686Y-12184738D02*
X5767352Y-12184738D01*
X5724495Y-12284738D01*
G04 #@! TO.C,J2*
X6084667Y-14818238D02*
X6084667Y-14889667D01*
X6079905Y-14903952D01*
X6070381Y-14913476D01*
X6056095Y-14918238D01*
X6046571Y-14918238D01*
X6127524Y-14827762D02*
X6132286Y-14823000D01*
X6141809Y-14818238D01*
X6165619Y-14818238D01*
X6175143Y-14823000D01*
X6179905Y-14827762D01*
X6184667Y-14837286D01*
X6184667Y-14846809D01*
X6179905Y-14861095D01*
X6122762Y-14918238D01*
X6184667Y-14918238D01*
G04 #@! TO.C,C16*
X13145714Y-11905714D02*
X13140952Y-11910476D01*
X13126667Y-11915238D01*
X13117143Y-11915238D01*
X13102857Y-11910476D01*
X13093333Y-11900952D01*
X13088571Y-11891428D01*
X13083809Y-11872381D01*
X13083809Y-11858095D01*
X13088571Y-11839048D01*
X13093333Y-11829524D01*
X13102857Y-11820000D01*
X13117143Y-11815238D01*
X13126667Y-11815238D01*
X13140952Y-11820000D01*
X13145714Y-11824762D01*
X13240952Y-11915238D02*
X13183809Y-11915238D01*
X13212381Y-11915238D02*
X13212381Y-11815238D01*
X13202857Y-11829524D01*
X13193333Y-11839048D01*
X13183809Y-11843809D01*
X13326667Y-11815238D02*
X13307619Y-11815238D01*
X13298095Y-11820000D01*
X13293333Y-11824762D01*
X13283809Y-11839048D01*
X13279048Y-11858095D01*
X13279048Y-11896190D01*
X13283809Y-11905714D01*
X13288571Y-11910476D01*
X13298095Y-11915238D01*
X13317143Y-11915238D01*
X13326667Y-11910476D01*
X13331428Y-11905714D01*
X13336190Y-11896190D01*
X13336190Y-11872381D01*
X13331428Y-11862857D01*
X13326667Y-11858095D01*
X13317143Y-11853333D01*
X13298095Y-11853333D01*
X13288571Y-11858095D01*
X13283809Y-11862857D01*
X13279048Y-11872381D01*
G04 #@! TO.C,C15*
X13115714Y-10815714D02*
X13110952Y-10820476D01*
X13096667Y-10825238D01*
X13087143Y-10825238D01*
X13072857Y-10820476D01*
X13063333Y-10810952D01*
X13058571Y-10801429D01*
X13053809Y-10782381D01*
X13053809Y-10768095D01*
X13058571Y-10749048D01*
X13063333Y-10739524D01*
X13072857Y-10730000D01*
X13087143Y-10725238D01*
X13096667Y-10725238D01*
X13110952Y-10730000D01*
X13115714Y-10734762D01*
X13210952Y-10825238D02*
X13153809Y-10825238D01*
X13182381Y-10825238D02*
X13182381Y-10725238D01*
X13172857Y-10739524D01*
X13163333Y-10749048D01*
X13153809Y-10753810D01*
X13301428Y-10725238D02*
X13253809Y-10725238D01*
X13249048Y-10772857D01*
X13253809Y-10768095D01*
X13263333Y-10763333D01*
X13287143Y-10763333D01*
X13296667Y-10768095D01*
X13301428Y-10772857D01*
X13306190Y-10782381D01*
X13306190Y-10806190D01*
X13301428Y-10815714D01*
X13296667Y-10820476D01*
X13287143Y-10825238D01*
X13263333Y-10825238D01*
X13253809Y-10820476D01*
X13249048Y-10815714D01*
G04 #@! TO.C,R19*
X10881714Y-8998938D02*
X10848381Y-8951319D01*
X10824571Y-8998938D02*
X10824571Y-8898938D01*
X10862667Y-8898938D01*
X10872190Y-8903700D01*
X10876952Y-8908462D01*
X10881714Y-8917986D01*
X10881714Y-8932271D01*
X10876952Y-8941795D01*
X10872190Y-8946557D01*
X10862667Y-8951319D01*
X10824571Y-8951319D01*
X10976952Y-8998938D02*
X10919810Y-8998938D01*
X10948381Y-8998938D02*
X10948381Y-8898938D01*
X10938857Y-8913224D01*
X10929333Y-8922748D01*
X10919810Y-8927510D01*
X11024571Y-8998938D02*
X11043619Y-8998938D01*
X11053143Y-8994176D01*
X11057905Y-8989414D01*
X11067429Y-8975129D01*
X11072190Y-8956081D01*
X11072190Y-8917986D01*
X11067429Y-8908462D01*
X11062667Y-8903700D01*
X11053143Y-8898938D01*
X11034095Y-8898938D01*
X11024571Y-8903700D01*
X11019810Y-8908462D01*
X11015048Y-8917986D01*
X11015048Y-8941795D01*
X11019810Y-8951319D01*
X11024571Y-8956081D01*
X11034095Y-8960843D01*
X11053143Y-8960843D01*
X11062667Y-8956081D01*
X11067429Y-8951319D01*
X11072190Y-8941795D01*
G04 #@! TO.C,R15*
X9485114Y-10824038D02*
X9451781Y-10776419D01*
X9427971Y-10824038D02*
X9427971Y-10724038D01*
X9466067Y-10724038D01*
X9475590Y-10728800D01*
X9480352Y-10733562D01*
X9485114Y-10743086D01*
X9485114Y-10757371D01*
X9480352Y-10766895D01*
X9475590Y-10771657D01*
X9466067Y-10776419D01*
X9427971Y-10776419D01*
X9580352Y-10824038D02*
X9523210Y-10824038D01*
X9551781Y-10824038D02*
X9551781Y-10724038D01*
X9542257Y-10738324D01*
X9532733Y-10747848D01*
X9523210Y-10752610D01*
X9670829Y-10724038D02*
X9623210Y-10724038D01*
X9618448Y-10771657D01*
X9623210Y-10766895D01*
X9632733Y-10762133D01*
X9656543Y-10762133D01*
X9666067Y-10766895D01*
X9670829Y-10771657D01*
X9675590Y-10781181D01*
X9675590Y-10804990D01*
X9670829Y-10814514D01*
X9666067Y-10819276D01*
X9656543Y-10824038D01*
X9632733Y-10824038D01*
X9623210Y-10819276D01*
X9618448Y-10814514D01*
G04 #@! TO.C,R12*
X13330614Y-6571038D02*
X13297281Y-6523419D01*
X13273471Y-6571038D02*
X13273471Y-6471038D01*
X13311567Y-6471038D01*
X13321090Y-6475800D01*
X13325852Y-6480562D01*
X13330614Y-6490086D01*
X13330614Y-6504371D01*
X13325852Y-6513895D01*
X13321090Y-6518657D01*
X13311567Y-6523419D01*
X13273471Y-6523419D01*
X13425852Y-6571038D02*
X13368709Y-6571038D01*
X13397281Y-6571038D02*
X13397281Y-6471038D01*
X13387757Y-6485324D01*
X13378233Y-6494848D01*
X13368709Y-6499609D01*
X13463948Y-6480562D02*
X13468709Y-6475800D01*
X13478233Y-6471038D01*
X13502043Y-6471038D01*
X13511567Y-6475800D01*
X13516328Y-6480562D01*
X13521090Y-6490086D01*
X13521090Y-6499609D01*
X13516328Y-6513895D01*
X13459186Y-6571038D01*
X13521090Y-6571038D01*
G04 #@! TO.C,R11*
X13330614Y-7231438D02*
X13297281Y-7183819D01*
X13273471Y-7231438D02*
X13273471Y-7131438D01*
X13311567Y-7131438D01*
X13321090Y-7136200D01*
X13325852Y-7140962D01*
X13330614Y-7150486D01*
X13330614Y-7164771D01*
X13325852Y-7174295D01*
X13321090Y-7179057D01*
X13311567Y-7183819D01*
X13273471Y-7183819D01*
X13425852Y-7231438D02*
X13368709Y-7231438D01*
X13397281Y-7231438D02*
X13397281Y-7131438D01*
X13387757Y-7145724D01*
X13378233Y-7155248D01*
X13368709Y-7160009D01*
X13521090Y-7231438D02*
X13463948Y-7231438D01*
X13492519Y-7231438D02*
X13492519Y-7131438D01*
X13482995Y-7145724D01*
X13473471Y-7155248D01*
X13463948Y-7160009D01*
G04 #@! TO.C,R10*
X13330614Y-7891838D02*
X13297281Y-7844219D01*
X13273471Y-7891838D02*
X13273471Y-7791838D01*
X13311567Y-7791838D01*
X13321090Y-7796600D01*
X13325852Y-7801362D01*
X13330614Y-7810886D01*
X13330614Y-7825171D01*
X13325852Y-7834695D01*
X13321090Y-7839457D01*
X13311567Y-7844219D01*
X13273471Y-7844219D01*
X13425852Y-7891838D02*
X13368709Y-7891838D01*
X13397281Y-7891838D02*
X13397281Y-7791838D01*
X13387757Y-7806124D01*
X13378233Y-7815648D01*
X13368709Y-7820409D01*
X13487757Y-7791838D02*
X13497281Y-7791838D01*
X13506805Y-7796600D01*
X13511567Y-7801362D01*
X13516328Y-7810886D01*
X13521090Y-7829933D01*
X13521090Y-7853743D01*
X13516328Y-7872790D01*
X13511567Y-7882314D01*
X13506805Y-7887076D01*
X13497281Y-7891838D01*
X13487757Y-7891838D01*
X13478233Y-7887076D01*
X13473471Y-7882314D01*
X13468709Y-7872790D01*
X13463948Y-7853743D01*
X13463948Y-7829933D01*
X13468709Y-7810886D01*
X13473471Y-7801362D01*
X13478233Y-7796600D01*
X13487757Y-7791838D01*
G04 #@! TO.C,R9*
X13378233Y-8552238D02*
X13344900Y-8504619D01*
X13321090Y-8552238D02*
X13321090Y-8452238D01*
X13359186Y-8452238D01*
X13368709Y-8457000D01*
X13373471Y-8461762D01*
X13378233Y-8471286D01*
X13378233Y-8485571D01*
X13373471Y-8495095D01*
X13368709Y-8499857D01*
X13359186Y-8504619D01*
X13321090Y-8504619D01*
X13425852Y-8552238D02*
X13444900Y-8552238D01*
X13454424Y-8547476D01*
X13459186Y-8542714D01*
X13468709Y-8528429D01*
X13473471Y-8509381D01*
X13473471Y-8471286D01*
X13468709Y-8461762D01*
X13463948Y-8457000D01*
X13454424Y-8452238D01*
X13435376Y-8452238D01*
X13425852Y-8457000D01*
X13421090Y-8461762D01*
X13416328Y-8471286D01*
X13416328Y-8495095D01*
X13421090Y-8504619D01*
X13425852Y-8509381D01*
X13435376Y-8514143D01*
X13454424Y-8514143D01*
X13463948Y-8509381D01*
X13468709Y-8504619D01*
X13473471Y-8495095D01*
G04 #@! TO.C,R8*
X9924733Y-8187238D02*
X9891400Y-8139619D01*
X9867590Y-8187238D02*
X9867590Y-8087238D01*
X9905686Y-8087238D01*
X9915210Y-8092000D01*
X9919971Y-8096762D01*
X9924733Y-8106286D01*
X9924733Y-8120571D01*
X9919971Y-8130095D01*
X9915210Y-8134857D01*
X9905686Y-8139619D01*
X9867590Y-8139619D01*
X9981876Y-8130095D02*
X9972352Y-8125333D01*
X9967590Y-8120571D01*
X9962829Y-8111048D01*
X9962829Y-8106286D01*
X9967590Y-8096762D01*
X9972352Y-8092000D01*
X9981876Y-8087238D01*
X10000924Y-8087238D01*
X10010448Y-8092000D01*
X10015210Y-8096762D01*
X10019971Y-8106286D01*
X10019971Y-8111048D01*
X10015210Y-8120571D01*
X10010448Y-8125333D01*
X10000924Y-8130095D01*
X9981876Y-8130095D01*
X9972352Y-8134857D01*
X9967590Y-8139619D01*
X9962829Y-8149143D01*
X9962829Y-8168190D01*
X9967590Y-8177714D01*
X9972352Y-8182476D01*
X9981876Y-8187238D01*
X10000924Y-8187238D01*
X10010448Y-8182476D01*
X10015210Y-8177714D01*
X10019971Y-8168190D01*
X10019971Y-8149143D01*
X10015210Y-8139619D01*
X10010448Y-8134857D01*
X10000924Y-8130095D01*
G04 #@! TO.C,R7*
X10432733Y-8187238D02*
X10399400Y-8139619D01*
X10375590Y-8187238D02*
X10375590Y-8087238D01*
X10413686Y-8087238D01*
X10423210Y-8092000D01*
X10427971Y-8096762D01*
X10432733Y-8106286D01*
X10432733Y-8120571D01*
X10427971Y-8130095D01*
X10423210Y-8134857D01*
X10413686Y-8139619D01*
X10375590Y-8139619D01*
X10466067Y-8087238D02*
X10532733Y-8087238D01*
X10489876Y-8187238D01*
G04 #@! TO.C,R6*
X10686733Y-8187238D02*
X10653400Y-8139619D01*
X10629590Y-8187238D02*
X10629590Y-8087238D01*
X10667686Y-8087238D01*
X10677210Y-8092000D01*
X10681971Y-8096762D01*
X10686733Y-8106286D01*
X10686733Y-8120571D01*
X10681971Y-8130095D01*
X10677210Y-8134857D01*
X10667686Y-8139619D01*
X10629590Y-8139619D01*
X10772448Y-8087238D02*
X10753400Y-8087238D01*
X10743876Y-8092000D01*
X10739114Y-8096762D01*
X10729590Y-8111048D01*
X10724829Y-8130095D01*
X10724829Y-8168190D01*
X10729590Y-8177714D01*
X10734352Y-8182476D01*
X10743876Y-8187238D01*
X10762924Y-8187238D01*
X10772448Y-8182476D01*
X10777210Y-8177714D01*
X10781971Y-8168190D01*
X10781971Y-8144381D01*
X10777210Y-8134857D01*
X10772448Y-8130095D01*
X10762924Y-8125333D01*
X10743876Y-8125333D01*
X10734352Y-8130095D01*
X10729590Y-8134857D01*
X10724829Y-8144381D01*
G04 #@! TO.C,R5*
X9416733Y-8187238D02*
X9383400Y-8139619D01*
X9359590Y-8187238D02*
X9359590Y-8087238D01*
X9397686Y-8087238D01*
X9407210Y-8092000D01*
X9411971Y-8096762D01*
X9416733Y-8106286D01*
X9416733Y-8120571D01*
X9411971Y-8130095D01*
X9407210Y-8134857D01*
X9397686Y-8139619D01*
X9359590Y-8139619D01*
X9507210Y-8087238D02*
X9459590Y-8087238D01*
X9454829Y-8134857D01*
X9459590Y-8130095D01*
X9469114Y-8125333D01*
X9492924Y-8125333D01*
X9502448Y-8130095D01*
X9507210Y-8134857D01*
X9511971Y-8144381D01*
X9511971Y-8168190D01*
X9507210Y-8177714D01*
X9502448Y-8182476D01*
X9492924Y-8187238D01*
X9469114Y-8187238D01*
X9459590Y-8182476D01*
X9454829Y-8177714D01*
G04 #@! TO.C,R4*
X9670733Y-8187238D02*
X9637400Y-8139619D01*
X9613590Y-8187238D02*
X9613590Y-8087238D01*
X9651686Y-8087238D01*
X9661210Y-8092000D01*
X9665971Y-8096762D01*
X9670733Y-8106286D01*
X9670733Y-8120571D01*
X9665971Y-8130095D01*
X9661210Y-8134857D01*
X9651686Y-8139619D01*
X9613590Y-8139619D01*
X9756448Y-8120571D02*
X9756448Y-8187238D01*
X9732638Y-8082476D02*
X9708829Y-8153905D01*
X9770733Y-8153905D01*
G04 #@! TO.C,R3*
X10178733Y-8187238D02*
X10145400Y-8139619D01*
X10121590Y-8187238D02*
X10121590Y-8087238D01*
X10159686Y-8087238D01*
X10169210Y-8092000D01*
X10173971Y-8096762D01*
X10178733Y-8106286D01*
X10178733Y-8120571D01*
X10173971Y-8130095D01*
X10169210Y-8134857D01*
X10159686Y-8139619D01*
X10121590Y-8139619D01*
X10212067Y-8087238D02*
X10273971Y-8087238D01*
X10240638Y-8125333D01*
X10254924Y-8125333D01*
X10264448Y-8130095D01*
X10269210Y-8134857D01*
X10273971Y-8144381D01*
X10273971Y-8168190D01*
X10269210Y-8177714D01*
X10264448Y-8182476D01*
X10254924Y-8187238D01*
X10226352Y-8187238D01*
X10216829Y-8182476D01*
X10212067Y-8177714D01*
G04 #@! TO.C,R2*
X10940733Y-8187238D02*
X10907400Y-8139619D01*
X10883590Y-8187238D02*
X10883590Y-8087238D01*
X10921686Y-8087238D01*
X10931210Y-8092000D01*
X10935971Y-8096762D01*
X10940733Y-8106286D01*
X10940733Y-8120571D01*
X10935971Y-8130095D01*
X10931210Y-8134857D01*
X10921686Y-8139619D01*
X10883590Y-8139619D01*
X10978829Y-8096762D02*
X10983590Y-8092000D01*
X10993114Y-8087238D01*
X11016924Y-8087238D01*
X11026448Y-8092000D01*
X11031210Y-8096762D01*
X11035971Y-8106286D01*
X11035971Y-8115809D01*
X11031210Y-8130095D01*
X10974067Y-8187238D01*
X11035971Y-8187238D01*
G04 #@! TO.C,R1*
X9162733Y-8187238D02*
X9129400Y-8139619D01*
X9105590Y-8187238D02*
X9105590Y-8087238D01*
X9143686Y-8087238D01*
X9153210Y-8092000D01*
X9157971Y-8096762D01*
X9162733Y-8106286D01*
X9162733Y-8120571D01*
X9157971Y-8130095D01*
X9153210Y-8134857D01*
X9143686Y-8139619D01*
X9105590Y-8139619D01*
X9257971Y-8187238D02*
X9200829Y-8187238D01*
X9229400Y-8187238D02*
X9229400Y-8087238D01*
X9219876Y-8101524D01*
X9210352Y-8111048D01*
X9200829Y-8115809D01*
G04 #@! TO.C,C14*
X14347514Y-13611714D02*
X14342752Y-13616476D01*
X14328467Y-13621238D01*
X14318943Y-13621238D01*
X14304657Y-13616476D01*
X14295133Y-13606952D01*
X14290371Y-13597428D01*
X14285609Y-13578381D01*
X14285609Y-13564095D01*
X14290371Y-13545048D01*
X14295133Y-13535524D01*
X14304657Y-13526000D01*
X14318943Y-13521238D01*
X14328467Y-13521238D01*
X14342752Y-13526000D01*
X14347514Y-13530762D01*
X14442752Y-13621238D02*
X14385609Y-13621238D01*
X14414181Y-13621238D02*
X14414181Y-13521238D01*
X14404657Y-13535524D01*
X14395133Y-13545048D01*
X14385609Y-13549809D01*
X14528467Y-13554571D02*
X14528467Y-13621238D01*
X14504657Y-13516476D02*
X14480848Y-13587905D01*
X14542752Y-13587905D01*
G04 #@! TO.C,C13*
X14345414Y-13408514D02*
X14340652Y-13413276D01*
X14326367Y-13418038D01*
X14316843Y-13418038D01*
X14302557Y-13413276D01*
X14293033Y-13403752D01*
X14288271Y-13394228D01*
X14283509Y-13375181D01*
X14283509Y-13360895D01*
X14288271Y-13341848D01*
X14293033Y-13332324D01*
X14302557Y-13322800D01*
X14316843Y-13318038D01*
X14326367Y-13318038D01*
X14340652Y-13322800D01*
X14345414Y-13327562D01*
X14440652Y-13418038D02*
X14383509Y-13418038D01*
X14412081Y-13418038D02*
X14412081Y-13318038D01*
X14402557Y-13332324D01*
X14393033Y-13341848D01*
X14383509Y-13346609D01*
X14473986Y-13318038D02*
X14535890Y-13318038D01*
X14502557Y-13356133D01*
X14516843Y-13356133D01*
X14526367Y-13360895D01*
X14531128Y-13365657D01*
X14535890Y-13375181D01*
X14535890Y-13398990D01*
X14531128Y-13408514D01*
X14526367Y-13413276D01*
X14516843Y-13418038D01*
X14488271Y-13418038D01*
X14478748Y-13413276D01*
X14473986Y-13408514D01*
G04 #@! TO.C,C12*
X14342214Y-12975314D02*
X14337452Y-12980076D01*
X14323167Y-12984838D01*
X14313643Y-12984838D01*
X14299357Y-12980076D01*
X14289833Y-12970552D01*
X14285071Y-12961028D01*
X14280309Y-12941981D01*
X14280309Y-12927695D01*
X14285071Y-12908648D01*
X14289833Y-12899124D01*
X14299357Y-12889600D01*
X14313643Y-12884838D01*
X14323167Y-12884838D01*
X14337452Y-12889600D01*
X14342214Y-12894362D01*
X14437452Y-12984838D02*
X14380309Y-12984838D01*
X14408881Y-12984838D02*
X14408881Y-12884838D01*
X14399357Y-12899124D01*
X14389833Y-12908648D01*
X14380309Y-12913409D01*
X14475548Y-12894362D02*
X14480309Y-12889600D01*
X14489833Y-12884838D01*
X14513643Y-12884838D01*
X14523167Y-12889600D01*
X14527928Y-12894362D01*
X14532690Y-12903886D01*
X14532690Y-12913409D01*
X14527928Y-12927695D01*
X14470786Y-12984838D01*
X14532690Y-12984838D01*
G04 #@! TO.C,C11*
X14342214Y-13178514D02*
X14337452Y-13183276D01*
X14323167Y-13188038D01*
X14313643Y-13188038D01*
X14299357Y-13183276D01*
X14289833Y-13173752D01*
X14285071Y-13164228D01*
X14280309Y-13145181D01*
X14280309Y-13130895D01*
X14285071Y-13111848D01*
X14289833Y-13102324D01*
X14299357Y-13092800D01*
X14313643Y-13088038D01*
X14323167Y-13088038D01*
X14337452Y-13092800D01*
X14342214Y-13097562D01*
X14437452Y-13188038D02*
X14380309Y-13188038D01*
X14408881Y-13188038D02*
X14408881Y-13088038D01*
X14399357Y-13102324D01*
X14389833Y-13111848D01*
X14380309Y-13116609D01*
X14532690Y-13188038D02*
X14475548Y-13188038D01*
X14504119Y-13188038D02*
X14504119Y-13088038D01*
X14494595Y-13102324D01*
X14485071Y-13111848D01*
X14475548Y-13116609D01*
G04 #@! TO.C,C10*
X5573014Y-13074014D02*
X5568252Y-13078776D01*
X5553967Y-13083538D01*
X5544443Y-13083538D01*
X5530157Y-13078776D01*
X5520633Y-13069252D01*
X5515871Y-13059728D01*
X5511110Y-13040681D01*
X5511110Y-13026395D01*
X5515871Y-13007348D01*
X5520633Y-12997824D01*
X5530157Y-12988300D01*
X5544443Y-12983538D01*
X5553967Y-12983538D01*
X5568252Y-12988300D01*
X5573014Y-12993062D01*
X5668252Y-13083538D02*
X5611109Y-13083538D01*
X5639681Y-13083538D02*
X5639681Y-12983538D01*
X5630157Y-12997824D01*
X5620633Y-13007348D01*
X5611109Y-13012109D01*
X5730157Y-12983538D02*
X5739681Y-12983538D01*
X5749205Y-12988300D01*
X5753967Y-12993062D01*
X5758728Y-13002586D01*
X5763490Y-13021633D01*
X5763490Y-13045443D01*
X5758728Y-13064490D01*
X5753967Y-13074014D01*
X5749205Y-13078776D01*
X5739681Y-13083538D01*
X5730157Y-13083538D01*
X5720633Y-13078776D01*
X5715871Y-13074014D01*
X5711109Y-13064490D01*
X5706348Y-13045443D01*
X5706348Y-13021633D01*
X5711109Y-13002586D01*
X5715871Y-12993062D01*
X5720633Y-12988300D01*
X5730157Y-12983538D01*
G04 #@! TO.C,C9*
X5570833Y-12825214D02*
X5566071Y-12829976D01*
X5551786Y-12834738D01*
X5542262Y-12834738D01*
X5527976Y-12829976D01*
X5518452Y-12820452D01*
X5513690Y-12810928D01*
X5508929Y-12791881D01*
X5508929Y-12777595D01*
X5513690Y-12758548D01*
X5518452Y-12749024D01*
X5527976Y-12739500D01*
X5542262Y-12734738D01*
X5551786Y-12734738D01*
X5566071Y-12739500D01*
X5570833Y-12744262D01*
X5618452Y-12834738D02*
X5637500Y-12834738D01*
X5647024Y-12829976D01*
X5651786Y-12825214D01*
X5661309Y-12810928D01*
X5666071Y-12791881D01*
X5666071Y-12753786D01*
X5661309Y-12744262D01*
X5656548Y-12739500D01*
X5647024Y-12734738D01*
X5627976Y-12734738D01*
X5618452Y-12739500D01*
X5613690Y-12744262D01*
X5608928Y-12753786D01*
X5608928Y-12777595D01*
X5613690Y-12787119D01*
X5618452Y-12791881D01*
X5627976Y-12796643D01*
X5647024Y-12796643D01*
X5656548Y-12791881D01*
X5661309Y-12787119D01*
X5666071Y-12777595D01*
G04 #@! TO.C,C8*
X9837533Y-10052514D02*
X9832771Y-10057276D01*
X9818486Y-10062038D01*
X9808962Y-10062038D01*
X9794676Y-10057276D01*
X9785152Y-10047752D01*
X9780390Y-10038229D01*
X9775629Y-10019181D01*
X9775629Y-10004895D01*
X9780390Y-9985848D01*
X9785152Y-9976324D01*
X9794676Y-9966800D01*
X9808962Y-9962038D01*
X9818486Y-9962038D01*
X9832771Y-9966800D01*
X9837533Y-9971562D01*
X9894676Y-10004895D02*
X9885152Y-10000133D01*
X9880390Y-9995371D01*
X9875629Y-9985848D01*
X9875629Y-9981086D01*
X9880390Y-9971562D01*
X9885152Y-9966800D01*
X9894676Y-9962038D01*
X9913724Y-9962038D01*
X9923248Y-9966800D01*
X9928010Y-9971562D01*
X9932771Y-9981086D01*
X9932771Y-9985848D01*
X9928010Y-9995371D01*
X9923248Y-10000133D01*
X9913724Y-10004895D01*
X9894676Y-10004895D01*
X9885152Y-10009657D01*
X9880390Y-10014419D01*
X9875629Y-10023943D01*
X9875629Y-10042990D01*
X9880390Y-10052514D01*
X9885152Y-10057276D01*
X9894676Y-10062038D01*
X9913724Y-10062038D01*
X9923248Y-10057276D01*
X9928010Y-10052514D01*
X9932771Y-10042990D01*
X9932771Y-10023943D01*
X9928010Y-10014419D01*
X9923248Y-10009657D01*
X9913724Y-10004895D01*
G04 #@! TO.C,C7*
X9837533Y-8985714D02*
X9832771Y-8990476D01*
X9818486Y-8995238D01*
X9808962Y-8995238D01*
X9794676Y-8990476D01*
X9785152Y-8980952D01*
X9780390Y-8971429D01*
X9775629Y-8952381D01*
X9775629Y-8938095D01*
X9780390Y-8919048D01*
X9785152Y-8909524D01*
X9794676Y-8900000D01*
X9808962Y-8895238D01*
X9818486Y-8895238D01*
X9832771Y-8900000D01*
X9837533Y-8904762D01*
X9870867Y-8895238D02*
X9937533Y-8895238D01*
X9894676Y-8995238D01*
G04 #@! TO.C,C6*
X9837533Y-10814514D02*
X9832771Y-10819276D01*
X9818486Y-10824038D01*
X9808962Y-10824038D01*
X9794676Y-10819276D01*
X9785152Y-10809752D01*
X9780390Y-10800229D01*
X9775629Y-10781181D01*
X9775629Y-10766895D01*
X9780390Y-10747848D01*
X9785152Y-10738324D01*
X9794676Y-10728800D01*
X9808962Y-10724038D01*
X9818486Y-10724038D01*
X9832771Y-10728800D01*
X9837533Y-10733562D01*
X9923248Y-10724038D02*
X9904200Y-10724038D01*
X9894676Y-10728800D01*
X9889914Y-10733562D01*
X9880390Y-10747848D01*
X9875629Y-10766895D01*
X9875629Y-10804990D01*
X9880390Y-10814514D01*
X9885152Y-10819276D01*
X9894676Y-10824038D01*
X9913724Y-10824038D01*
X9923248Y-10819276D01*
X9928010Y-10814514D01*
X9932771Y-10804990D01*
X9932771Y-10781181D01*
X9928010Y-10771657D01*
X9923248Y-10766895D01*
X9913724Y-10762133D01*
X9894676Y-10762133D01*
X9885152Y-10766895D01*
X9880390Y-10771657D01*
X9875629Y-10781181D01*
G04 #@! TO.C,C5*
X10183333Y-10204914D02*
X10178571Y-10209676D01*
X10164286Y-10214438D01*
X10154762Y-10214438D01*
X10140476Y-10209676D01*
X10130952Y-10200152D01*
X10126190Y-10190629D01*
X10121429Y-10171581D01*
X10121429Y-10157295D01*
X10126190Y-10138248D01*
X10130952Y-10128724D01*
X10140476Y-10119200D01*
X10154762Y-10114438D01*
X10164286Y-10114438D01*
X10178571Y-10119200D01*
X10183333Y-10123962D01*
X10273810Y-10114438D02*
X10226190Y-10114438D01*
X10221429Y-10162057D01*
X10226190Y-10157295D01*
X10235714Y-10152533D01*
X10259524Y-10152533D01*
X10269048Y-10157295D01*
X10273810Y-10162057D01*
X10278571Y-10171581D01*
X10278571Y-10195390D01*
X10273810Y-10204914D01*
X10269048Y-10209676D01*
X10259524Y-10214438D01*
X10235714Y-10214438D01*
X10226190Y-10209676D01*
X10221429Y-10204914D01*
G04 #@! TO.C,C4*
X10186333Y-9686314D02*
X10181571Y-9691076D01*
X10167286Y-9695838D01*
X10157762Y-9695838D01*
X10143476Y-9691076D01*
X10133952Y-9681552D01*
X10129190Y-9672029D01*
X10124429Y-9652981D01*
X10124429Y-9638695D01*
X10129190Y-9619648D01*
X10133952Y-9610124D01*
X10143476Y-9600600D01*
X10157762Y-9595838D01*
X10167286Y-9595838D01*
X10181571Y-9600600D01*
X10186333Y-9605362D01*
X10272048Y-9629171D02*
X10272048Y-9695838D01*
X10248238Y-9591076D02*
X10224429Y-9662505D01*
X10286333Y-9662505D01*
G04 #@! TO.C,C3*
X10578333Y-9002314D02*
X10573571Y-9007076D01*
X10559286Y-9011838D01*
X10549762Y-9011838D01*
X10535476Y-9007076D01*
X10525952Y-8997552D01*
X10521190Y-8988029D01*
X10516429Y-8968981D01*
X10516429Y-8954695D01*
X10521190Y-8935648D01*
X10525952Y-8926124D01*
X10535476Y-8916600D01*
X10549762Y-8911838D01*
X10559286Y-8911838D01*
X10573571Y-8916600D01*
X10578333Y-8921362D01*
X10611667Y-8911838D02*
X10673571Y-8911838D01*
X10640238Y-8949933D01*
X10654524Y-8949933D01*
X10664048Y-8954695D01*
X10668810Y-8959457D01*
X10673571Y-8968981D01*
X10673571Y-8992790D01*
X10668810Y-9002314D01*
X10664048Y-9007076D01*
X10654524Y-9011838D01*
X10625952Y-9011838D01*
X10616429Y-9007076D01*
X10611667Y-9002314D01*
G04 #@! TO.C,C2*
X11679833Y-9271714D02*
X11675071Y-9276476D01*
X11660786Y-9281238D01*
X11651262Y-9281238D01*
X11636976Y-9276476D01*
X11627452Y-9266952D01*
X11622690Y-9257429D01*
X11617928Y-9238381D01*
X11617928Y-9224095D01*
X11622690Y-9205048D01*
X11627452Y-9195524D01*
X11636976Y-9186000D01*
X11651262Y-9181238D01*
X11660786Y-9181238D01*
X11675071Y-9186000D01*
X11679833Y-9190762D01*
X11717928Y-9190762D02*
X11722690Y-9186000D01*
X11732214Y-9181238D01*
X11756024Y-9181238D01*
X11765548Y-9186000D01*
X11770309Y-9190762D01*
X11775071Y-9200286D01*
X11775071Y-9209810D01*
X11770309Y-9224095D01*
X11713167Y-9281238D01*
X11775071Y-9281238D01*
G04 #@! TO.C,C1*
X11393333Y-10815714D02*
X11388571Y-10820476D01*
X11374286Y-10825238D01*
X11364762Y-10825238D01*
X11350476Y-10820476D01*
X11340952Y-10810952D01*
X11336190Y-10801429D01*
X11331428Y-10782381D01*
X11331428Y-10768095D01*
X11336190Y-10749048D01*
X11340952Y-10739524D01*
X11350476Y-10730000D01*
X11364762Y-10725238D01*
X11374286Y-10725238D01*
X11388571Y-10730000D01*
X11393333Y-10734762D01*
X11488571Y-10825238D02*
X11431428Y-10825238D01*
X11460000Y-10825238D02*
X11460000Y-10725238D01*
X11450476Y-10739524D01*
X11440952Y-10749048D01*
X11431428Y-10753810D01*
G04 #@! TO.C,Q3*
X13741876Y-6491762D02*
X13732352Y-6487000D01*
X13722828Y-6477476D01*
X13708543Y-6463190D01*
X13699019Y-6458428D01*
X13689495Y-6458428D01*
X13694257Y-6482238D02*
X13684733Y-6477476D01*
X13675209Y-6467952D01*
X13670448Y-6448905D01*
X13670448Y-6415571D01*
X13675209Y-6396524D01*
X13684733Y-6387000D01*
X13694257Y-6382238D01*
X13713305Y-6382238D01*
X13722828Y-6387000D01*
X13732352Y-6396524D01*
X13737114Y-6415571D01*
X13737114Y-6448905D01*
X13732352Y-6467952D01*
X13722828Y-6477476D01*
X13713305Y-6482238D01*
X13694257Y-6482238D01*
X13770448Y-6382238D02*
X13832352Y-6382238D01*
X13799019Y-6420333D01*
X13813305Y-6420333D01*
X13822828Y-6425095D01*
X13827590Y-6429857D01*
X13832352Y-6439381D01*
X13832352Y-6463190D01*
X13827590Y-6472714D01*
X13822828Y-6477476D01*
X13813305Y-6482238D01*
X13784733Y-6482238D01*
X13775209Y-6477476D01*
X13770448Y-6472714D01*
G04 #@! TO.C,Q2*
X13741876Y-7177562D02*
X13732352Y-7172800D01*
X13722828Y-7163276D01*
X13708543Y-7148990D01*
X13699019Y-7144228D01*
X13689495Y-7144228D01*
X13694257Y-7168038D02*
X13684733Y-7163276D01*
X13675209Y-7153752D01*
X13670448Y-7134705D01*
X13670448Y-7101371D01*
X13675209Y-7082324D01*
X13684733Y-7072800D01*
X13694257Y-7068038D01*
X13713305Y-7068038D01*
X13722828Y-7072800D01*
X13732352Y-7082324D01*
X13737114Y-7101371D01*
X13737114Y-7134705D01*
X13732352Y-7153752D01*
X13722828Y-7163276D01*
X13713305Y-7168038D01*
X13694257Y-7168038D01*
X13775209Y-7077562D02*
X13779971Y-7072800D01*
X13789495Y-7068038D01*
X13813305Y-7068038D01*
X13822828Y-7072800D01*
X13827590Y-7077562D01*
X13832352Y-7087086D01*
X13832352Y-7096609D01*
X13827590Y-7110895D01*
X13770448Y-7168038D01*
X13832352Y-7168038D01*
G04 #@! TO.C,Q1*
X13741876Y-7812562D02*
X13732352Y-7807800D01*
X13722828Y-7798276D01*
X13708543Y-7783990D01*
X13699019Y-7779228D01*
X13689495Y-7779228D01*
X13694257Y-7803038D02*
X13684733Y-7798276D01*
X13675209Y-7788752D01*
X13670448Y-7769705D01*
X13670448Y-7736371D01*
X13675209Y-7717324D01*
X13684733Y-7707800D01*
X13694257Y-7703038D01*
X13713305Y-7703038D01*
X13722828Y-7707800D01*
X13732352Y-7717324D01*
X13737114Y-7736371D01*
X13737114Y-7769705D01*
X13732352Y-7788752D01*
X13722828Y-7798276D01*
X13713305Y-7803038D01*
X13694257Y-7803038D01*
X13832352Y-7803038D02*
X13775209Y-7803038D01*
X13803781Y-7803038D02*
X13803781Y-7703038D01*
X13794257Y-7717324D01*
X13784733Y-7726848D01*
X13775209Y-7731609D01*
G04 #@! TO.C,J4*
X14296667Y-11335238D02*
X14296667Y-11406667D01*
X14291905Y-11420952D01*
X14282381Y-11430476D01*
X14268095Y-11435238D01*
X14258571Y-11435238D01*
X14387143Y-11368571D02*
X14387143Y-11435238D01*
X14363333Y-11330476D02*
X14339524Y-11401905D01*
X14401428Y-11401905D01*
G04 #@! TO.C,J1*
X14276667Y-9693238D02*
X14276667Y-9764667D01*
X14271905Y-9778952D01*
X14262381Y-9788476D01*
X14248095Y-9793238D01*
X14238571Y-9793238D01*
X14376667Y-9793238D02*
X14319524Y-9793238D01*
X14348095Y-9793238D02*
X14348095Y-9693238D01*
X14338571Y-9707524D01*
X14329048Y-9717048D01*
X14319524Y-9721810D01*
G04 #@! TD*
M02*
