M48
; DRILL file {KiCad (5.1.10)-1} date 08/06/21 21:51:36
; FORMAT={3:3/ absolute / metric / suppress leading zeros}
; #@! TF.CreationDate,2021-08-06T21:51:36+08:00
; #@! TF.GenerationSoftware,Kicad,Pcbnew,(5.1.10)-1
; #@! TF.FileFunction,Plated,1,2,PTH
FMAT,2
METRIC,TZ
T1C0.300
T2C0.450
T3C0.800
T4C0.900
T5C1.000
%
G90
G05
T1
X57700Y-121895
X57950Y-127900
X57950Y-130370
X58540Y-136270
X63200Y-129720
X66800Y-103840
X68590Y-134800
X73700Y-129045
X73940Y-125290
X83450Y-134600
X91800Y-80800
X93252Y-109243
X93750Y-110050
X94300Y-81500
X94313Y-110822
X96800Y-115300
X99414Y-83586
X99680Y-99470
X99750Y-90260
X101000Y-107000
X101954Y-84854
X103000Y-91000
X104500Y-82900
X105950Y-85000
X106500Y-97500
X107100Y-82200
X107100Y-94100
X107734Y-102610
X108800Y-96400
X108950Y-103258
X109460Y-84880
X109673Y-95673
X109735Y-99435
X110360Y-103933
X110500Y-80800
X111500Y-94600
X111880Y-97180
X111951Y-99432
X112420Y-78840
X114000Y-108000
X115200Y-97875
X115950Y-91950
X116200Y-98450
X117080Y-115310
X117100Y-98953
X118000Y-99600
X119890Y-82290
X120920Y-82000
X121605Y-94569
X123080Y-82000
X125240Y-82000
X130350Y-57440
X130360Y-59930
X130370Y-62300
X132000Y-107900
X132000Y-118600
X136200Y-137600
X143200Y-129400
X143240Y-135760
X143300Y-131400
X143300Y-133700
T3
X56670Y-112095
X59210Y-112095
X61750Y-112095
X81000Y-112070
X81000Y-117645
X83540Y-112070
X83540Y-117645
X86080Y-112070
X86080Y-117645
X138022Y-60560
X138022Y-67164
X138022Y-73768
X138022Y-80372
X140562Y-60560
X140562Y-67164
X140562Y-73768
X140562Y-80372
X143102Y-60560
X143102Y-67164
X143102Y-73768
X143102Y-80372
T4
X81450Y-124960
X81450Y-129460
X83450Y-124960
X83450Y-129460
X85450Y-124960
X85450Y-129460
X112450Y-83900
X112450Y-85900
X112450Y-87900
X116950Y-83900
X116950Y-85900
X116950Y-87900
X137514Y-120084
X137514Y-124584
X139514Y-120084
X139514Y-124584
X141514Y-120084
X141514Y-124584
T5
X59930Y-145180
X62430Y-145180
X68440Y-145180
X70940Y-145180
X94334Y-57766
X94334Y-73006
X96874Y-57766
X96874Y-73006
X99414Y-57766
X99414Y-73006
X101954Y-57766
X101954Y-73006
X104494Y-57766
X104494Y-73006
X107034Y-57766
X107034Y-73006
X143100Y-87530
X143100Y-90070
X143100Y-92610
X143100Y-95150
T2
G00X147966Y-110716
M15
G01X148766Y-110716
M16
G05
G00X148766Y-117116
M15
G01X147966Y-117116
M16
G05
T0
M30
