G04 #@! TF.GenerationSoftware,KiCad,Pcbnew,(5.1.10)-1*
G04 #@! TF.CreationDate,2021-08-06T21:51:28+08:00*
G04 #@! TF.ProjectId,digital_thermometer,64696769-7461-46c5-9f74-6865726d6f6d,rev?*
G04 #@! TF.SameCoordinates,Original*
G04 #@! TF.FileFunction,Copper,L2,Bot*
G04 #@! TF.FilePolarity,Positive*
%FSLAX45Y45*%
G04 Gerber Fmt 4.5, Leading zero omitted, Abs format (unit mm)*
G04 Created by KiCad (PCBNEW (5.1.10)-1) date 2021-08-06 21:51:28*
%MOMM*%
%LPD*%
G01*
G04 APERTURE LIST*
G04 #@! TA.AperFunction,ComponentPad*
%ADD10C,1.600000*%
G04 #@! TD*
G04 #@! TA.AperFunction,ComponentPad*
%ADD11R,1.600000X1.600000*%
G04 #@! TD*
G04 #@! TA.AperFunction,ComponentPad*
%ADD12O,1.700000X2.000000*%
G04 #@! TD*
G04 #@! TA.AperFunction,ComponentPad*
%ADD13R,1.500000X1.500000*%
G04 #@! TD*
G04 #@! TA.AperFunction,ComponentPad*
%ADD14C,1.500000*%
G04 #@! TD*
G04 #@! TA.AperFunction,ComponentPad*
%ADD15C,1.440000*%
G04 #@! TD*
G04 #@! TA.AperFunction,ComponentPad*
%ADD16O,1.900000X1.050000*%
G04 #@! TD*
G04 #@! TA.AperFunction,ComponentPad*
%ADD17O,1.700000X1.700000*%
G04 #@! TD*
G04 #@! TA.AperFunction,ComponentPad*
%ADD18R,1.700000X1.700000*%
G04 #@! TD*
G04 #@! TA.AperFunction,ViaPad*
%ADD19C,0.700000*%
G04 #@! TD*
G04 #@! TA.AperFunction,Conductor*
%ADD20C,1.000000*%
G04 #@! TD*
G04 #@! TA.AperFunction,Conductor*
%ADD21C,2.000000*%
G04 #@! TD*
G04 #@! TA.AperFunction,Conductor*
%ADD22C,0.250000*%
G04 #@! TD*
G04 #@! TA.AperFunction,Conductor*
%ADD23C,0.500000*%
G04 #@! TD*
G04 #@! TA.AperFunction,Conductor*
%ADD24C,0.100000*%
G04 #@! TD*
G04 APERTURE END LIST*
D10*
G04 #@! TO.P,SW5,6*
G04 #@! TO.N,/S9013_IN*
X8545000Y-12946000D03*
G04 #@! TO.P,SW5,3*
G04 #@! TO.N,/NTC*
X8145000Y-12496000D03*
G04 #@! TO.P,SW5,5*
G04 #@! TO.N,VDD*
X8345000Y-12946000D03*
G04 #@! TO.P,SW5,2*
G04 #@! TO.N,/SWITCH*
X8345000Y-12496000D03*
G04 #@! TO.P,SW5,4*
G04 #@! TO.N,/NTC_IN*
X8145000Y-12946000D03*
D11*
G04 #@! TO.P,SW5,1*
G04 #@! TO.N,/S9013*
X8545000Y-12496000D03*
G04 #@! TD*
D10*
G04 #@! TO.P,SW4,6*
G04 #@! TO.N,Net-(R19-Pad1)*
X11695000Y-8390000D03*
G04 #@! TO.P,SW4,3*
G04 #@! TO.N,VDD*
X11245000Y-8790000D03*
G04 #@! TO.P,SW4,5*
G04 #@! TO.N,Net-(SW4-Pad2)*
X11695000Y-8590000D03*
G04 #@! TO.P,SW4,2*
X11245000Y-8590000D03*
G04 #@! TO.P,SW4,4*
G04 #@! TO.N,VDD*
X11695000Y-8790000D03*
D11*
G04 #@! TO.P,SW4,1*
G04 #@! TO.N,Net-(R19-Pad1)*
X11245000Y-8390000D03*
G04 #@! TD*
D12*
G04 #@! TO.P,J3,2*
G04 #@! TO.N,GND*
X6844000Y-14518000D03*
G04 #@! TO.P,J3,1*
G04 #@! TO.N,/NTC*
G04 #@! TA.AperFunction,ComponentPad*
G36*
G01*
X7179000Y-14443000D02*
X7179000Y-14593000D01*
G75*
G02*
X7154000Y-14618000I-25000J0D01*
G01*
X7034000Y-14618000D01*
G75*
G02*
X7009000Y-14593000I0J25000D01*
G01*
X7009000Y-14443000D01*
G75*
G02*
X7034000Y-14418000I25000J0D01*
G01*
X7154000Y-14418000D01*
G75*
G02*
X7179000Y-14443000I0J-25000D01*
G01*
G37*
G04 #@! TD.AperFunction*
G04 #@! TD*
D13*
G04 #@! TO.P,Q4,1*
G04 #@! TO.N,GND*
X13802200Y-6056000D03*
D14*
G04 #@! TO.P,Q4,3*
G04 #@! TO.N,Net-(Q4-Pad3)*
X14310200Y-6056000D03*
G04 #@! TO.P,Q4,2*
G04 #@! TO.N,Net-(Q4-Pad2)*
X14056200Y-6056000D03*
G04 #@! TD*
G04 #@! TO.P,U1,12*
G04 #@! TO.N,Net-(Q1-Pad3)*
X9433400Y-5776600D03*
G04 #@! TO.P,U1,11*
G04 #@! TO.N,Net-(R1-Pad1)*
X9687400Y-5776600D03*
G04 #@! TO.P,U1,10*
G04 #@! TO.N,Net-(R6-Pad1)*
X9941400Y-5776600D03*
G04 #@! TO.P,U1,9*
G04 #@! TO.N,Net-(Q2-Pad3)*
X10195400Y-5776600D03*
G04 #@! TO.P,U1,8*
G04 #@! TO.N,Net-(Q3-Pad3)*
X10449400Y-5776600D03*
G04 #@! TO.P,U1,7*
G04 #@! TO.N,Net-(R2-Pad1)*
X10703400Y-5776600D03*
G04 #@! TO.P,U1,6*
G04 #@! TO.N,Net-(Q4-Pad3)*
X10703400Y-7300600D03*
G04 #@! TO.P,U1,5*
G04 #@! TO.N,Net-(R7-Pad1)*
X10449400Y-7300600D03*
G04 #@! TO.P,U1,4*
G04 #@! TO.N,Net-(R3-Pad1)*
X10195400Y-7300600D03*
G04 #@! TO.P,U1,3*
G04 #@! TO.N,Net-(R8-Pad1)*
X9941400Y-7300600D03*
G04 #@! TO.P,U1,2*
G04 #@! TO.N,Net-(R4-Pad1)*
X9687400Y-7300600D03*
D13*
G04 #@! TO.P,U1,1*
G04 #@! TO.N,Net-(R5-Pad1)*
X9433400Y-7300600D03*
G04 #@! TD*
G04 #@! TO.P,U4,1*
G04 #@! TO.N,/VREF2.5V*
X5667000Y-11209500D03*
D14*
G04 #@! TO.P,U4,3*
X6175000Y-11209500D03*
G04 #@! TO.P,U4,2*
G04 #@! TO.N,GND*
X5921000Y-11209500D03*
G04 #@! TD*
D10*
G04 #@! TO.P,SW6,6*
G04 #@! TO.N,Net-(SW6-Pad6)*
X13751400Y-12008400D03*
G04 #@! TO.P,SW6,3*
G04 #@! TO.N,+5V*
X14151400Y-12458400D03*
G04 #@! TO.P,SW6,5*
G04 #@! TO.N,Net-(J4-Pad1)*
X13951400Y-12008400D03*
G04 #@! TO.P,SW6,2*
X13951400Y-12458400D03*
G04 #@! TO.P,SW6,4*
G04 #@! TO.N,+5V*
X14151400Y-12008400D03*
D11*
G04 #@! TO.P,SW6,1*
G04 #@! TO.N,Net-(SW6-Pad1)*
X13751400Y-12458400D03*
G04 #@! TD*
D15*
G04 #@! TO.P,RV2,3*
G04 #@! TO.N,GND*
X8608000Y-11207000D03*
G04 #@! TO.P,RV2,2*
G04 #@! TO.N,Net-(RV2-Pad2)*
X8354000Y-11207000D03*
G04 #@! TO.P,RV2,1*
G04 #@! TO.N,Net-(R28-Pad1)*
X8100000Y-11207000D03*
G04 #@! TD*
G04 #@! TO.P,RV1,3*
G04 #@! TO.N,Net-(R27-Pad2)*
X8608000Y-11764500D03*
G04 #@! TO.P,RV1,2*
G04 #@! TO.N,/S9013*
X8354000Y-11764500D03*
G04 #@! TO.P,RV1,1*
G04 #@! TO.N,Net-(R26-Pad2)*
X8100000Y-11764500D03*
G04 #@! TD*
D12*
G04 #@! TO.P,J2,2*
G04 #@! TO.N,GND*
X5993000Y-14518000D03*
G04 #@! TO.P,J2,1*
G04 #@! TO.N,/Howland*
G04 #@! TA.AperFunction,ComponentPad*
G36*
G01*
X6328000Y-14443000D02*
X6328000Y-14593000D01*
G75*
G02*
X6303000Y-14618000I-25000J0D01*
G01*
X6183000Y-14618000D01*
G75*
G02*
X6158000Y-14593000I0J25000D01*
G01*
X6158000Y-14443000D01*
G75*
G02*
X6183000Y-14418000I25000J0D01*
G01*
X6303000Y-14418000D01*
G75*
G02*
X6328000Y-14443000I0J-25000D01*
G01*
G37*
G04 #@! TD.AperFunction*
G04 #@! TD*
D13*
G04 #@! TO.P,Q3,1*
G04 #@! TO.N,GND*
X13802200Y-6716400D03*
D14*
G04 #@! TO.P,Q3,3*
G04 #@! TO.N,Net-(Q3-Pad3)*
X14310200Y-6716400D03*
G04 #@! TO.P,Q3,2*
G04 #@! TO.N,Net-(Q3-Pad2)*
X14056200Y-6716400D03*
G04 #@! TD*
D13*
G04 #@! TO.P,Q2,1*
G04 #@! TO.N,GND*
X13802200Y-7376800D03*
D14*
G04 #@! TO.P,Q2,3*
G04 #@! TO.N,Net-(Q2-Pad3)*
X14310200Y-7376800D03*
G04 #@! TO.P,Q2,2*
G04 #@! TO.N,Net-(Q2-Pad2)*
X14056200Y-7376800D03*
G04 #@! TD*
D13*
G04 #@! TO.P,Q1,1*
G04 #@! TO.N,GND*
X13802200Y-8037200D03*
D14*
G04 #@! TO.P,Q1,3*
G04 #@! TO.N,Net-(Q1-Pad3)*
X14310200Y-8037200D03*
G04 #@! TO.P,Q1,2*
G04 #@! TO.N,Net-(Q1-Pad2)*
X14056200Y-8037200D03*
G04 #@! TD*
D16*
G04 #@! TO.P,J4,6*
G04 #@! TO.N,GND*
X14836600Y-11071600D03*
X14836600Y-11711600D03*
G04 #@! TD*
D17*
G04 #@! TO.P,J1,4*
G04 #@! TO.N,GND*
X14310000Y-8753000D03*
G04 #@! TO.P,J1,3*
G04 #@! TO.N,VDD*
X14310000Y-9007000D03*
G04 #@! TO.P,J1,2*
G04 #@! TO.N,/SWCLK*
X14310000Y-9261000D03*
D18*
G04 #@! TO.P,J1,1*
G04 #@! TO.N,/SWDIO*
X14310000Y-9515000D03*
G04 #@! TD*
D19*
G04 #@! TO.N,GND*
X10100000Y-10700000D03*
X11400000Y-10800000D03*
X10946000Y-8488000D03*
X14320000Y-12940000D03*
X14330000Y-13140000D03*
X14330000Y-13370000D03*
X14324000Y-13576000D03*
X13200000Y-10790000D03*
X13200000Y-11860000D03*
X10710000Y-9410000D03*
X10650000Y-9750000D03*
X10973537Y-9943487D03*
X11195142Y-9943192D03*
X5770000Y-12189500D03*
X7370000Y-12904500D03*
X13620000Y-13760000D03*
X5795000Y-13037000D03*
X5795000Y-12790000D03*
X10595000Y-8500000D03*
X11150000Y-9460000D03*
X9968000Y-9947000D03*
X9975000Y-9026000D03*
X12160501Y-9456859D03*
X9680000Y-11530000D03*
X11708000Y-11531000D03*
X11242000Y-7884000D03*
X13035000Y-5744000D03*
X13036000Y-5993000D03*
X13037000Y-6230000D03*
G04 #@! TO.N,VDD*
X11595000Y-9195000D03*
G04 #@! TO.N,+5V*
X6320000Y-12972000D03*
X6680000Y-10384000D03*
G04 #@! TO.N,VDD*
X8345000Y-13460000D03*
G04 #@! TO.N,/LED_A*
X9180000Y-8080000D03*
X11050000Y-8080000D03*
G04 #@! TO.N,/LED_DP*
X9941400Y-8358600D03*
X11520000Y-9787497D03*
G04 #@! TO.N,/LED_G*
X10450000Y-8290000D03*
X11620000Y-9844998D03*
G04 #@! TO.N,/LED_F*
X10710000Y-8220001D03*
X11710000Y-9895299D03*
G04 #@! TO.N,/LED_D*
X10300000Y-9100001D03*
X10967269Y-9567270D03*
G04 #@! TO.N,/LED_C*
X10195400Y-8485400D03*
X10880000Y-9640000D03*
G04 #@! TO.N,/ADC_IN*
X7394000Y-12529000D03*
X9325159Y-10924298D03*
G04 #@! TO.N,/LED_E*
X9430000Y-8150000D03*
X11800000Y-9960000D03*
G04 #@! TO.N,/S9013_IN*
X5854000Y-13627000D03*
G04 #@! TO.N,/NTC_IN*
X6859000Y-13480000D03*
G04 #@! TO.N,/S9013_IN*
X9431305Y-11082176D03*
G04 #@! TO.N,/NTC_IN*
X9375000Y-11005000D03*
G04 #@! TO.N,/C*
X12092000Y-8200000D03*
X10773350Y-10260972D03*
G04 #@! TO.N,/F*
X10895009Y-10325811D03*
X12308000Y-8200000D03*
G04 #@! TO.N,/K*
X11036000Y-10393312D03*
X12524000Y-8200000D03*
G04 #@! TO.N,/HOLD*
X11188000Y-9718000D03*
X11989000Y-8229000D03*
G04 #@! TD*
D20*
G04 #@! TO.N,VDD*
X11695000Y-9095000D02*
X11595000Y-9195000D01*
X11695000Y-8790000D02*
X11695000Y-9095000D01*
D21*
G04 #@! TO.N,+5V*
X6320000Y-12972000D02*
X6320000Y-11362000D01*
X6680000Y-11002000D02*
X6680000Y-10384000D01*
X6320000Y-11362000D02*
X6680000Y-11002000D01*
D20*
G04 #@! TO.N,VDD*
X8345000Y-12946000D02*
X8345000Y-13460000D01*
D22*
G04 #@! TO.N,/LED_A*
X9180000Y-8080000D02*
X9181000Y-8079000D01*
X9180000Y-8080000D02*
X11050000Y-8080000D01*
X11050000Y-8080000D02*
X11050000Y-8080000D01*
G04 #@! TO.N,/LED_DP*
X11846994Y-9460503D02*
X11520000Y-9787497D01*
X11069900Y-8358600D02*
X11171000Y-8257500D01*
X11171000Y-8257500D02*
X11729000Y-8257500D01*
X11729000Y-8257500D02*
X11846994Y-8375494D01*
X11846994Y-8375494D02*
X11846994Y-9460503D01*
X9941400Y-8358600D02*
X11069900Y-8358600D01*
G04 #@! TO.N,/LED_G*
X11152360Y-8212499D02*
X11747640Y-8212499D01*
X11747640Y-8212499D02*
X11891996Y-8356854D01*
X11074859Y-8290000D02*
X11152360Y-8212499D01*
X11891996Y-9573002D02*
X11620000Y-9844998D01*
X10450000Y-8290000D02*
X11074859Y-8290000D01*
X11891996Y-8356854D02*
X11891996Y-9573002D01*
G04 #@! TO.N,/LED_F*
X11766280Y-8167498D02*
X11936997Y-8338214D01*
X10710000Y-8220001D02*
X11081217Y-8220001D01*
X11133720Y-8167498D02*
X11766280Y-8167498D01*
X11081217Y-8220001D02*
X11133720Y-8167498D01*
X11936997Y-9668302D02*
X11710000Y-9895299D01*
X11936997Y-8338214D02*
X11936997Y-9668302D01*
G04 #@! TO.N,/LED_D*
X10300000Y-9100001D02*
X10300000Y-9230000D01*
X10637270Y-9567270D02*
X10967269Y-9567270D01*
X10300000Y-9230000D02*
X10637270Y-9567270D01*
G04 #@! TO.N,/LED_C*
X10195400Y-8485400D02*
X10195400Y-9195400D01*
X10640000Y-9640000D02*
X10880000Y-9640000D01*
X10195400Y-9195400D02*
X10640000Y-9640000D01*
D23*
G04 #@! TO.N,/ADC_IN*
X7768702Y-10924298D02*
X9325159Y-10924298D01*
X7394000Y-12529000D02*
X7394000Y-11299000D01*
X7394000Y-11299000D02*
X7768702Y-10924298D01*
D22*
G04 #@! TO.N,/LED_E*
X11981998Y-8319574D02*
X11784920Y-8122497D01*
X11087577Y-8150000D02*
X9430000Y-8150000D01*
X11784920Y-8122497D02*
X11115080Y-8122497D01*
X11981998Y-9778002D02*
X11981998Y-8319574D01*
X11800000Y-9960000D02*
X11981998Y-9778002D01*
X11115080Y-8122497D02*
X11087577Y-8150000D01*
D23*
G04 #@! TO.N,/S9013_IN*
X8545000Y-12946000D02*
X8545000Y-13489000D01*
X8545000Y-13489000D02*
X8407000Y-13627000D01*
X8407000Y-13627000D02*
X5854000Y-13627000D01*
G04 #@! TO.N,/NTC_IN*
X8032000Y-13480000D02*
X6859000Y-13480000D01*
X8145000Y-13367000D02*
X8032000Y-13480000D01*
X8145000Y-12946000D02*
X8145000Y-13367000D01*
D22*
G04 #@! TO.N,/S9013_IN*
X8947641Y-12946000D02*
X9431305Y-12462336D01*
X9431305Y-12462336D02*
X9431305Y-11082176D01*
X8545000Y-12946000D02*
X8947641Y-12946000D01*
G04 #@! TO.N,/NTC_IN*
X8261000Y-12830000D02*
X9000000Y-12830000D01*
X9340000Y-12490000D02*
X9340000Y-11040000D01*
X9000000Y-12830000D02*
X9340000Y-12490000D01*
X8145000Y-12946000D02*
X8261000Y-12830000D01*
X9340000Y-11040000D02*
X9375000Y-11005000D01*
G04 #@! TO.N,/C*
X12092000Y-8200000D02*
X12092000Y-9827718D01*
X12092000Y-9827718D02*
X11661718Y-10258000D01*
X11661718Y-10258000D02*
X10776323Y-10258000D01*
X10776323Y-10258000D02*
X10773350Y-10260972D01*
G04 #@! TO.N,/F*
X11657548Y-10325811D02*
X10895009Y-10325811D01*
X12308000Y-9675359D02*
X11657548Y-10325811D01*
X12308000Y-8200000D02*
X12308000Y-9675359D01*
G04 #@! TO.N,/K*
X12524000Y-9523000D02*
X11658000Y-10389000D01*
X11040312Y-10389000D02*
X11036000Y-10393312D01*
X11658000Y-10389000D02*
X11040312Y-10389000D01*
X12524000Y-8200000D02*
X12524000Y-9523000D01*
G04 #@! TO.N,/HOLD*
X12026999Y-8266999D02*
X11989000Y-8229000D01*
X12026999Y-9829078D02*
X12026999Y-8266999D01*
X11819077Y-10037000D02*
X12026999Y-9829078D01*
X11507000Y-10037000D02*
X11819077Y-10037000D01*
X11188000Y-9718000D02*
X11507000Y-10037000D01*
G04 #@! TD*
G04 #@! TO.N,GND*
X14887679Y-5605178D02*
X14887679Y-10987380D01*
X14881600Y-10986600D01*
X14839100Y-10986600D01*
X14839100Y-11069100D01*
X14841100Y-11069100D01*
X14841100Y-11074100D01*
X14839100Y-11074100D01*
X14839100Y-11156600D01*
X14881600Y-11156600D01*
X14887679Y-11155820D01*
X14887679Y-11627380D01*
X14881600Y-11626600D01*
X14839100Y-11626600D01*
X14839100Y-11709100D01*
X14841100Y-11709100D01*
X14841100Y-11714100D01*
X14839100Y-11714100D01*
X14839100Y-11796600D01*
X14881600Y-11796600D01*
X14887679Y-11795820D01*
X14887679Y-14887500D01*
X5112679Y-14887500D01*
X5112679Y-14520500D01*
X5875500Y-14520500D01*
X5875500Y-14535500D01*
X5878245Y-14558375D01*
X5885401Y-14580275D01*
X5896691Y-14600358D01*
X5911683Y-14617853D01*
X5929799Y-14632087D01*
X5950344Y-14642512D01*
X5972154Y-14648636D01*
X5990500Y-14642346D01*
X5990500Y-14520500D01*
X5995500Y-14520500D01*
X5995500Y-14642346D01*
X6013846Y-14648636D01*
X6035656Y-14642512D01*
X6056201Y-14632087D01*
X6074317Y-14617853D01*
X6089309Y-14600358D01*
X6100599Y-14580275D01*
X6107754Y-14558375D01*
X6110500Y-14535500D01*
X6110500Y-14520500D01*
X5995500Y-14520500D01*
X5990500Y-14520500D01*
X5875500Y-14520500D01*
X5112679Y-14520500D01*
X5112679Y-14500500D01*
X5875500Y-14500500D01*
X5875500Y-14515500D01*
X5990500Y-14515500D01*
X5990500Y-14393654D01*
X5995500Y-14393654D01*
X5995500Y-14515500D01*
X6110500Y-14515500D01*
X6110500Y-14500500D01*
X6107754Y-14477625D01*
X6100599Y-14455725D01*
X6093445Y-14443000D01*
X6125343Y-14443000D01*
X6125343Y-14593000D01*
X6126451Y-14604248D01*
X6129732Y-14615064D01*
X6135060Y-14625033D01*
X6142230Y-14633770D01*
X6150967Y-14640940D01*
X6160935Y-14646268D01*
X6171752Y-14649549D01*
X6183000Y-14650657D01*
X6303000Y-14650657D01*
X6314248Y-14649549D01*
X6325064Y-14646268D01*
X6335033Y-14640940D01*
X6343770Y-14633770D01*
X6350940Y-14625033D01*
X6356268Y-14615064D01*
X6359549Y-14604248D01*
X6360657Y-14593000D01*
X6360657Y-14520500D01*
X6726500Y-14520500D01*
X6726500Y-14535500D01*
X6729245Y-14558375D01*
X6736401Y-14580275D01*
X6747691Y-14600358D01*
X6762683Y-14617853D01*
X6780799Y-14632087D01*
X6801344Y-14642512D01*
X6823154Y-14648636D01*
X6841500Y-14642346D01*
X6841500Y-14520500D01*
X6846500Y-14520500D01*
X6846500Y-14642346D01*
X6864846Y-14648636D01*
X6886656Y-14642512D01*
X6907201Y-14632087D01*
X6925317Y-14617853D01*
X6940309Y-14600358D01*
X6951599Y-14580275D01*
X6958754Y-14558375D01*
X6961500Y-14535500D01*
X6961500Y-14520500D01*
X6846500Y-14520500D01*
X6841500Y-14520500D01*
X6726500Y-14520500D01*
X6360657Y-14520500D01*
X6360657Y-14500500D01*
X6726500Y-14500500D01*
X6726500Y-14515500D01*
X6841500Y-14515500D01*
X6841500Y-14393654D01*
X6846500Y-14393654D01*
X6846500Y-14515500D01*
X6961500Y-14515500D01*
X6961500Y-14500500D01*
X6958754Y-14477625D01*
X6951599Y-14455725D01*
X6944445Y-14443000D01*
X6976343Y-14443000D01*
X6976343Y-14593000D01*
X6977451Y-14604248D01*
X6980732Y-14615064D01*
X6986060Y-14625033D01*
X6993230Y-14633770D01*
X7001967Y-14640940D01*
X7011935Y-14646268D01*
X7022752Y-14649549D01*
X7034000Y-14650657D01*
X7154000Y-14650657D01*
X7165248Y-14649549D01*
X7176064Y-14646268D01*
X7186033Y-14640940D01*
X7194770Y-14633770D01*
X7201940Y-14625033D01*
X7207268Y-14615064D01*
X7210549Y-14604248D01*
X7211657Y-14593000D01*
X7211657Y-14443000D01*
X7210549Y-14431752D01*
X7207268Y-14420935D01*
X7201940Y-14410967D01*
X7194770Y-14402230D01*
X7186033Y-14395060D01*
X7176064Y-14389732D01*
X7165248Y-14386451D01*
X7154000Y-14385343D01*
X7034000Y-14385343D01*
X7022752Y-14386451D01*
X7011935Y-14389732D01*
X7001967Y-14395060D01*
X6993230Y-14402230D01*
X6986060Y-14410967D01*
X6980732Y-14420935D01*
X6977451Y-14431752D01*
X6976343Y-14443000D01*
X6944445Y-14443000D01*
X6940309Y-14435642D01*
X6925317Y-14418147D01*
X6907201Y-14403913D01*
X6886656Y-14393487D01*
X6864846Y-14387364D01*
X6846500Y-14393654D01*
X6841500Y-14393654D01*
X6823154Y-14387364D01*
X6801344Y-14393487D01*
X6780799Y-14403913D01*
X6762683Y-14418147D01*
X6747691Y-14435642D01*
X6736401Y-14455725D01*
X6729245Y-14477625D01*
X6726500Y-14500500D01*
X6360657Y-14500500D01*
X6360657Y-14443000D01*
X6359549Y-14431752D01*
X6356268Y-14420935D01*
X6350940Y-14410967D01*
X6343770Y-14402230D01*
X6335033Y-14395060D01*
X6325064Y-14389732D01*
X6314248Y-14386451D01*
X6303000Y-14385343D01*
X6183000Y-14385343D01*
X6171752Y-14386451D01*
X6160935Y-14389732D01*
X6150967Y-14395060D01*
X6142230Y-14402230D01*
X6135060Y-14410967D01*
X6129732Y-14420935D01*
X6126451Y-14431752D01*
X6125343Y-14443000D01*
X6093445Y-14443000D01*
X6089309Y-14435642D01*
X6074317Y-14418147D01*
X6056201Y-14403913D01*
X6035656Y-14393487D01*
X6013846Y-14387364D01*
X5995500Y-14393654D01*
X5990500Y-14393654D01*
X5972154Y-14387364D01*
X5950344Y-14393487D01*
X5929799Y-14403913D01*
X5911683Y-14418147D01*
X5896691Y-14435642D01*
X5885401Y-14455725D01*
X5878245Y-14477625D01*
X5875500Y-14500500D01*
X5112679Y-14500500D01*
X5112679Y-13620352D01*
X5786500Y-13620352D01*
X5786500Y-13633648D01*
X5789094Y-13646689D01*
X5794182Y-13658973D01*
X5801569Y-13670029D01*
X5810971Y-13679431D01*
X5822027Y-13686818D01*
X5834311Y-13691906D01*
X5847352Y-13694500D01*
X5860648Y-13694500D01*
X5873689Y-13691906D01*
X5885973Y-13686818D01*
X5889442Y-13684500D01*
X8404176Y-13684500D01*
X8407000Y-13684778D01*
X8409824Y-13684500D01*
X8409825Y-13684500D01*
X8418272Y-13683668D01*
X8429111Y-13680380D01*
X8439100Y-13675041D01*
X8447855Y-13667855D01*
X8449657Y-13665661D01*
X8583661Y-13531656D01*
X8585855Y-13529855D01*
X8593041Y-13521100D01*
X8598380Y-13511111D01*
X8601668Y-13500272D01*
X8602500Y-13491825D01*
X8602500Y-13491824D01*
X8602778Y-13489000D01*
X8602500Y-13486176D01*
X8602500Y-13042882D01*
X8616715Y-13033384D01*
X8632384Y-13017714D01*
X8644696Y-12999289D01*
X8648130Y-12991000D01*
X8945432Y-12991000D01*
X8947641Y-12991218D01*
X8949851Y-12991000D01*
X8949852Y-12991000D01*
X8956463Y-12990349D01*
X8964945Y-12987776D01*
X8972763Y-12983597D01*
X8979615Y-12977974D01*
X8981024Y-12976257D01*
X9461563Y-12495718D01*
X9463279Y-12494309D01*
X9464688Y-12492593D01*
X9464688Y-12492593D01*
X9468902Y-12487457D01*
X9473081Y-12479640D01*
X9473081Y-12479640D01*
X9475654Y-12471157D01*
X9476305Y-12464546D01*
X9476305Y-12464545D01*
X9476523Y-12462336D01*
X9476305Y-12460126D01*
X9476305Y-12378400D01*
X13638743Y-12378400D01*
X13638743Y-12538400D01*
X13639370Y-12544771D01*
X13641229Y-12550897D01*
X13644246Y-12556543D01*
X13648308Y-12561492D01*
X13653257Y-12565553D01*
X13658903Y-12568571D01*
X13665029Y-12570430D01*
X13671400Y-12571057D01*
X13831400Y-12571057D01*
X13837771Y-12570430D01*
X13843897Y-12568571D01*
X13849543Y-12565553D01*
X13854492Y-12561492D01*
X13858553Y-12556543D01*
X13861571Y-12550897D01*
X13863430Y-12544771D01*
X13864057Y-12538400D01*
X13864057Y-12530156D01*
X13879685Y-12545784D01*
X13898111Y-12558096D01*
X13918585Y-12566577D01*
X13940320Y-12570900D01*
X13962480Y-12570900D01*
X13984215Y-12566577D01*
X14004689Y-12558096D01*
X14023114Y-12545784D01*
X14038784Y-12530114D01*
X14051096Y-12511689D01*
X14051400Y-12510955D01*
X14051704Y-12511689D01*
X14064016Y-12530114D01*
X14079685Y-12545784D01*
X14098111Y-12558096D01*
X14118585Y-12566577D01*
X14140320Y-12570900D01*
X14162480Y-12570900D01*
X14184215Y-12566577D01*
X14204689Y-12558096D01*
X14223114Y-12545784D01*
X14238784Y-12530114D01*
X14251096Y-12511689D01*
X14259577Y-12491215D01*
X14263900Y-12469480D01*
X14263900Y-12447320D01*
X14259577Y-12425585D01*
X14251096Y-12405111D01*
X14238784Y-12386685D01*
X14223114Y-12371016D01*
X14204689Y-12358704D01*
X14184215Y-12350223D01*
X14162480Y-12345900D01*
X14140320Y-12345900D01*
X14118585Y-12350223D01*
X14098111Y-12358704D01*
X14079685Y-12371016D01*
X14064016Y-12386685D01*
X14051704Y-12405111D01*
X14051400Y-12405845D01*
X14051096Y-12405111D01*
X14038784Y-12386685D01*
X14023114Y-12371016D01*
X14004689Y-12358704D01*
X13984215Y-12350223D01*
X13962480Y-12345900D01*
X13940320Y-12345900D01*
X13918585Y-12350223D01*
X13898111Y-12358704D01*
X13879685Y-12371016D01*
X13864057Y-12386644D01*
X13864057Y-12378400D01*
X13863430Y-12372029D01*
X13861571Y-12365903D01*
X13858553Y-12360257D01*
X13854492Y-12355308D01*
X13849543Y-12351246D01*
X13843897Y-12348229D01*
X13837771Y-12346370D01*
X13831400Y-12345743D01*
X13671400Y-12345743D01*
X13665029Y-12346370D01*
X13658903Y-12348229D01*
X13653257Y-12351246D01*
X13648308Y-12355308D01*
X13644246Y-12360257D01*
X13641229Y-12365903D01*
X13639370Y-12372029D01*
X13638743Y-12378400D01*
X9476305Y-12378400D01*
X9476305Y-11997320D01*
X13638900Y-11997320D01*
X13638900Y-12019480D01*
X13643223Y-12041215D01*
X13651704Y-12061689D01*
X13664016Y-12080114D01*
X13679685Y-12095784D01*
X13698111Y-12108096D01*
X13718585Y-12116577D01*
X13740320Y-12120900D01*
X13762480Y-12120900D01*
X13784215Y-12116577D01*
X13804689Y-12108096D01*
X13823114Y-12095784D01*
X13838784Y-12080114D01*
X13851096Y-12061689D01*
X13851400Y-12060955D01*
X13851704Y-12061689D01*
X13864016Y-12080114D01*
X13879685Y-12095784D01*
X13898111Y-12108096D01*
X13918585Y-12116577D01*
X13940320Y-12120900D01*
X13962480Y-12120900D01*
X13984215Y-12116577D01*
X14004689Y-12108096D01*
X14023114Y-12095784D01*
X14038784Y-12080114D01*
X14051096Y-12061689D01*
X14051400Y-12060955D01*
X14051704Y-12061689D01*
X14064016Y-12080114D01*
X14079685Y-12095784D01*
X14098111Y-12108096D01*
X14118585Y-12116577D01*
X14140320Y-12120900D01*
X14162480Y-12120900D01*
X14184215Y-12116577D01*
X14204689Y-12108096D01*
X14223114Y-12095784D01*
X14238784Y-12080114D01*
X14251096Y-12061689D01*
X14259577Y-12041215D01*
X14263900Y-12019480D01*
X14263900Y-11997320D01*
X14259577Y-11975585D01*
X14251096Y-11955111D01*
X14238784Y-11936685D01*
X14223114Y-11921016D01*
X14204689Y-11908704D01*
X14184215Y-11900223D01*
X14162480Y-11895900D01*
X14140320Y-11895900D01*
X14118585Y-11900223D01*
X14098111Y-11908704D01*
X14079685Y-11921016D01*
X14064016Y-11936685D01*
X14051704Y-11955111D01*
X14051400Y-11955845D01*
X14051096Y-11955111D01*
X14038784Y-11936685D01*
X14023114Y-11921016D01*
X14004689Y-11908704D01*
X13984215Y-11900223D01*
X13962480Y-11895900D01*
X13940320Y-11895900D01*
X13918585Y-11900223D01*
X13898111Y-11908704D01*
X13879685Y-11921016D01*
X13864016Y-11936685D01*
X13851704Y-11955111D01*
X13851400Y-11955845D01*
X13851096Y-11955111D01*
X13838784Y-11936685D01*
X13823114Y-11921016D01*
X13804689Y-11908704D01*
X13784215Y-11900223D01*
X13762480Y-11895900D01*
X13740320Y-11895900D01*
X13718585Y-11900223D01*
X13698111Y-11908704D01*
X13679685Y-11921016D01*
X13664016Y-11936685D01*
X13651704Y-11955111D01*
X13643223Y-11975585D01*
X13638900Y-11997320D01*
X9476305Y-11997320D01*
X9476305Y-11727360D01*
X14710574Y-11727360D01*
X14714614Y-11741818D01*
X14722036Y-11756745D01*
X14732228Y-11769936D01*
X14744798Y-11780886D01*
X14759262Y-11789173D01*
X14775065Y-11794479D01*
X14791600Y-11796600D01*
X14834100Y-11796600D01*
X14834100Y-11714100D01*
X14717266Y-11714100D01*
X14710574Y-11727360D01*
X9476305Y-11727360D01*
X9476305Y-11695840D01*
X14710574Y-11695840D01*
X14717266Y-11709100D01*
X14834100Y-11709100D01*
X14834100Y-11626600D01*
X14791600Y-11626600D01*
X14775065Y-11628721D01*
X14759262Y-11634027D01*
X14744798Y-11642314D01*
X14732228Y-11653264D01*
X14722036Y-11666455D01*
X14714614Y-11681382D01*
X14710574Y-11695840D01*
X9476305Y-11695840D01*
X9476305Y-11132635D01*
X9483736Y-11125204D01*
X9491123Y-11114149D01*
X9496211Y-11101865D01*
X9498805Y-11088824D01*
X9498805Y-11087360D01*
X14710574Y-11087360D01*
X14714614Y-11101818D01*
X14722036Y-11116745D01*
X14732228Y-11129936D01*
X14744798Y-11140886D01*
X14759262Y-11149173D01*
X14775065Y-11154479D01*
X14791600Y-11156600D01*
X14834100Y-11156600D01*
X14834100Y-11074100D01*
X14717266Y-11074100D01*
X14710574Y-11087360D01*
X9498805Y-11087360D01*
X9498805Y-11075527D01*
X9496211Y-11062487D01*
X9493458Y-11055840D01*
X14710574Y-11055840D01*
X14717266Y-11069100D01*
X14834100Y-11069100D01*
X14834100Y-10986600D01*
X14791600Y-10986600D01*
X14775065Y-10988721D01*
X14759262Y-10994027D01*
X14744798Y-11002314D01*
X14732228Y-11013264D01*
X14722036Y-11026455D01*
X14714614Y-11041382D01*
X14710574Y-11055840D01*
X9493458Y-11055840D01*
X9491123Y-11050202D01*
X9483736Y-11039147D01*
X9474334Y-11029745D01*
X9463279Y-11022358D01*
X9450994Y-11017270D01*
X9441748Y-11015430D01*
X9442500Y-11011648D01*
X9442500Y-10998352D01*
X9439906Y-10985311D01*
X9434818Y-10973027D01*
X9427431Y-10961971D01*
X9418029Y-10952569D01*
X9406973Y-10945182D01*
X9394689Y-10940094D01*
X9390986Y-10939357D01*
X9392659Y-10930946D01*
X9392659Y-10917649D01*
X9390065Y-10904609D01*
X9384976Y-10892324D01*
X9377589Y-10881269D01*
X9368187Y-10871867D01*
X9357132Y-10864480D01*
X9344848Y-10859392D01*
X9331807Y-10856798D01*
X9318511Y-10856798D01*
X9305470Y-10859392D01*
X9293186Y-10864480D01*
X9289717Y-10866798D01*
X7771527Y-10866798D01*
X7768702Y-10866519D01*
X7765878Y-10866798D01*
X7765878Y-10866798D01*
X7757430Y-10867630D01*
X7746592Y-10870917D01*
X7736603Y-10876257D01*
X7727847Y-10883442D01*
X7726046Y-10885636D01*
X7355339Y-11256344D01*
X7353145Y-11258145D01*
X7351344Y-11260339D01*
X7345959Y-11266900D01*
X7340620Y-11276889D01*
X7337332Y-11287728D01*
X7336222Y-11299000D01*
X7336500Y-11301825D01*
X7336500Y-12493558D01*
X7334182Y-12497027D01*
X7329094Y-12509311D01*
X7326500Y-12522352D01*
X7326500Y-12535648D01*
X7329094Y-12548689D01*
X7334182Y-12560973D01*
X7341569Y-12572029D01*
X7350971Y-12581431D01*
X7362027Y-12588818D01*
X7374311Y-12593906D01*
X7387352Y-12596500D01*
X7400648Y-12596500D01*
X7413689Y-12593906D01*
X7425973Y-12588818D01*
X7437029Y-12581431D01*
X7446431Y-12572029D01*
X7453818Y-12560973D01*
X7458906Y-12548689D01*
X7461500Y-12535648D01*
X7461500Y-12522352D01*
X7458906Y-12509311D01*
X7453818Y-12497027D01*
X7451500Y-12493558D01*
X7451500Y-12484920D01*
X8032500Y-12484920D01*
X8032500Y-12507080D01*
X8036823Y-12528815D01*
X8045304Y-12549289D01*
X8057616Y-12567714D01*
X8073285Y-12583384D01*
X8091711Y-12595696D01*
X8112185Y-12604177D01*
X8133920Y-12608500D01*
X8156080Y-12608500D01*
X8177815Y-12604177D01*
X8198289Y-12595696D01*
X8216714Y-12583384D01*
X8232384Y-12567714D01*
X8244696Y-12549289D01*
X8245000Y-12548555D01*
X8245304Y-12549289D01*
X8257616Y-12567714D01*
X8273285Y-12583384D01*
X8291711Y-12595696D01*
X8312185Y-12604177D01*
X8333920Y-12608500D01*
X8356080Y-12608500D01*
X8377815Y-12604177D01*
X8398289Y-12595696D01*
X8416715Y-12583384D01*
X8432343Y-12567756D01*
X8432343Y-12576000D01*
X8432970Y-12582371D01*
X8434829Y-12588497D01*
X8437847Y-12594143D01*
X8441908Y-12599092D01*
X8446857Y-12603153D01*
X8452503Y-12606171D01*
X8458629Y-12608030D01*
X8465000Y-12608657D01*
X8625000Y-12608657D01*
X8631371Y-12608030D01*
X8637497Y-12606171D01*
X8643143Y-12603153D01*
X8648092Y-12599092D01*
X8652154Y-12594143D01*
X8655171Y-12588497D01*
X8657030Y-12582371D01*
X8657657Y-12576000D01*
X8657657Y-12416000D01*
X8657030Y-12409629D01*
X8655171Y-12403503D01*
X8652154Y-12397857D01*
X8648092Y-12392908D01*
X8643143Y-12388846D01*
X8637497Y-12385829D01*
X8631371Y-12383970D01*
X8625000Y-12383343D01*
X8465000Y-12383343D01*
X8458629Y-12383970D01*
X8452503Y-12385829D01*
X8446857Y-12388846D01*
X8441908Y-12392908D01*
X8437847Y-12397857D01*
X8434829Y-12403503D01*
X8432970Y-12409629D01*
X8432343Y-12416000D01*
X8432343Y-12424244D01*
X8416715Y-12408616D01*
X8398289Y-12396304D01*
X8377815Y-12387823D01*
X8356080Y-12383500D01*
X8333920Y-12383500D01*
X8312185Y-12387823D01*
X8291711Y-12396304D01*
X8273285Y-12408616D01*
X8257616Y-12424285D01*
X8245304Y-12442711D01*
X8245000Y-12443445D01*
X8244696Y-12442711D01*
X8232384Y-12424285D01*
X8216714Y-12408616D01*
X8198289Y-12396304D01*
X8177815Y-12387823D01*
X8156080Y-12383500D01*
X8133920Y-12383500D01*
X8112185Y-12387823D01*
X8091711Y-12396304D01*
X8073285Y-12408616D01*
X8057616Y-12424285D01*
X8045304Y-12442711D01*
X8036823Y-12463185D01*
X8032500Y-12484920D01*
X7451500Y-12484920D01*
X7451500Y-11754208D01*
X7995500Y-11754208D01*
X7995500Y-11774792D01*
X7999516Y-11794981D01*
X8007393Y-11813999D01*
X8018830Y-11831115D01*
X8033385Y-11845670D01*
X8050501Y-11857107D01*
X8069518Y-11864984D01*
X8089708Y-11869000D01*
X8110292Y-11869000D01*
X8130481Y-11864984D01*
X8149499Y-11857107D01*
X8166615Y-11845670D01*
X8181170Y-11831115D01*
X8192607Y-11813999D01*
X8200484Y-11794981D01*
X8204500Y-11774792D01*
X8204500Y-11754208D01*
X8249500Y-11754208D01*
X8249500Y-11774792D01*
X8253516Y-11794981D01*
X8261393Y-11813999D01*
X8272830Y-11831115D01*
X8287385Y-11845670D01*
X8304501Y-11857107D01*
X8323518Y-11864984D01*
X8343708Y-11869000D01*
X8364292Y-11869000D01*
X8384481Y-11864984D01*
X8403499Y-11857107D01*
X8420615Y-11845670D01*
X8435170Y-11831115D01*
X8446607Y-11813999D01*
X8454484Y-11794981D01*
X8458500Y-11774792D01*
X8458500Y-11754208D01*
X8503500Y-11754208D01*
X8503500Y-11774792D01*
X8507516Y-11794981D01*
X8515393Y-11813999D01*
X8526830Y-11831115D01*
X8541385Y-11845670D01*
X8558501Y-11857107D01*
X8577519Y-11864984D01*
X8597708Y-11869000D01*
X8618292Y-11869000D01*
X8638482Y-11864984D01*
X8657499Y-11857107D01*
X8674615Y-11845670D01*
X8689170Y-11831115D01*
X8700607Y-11813999D01*
X8708484Y-11794981D01*
X8712500Y-11774792D01*
X8712500Y-11754208D01*
X8708484Y-11734018D01*
X8700607Y-11715001D01*
X8689170Y-11697885D01*
X8674615Y-11683330D01*
X8657499Y-11671893D01*
X8638482Y-11664016D01*
X8618292Y-11660000D01*
X8597708Y-11660000D01*
X8577519Y-11664016D01*
X8558501Y-11671893D01*
X8541385Y-11683330D01*
X8526830Y-11697885D01*
X8515393Y-11715001D01*
X8507516Y-11734018D01*
X8503500Y-11754208D01*
X8458500Y-11754208D01*
X8454484Y-11734018D01*
X8446607Y-11715001D01*
X8435170Y-11697885D01*
X8420615Y-11683330D01*
X8403499Y-11671893D01*
X8384481Y-11664016D01*
X8364292Y-11660000D01*
X8343708Y-11660000D01*
X8323518Y-11664016D01*
X8304501Y-11671893D01*
X8287385Y-11683330D01*
X8272830Y-11697885D01*
X8261393Y-11715001D01*
X8253516Y-11734018D01*
X8249500Y-11754208D01*
X8204500Y-11754208D01*
X8200484Y-11734018D01*
X8192607Y-11715001D01*
X8181170Y-11697885D01*
X8166615Y-11683330D01*
X8149499Y-11671893D01*
X8130481Y-11664016D01*
X8110292Y-11660000D01*
X8089708Y-11660000D01*
X8069518Y-11664016D01*
X8050501Y-11671893D01*
X8033385Y-11683330D01*
X8018830Y-11697885D01*
X8007393Y-11715001D01*
X7999516Y-11734018D01*
X7995500Y-11754208D01*
X7451500Y-11754208D01*
X7451500Y-11322817D01*
X7577609Y-11196708D01*
X7995500Y-11196708D01*
X7995500Y-11217292D01*
X7999516Y-11237481D01*
X8007393Y-11256499D01*
X8018830Y-11273615D01*
X8033385Y-11288170D01*
X8050501Y-11299607D01*
X8069518Y-11307484D01*
X8089708Y-11311500D01*
X8110292Y-11311500D01*
X8130481Y-11307484D01*
X8149499Y-11299607D01*
X8166615Y-11288170D01*
X8181170Y-11273615D01*
X8192607Y-11256499D01*
X8200484Y-11237481D01*
X8204500Y-11217292D01*
X8204500Y-11196708D01*
X8249500Y-11196708D01*
X8249500Y-11217292D01*
X8253516Y-11237481D01*
X8261393Y-11256499D01*
X8272830Y-11273615D01*
X8287385Y-11288170D01*
X8304501Y-11299607D01*
X8323518Y-11307484D01*
X8343708Y-11311500D01*
X8364292Y-11311500D01*
X8384481Y-11307484D01*
X8403499Y-11299607D01*
X8420615Y-11288170D01*
X8431535Y-11277250D01*
X8541286Y-11277250D01*
X8548319Y-11293397D01*
X8566321Y-11303380D01*
X8585925Y-11309659D01*
X8606377Y-11311993D01*
X8626891Y-11310292D01*
X8646679Y-11304622D01*
X8664981Y-11295200D01*
X8667681Y-11293397D01*
X8674714Y-11277250D01*
X8608000Y-11210535D01*
X8541286Y-11277250D01*
X8431535Y-11277250D01*
X8435170Y-11273615D01*
X8446607Y-11256499D01*
X8454484Y-11237481D01*
X8458500Y-11217292D01*
X8458500Y-11205377D01*
X8503007Y-11205377D01*
X8504708Y-11225891D01*
X8510378Y-11245679D01*
X8519800Y-11263981D01*
X8521603Y-11266681D01*
X8537750Y-11273714D01*
X8604465Y-11207000D01*
X8611536Y-11207000D01*
X8678250Y-11273714D01*
X8694397Y-11266681D01*
X8704380Y-11248679D01*
X8710659Y-11229075D01*
X8712993Y-11208623D01*
X8711292Y-11188109D01*
X8705622Y-11168321D01*
X8696200Y-11150019D01*
X8694397Y-11147319D01*
X8678250Y-11140286D01*
X8611536Y-11207000D01*
X8604465Y-11207000D01*
X8537750Y-11140286D01*
X8521603Y-11147319D01*
X8511620Y-11165321D01*
X8505341Y-11184925D01*
X8503007Y-11205377D01*
X8458500Y-11205377D01*
X8458500Y-11196708D01*
X8454484Y-11176519D01*
X8446607Y-11157501D01*
X8435170Y-11140385D01*
X8431535Y-11136750D01*
X8541286Y-11136750D01*
X8608000Y-11203464D01*
X8674714Y-11136750D01*
X8667681Y-11120603D01*
X8649679Y-11110620D01*
X8630075Y-11104341D01*
X8609623Y-11102007D01*
X8589109Y-11103708D01*
X8569321Y-11109378D01*
X8551019Y-11118800D01*
X8548319Y-11120603D01*
X8541286Y-11136750D01*
X8431535Y-11136750D01*
X8420615Y-11125830D01*
X8403499Y-11114393D01*
X8384481Y-11106516D01*
X8364292Y-11102500D01*
X8343708Y-11102500D01*
X8323518Y-11106516D01*
X8304501Y-11114393D01*
X8287385Y-11125830D01*
X8272830Y-11140385D01*
X8261393Y-11157501D01*
X8253516Y-11176519D01*
X8249500Y-11196708D01*
X8204500Y-11196708D01*
X8200484Y-11176519D01*
X8192607Y-11157501D01*
X8181170Y-11140385D01*
X8166615Y-11125830D01*
X8149499Y-11114393D01*
X8130481Y-11106516D01*
X8110292Y-11102500D01*
X8089708Y-11102500D01*
X8069518Y-11106516D01*
X8050501Y-11114393D01*
X8033385Y-11125830D01*
X8018830Y-11140385D01*
X8007393Y-11157501D01*
X7999516Y-11176519D01*
X7995500Y-11196708D01*
X7577609Y-11196708D01*
X7792520Y-10981798D01*
X9289717Y-10981798D01*
X9293186Y-10984115D01*
X9305470Y-10989204D01*
X9309173Y-10989940D01*
X9307500Y-10998352D01*
X9307500Y-11008668D01*
X9306618Y-11009743D01*
X9306617Y-11009743D01*
X9302403Y-11014878D01*
X9298225Y-11022696D01*
X9295651Y-11031179D01*
X9294783Y-11040000D01*
X9295000Y-11042210D01*
X9295000Y-12471360D01*
X8981361Y-12785000D01*
X8263209Y-12785000D01*
X8261000Y-12784782D01*
X8258791Y-12785000D01*
X8258789Y-12785000D01*
X8252178Y-12785651D01*
X8243696Y-12788224D01*
X8235878Y-12792403D01*
X8230743Y-12796617D01*
X8230743Y-12796618D01*
X8229026Y-12798026D01*
X8227618Y-12799743D01*
X8186104Y-12841257D01*
X8177815Y-12837823D01*
X8156080Y-12833500D01*
X8133920Y-12833500D01*
X8112185Y-12837823D01*
X8091711Y-12846304D01*
X8073285Y-12858616D01*
X8057616Y-12874285D01*
X8045304Y-12892711D01*
X8036823Y-12913185D01*
X8032500Y-12934920D01*
X8032500Y-12957080D01*
X8036823Y-12978815D01*
X8045304Y-12999289D01*
X8057616Y-13017714D01*
X8073285Y-13033384D01*
X8087500Y-13042882D01*
X8087500Y-13343183D01*
X8008183Y-13422500D01*
X6894442Y-13422500D01*
X6890973Y-13420182D01*
X6878689Y-13415094D01*
X6865648Y-13412500D01*
X6852352Y-13412500D01*
X6839311Y-13415094D01*
X6827027Y-13420182D01*
X6815971Y-13427569D01*
X6806569Y-13436971D01*
X6799182Y-13448027D01*
X6794094Y-13460311D01*
X6791500Y-13473352D01*
X6791500Y-13486648D01*
X6794094Y-13499689D01*
X6799182Y-13511973D01*
X6806569Y-13523029D01*
X6815971Y-13532431D01*
X6827027Y-13539818D01*
X6839311Y-13544906D01*
X6852352Y-13547500D01*
X6865648Y-13547500D01*
X6878689Y-13544906D01*
X6890973Y-13539818D01*
X6894442Y-13537500D01*
X8029176Y-13537500D01*
X8032000Y-13537778D01*
X8034824Y-13537500D01*
X8034825Y-13537500D01*
X8043272Y-13536668D01*
X8054111Y-13533380D01*
X8064100Y-13528041D01*
X8072855Y-13520855D01*
X8074656Y-13518661D01*
X8183661Y-13409656D01*
X8185855Y-13407855D01*
X8189278Y-13403685D01*
X8193041Y-13399100D01*
X8198380Y-13389111D01*
X8201668Y-13378272D01*
X8202500Y-13369825D01*
X8202500Y-13369824D01*
X8202778Y-13367000D01*
X8202500Y-13364176D01*
X8202500Y-13042882D01*
X8216714Y-13033384D01*
X8232384Y-13017714D01*
X8244696Y-12999289D01*
X8245000Y-12998555D01*
X8245304Y-12999289D01*
X8257616Y-13017714D01*
X8262500Y-13022599D01*
X8262500Y-13464052D01*
X8263694Y-13476173D01*
X8268411Y-13491724D01*
X8276072Y-13506056D01*
X8286382Y-13518618D01*
X8298944Y-13528928D01*
X8313276Y-13536589D01*
X8328827Y-13541306D01*
X8345000Y-13542899D01*
X8361173Y-13541306D01*
X8376724Y-13536589D01*
X8391056Y-13528928D01*
X8403619Y-13518618D01*
X8413928Y-13506056D01*
X8421589Y-13491724D01*
X8426306Y-13476173D01*
X8427500Y-13464052D01*
X8427500Y-13022599D01*
X8432384Y-13017714D01*
X8444696Y-12999289D01*
X8445000Y-12998555D01*
X8445304Y-12999289D01*
X8457616Y-13017714D01*
X8473286Y-13033384D01*
X8487500Y-13042882D01*
X8487500Y-13465183D01*
X8383183Y-13569500D01*
X5889442Y-13569500D01*
X5885973Y-13567182D01*
X5873689Y-13562094D01*
X5860648Y-13559500D01*
X5847352Y-13559500D01*
X5834311Y-13562094D01*
X5822027Y-13567182D01*
X5810971Y-13574569D01*
X5801569Y-13583971D01*
X5794182Y-13595027D01*
X5789094Y-13607311D01*
X5786500Y-13620352D01*
X5112679Y-13620352D01*
X5112679Y-11134500D01*
X5559343Y-11134500D01*
X5559343Y-11284500D01*
X5559970Y-11290871D01*
X5561829Y-11296997D01*
X5564847Y-11302643D01*
X5568908Y-11307592D01*
X5573857Y-11311653D01*
X5579503Y-11314671D01*
X5585629Y-11316530D01*
X5592000Y-11317157D01*
X5742000Y-11317157D01*
X5748371Y-11316530D01*
X5754497Y-11314671D01*
X5760143Y-11311653D01*
X5765092Y-11307592D01*
X5769153Y-11302643D01*
X5772171Y-11296997D01*
X5774030Y-11290871D01*
X5774657Y-11284500D01*
X5774657Y-11281882D01*
X5852153Y-11281882D01*
X5859547Y-11298336D01*
X5878059Y-11308618D01*
X5898221Y-11315091D01*
X5919258Y-11317506D01*
X5940363Y-11315771D01*
X5960723Y-11309951D01*
X5979557Y-11300271D01*
X5982453Y-11298336D01*
X5989847Y-11281882D01*
X5921000Y-11213035D01*
X5852153Y-11281882D01*
X5774657Y-11281882D01*
X5774657Y-11207758D01*
X5812994Y-11207758D01*
X5814729Y-11228863D01*
X5820549Y-11249223D01*
X5830229Y-11268057D01*
X5832164Y-11270953D01*
X5848618Y-11278347D01*
X5917464Y-11209500D01*
X5924535Y-11209500D01*
X5993382Y-11278347D01*
X6009836Y-11270953D01*
X6020118Y-11252441D01*
X6026591Y-11232279D01*
X6029006Y-11211242D01*
X6027992Y-11198912D01*
X6067500Y-11198912D01*
X6067500Y-11220088D01*
X6071631Y-11240857D01*
X6079735Y-11260420D01*
X6091499Y-11278027D01*
X6106473Y-11293001D01*
X6124080Y-11304765D01*
X6143643Y-11312869D01*
X6164412Y-11317000D01*
X6185588Y-11317000D01*
X6195805Y-11314968D01*
X6189417Y-11336025D01*
X6186859Y-11362000D01*
X6187500Y-11368510D01*
X6187500Y-12978509D01*
X6189417Y-12997974D01*
X6196994Y-13022951D01*
X6209297Y-13045969D01*
X6225855Y-13066145D01*
X6246031Y-13082703D01*
X6269049Y-13095006D01*
X6294025Y-13102583D01*
X6320000Y-13105141D01*
X6345974Y-13102583D01*
X6370951Y-13095006D01*
X6393969Y-13082703D01*
X6414145Y-13066145D01*
X6430703Y-13045969D01*
X6443006Y-13022951D01*
X6450583Y-12997974D01*
X6452500Y-12978509D01*
X6452500Y-11416883D01*
X6769089Y-11100294D01*
X6774145Y-11096145D01*
X6790703Y-11075969D01*
X6803006Y-11052951D01*
X6807605Y-11037790D01*
X6810583Y-11027975D01*
X6813141Y-11002000D01*
X6812500Y-10995491D01*
X6812500Y-10377491D01*
X6810583Y-10358026D01*
X6803006Y-10333049D01*
X6790703Y-10310031D01*
X6774145Y-10289855D01*
X6753969Y-10273297D01*
X6730951Y-10260994D01*
X6705974Y-10253417D01*
X6680000Y-10250859D01*
X6654026Y-10253417D01*
X6629049Y-10260994D01*
X6606031Y-10273297D01*
X6585855Y-10289855D01*
X6569297Y-10310031D01*
X6556994Y-10333049D01*
X6549417Y-10358026D01*
X6547500Y-10377491D01*
X6547500Y-10947117D01*
X6282500Y-11212117D01*
X6282500Y-11198912D01*
X6278369Y-11178143D01*
X6270265Y-11158580D01*
X6258501Y-11140973D01*
X6243527Y-11125999D01*
X6225920Y-11114235D01*
X6206357Y-11106131D01*
X6185588Y-11102000D01*
X6164412Y-11102000D01*
X6143643Y-11106131D01*
X6124080Y-11114235D01*
X6106473Y-11125999D01*
X6091499Y-11140973D01*
X6079735Y-11158580D01*
X6071631Y-11178143D01*
X6067500Y-11198912D01*
X6027992Y-11198912D01*
X6027271Y-11190137D01*
X6021451Y-11169777D01*
X6011771Y-11150943D01*
X6009836Y-11148047D01*
X5993382Y-11140653D01*
X5924535Y-11209500D01*
X5917464Y-11209500D01*
X5848618Y-11140653D01*
X5832164Y-11148047D01*
X5821882Y-11166559D01*
X5815409Y-11186721D01*
X5812994Y-11207758D01*
X5774657Y-11207758D01*
X5774657Y-11137118D01*
X5852153Y-11137118D01*
X5921000Y-11205964D01*
X5989847Y-11137118D01*
X5982453Y-11120664D01*
X5963941Y-11110382D01*
X5943779Y-11103909D01*
X5922742Y-11101494D01*
X5901637Y-11103229D01*
X5881277Y-11109049D01*
X5862443Y-11118729D01*
X5859547Y-11120664D01*
X5852153Y-11137118D01*
X5774657Y-11137118D01*
X5774657Y-11134500D01*
X5774030Y-11128129D01*
X5772171Y-11122003D01*
X5769153Y-11116357D01*
X5765092Y-11111408D01*
X5760143Y-11107347D01*
X5754497Y-11104329D01*
X5748371Y-11102470D01*
X5742000Y-11101843D01*
X5592000Y-11101843D01*
X5585629Y-11102470D01*
X5579503Y-11104329D01*
X5573857Y-11107347D01*
X5568908Y-11111408D01*
X5564847Y-11116357D01*
X5561829Y-11122003D01*
X5559970Y-11128129D01*
X5559343Y-11134500D01*
X5112679Y-11134500D01*
X5112679Y-8478752D01*
X10127900Y-8478752D01*
X10127900Y-8492048D01*
X10130494Y-8505089D01*
X10135582Y-8517373D01*
X10142969Y-8528429D01*
X10150400Y-8535859D01*
X10150400Y-9193190D01*
X10150182Y-9195400D01*
X10151051Y-9204222D01*
X10153624Y-9212704D01*
X10157803Y-9220522D01*
X10162017Y-9225657D01*
X10162018Y-9225657D01*
X10163426Y-9227374D01*
X10165143Y-9228782D01*
X10606618Y-9670257D01*
X10608026Y-9671974D01*
X10609743Y-9673382D01*
X10609743Y-9673383D01*
X10614878Y-9677597D01*
X10618918Y-9679756D01*
X10622696Y-9681776D01*
X10631179Y-9684349D01*
X10637790Y-9685000D01*
X10637791Y-9685000D01*
X10640000Y-9685218D01*
X10642209Y-9685000D01*
X10829541Y-9685000D01*
X10836971Y-9692431D01*
X10848027Y-9699818D01*
X10860311Y-9704906D01*
X10873352Y-9707500D01*
X10886648Y-9707500D01*
X10899689Y-9704906D01*
X10911973Y-9699818D01*
X10923029Y-9692431D01*
X10932431Y-9683029D01*
X10939818Y-9671973D01*
X10944906Y-9659689D01*
X10947500Y-9646648D01*
X10947500Y-9633352D01*
X10947238Y-9632034D01*
X10947580Y-9632176D01*
X10960621Y-9634770D01*
X10973917Y-9634770D01*
X10986958Y-9632176D01*
X10999242Y-9627088D01*
X11010298Y-9619701D01*
X11019700Y-9610299D01*
X11027087Y-9599243D01*
X11032175Y-9586959D01*
X11034769Y-9573918D01*
X11034769Y-9560622D01*
X11032175Y-9547581D01*
X11027087Y-9535297D01*
X11019700Y-9524241D01*
X11010298Y-9514839D01*
X10999242Y-9507452D01*
X10986958Y-9502364D01*
X10973917Y-9499770D01*
X10960621Y-9499770D01*
X10947580Y-9502364D01*
X10935296Y-9507452D01*
X10924240Y-9514839D01*
X10916810Y-9522270D01*
X10655910Y-9522270D01*
X10345000Y-9211361D01*
X10345000Y-9150460D01*
X10352431Y-9143029D01*
X10359818Y-9131974D01*
X10364906Y-9119690D01*
X10367500Y-9106649D01*
X10367500Y-9093352D01*
X10364906Y-9080312D01*
X10359818Y-9068027D01*
X10352431Y-9056972D01*
X10343029Y-9047570D01*
X10331973Y-9040183D01*
X10319689Y-9035095D01*
X10306648Y-9032501D01*
X10293352Y-9032501D01*
X10280311Y-9035095D01*
X10268027Y-9040183D01*
X10256971Y-9047570D01*
X10247569Y-9056972D01*
X10240400Y-9067702D01*
X10240400Y-8535859D01*
X10247831Y-8528429D01*
X10255218Y-8517373D01*
X10260306Y-8505089D01*
X10262900Y-8492048D01*
X10262900Y-8478752D01*
X10260306Y-8465711D01*
X10255218Y-8453427D01*
X10247831Y-8442371D01*
X10238429Y-8432969D01*
X10227373Y-8425582D01*
X10215089Y-8420494D01*
X10202048Y-8417900D01*
X10188752Y-8417900D01*
X10175711Y-8420494D01*
X10163427Y-8425582D01*
X10152371Y-8432969D01*
X10142969Y-8442371D01*
X10135582Y-8453427D01*
X10130494Y-8465711D01*
X10127900Y-8478752D01*
X5112679Y-8478752D01*
X5112679Y-8073352D01*
X9112500Y-8073352D01*
X9112500Y-8086648D01*
X9115094Y-8099689D01*
X9120182Y-8111973D01*
X9127569Y-8123029D01*
X9136971Y-8132431D01*
X9148027Y-8139818D01*
X9160311Y-8144906D01*
X9173352Y-8147500D01*
X9186648Y-8147500D01*
X9199689Y-8144906D01*
X9211973Y-8139818D01*
X9223029Y-8132431D01*
X9230459Y-8125000D01*
X9367294Y-8125000D01*
X9365094Y-8130311D01*
X9362500Y-8143352D01*
X9362500Y-8156648D01*
X9365094Y-8169689D01*
X9370182Y-8181973D01*
X9377569Y-8193029D01*
X9386971Y-8202431D01*
X9398027Y-8209818D01*
X9410311Y-8214906D01*
X9423352Y-8217500D01*
X9436648Y-8217500D01*
X9449689Y-8214906D01*
X9461973Y-8209818D01*
X9473029Y-8202431D01*
X9480459Y-8195000D01*
X10647294Y-8195000D01*
X10645094Y-8200312D01*
X10642500Y-8213353D01*
X10642500Y-8226649D01*
X10645094Y-8239690D01*
X10647294Y-8245000D01*
X10500459Y-8245000D01*
X10493029Y-8237569D01*
X10481973Y-8230182D01*
X10469689Y-8225094D01*
X10456648Y-8222500D01*
X10443352Y-8222500D01*
X10430311Y-8225094D01*
X10418027Y-8230182D01*
X10406971Y-8237569D01*
X10397569Y-8246971D01*
X10390182Y-8258027D01*
X10385094Y-8270311D01*
X10382500Y-8283352D01*
X10382500Y-8296648D01*
X10385094Y-8309689D01*
X10386714Y-8313600D01*
X9991859Y-8313600D01*
X9984429Y-8306169D01*
X9973373Y-8298782D01*
X9961089Y-8293694D01*
X9948048Y-8291100D01*
X9934752Y-8291100D01*
X9921711Y-8293694D01*
X9909427Y-8298782D01*
X9898371Y-8306169D01*
X9888969Y-8315571D01*
X9881582Y-8326627D01*
X9876494Y-8338911D01*
X9873900Y-8351952D01*
X9873900Y-8365248D01*
X9876494Y-8378289D01*
X9881582Y-8390573D01*
X9888969Y-8401629D01*
X9898371Y-8411031D01*
X9909427Y-8418418D01*
X9921711Y-8423506D01*
X9934752Y-8426100D01*
X9948048Y-8426100D01*
X9961089Y-8423506D01*
X9973373Y-8418418D01*
X9984429Y-8411031D01*
X9991859Y-8403600D01*
X11067691Y-8403600D01*
X11069900Y-8403818D01*
X11072110Y-8403600D01*
X11072111Y-8403600D01*
X11078722Y-8402949D01*
X11087204Y-8400376D01*
X11095022Y-8396197D01*
X11101874Y-8390574D01*
X11103283Y-8388857D01*
X11132343Y-8359797D01*
X11132343Y-8470000D01*
X11132970Y-8476371D01*
X11134829Y-8482497D01*
X11137847Y-8488143D01*
X11141908Y-8493092D01*
X11146857Y-8497154D01*
X11152503Y-8500171D01*
X11158629Y-8502030D01*
X11165000Y-8502657D01*
X11173244Y-8502657D01*
X11157616Y-8518286D01*
X11145304Y-8536711D01*
X11136823Y-8557185D01*
X11132500Y-8578920D01*
X11132500Y-8601080D01*
X11136823Y-8622815D01*
X11145304Y-8643289D01*
X11157616Y-8661715D01*
X11173286Y-8677384D01*
X11191711Y-8689696D01*
X11192445Y-8690000D01*
X11191711Y-8690304D01*
X11173286Y-8702616D01*
X11157616Y-8718286D01*
X11145304Y-8736711D01*
X11136823Y-8757185D01*
X11132500Y-8778920D01*
X11132500Y-8801080D01*
X11136823Y-8822815D01*
X11145304Y-8843289D01*
X11157616Y-8861715D01*
X11173286Y-8877384D01*
X11191711Y-8889696D01*
X11212185Y-8898177D01*
X11233920Y-8902500D01*
X11256080Y-8902500D01*
X11277815Y-8898177D01*
X11298289Y-8889696D01*
X11316714Y-8877384D01*
X11332384Y-8861715D01*
X11344696Y-8843289D01*
X11353177Y-8822815D01*
X11357500Y-8801080D01*
X11357500Y-8778920D01*
X11353177Y-8757185D01*
X11344696Y-8736711D01*
X11332384Y-8718286D01*
X11316714Y-8702616D01*
X11298289Y-8690304D01*
X11297555Y-8690000D01*
X11298289Y-8689696D01*
X11316714Y-8677384D01*
X11332384Y-8661715D01*
X11344696Y-8643289D01*
X11353177Y-8622815D01*
X11357500Y-8601080D01*
X11357500Y-8578920D01*
X11353177Y-8557185D01*
X11344696Y-8536711D01*
X11332384Y-8518286D01*
X11316756Y-8502657D01*
X11325000Y-8502657D01*
X11331371Y-8502030D01*
X11337497Y-8500171D01*
X11343143Y-8497154D01*
X11348092Y-8493092D01*
X11352153Y-8488143D01*
X11355171Y-8482497D01*
X11357030Y-8476371D01*
X11357657Y-8470000D01*
X11357657Y-8310000D01*
X11357030Y-8303629D01*
X11356687Y-8302500D01*
X11623458Y-8302500D01*
X11623285Y-8302616D01*
X11607616Y-8318285D01*
X11595304Y-8336711D01*
X11586823Y-8357185D01*
X11582500Y-8378920D01*
X11582500Y-8401080D01*
X11586823Y-8422815D01*
X11595304Y-8443289D01*
X11607616Y-8461715D01*
X11623285Y-8477384D01*
X11641711Y-8489696D01*
X11642445Y-8490000D01*
X11641711Y-8490304D01*
X11623285Y-8502616D01*
X11607616Y-8518286D01*
X11595304Y-8536711D01*
X11586823Y-8557185D01*
X11582500Y-8578920D01*
X11582500Y-8601080D01*
X11586823Y-8622815D01*
X11595304Y-8643289D01*
X11607616Y-8661715D01*
X11623285Y-8677384D01*
X11641711Y-8689696D01*
X11642445Y-8690000D01*
X11641711Y-8690304D01*
X11623285Y-8702616D01*
X11607616Y-8718286D01*
X11595304Y-8736711D01*
X11586823Y-8757185D01*
X11582500Y-8778920D01*
X11582500Y-8801080D01*
X11586823Y-8822815D01*
X11595304Y-8843289D01*
X11607616Y-8861715D01*
X11612500Y-8866599D01*
X11612500Y-9060827D01*
X11533798Y-9139529D01*
X11526072Y-9148944D01*
X11518411Y-9163276D01*
X11513694Y-9178827D01*
X11512101Y-9195000D01*
X11513694Y-9211173D01*
X11518411Y-9226724D01*
X11526072Y-9241056D01*
X11536381Y-9253619D01*
X11548944Y-9263928D01*
X11563276Y-9271589D01*
X11578827Y-9276306D01*
X11595000Y-9277899D01*
X11611173Y-9276306D01*
X11626724Y-9271589D01*
X11641056Y-9263928D01*
X11650471Y-9256202D01*
X11750471Y-9156201D01*
X11753618Y-9153619D01*
X11756201Y-9150472D01*
X11756202Y-9150471D01*
X11759595Y-9146336D01*
X11763928Y-9141056D01*
X11771174Y-9127500D01*
X11771589Y-9126724D01*
X11776306Y-9111173D01*
X11777899Y-9095000D01*
X11777500Y-9090948D01*
X11777500Y-8866599D01*
X11782384Y-8861715D01*
X11794696Y-8843289D01*
X11801994Y-8825669D01*
X11801995Y-9441863D01*
X11523860Y-9719997D01*
X11513352Y-9719997D01*
X11500311Y-9722591D01*
X11488027Y-9727679D01*
X11476971Y-9735066D01*
X11467569Y-9744468D01*
X11460182Y-9755524D01*
X11455094Y-9767808D01*
X11452500Y-9780849D01*
X11452500Y-9794145D01*
X11455094Y-9807186D01*
X11460182Y-9819470D01*
X11467569Y-9830526D01*
X11476971Y-9839928D01*
X11488027Y-9847315D01*
X11500311Y-9852403D01*
X11513352Y-9854997D01*
X11526648Y-9854997D01*
X11539689Y-9852403D01*
X11551973Y-9847315D01*
X11552500Y-9846963D01*
X11552500Y-9851646D01*
X11555094Y-9864687D01*
X11560182Y-9876971D01*
X11567569Y-9888027D01*
X11576971Y-9897429D01*
X11588027Y-9904816D01*
X11600311Y-9909904D01*
X11613352Y-9912498D01*
X11626648Y-9912498D01*
X11639689Y-9909904D01*
X11643748Y-9908223D01*
X11645094Y-9914988D01*
X11650182Y-9927272D01*
X11657569Y-9938328D01*
X11666971Y-9947730D01*
X11678027Y-9955117D01*
X11690311Y-9960205D01*
X11703352Y-9962799D01*
X11716648Y-9962799D01*
X11729689Y-9960205D01*
X11732500Y-9959041D01*
X11732500Y-9966648D01*
X11735094Y-9979689D01*
X11740182Y-9991973D01*
X11740200Y-9992000D01*
X11525640Y-9992000D01*
X11255500Y-9721861D01*
X11255500Y-9711352D01*
X11252906Y-9698311D01*
X11247818Y-9686027D01*
X11240431Y-9674971D01*
X11231029Y-9665569D01*
X11219973Y-9658182D01*
X11207689Y-9653094D01*
X11194648Y-9650500D01*
X11181352Y-9650500D01*
X11168311Y-9653094D01*
X11156027Y-9658182D01*
X11144971Y-9665569D01*
X11135569Y-9674971D01*
X11128182Y-9686027D01*
X11123094Y-9698311D01*
X11120500Y-9711352D01*
X11120500Y-9724648D01*
X11123094Y-9737689D01*
X11128182Y-9749973D01*
X11135569Y-9761029D01*
X11144971Y-9770431D01*
X11156027Y-9777818D01*
X11168311Y-9782906D01*
X11181352Y-9785500D01*
X11191860Y-9785500D01*
X11473618Y-10067257D01*
X11475026Y-10068974D01*
X11476743Y-10070382D01*
X11476743Y-10070383D01*
X11481878Y-10074597D01*
X11489696Y-10078776D01*
X11498178Y-10081349D01*
X11504789Y-10082000D01*
X11504791Y-10082000D01*
X11507000Y-10082218D01*
X11509209Y-10082000D01*
X11774078Y-10082000D01*
X11643078Y-10213000D01*
X10820837Y-10213000D01*
X10816379Y-10208542D01*
X10805323Y-10201155D01*
X10793039Y-10196066D01*
X10779998Y-10193472D01*
X10766702Y-10193472D01*
X10753661Y-10196066D01*
X10741377Y-10201155D01*
X10730321Y-10208542D01*
X10720919Y-10217944D01*
X10713532Y-10228999D01*
X10708444Y-10241283D01*
X10705850Y-10254324D01*
X10705850Y-10267621D01*
X10708444Y-10280661D01*
X10713532Y-10292946D01*
X10720919Y-10304001D01*
X10730321Y-10313403D01*
X10741377Y-10320790D01*
X10753661Y-10325878D01*
X10766702Y-10328472D01*
X10779998Y-10328472D01*
X10793039Y-10325878D01*
X10805323Y-10320790D01*
X10816379Y-10313403D01*
X10825781Y-10304001D01*
X10826450Y-10303000D01*
X10831396Y-10303000D01*
X10830103Y-10306122D01*
X10827509Y-10319162D01*
X10827509Y-10332459D01*
X10830103Y-10345500D01*
X10835192Y-10357784D01*
X10842579Y-10368839D01*
X10851981Y-10378241D01*
X10863036Y-10385628D01*
X10875320Y-10390717D01*
X10888361Y-10393311D01*
X10901658Y-10393311D01*
X10914698Y-10390717D01*
X10926983Y-10385628D01*
X10938038Y-10378241D01*
X10945469Y-10370811D01*
X10972259Y-10370811D01*
X10971094Y-10373623D01*
X10968500Y-10386663D01*
X10968500Y-10399960D01*
X10971094Y-10413001D01*
X10976182Y-10425285D01*
X10983569Y-10436340D01*
X10992971Y-10445742D01*
X11004027Y-10453129D01*
X11016311Y-10458218D01*
X11029352Y-10460812D01*
X11042648Y-10460812D01*
X11055689Y-10458218D01*
X11067973Y-10453129D01*
X11079029Y-10445742D01*
X11088431Y-10436340D01*
X11089994Y-10434000D01*
X11655791Y-10434000D01*
X11658000Y-10434218D01*
X11660209Y-10434000D01*
X11660210Y-10434000D01*
X11666821Y-10433349D01*
X11675304Y-10430776D01*
X11683122Y-10426597D01*
X11689974Y-10420974D01*
X11691383Y-10419257D01*
X12554257Y-9556382D01*
X12555974Y-9554974D01*
X12557382Y-9553257D01*
X12557383Y-9553257D01*
X12561597Y-9548122D01*
X12563053Y-9545399D01*
X12565776Y-9540304D01*
X12568349Y-9531822D01*
X12569000Y-9525211D01*
X12569000Y-9525209D01*
X12569218Y-9523000D01*
X12569000Y-9520791D01*
X12569000Y-9430000D01*
X14192343Y-9430000D01*
X14192343Y-9600000D01*
X14192970Y-9606371D01*
X14194829Y-9612497D01*
X14197846Y-9618143D01*
X14201908Y-9623092D01*
X14206857Y-9627154D01*
X14212503Y-9630171D01*
X14218629Y-9632030D01*
X14225000Y-9632657D01*
X14395000Y-9632657D01*
X14401371Y-9632030D01*
X14407497Y-9630171D01*
X14413143Y-9627154D01*
X14418092Y-9623092D01*
X14422153Y-9618143D01*
X14425171Y-9612497D01*
X14427030Y-9606371D01*
X14427657Y-9600000D01*
X14427657Y-9430000D01*
X14427030Y-9423629D01*
X14425171Y-9417503D01*
X14422153Y-9411857D01*
X14418092Y-9406908D01*
X14413143Y-9402847D01*
X14407497Y-9399829D01*
X14401371Y-9397970D01*
X14395000Y-9397343D01*
X14225000Y-9397343D01*
X14218629Y-9397970D01*
X14212503Y-9399829D01*
X14206857Y-9402847D01*
X14201908Y-9406908D01*
X14197846Y-9411857D01*
X14194829Y-9417503D01*
X14192970Y-9423629D01*
X14192343Y-9430000D01*
X12569000Y-9430000D01*
X12569000Y-9249427D01*
X14192500Y-9249427D01*
X14192500Y-9272573D01*
X14197015Y-9295274D01*
X14205873Y-9316657D01*
X14218732Y-9335902D01*
X14235098Y-9352268D01*
X14254343Y-9365127D01*
X14275726Y-9373985D01*
X14298427Y-9378500D01*
X14321573Y-9378500D01*
X14344273Y-9373985D01*
X14365657Y-9365127D01*
X14384902Y-9352268D01*
X14401268Y-9335902D01*
X14414127Y-9316657D01*
X14422984Y-9295274D01*
X14427500Y-9272573D01*
X14427500Y-9249427D01*
X14422984Y-9226727D01*
X14414127Y-9205343D01*
X14401268Y-9186098D01*
X14384902Y-9169732D01*
X14365657Y-9156873D01*
X14344273Y-9148016D01*
X14321573Y-9143500D01*
X14298427Y-9143500D01*
X14275726Y-9148016D01*
X14254343Y-9156873D01*
X14235098Y-9169732D01*
X14218732Y-9186098D01*
X14205873Y-9205343D01*
X14197015Y-9226727D01*
X14192500Y-9249427D01*
X12569000Y-9249427D01*
X12569000Y-8995427D01*
X14192500Y-8995427D01*
X14192500Y-9018573D01*
X14197015Y-9041274D01*
X14205873Y-9062657D01*
X14218732Y-9081902D01*
X14235098Y-9098268D01*
X14254343Y-9111127D01*
X14275726Y-9119985D01*
X14298427Y-9124500D01*
X14321573Y-9124500D01*
X14344273Y-9119985D01*
X14365657Y-9111127D01*
X14384902Y-9098268D01*
X14401268Y-9081902D01*
X14414127Y-9062657D01*
X14422984Y-9041274D01*
X14427500Y-9018573D01*
X14427500Y-8995427D01*
X14422984Y-8972727D01*
X14414127Y-8951343D01*
X14401268Y-8932098D01*
X14384902Y-8915732D01*
X14365657Y-8902873D01*
X14344273Y-8894016D01*
X14321573Y-8889500D01*
X14298427Y-8889500D01*
X14275726Y-8894016D01*
X14254343Y-8902873D01*
X14235098Y-8915732D01*
X14218732Y-8932098D01*
X14205873Y-8951343D01*
X14197015Y-8972727D01*
X14192500Y-8995427D01*
X12569000Y-8995427D01*
X12569000Y-8773846D01*
X14194364Y-8773846D01*
X14195189Y-8777993D01*
X14202271Y-8799911D01*
X14213492Y-8820027D01*
X14228423Y-8837567D01*
X14246489Y-8851856D01*
X14266995Y-8862347D01*
X14289154Y-8868636D01*
X14307500Y-8862349D01*
X14307500Y-8755500D01*
X14312500Y-8755500D01*
X14312500Y-8862349D01*
X14330846Y-8868636D01*
X14353005Y-8862347D01*
X14373511Y-8851856D01*
X14391577Y-8837567D01*
X14406507Y-8820027D01*
X14417729Y-8799911D01*
X14424811Y-8777993D01*
X14425636Y-8773846D01*
X14419346Y-8755500D01*
X14312500Y-8755500D01*
X14307500Y-8755500D01*
X14200654Y-8755500D01*
X14194364Y-8773846D01*
X12569000Y-8773846D01*
X12569000Y-8732154D01*
X14194364Y-8732154D01*
X14200654Y-8750500D01*
X14307500Y-8750500D01*
X14307500Y-8643652D01*
X14312500Y-8643652D01*
X14312500Y-8750500D01*
X14419346Y-8750500D01*
X14425636Y-8732154D01*
X14424811Y-8728007D01*
X14417729Y-8706089D01*
X14406507Y-8685973D01*
X14391577Y-8668434D01*
X14373511Y-8654144D01*
X14353005Y-8643653D01*
X14330846Y-8637364D01*
X14312500Y-8643652D01*
X14307500Y-8643652D01*
X14289154Y-8637364D01*
X14266995Y-8643653D01*
X14246489Y-8654144D01*
X14228423Y-8668434D01*
X14213492Y-8685973D01*
X14202271Y-8706089D01*
X14195189Y-8728007D01*
X14194364Y-8732154D01*
X12569000Y-8732154D01*
X12569000Y-8250459D01*
X12576431Y-8243029D01*
X12583818Y-8231973D01*
X12588906Y-8219689D01*
X12591500Y-8206648D01*
X12591500Y-8193352D01*
X12588906Y-8180311D01*
X12583818Y-8168027D01*
X12576431Y-8156971D01*
X12567029Y-8147569D01*
X12555973Y-8140182D01*
X12543689Y-8135094D01*
X12530648Y-8132500D01*
X12517352Y-8132500D01*
X12504311Y-8135094D01*
X12492027Y-8140182D01*
X12480971Y-8147569D01*
X12471569Y-8156971D01*
X12464182Y-8168027D01*
X12459094Y-8180311D01*
X12456500Y-8193352D01*
X12456500Y-8206648D01*
X12459094Y-8219689D01*
X12464182Y-8231973D01*
X12471569Y-8243029D01*
X12479000Y-8250459D01*
X12479000Y-9504360D01*
X12353000Y-9630360D01*
X12353000Y-8250459D01*
X12360431Y-8243029D01*
X12367818Y-8231973D01*
X12372906Y-8219689D01*
X12375500Y-8206648D01*
X12375500Y-8193352D01*
X12372906Y-8180311D01*
X12367818Y-8168027D01*
X12360431Y-8156971D01*
X12351029Y-8147569D01*
X12339973Y-8140182D01*
X12327689Y-8135094D01*
X12314648Y-8132500D01*
X12301352Y-8132500D01*
X12288311Y-8135094D01*
X12276027Y-8140182D01*
X12264971Y-8147569D01*
X12255569Y-8156971D01*
X12248182Y-8168027D01*
X12243094Y-8180311D01*
X12240500Y-8193352D01*
X12240500Y-8206648D01*
X12243094Y-8219689D01*
X12248182Y-8231973D01*
X12255569Y-8243029D01*
X12263000Y-8250459D01*
X12263000Y-9656719D01*
X12137000Y-9782719D01*
X12137000Y-8250459D01*
X12144431Y-8243029D01*
X12151818Y-8231973D01*
X12156906Y-8219689D01*
X12159500Y-8206648D01*
X12159500Y-8193352D01*
X12156906Y-8180311D01*
X12151818Y-8168027D01*
X12144431Y-8156971D01*
X12135029Y-8147569D01*
X12123973Y-8140182D01*
X12111689Y-8135094D01*
X12098648Y-8132500D01*
X12085352Y-8132500D01*
X12072311Y-8135094D01*
X12060027Y-8140182D01*
X12048971Y-8147569D01*
X12039569Y-8156971D01*
X12032182Y-8168027D01*
X12029378Y-8174798D01*
X12020973Y-8169182D01*
X12008689Y-8164094D01*
X11995648Y-8161500D01*
X11982352Y-8161500D01*
X11969311Y-8164094D01*
X11957027Y-8169182D01*
X11945971Y-8176569D01*
X11936569Y-8185971D01*
X11929182Y-8197027D01*
X11927398Y-8201335D01*
X11838263Y-8112200D01*
X13694543Y-8112200D01*
X13695170Y-8118571D01*
X13697029Y-8124697D01*
X13700046Y-8130343D01*
X13704108Y-8135292D01*
X13709057Y-8139354D01*
X13714703Y-8142371D01*
X13720829Y-8144230D01*
X13727200Y-8144857D01*
X13791575Y-8144700D01*
X13799700Y-8136575D01*
X13799700Y-8039700D01*
X13804700Y-8039700D01*
X13804700Y-8136575D01*
X13812825Y-8144700D01*
X13877200Y-8144857D01*
X13883571Y-8144230D01*
X13889697Y-8142371D01*
X13895343Y-8139354D01*
X13900292Y-8135292D01*
X13904354Y-8130343D01*
X13907371Y-8124697D01*
X13909230Y-8118571D01*
X13909857Y-8112200D01*
X13909700Y-8047825D01*
X13901575Y-8039700D01*
X13804700Y-8039700D01*
X13799700Y-8039700D01*
X13702825Y-8039700D01*
X13694700Y-8047825D01*
X13694543Y-8112200D01*
X11838263Y-8112200D01*
X11818303Y-8092240D01*
X11816894Y-8090523D01*
X11810042Y-8084899D01*
X11802224Y-8080721D01*
X11793742Y-8078148D01*
X11787131Y-8077497D01*
X11787129Y-8077497D01*
X11784920Y-8077279D01*
X11782711Y-8077497D01*
X11117500Y-8077497D01*
X11117500Y-8073352D01*
X11114906Y-8060311D01*
X11109818Y-8048027D01*
X11102431Y-8036971D01*
X11093029Y-8027569D01*
X11081973Y-8020182D01*
X11069689Y-8015094D01*
X11056648Y-8012500D01*
X11043352Y-8012500D01*
X11030311Y-8015094D01*
X11018027Y-8020182D01*
X11006971Y-8027569D01*
X10999540Y-8035000D01*
X9230459Y-8035000D01*
X9223029Y-8027569D01*
X9211973Y-8020182D01*
X9199689Y-8015094D01*
X9186648Y-8012500D01*
X9173352Y-8012500D01*
X9160311Y-8015094D01*
X9148027Y-8020182D01*
X9136971Y-8027569D01*
X9127569Y-8036971D01*
X9120182Y-8048027D01*
X9115094Y-8060311D01*
X9112500Y-8073352D01*
X5112679Y-8073352D01*
X5112679Y-7962200D01*
X13694543Y-7962200D01*
X13694700Y-8026575D01*
X13702825Y-8034700D01*
X13799700Y-8034700D01*
X13799700Y-7937825D01*
X13804700Y-7937825D01*
X13804700Y-8034700D01*
X13901575Y-8034700D01*
X13909663Y-8026612D01*
X13948700Y-8026612D01*
X13948700Y-8047788D01*
X13952831Y-8068557D01*
X13960935Y-8088120D01*
X13972699Y-8105727D01*
X13987673Y-8120701D01*
X14005280Y-8132465D01*
X14024843Y-8140569D01*
X14045612Y-8144700D01*
X14066788Y-8144700D01*
X14087557Y-8140569D01*
X14107120Y-8132465D01*
X14124727Y-8120701D01*
X14139701Y-8105727D01*
X14151465Y-8088120D01*
X14159569Y-8068557D01*
X14163700Y-8047788D01*
X14163700Y-8026612D01*
X14202700Y-8026612D01*
X14202700Y-8047788D01*
X14206831Y-8068557D01*
X14214935Y-8088120D01*
X14226699Y-8105727D01*
X14241673Y-8120701D01*
X14259280Y-8132465D01*
X14278843Y-8140569D01*
X14299612Y-8144700D01*
X14320788Y-8144700D01*
X14341557Y-8140569D01*
X14361120Y-8132465D01*
X14378727Y-8120701D01*
X14393701Y-8105727D01*
X14405465Y-8088120D01*
X14413569Y-8068557D01*
X14417700Y-8047788D01*
X14417700Y-8026612D01*
X14413569Y-8005843D01*
X14405465Y-7986280D01*
X14393701Y-7968673D01*
X14378727Y-7953699D01*
X14361120Y-7941935D01*
X14341557Y-7933831D01*
X14320788Y-7929700D01*
X14299612Y-7929700D01*
X14278843Y-7933831D01*
X14259280Y-7941935D01*
X14241673Y-7953699D01*
X14226699Y-7968673D01*
X14214935Y-7986280D01*
X14206831Y-8005843D01*
X14202700Y-8026612D01*
X14163700Y-8026612D01*
X14159569Y-8005843D01*
X14151465Y-7986280D01*
X14139701Y-7968673D01*
X14124727Y-7953699D01*
X14107120Y-7941935D01*
X14087557Y-7933831D01*
X14066788Y-7929700D01*
X14045612Y-7929700D01*
X14024843Y-7933831D01*
X14005280Y-7941935D01*
X13987673Y-7953699D01*
X13972699Y-7968673D01*
X13960935Y-7986280D01*
X13952831Y-8005843D01*
X13948700Y-8026612D01*
X13909663Y-8026612D01*
X13909700Y-8026575D01*
X13909857Y-7962200D01*
X13909230Y-7955829D01*
X13907371Y-7949703D01*
X13904354Y-7944057D01*
X13900292Y-7939108D01*
X13895343Y-7935046D01*
X13889697Y-7932029D01*
X13883571Y-7930170D01*
X13877200Y-7929543D01*
X13812825Y-7929700D01*
X13804700Y-7937825D01*
X13799700Y-7937825D01*
X13791575Y-7929700D01*
X13727200Y-7929543D01*
X13720829Y-7930170D01*
X13714703Y-7932029D01*
X13709057Y-7935046D01*
X13704108Y-7939108D01*
X13700046Y-7944057D01*
X13697029Y-7949703D01*
X13695170Y-7955829D01*
X13694543Y-7962200D01*
X5112679Y-7962200D01*
X5112679Y-7451800D01*
X13694543Y-7451800D01*
X13695170Y-7458171D01*
X13697029Y-7464297D01*
X13700046Y-7469943D01*
X13704108Y-7474892D01*
X13709057Y-7478954D01*
X13714703Y-7481971D01*
X13720829Y-7483830D01*
X13727200Y-7484457D01*
X13791575Y-7484300D01*
X13799700Y-7476175D01*
X13799700Y-7379300D01*
X13804700Y-7379300D01*
X13804700Y-7476175D01*
X13812825Y-7484300D01*
X13877200Y-7484457D01*
X13883571Y-7483830D01*
X13889697Y-7481971D01*
X13895343Y-7478954D01*
X13900292Y-7474892D01*
X13904354Y-7469943D01*
X13907371Y-7464297D01*
X13909230Y-7458171D01*
X13909857Y-7451800D01*
X13909700Y-7387425D01*
X13901575Y-7379300D01*
X13804700Y-7379300D01*
X13799700Y-7379300D01*
X13702825Y-7379300D01*
X13694700Y-7387425D01*
X13694543Y-7451800D01*
X5112679Y-7451800D01*
X5112679Y-7225600D01*
X9325743Y-7225600D01*
X9325743Y-7375600D01*
X9326370Y-7381971D01*
X9328229Y-7388097D01*
X9331247Y-7393743D01*
X9335308Y-7398692D01*
X9340257Y-7402753D01*
X9345903Y-7405771D01*
X9352029Y-7407630D01*
X9358400Y-7408257D01*
X9508400Y-7408257D01*
X9514771Y-7407630D01*
X9520897Y-7405771D01*
X9526543Y-7402753D01*
X9531492Y-7398692D01*
X9535554Y-7393743D01*
X9538571Y-7388097D01*
X9540430Y-7381971D01*
X9541057Y-7375600D01*
X9541057Y-7290012D01*
X9579900Y-7290012D01*
X9579900Y-7311188D01*
X9584031Y-7331957D01*
X9592135Y-7351520D01*
X9603899Y-7369127D01*
X9618873Y-7384101D01*
X9636480Y-7395865D01*
X9656043Y-7403969D01*
X9676812Y-7408100D01*
X9697988Y-7408100D01*
X9718757Y-7403969D01*
X9738320Y-7395865D01*
X9755927Y-7384101D01*
X9770901Y-7369127D01*
X9782665Y-7351520D01*
X9790769Y-7331957D01*
X9794900Y-7311188D01*
X9794900Y-7290012D01*
X9833900Y-7290012D01*
X9833900Y-7311188D01*
X9838031Y-7331957D01*
X9846135Y-7351520D01*
X9857899Y-7369127D01*
X9872873Y-7384101D01*
X9890480Y-7395865D01*
X9910043Y-7403969D01*
X9930812Y-7408100D01*
X9951988Y-7408100D01*
X9972757Y-7403969D01*
X9992320Y-7395865D01*
X10009927Y-7384101D01*
X10024901Y-7369127D01*
X10036665Y-7351520D01*
X10044769Y-7331957D01*
X10048900Y-7311188D01*
X10048900Y-7290012D01*
X10087900Y-7290012D01*
X10087900Y-7311188D01*
X10092031Y-7331957D01*
X10100135Y-7351520D01*
X10111899Y-7369127D01*
X10126873Y-7384101D01*
X10144480Y-7395865D01*
X10164043Y-7403969D01*
X10184812Y-7408100D01*
X10205988Y-7408100D01*
X10226757Y-7403969D01*
X10246320Y-7395865D01*
X10263927Y-7384101D01*
X10278901Y-7369127D01*
X10290665Y-7351520D01*
X10298769Y-7331957D01*
X10302900Y-7311188D01*
X10302900Y-7290012D01*
X10341900Y-7290012D01*
X10341900Y-7311188D01*
X10346031Y-7331957D01*
X10354135Y-7351520D01*
X10365899Y-7369127D01*
X10380873Y-7384101D01*
X10398480Y-7395865D01*
X10418043Y-7403969D01*
X10438812Y-7408100D01*
X10459988Y-7408100D01*
X10480757Y-7403969D01*
X10500320Y-7395865D01*
X10517927Y-7384101D01*
X10532901Y-7369127D01*
X10544665Y-7351520D01*
X10552769Y-7331957D01*
X10556900Y-7311188D01*
X10556900Y-7290012D01*
X10595900Y-7290012D01*
X10595900Y-7311188D01*
X10600031Y-7331957D01*
X10608135Y-7351520D01*
X10619899Y-7369127D01*
X10634873Y-7384101D01*
X10652480Y-7395865D01*
X10672043Y-7403969D01*
X10692812Y-7408100D01*
X10713988Y-7408100D01*
X10734757Y-7403969D01*
X10754320Y-7395865D01*
X10771927Y-7384101D01*
X10786901Y-7369127D01*
X10798665Y-7351520D01*
X10806769Y-7331957D01*
X10810900Y-7311188D01*
X10810900Y-7301800D01*
X13694543Y-7301800D01*
X13694700Y-7366175D01*
X13702825Y-7374300D01*
X13799700Y-7374300D01*
X13799700Y-7277425D01*
X13804700Y-7277425D01*
X13804700Y-7374300D01*
X13901575Y-7374300D01*
X13909663Y-7366212D01*
X13948700Y-7366212D01*
X13948700Y-7387388D01*
X13952831Y-7408157D01*
X13960935Y-7427720D01*
X13972699Y-7445327D01*
X13987673Y-7460301D01*
X14005280Y-7472065D01*
X14024843Y-7480169D01*
X14045612Y-7484300D01*
X14066788Y-7484300D01*
X14087557Y-7480169D01*
X14107120Y-7472065D01*
X14124727Y-7460301D01*
X14139701Y-7445327D01*
X14151465Y-7427720D01*
X14159569Y-7408157D01*
X14163700Y-7387388D01*
X14163700Y-7366212D01*
X14202700Y-7366212D01*
X14202700Y-7387388D01*
X14206831Y-7408157D01*
X14214935Y-7427720D01*
X14226699Y-7445327D01*
X14241673Y-7460301D01*
X14259280Y-7472065D01*
X14278843Y-7480169D01*
X14299612Y-7484300D01*
X14320788Y-7484300D01*
X14341557Y-7480169D01*
X14361120Y-7472065D01*
X14378727Y-7460301D01*
X14393701Y-7445327D01*
X14405465Y-7427720D01*
X14413569Y-7408157D01*
X14417700Y-7387388D01*
X14417700Y-7366212D01*
X14413569Y-7345443D01*
X14405465Y-7325880D01*
X14393701Y-7308273D01*
X14378727Y-7293299D01*
X14361120Y-7281535D01*
X14341557Y-7273431D01*
X14320788Y-7269300D01*
X14299612Y-7269300D01*
X14278843Y-7273431D01*
X14259280Y-7281535D01*
X14241673Y-7293299D01*
X14226699Y-7308273D01*
X14214935Y-7325880D01*
X14206831Y-7345443D01*
X14202700Y-7366212D01*
X14163700Y-7366212D01*
X14159569Y-7345443D01*
X14151465Y-7325880D01*
X14139701Y-7308273D01*
X14124727Y-7293299D01*
X14107120Y-7281535D01*
X14087557Y-7273431D01*
X14066788Y-7269300D01*
X14045612Y-7269300D01*
X14024843Y-7273431D01*
X14005280Y-7281535D01*
X13987673Y-7293299D01*
X13972699Y-7308273D01*
X13960935Y-7325880D01*
X13952831Y-7345443D01*
X13948700Y-7366212D01*
X13909663Y-7366212D01*
X13909700Y-7366175D01*
X13909857Y-7301800D01*
X13909230Y-7295429D01*
X13907371Y-7289303D01*
X13904354Y-7283657D01*
X13900292Y-7278708D01*
X13895343Y-7274646D01*
X13889697Y-7271629D01*
X13883571Y-7269770D01*
X13877200Y-7269143D01*
X13812825Y-7269300D01*
X13804700Y-7277425D01*
X13799700Y-7277425D01*
X13791575Y-7269300D01*
X13727200Y-7269143D01*
X13720829Y-7269770D01*
X13714703Y-7271629D01*
X13709057Y-7274646D01*
X13704108Y-7278708D01*
X13700046Y-7283657D01*
X13697029Y-7289303D01*
X13695170Y-7295429D01*
X13694543Y-7301800D01*
X10810900Y-7301800D01*
X10810900Y-7290012D01*
X10806769Y-7269243D01*
X10798665Y-7249680D01*
X10786901Y-7232073D01*
X10771927Y-7217099D01*
X10754320Y-7205335D01*
X10734757Y-7197231D01*
X10713988Y-7193100D01*
X10692812Y-7193100D01*
X10672043Y-7197231D01*
X10652480Y-7205335D01*
X10634873Y-7217099D01*
X10619899Y-7232073D01*
X10608135Y-7249680D01*
X10600031Y-7269243D01*
X10595900Y-7290012D01*
X10556900Y-7290012D01*
X10552769Y-7269243D01*
X10544665Y-7249680D01*
X10532901Y-7232073D01*
X10517927Y-7217099D01*
X10500320Y-7205335D01*
X10480757Y-7197231D01*
X10459988Y-7193100D01*
X10438812Y-7193100D01*
X10418043Y-7197231D01*
X10398480Y-7205335D01*
X10380873Y-7217099D01*
X10365899Y-7232073D01*
X10354135Y-7249680D01*
X10346031Y-7269243D01*
X10341900Y-7290012D01*
X10302900Y-7290012D01*
X10298769Y-7269243D01*
X10290665Y-7249680D01*
X10278901Y-7232073D01*
X10263927Y-7217099D01*
X10246320Y-7205335D01*
X10226757Y-7197231D01*
X10205988Y-7193100D01*
X10184812Y-7193100D01*
X10164043Y-7197231D01*
X10144480Y-7205335D01*
X10126873Y-7217099D01*
X10111899Y-7232073D01*
X10100135Y-7249680D01*
X10092031Y-7269243D01*
X10087900Y-7290012D01*
X10048900Y-7290012D01*
X10044769Y-7269243D01*
X10036665Y-7249680D01*
X10024901Y-7232073D01*
X10009927Y-7217099D01*
X9992320Y-7205335D01*
X9972757Y-7197231D01*
X9951988Y-7193100D01*
X9930812Y-7193100D01*
X9910043Y-7197231D01*
X9890480Y-7205335D01*
X9872873Y-7217099D01*
X9857899Y-7232073D01*
X9846135Y-7249680D01*
X9838031Y-7269243D01*
X9833900Y-7290012D01*
X9794900Y-7290012D01*
X9790769Y-7269243D01*
X9782665Y-7249680D01*
X9770901Y-7232073D01*
X9755927Y-7217099D01*
X9738320Y-7205335D01*
X9718757Y-7197231D01*
X9697988Y-7193100D01*
X9676812Y-7193100D01*
X9656043Y-7197231D01*
X9636480Y-7205335D01*
X9618873Y-7217099D01*
X9603899Y-7232073D01*
X9592135Y-7249680D01*
X9584031Y-7269243D01*
X9579900Y-7290012D01*
X9541057Y-7290012D01*
X9541057Y-7225600D01*
X9540430Y-7219229D01*
X9538571Y-7213103D01*
X9535554Y-7207457D01*
X9531492Y-7202508D01*
X9526543Y-7198446D01*
X9520897Y-7195429D01*
X9514771Y-7193570D01*
X9508400Y-7192943D01*
X9358400Y-7192943D01*
X9352029Y-7193570D01*
X9345903Y-7195429D01*
X9340257Y-7198446D01*
X9335308Y-7202508D01*
X9331247Y-7207457D01*
X9328229Y-7213103D01*
X9326370Y-7219229D01*
X9325743Y-7225600D01*
X5112679Y-7225600D01*
X5112679Y-6791400D01*
X13694543Y-6791400D01*
X13695170Y-6797771D01*
X13697029Y-6803897D01*
X13700046Y-6809543D01*
X13704108Y-6814492D01*
X13709057Y-6818554D01*
X13714703Y-6821571D01*
X13720829Y-6823430D01*
X13727200Y-6824057D01*
X13791575Y-6823900D01*
X13799700Y-6815775D01*
X13799700Y-6718900D01*
X13804700Y-6718900D01*
X13804700Y-6815775D01*
X13812825Y-6823900D01*
X13877200Y-6824057D01*
X13883571Y-6823430D01*
X13889697Y-6821571D01*
X13895343Y-6818554D01*
X13900292Y-6814492D01*
X13904354Y-6809543D01*
X13907371Y-6803897D01*
X13909230Y-6797771D01*
X13909857Y-6791400D01*
X13909700Y-6727025D01*
X13901575Y-6718900D01*
X13804700Y-6718900D01*
X13799700Y-6718900D01*
X13702825Y-6718900D01*
X13694700Y-6727025D01*
X13694543Y-6791400D01*
X5112679Y-6791400D01*
X5112679Y-6641400D01*
X13694543Y-6641400D01*
X13694700Y-6705775D01*
X13702825Y-6713900D01*
X13799700Y-6713900D01*
X13799700Y-6617025D01*
X13804700Y-6617025D01*
X13804700Y-6713900D01*
X13901575Y-6713900D01*
X13909663Y-6705812D01*
X13948700Y-6705812D01*
X13948700Y-6726988D01*
X13952831Y-6747757D01*
X13960935Y-6767320D01*
X13972699Y-6784927D01*
X13987673Y-6799901D01*
X14005280Y-6811665D01*
X14024843Y-6819769D01*
X14045612Y-6823900D01*
X14066788Y-6823900D01*
X14087557Y-6819769D01*
X14107120Y-6811665D01*
X14124727Y-6799901D01*
X14139701Y-6784927D01*
X14151465Y-6767320D01*
X14159569Y-6747757D01*
X14163700Y-6726988D01*
X14163700Y-6705812D01*
X14202700Y-6705812D01*
X14202700Y-6726988D01*
X14206831Y-6747757D01*
X14214935Y-6767320D01*
X14226699Y-6784927D01*
X14241673Y-6799901D01*
X14259280Y-6811665D01*
X14278843Y-6819769D01*
X14299612Y-6823900D01*
X14320788Y-6823900D01*
X14341557Y-6819769D01*
X14361120Y-6811665D01*
X14378727Y-6799901D01*
X14393701Y-6784927D01*
X14405465Y-6767320D01*
X14413569Y-6747757D01*
X14417700Y-6726988D01*
X14417700Y-6705812D01*
X14413569Y-6685043D01*
X14405465Y-6665480D01*
X14393701Y-6647873D01*
X14378727Y-6632899D01*
X14361120Y-6621135D01*
X14341557Y-6613031D01*
X14320788Y-6608900D01*
X14299612Y-6608900D01*
X14278843Y-6613031D01*
X14259280Y-6621135D01*
X14241673Y-6632899D01*
X14226699Y-6647873D01*
X14214935Y-6665480D01*
X14206831Y-6685043D01*
X14202700Y-6705812D01*
X14163700Y-6705812D01*
X14159569Y-6685043D01*
X14151465Y-6665480D01*
X14139701Y-6647873D01*
X14124727Y-6632899D01*
X14107120Y-6621135D01*
X14087557Y-6613031D01*
X14066788Y-6608900D01*
X14045612Y-6608900D01*
X14024843Y-6613031D01*
X14005280Y-6621135D01*
X13987673Y-6632899D01*
X13972699Y-6647873D01*
X13960935Y-6665480D01*
X13952831Y-6685043D01*
X13948700Y-6705812D01*
X13909663Y-6705812D01*
X13909700Y-6705775D01*
X13909857Y-6641400D01*
X13909230Y-6635029D01*
X13907371Y-6628903D01*
X13904354Y-6623257D01*
X13900292Y-6618308D01*
X13895343Y-6614246D01*
X13889697Y-6611229D01*
X13883571Y-6609370D01*
X13877200Y-6608743D01*
X13812825Y-6608900D01*
X13804700Y-6617025D01*
X13799700Y-6617025D01*
X13791575Y-6608900D01*
X13727200Y-6608743D01*
X13720829Y-6609370D01*
X13714703Y-6611229D01*
X13709057Y-6614246D01*
X13704108Y-6618308D01*
X13700046Y-6623257D01*
X13697029Y-6628903D01*
X13695170Y-6635029D01*
X13694543Y-6641400D01*
X5112679Y-6641400D01*
X5112679Y-6131000D01*
X13694543Y-6131000D01*
X13695170Y-6137371D01*
X13697029Y-6143497D01*
X13700046Y-6149143D01*
X13704108Y-6154092D01*
X13709057Y-6158154D01*
X13714703Y-6161171D01*
X13720829Y-6163030D01*
X13727200Y-6163657D01*
X13791575Y-6163500D01*
X13799700Y-6155375D01*
X13799700Y-6058500D01*
X13804700Y-6058500D01*
X13804700Y-6155375D01*
X13812825Y-6163500D01*
X13877200Y-6163657D01*
X13883571Y-6163030D01*
X13889697Y-6161171D01*
X13895343Y-6158154D01*
X13900292Y-6154092D01*
X13904354Y-6149143D01*
X13907371Y-6143497D01*
X13909230Y-6137371D01*
X13909857Y-6131000D01*
X13909700Y-6066625D01*
X13901575Y-6058500D01*
X13804700Y-6058500D01*
X13799700Y-6058500D01*
X13702825Y-6058500D01*
X13694700Y-6066625D01*
X13694543Y-6131000D01*
X5112679Y-6131000D01*
X5112679Y-5981000D01*
X13694543Y-5981000D01*
X13694700Y-6045375D01*
X13702825Y-6053500D01*
X13799700Y-6053500D01*
X13799700Y-5956625D01*
X13804700Y-5956625D01*
X13804700Y-6053500D01*
X13901575Y-6053500D01*
X13909663Y-6045412D01*
X13948700Y-6045412D01*
X13948700Y-6066588D01*
X13952831Y-6087357D01*
X13960935Y-6106920D01*
X13972699Y-6124527D01*
X13987673Y-6139501D01*
X14005280Y-6151265D01*
X14024843Y-6159369D01*
X14045612Y-6163500D01*
X14066788Y-6163500D01*
X14087557Y-6159369D01*
X14107120Y-6151265D01*
X14124727Y-6139501D01*
X14139701Y-6124527D01*
X14151465Y-6106920D01*
X14159569Y-6087357D01*
X14163700Y-6066588D01*
X14163700Y-6045412D01*
X14202700Y-6045412D01*
X14202700Y-6066588D01*
X14206831Y-6087357D01*
X14214935Y-6106920D01*
X14226699Y-6124527D01*
X14241673Y-6139501D01*
X14259280Y-6151265D01*
X14278843Y-6159369D01*
X14299612Y-6163500D01*
X14320788Y-6163500D01*
X14341557Y-6159369D01*
X14361120Y-6151265D01*
X14378727Y-6139501D01*
X14393701Y-6124527D01*
X14405465Y-6106920D01*
X14413569Y-6087357D01*
X14417700Y-6066588D01*
X14417700Y-6045412D01*
X14413569Y-6024643D01*
X14405465Y-6005080D01*
X14393701Y-5987473D01*
X14378727Y-5972499D01*
X14361120Y-5960735D01*
X14341557Y-5952631D01*
X14320788Y-5948500D01*
X14299612Y-5948500D01*
X14278843Y-5952631D01*
X14259280Y-5960735D01*
X14241673Y-5972499D01*
X14226699Y-5987473D01*
X14214935Y-6005080D01*
X14206831Y-6024643D01*
X14202700Y-6045412D01*
X14163700Y-6045412D01*
X14159569Y-6024643D01*
X14151465Y-6005080D01*
X14139701Y-5987473D01*
X14124727Y-5972499D01*
X14107120Y-5960735D01*
X14087557Y-5952631D01*
X14066788Y-5948500D01*
X14045612Y-5948500D01*
X14024843Y-5952631D01*
X14005280Y-5960735D01*
X13987673Y-5972499D01*
X13972699Y-5987473D01*
X13960935Y-6005080D01*
X13952831Y-6024643D01*
X13948700Y-6045412D01*
X13909663Y-6045412D01*
X13909700Y-6045375D01*
X13909857Y-5981000D01*
X13909230Y-5974629D01*
X13907371Y-5968503D01*
X13904354Y-5962857D01*
X13900292Y-5957908D01*
X13895343Y-5953846D01*
X13889697Y-5950829D01*
X13883571Y-5948970D01*
X13877200Y-5948343D01*
X13812825Y-5948500D01*
X13804700Y-5956625D01*
X13799700Y-5956625D01*
X13791575Y-5948500D01*
X13727200Y-5948343D01*
X13720829Y-5948970D01*
X13714703Y-5950829D01*
X13709057Y-5953846D01*
X13704108Y-5957908D01*
X13700046Y-5962857D01*
X13697029Y-5968503D01*
X13695170Y-5974629D01*
X13694543Y-5981000D01*
X5112679Y-5981000D01*
X5112679Y-5766012D01*
X9325900Y-5766012D01*
X9325900Y-5787188D01*
X9330031Y-5807957D01*
X9338135Y-5827520D01*
X9349899Y-5845127D01*
X9364873Y-5860101D01*
X9382480Y-5871865D01*
X9402043Y-5879969D01*
X9422812Y-5884100D01*
X9443988Y-5884100D01*
X9464757Y-5879969D01*
X9484320Y-5871865D01*
X9501927Y-5860101D01*
X9516901Y-5845127D01*
X9528665Y-5827520D01*
X9536769Y-5807957D01*
X9540900Y-5787188D01*
X9540900Y-5766012D01*
X9579900Y-5766012D01*
X9579900Y-5787188D01*
X9584031Y-5807957D01*
X9592135Y-5827520D01*
X9603899Y-5845127D01*
X9618873Y-5860101D01*
X9636480Y-5871865D01*
X9656043Y-5879969D01*
X9676812Y-5884100D01*
X9697988Y-5884100D01*
X9718757Y-5879969D01*
X9738320Y-5871865D01*
X9755927Y-5860101D01*
X9770901Y-5845127D01*
X9782665Y-5827520D01*
X9790769Y-5807957D01*
X9794900Y-5787188D01*
X9794900Y-5766012D01*
X9833900Y-5766012D01*
X9833900Y-5787188D01*
X9838031Y-5807957D01*
X9846135Y-5827520D01*
X9857899Y-5845127D01*
X9872873Y-5860101D01*
X9890480Y-5871865D01*
X9910043Y-5879969D01*
X9930812Y-5884100D01*
X9951988Y-5884100D01*
X9972757Y-5879969D01*
X9992320Y-5871865D01*
X10009927Y-5860101D01*
X10024901Y-5845127D01*
X10036665Y-5827520D01*
X10044769Y-5807957D01*
X10048900Y-5787188D01*
X10048900Y-5766012D01*
X10087900Y-5766012D01*
X10087900Y-5787188D01*
X10092031Y-5807957D01*
X10100135Y-5827520D01*
X10111899Y-5845127D01*
X10126873Y-5860101D01*
X10144480Y-5871865D01*
X10164043Y-5879969D01*
X10184812Y-5884100D01*
X10205988Y-5884100D01*
X10226757Y-5879969D01*
X10246320Y-5871865D01*
X10263927Y-5860101D01*
X10278901Y-5845127D01*
X10290665Y-5827520D01*
X10298769Y-5807957D01*
X10302900Y-5787188D01*
X10302900Y-5766012D01*
X10341900Y-5766012D01*
X10341900Y-5787188D01*
X10346031Y-5807957D01*
X10354135Y-5827520D01*
X10365899Y-5845127D01*
X10380873Y-5860101D01*
X10398480Y-5871865D01*
X10418043Y-5879969D01*
X10438812Y-5884100D01*
X10459988Y-5884100D01*
X10480757Y-5879969D01*
X10500320Y-5871865D01*
X10517927Y-5860101D01*
X10532901Y-5845127D01*
X10544665Y-5827520D01*
X10552769Y-5807957D01*
X10556900Y-5787188D01*
X10556900Y-5766012D01*
X10595900Y-5766012D01*
X10595900Y-5787188D01*
X10600031Y-5807957D01*
X10608135Y-5827520D01*
X10619899Y-5845127D01*
X10634873Y-5860101D01*
X10652480Y-5871865D01*
X10672043Y-5879969D01*
X10692812Y-5884100D01*
X10713988Y-5884100D01*
X10734757Y-5879969D01*
X10754320Y-5871865D01*
X10771927Y-5860101D01*
X10786901Y-5845127D01*
X10798665Y-5827520D01*
X10806769Y-5807957D01*
X10810900Y-5787188D01*
X10810900Y-5766012D01*
X10806769Y-5745243D01*
X10798665Y-5725680D01*
X10786901Y-5708073D01*
X10771927Y-5693099D01*
X10754320Y-5681335D01*
X10734757Y-5673231D01*
X10713988Y-5669100D01*
X10692812Y-5669100D01*
X10672043Y-5673231D01*
X10652480Y-5681335D01*
X10634873Y-5693099D01*
X10619899Y-5708073D01*
X10608135Y-5725680D01*
X10600031Y-5745243D01*
X10595900Y-5766012D01*
X10556900Y-5766012D01*
X10552769Y-5745243D01*
X10544665Y-5725680D01*
X10532901Y-5708073D01*
X10517927Y-5693099D01*
X10500320Y-5681335D01*
X10480757Y-5673231D01*
X10459988Y-5669100D01*
X10438812Y-5669100D01*
X10418043Y-5673231D01*
X10398480Y-5681335D01*
X10380873Y-5693099D01*
X10365899Y-5708073D01*
X10354135Y-5725680D01*
X10346031Y-5745243D01*
X10341900Y-5766012D01*
X10302900Y-5766012D01*
X10298769Y-5745243D01*
X10290665Y-5725680D01*
X10278901Y-5708073D01*
X10263927Y-5693099D01*
X10246320Y-5681335D01*
X10226757Y-5673231D01*
X10205988Y-5669100D01*
X10184812Y-5669100D01*
X10164043Y-5673231D01*
X10144480Y-5681335D01*
X10126873Y-5693099D01*
X10111899Y-5708073D01*
X10100135Y-5725680D01*
X10092031Y-5745243D01*
X10087900Y-5766012D01*
X10048900Y-5766012D01*
X10044769Y-5745243D01*
X10036665Y-5725680D01*
X10024901Y-5708073D01*
X10009927Y-5693099D01*
X9992320Y-5681335D01*
X9972757Y-5673231D01*
X9951988Y-5669100D01*
X9930812Y-5669100D01*
X9910043Y-5673231D01*
X9890480Y-5681335D01*
X9872873Y-5693099D01*
X9857899Y-5708073D01*
X9846135Y-5725680D01*
X9838031Y-5745243D01*
X9833900Y-5766012D01*
X9794900Y-5766012D01*
X9790769Y-5745243D01*
X9782665Y-5725680D01*
X9770901Y-5708073D01*
X9755927Y-5693099D01*
X9738320Y-5681335D01*
X9718757Y-5673231D01*
X9697988Y-5669100D01*
X9676812Y-5669100D01*
X9656043Y-5673231D01*
X9636480Y-5681335D01*
X9618873Y-5693099D01*
X9603899Y-5708073D01*
X9592135Y-5725680D01*
X9584031Y-5745243D01*
X9579900Y-5766012D01*
X9540900Y-5766012D01*
X9536769Y-5745243D01*
X9528665Y-5725680D01*
X9516901Y-5708073D01*
X9501927Y-5693099D01*
X9484320Y-5681335D01*
X9464757Y-5673231D01*
X9443988Y-5669100D01*
X9422812Y-5669100D01*
X9402043Y-5673231D01*
X9382480Y-5681335D01*
X9364873Y-5693099D01*
X9349899Y-5708073D01*
X9338135Y-5725680D01*
X9330031Y-5745243D01*
X9325900Y-5766012D01*
X5112679Y-5766012D01*
X5112679Y-5112500D01*
X14395001Y-5112500D01*
X14887679Y-5605178D01*
G04 #@! TA.AperFunction,Conductor*
D24*
G36*
X14887679Y-5605178D02*
G01*
X14887679Y-10987380D01*
X14881600Y-10986600D01*
X14839100Y-10986600D01*
X14839100Y-11069100D01*
X14841100Y-11069100D01*
X14841100Y-11074100D01*
X14839100Y-11074100D01*
X14839100Y-11156600D01*
X14881600Y-11156600D01*
X14887679Y-11155820D01*
X14887679Y-11627380D01*
X14881600Y-11626600D01*
X14839100Y-11626600D01*
X14839100Y-11709100D01*
X14841100Y-11709100D01*
X14841100Y-11714100D01*
X14839100Y-11714100D01*
X14839100Y-11796600D01*
X14881600Y-11796600D01*
X14887679Y-11795820D01*
X14887679Y-14887500D01*
X5112679Y-14887500D01*
X5112679Y-14520500D01*
X5875500Y-14520500D01*
X5875500Y-14535500D01*
X5878245Y-14558375D01*
X5885401Y-14580275D01*
X5896691Y-14600358D01*
X5911683Y-14617853D01*
X5929799Y-14632087D01*
X5950344Y-14642512D01*
X5972154Y-14648636D01*
X5990500Y-14642346D01*
X5990500Y-14520500D01*
X5995500Y-14520500D01*
X5995500Y-14642346D01*
X6013846Y-14648636D01*
X6035656Y-14642512D01*
X6056201Y-14632087D01*
X6074317Y-14617853D01*
X6089309Y-14600358D01*
X6100599Y-14580275D01*
X6107754Y-14558375D01*
X6110500Y-14535500D01*
X6110500Y-14520500D01*
X5995500Y-14520500D01*
X5990500Y-14520500D01*
X5875500Y-14520500D01*
X5112679Y-14520500D01*
X5112679Y-14500500D01*
X5875500Y-14500500D01*
X5875500Y-14515500D01*
X5990500Y-14515500D01*
X5990500Y-14393654D01*
X5995500Y-14393654D01*
X5995500Y-14515500D01*
X6110500Y-14515500D01*
X6110500Y-14500500D01*
X6107754Y-14477625D01*
X6100599Y-14455725D01*
X6093445Y-14443000D01*
X6125343Y-14443000D01*
X6125343Y-14593000D01*
X6126451Y-14604248D01*
X6129732Y-14615064D01*
X6135060Y-14625033D01*
X6142230Y-14633770D01*
X6150967Y-14640940D01*
X6160935Y-14646268D01*
X6171752Y-14649549D01*
X6183000Y-14650657D01*
X6303000Y-14650657D01*
X6314248Y-14649549D01*
X6325064Y-14646268D01*
X6335033Y-14640940D01*
X6343770Y-14633770D01*
X6350940Y-14625033D01*
X6356268Y-14615064D01*
X6359549Y-14604248D01*
X6360657Y-14593000D01*
X6360657Y-14520500D01*
X6726500Y-14520500D01*
X6726500Y-14535500D01*
X6729245Y-14558375D01*
X6736401Y-14580275D01*
X6747691Y-14600358D01*
X6762683Y-14617853D01*
X6780799Y-14632087D01*
X6801344Y-14642512D01*
X6823154Y-14648636D01*
X6841500Y-14642346D01*
X6841500Y-14520500D01*
X6846500Y-14520500D01*
X6846500Y-14642346D01*
X6864846Y-14648636D01*
X6886656Y-14642512D01*
X6907201Y-14632087D01*
X6925317Y-14617853D01*
X6940309Y-14600358D01*
X6951599Y-14580275D01*
X6958754Y-14558375D01*
X6961500Y-14535500D01*
X6961500Y-14520500D01*
X6846500Y-14520500D01*
X6841500Y-14520500D01*
X6726500Y-14520500D01*
X6360657Y-14520500D01*
X6360657Y-14500500D01*
X6726500Y-14500500D01*
X6726500Y-14515500D01*
X6841500Y-14515500D01*
X6841500Y-14393654D01*
X6846500Y-14393654D01*
X6846500Y-14515500D01*
X6961500Y-14515500D01*
X6961500Y-14500500D01*
X6958754Y-14477625D01*
X6951599Y-14455725D01*
X6944445Y-14443000D01*
X6976343Y-14443000D01*
X6976343Y-14593000D01*
X6977451Y-14604248D01*
X6980732Y-14615064D01*
X6986060Y-14625033D01*
X6993230Y-14633770D01*
X7001967Y-14640940D01*
X7011935Y-14646268D01*
X7022752Y-14649549D01*
X7034000Y-14650657D01*
X7154000Y-14650657D01*
X7165248Y-14649549D01*
X7176064Y-14646268D01*
X7186033Y-14640940D01*
X7194770Y-14633770D01*
X7201940Y-14625033D01*
X7207268Y-14615064D01*
X7210549Y-14604248D01*
X7211657Y-14593000D01*
X7211657Y-14443000D01*
X7210549Y-14431752D01*
X7207268Y-14420935D01*
X7201940Y-14410967D01*
X7194770Y-14402230D01*
X7186033Y-14395060D01*
X7176064Y-14389732D01*
X7165248Y-14386451D01*
X7154000Y-14385343D01*
X7034000Y-14385343D01*
X7022752Y-14386451D01*
X7011935Y-14389732D01*
X7001967Y-14395060D01*
X6993230Y-14402230D01*
X6986060Y-14410967D01*
X6980732Y-14420935D01*
X6977451Y-14431752D01*
X6976343Y-14443000D01*
X6944445Y-14443000D01*
X6940309Y-14435642D01*
X6925317Y-14418147D01*
X6907201Y-14403913D01*
X6886656Y-14393487D01*
X6864846Y-14387364D01*
X6846500Y-14393654D01*
X6841500Y-14393654D01*
X6823154Y-14387364D01*
X6801344Y-14393487D01*
X6780799Y-14403913D01*
X6762683Y-14418147D01*
X6747691Y-14435642D01*
X6736401Y-14455725D01*
X6729245Y-14477625D01*
X6726500Y-14500500D01*
X6360657Y-14500500D01*
X6360657Y-14443000D01*
X6359549Y-14431752D01*
X6356268Y-14420935D01*
X6350940Y-14410967D01*
X6343770Y-14402230D01*
X6335033Y-14395060D01*
X6325064Y-14389732D01*
X6314248Y-14386451D01*
X6303000Y-14385343D01*
X6183000Y-14385343D01*
X6171752Y-14386451D01*
X6160935Y-14389732D01*
X6150967Y-14395060D01*
X6142230Y-14402230D01*
X6135060Y-14410967D01*
X6129732Y-14420935D01*
X6126451Y-14431752D01*
X6125343Y-14443000D01*
X6093445Y-14443000D01*
X6089309Y-14435642D01*
X6074317Y-14418147D01*
X6056201Y-14403913D01*
X6035656Y-14393487D01*
X6013846Y-14387364D01*
X5995500Y-14393654D01*
X5990500Y-14393654D01*
X5972154Y-14387364D01*
X5950344Y-14393487D01*
X5929799Y-14403913D01*
X5911683Y-14418147D01*
X5896691Y-14435642D01*
X5885401Y-14455725D01*
X5878245Y-14477625D01*
X5875500Y-14500500D01*
X5112679Y-14500500D01*
X5112679Y-13620352D01*
X5786500Y-13620352D01*
X5786500Y-13633648D01*
X5789094Y-13646689D01*
X5794182Y-13658973D01*
X5801569Y-13670029D01*
X5810971Y-13679431D01*
X5822027Y-13686818D01*
X5834311Y-13691906D01*
X5847352Y-13694500D01*
X5860648Y-13694500D01*
X5873689Y-13691906D01*
X5885973Y-13686818D01*
X5889442Y-13684500D01*
X8404176Y-13684500D01*
X8407000Y-13684778D01*
X8409824Y-13684500D01*
X8409825Y-13684500D01*
X8418272Y-13683668D01*
X8429111Y-13680380D01*
X8439100Y-13675041D01*
X8447855Y-13667855D01*
X8449657Y-13665661D01*
X8583661Y-13531656D01*
X8585855Y-13529855D01*
X8593041Y-13521100D01*
X8598380Y-13511111D01*
X8601668Y-13500272D01*
X8602500Y-13491825D01*
X8602500Y-13491824D01*
X8602778Y-13489000D01*
X8602500Y-13486176D01*
X8602500Y-13042882D01*
X8616715Y-13033384D01*
X8632384Y-13017714D01*
X8644696Y-12999289D01*
X8648130Y-12991000D01*
X8945432Y-12991000D01*
X8947641Y-12991218D01*
X8949851Y-12991000D01*
X8949852Y-12991000D01*
X8956463Y-12990349D01*
X8964945Y-12987776D01*
X8972763Y-12983597D01*
X8979615Y-12977974D01*
X8981024Y-12976257D01*
X9461563Y-12495718D01*
X9463279Y-12494309D01*
X9464688Y-12492593D01*
X9464688Y-12492593D01*
X9468902Y-12487457D01*
X9473081Y-12479640D01*
X9473081Y-12479640D01*
X9475654Y-12471157D01*
X9476305Y-12464546D01*
X9476305Y-12464545D01*
X9476523Y-12462336D01*
X9476305Y-12460126D01*
X9476305Y-12378400D01*
X13638743Y-12378400D01*
X13638743Y-12538400D01*
X13639370Y-12544771D01*
X13641229Y-12550897D01*
X13644246Y-12556543D01*
X13648308Y-12561492D01*
X13653257Y-12565553D01*
X13658903Y-12568571D01*
X13665029Y-12570430D01*
X13671400Y-12571057D01*
X13831400Y-12571057D01*
X13837771Y-12570430D01*
X13843897Y-12568571D01*
X13849543Y-12565553D01*
X13854492Y-12561492D01*
X13858553Y-12556543D01*
X13861571Y-12550897D01*
X13863430Y-12544771D01*
X13864057Y-12538400D01*
X13864057Y-12530156D01*
X13879685Y-12545784D01*
X13898111Y-12558096D01*
X13918585Y-12566577D01*
X13940320Y-12570900D01*
X13962480Y-12570900D01*
X13984215Y-12566577D01*
X14004689Y-12558096D01*
X14023114Y-12545784D01*
X14038784Y-12530114D01*
X14051096Y-12511689D01*
X14051400Y-12510955D01*
X14051704Y-12511689D01*
X14064016Y-12530114D01*
X14079685Y-12545784D01*
X14098111Y-12558096D01*
X14118585Y-12566577D01*
X14140320Y-12570900D01*
X14162480Y-12570900D01*
X14184215Y-12566577D01*
X14204689Y-12558096D01*
X14223114Y-12545784D01*
X14238784Y-12530114D01*
X14251096Y-12511689D01*
X14259577Y-12491215D01*
X14263900Y-12469480D01*
X14263900Y-12447320D01*
X14259577Y-12425585D01*
X14251096Y-12405111D01*
X14238784Y-12386685D01*
X14223114Y-12371016D01*
X14204689Y-12358704D01*
X14184215Y-12350223D01*
X14162480Y-12345900D01*
X14140320Y-12345900D01*
X14118585Y-12350223D01*
X14098111Y-12358704D01*
X14079685Y-12371016D01*
X14064016Y-12386685D01*
X14051704Y-12405111D01*
X14051400Y-12405845D01*
X14051096Y-12405111D01*
X14038784Y-12386685D01*
X14023114Y-12371016D01*
X14004689Y-12358704D01*
X13984215Y-12350223D01*
X13962480Y-12345900D01*
X13940320Y-12345900D01*
X13918585Y-12350223D01*
X13898111Y-12358704D01*
X13879685Y-12371016D01*
X13864057Y-12386644D01*
X13864057Y-12378400D01*
X13863430Y-12372029D01*
X13861571Y-12365903D01*
X13858553Y-12360257D01*
X13854492Y-12355308D01*
X13849543Y-12351246D01*
X13843897Y-12348229D01*
X13837771Y-12346370D01*
X13831400Y-12345743D01*
X13671400Y-12345743D01*
X13665029Y-12346370D01*
X13658903Y-12348229D01*
X13653257Y-12351246D01*
X13648308Y-12355308D01*
X13644246Y-12360257D01*
X13641229Y-12365903D01*
X13639370Y-12372029D01*
X13638743Y-12378400D01*
X9476305Y-12378400D01*
X9476305Y-11997320D01*
X13638900Y-11997320D01*
X13638900Y-12019480D01*
X13643223Y-12041215D01*
X13651704Y-12061689D01*
X13664016Y-12080114D01*
X13679685Y-12095784D01*
X13698111Y-12108096D01*
X13718585Y-12116577D01*
X13740320Y-12120900D01*
X13762480Y-12120900D01*
X13784215Y-12116577D01*
X13804689Y-12108096D01*
X13823114Y-12095784D01*
X13838784Y-12080114D01*
X13851096Y-12061689D01*
X13851400Y-12060955D01*
X13851704Y-12061689D01*
X13864016Y-12080114D01*
X13879685Y-12095784D01*
X13898111Y-12108096D01*
X13918585Y-12116577D01*
X13940320Y-12120900D01*
X13962480Y-12120900D01*
X13984215Y-12116577D01*
X14004689Y-12108096D01*
X14023114Y-12095784D01*
X14038784Y-12080114D01*
X14051096Y-12061689D01*
X14051400Y-12060955D01*
X14051704Y-12061689D01*
X14064016Y-12080114D01*
X14079685Y-12095784D01*
X14098111Y-12108096D01*
X14118585Y-12116577D01*
X14140320Y-12120900D01*
X14162480Y-12120900D01*
X14184215Y-12116577D01*
X14204689Y-12108096D01*
X14223114Y-12095784D01*
X14238784Y-12080114D01*
X14251096Y-12061689D01*
X14259577Y-12041215D01*
X14263900Y-12019480D01*
X14263900Y-11997320D01*
X14259577Y-11975585D01*
X14251096Y-11955111D01*
X14238784Y-11936685D01*
X14223114Y-11921016D01*
X14204689Y-11908704D01*
X14184215Y-11900223D01*
X14162480Y-11895900D01*
X14140320Y-11895900D01*
X14118585Y-11900223D01*
X14098111Y-11908704D01*
X14079685Y-11921016D01*
X14064016Y-11936685D01*
X14051704Y-11955111D01*
X14051400Y-11955845D01*
X14051096Y-11955111D01*
X14038784Y-11936685D01*
X14023114Y-11921016D01*
X14004689Y-11908704D01*
X13984215Y-11900223D01*
X13962480Y-11895900D01*
X13940320Y-11895900D01*
X13918585Y-11900223D01*
X13898111Y-11908704D01*
X13879685Y-11921016D01*
X13864016Y-11936685D01*
X13851704Y-11955111D01*
X13851400Y-11955845D01*
X13851096Y-11955111D01*
X13838784Y-11936685D01*
X13823114Y-11921016D01*
X13804689Y-11908704D01*
X13784215Y-11900223D01*
X13762480Y-11895900D01*
X13740320Y-11895900D01*
X13718585Y-11900223D01*
X13698111Y-11908704D01*
X13679685Y-11921016D01*
X13664016Y-11936685D01*
X13651704Y-11955111D01*
X13643223Y-11975585D01*
X13638900Y-11997320D01*
X9476305Y-11997320D01*
X9476305Y-11727360D01*
X14710574Y-11727360D01*
X14714614Y-11741818D01*
X14722036Y-11756745D01*
X14732228Y-11769936D01*
X14744798Y-11780886D01*
X14759262Y-11789173D01*
X14775065Y-11794479D01*
X14791600Y-11796600D01*
X14834100Y-11796600D01*
X14834100Y-11714100D01*
X14717266Y-11714100D01*
X14710574Y-11727360D01*
X9476305Y-11727360D01*
X9476305Y-11695840D01*
X14710574Y-11695840D01*
X14717266Y-11709100D01*
X14834100Y-11709100D01*
X14834100Y-11626600D01*
X14791600Y-11626600D01*
X14775065Y-11628721D01*
X14759262Y-11634027D01*
X14744798Y-11642314D01*
X14732228Y-11653264D01*
X14722036Y-11666455D01*
X14714614Y-11681382D01*
X14710574Y-11695840D01*
X9476305Y-11695840D01*
X9476305Y-11132635D01*
X9483736Y-11125204D01*
X9491123Y-11114149D01*
X9496211Y-11101865D01*
X9498805Y-11088824D01*
X9498805Y-11087360D01*
X14710574Y-11087360D01*
X14714614Y-11101818D01*
X14722036Y-11116745D01*
X14732228Y-11129936D01*
X14744798Y-11140886D01*
X14759262Y-11149173D01*
X14775065Y-11154479D01*
X14791600Y-11156600D01*
X14834100Y-11156600D01*
X14834100Y-11074100D01*
X14717266Y-11074100D01*
X14710574Y-11087360D01*
X9498805Y-11087360D01*
X9498805Y-11075527D01*
X9496211Y-11062487D01*
X9493458Y-11055840D01*
X14710574Y-11055840D01*
X14717266Y-11069100D01*
X14834100Y-11069100D01*
X14834100Y-10986600D01*
X14791600Y-10986600D01*
X14775065Y-10988721D01*
X14759262Y-10994027D01*
X14744798Y-11002314D01*
X14732228Y-11013264D01*
X14722036Y-11026455D01*
X14714614Y-11041382D01*
X14710574Y-11055840D01*
X9493458Y-11055840D01*
X9491123Y-11050202D01*
X9483736Y-11039147D01*
X9474334Y-11029745D01*
X9463279Y-11022358D01*
X9450994Y-11017270D01*
X9441748Y-11015430D01*
X9442500Y-11011648D01*
X9442500Y-10998352D01*
X9439906Y-10985311D01*
X9434818Y-10973027D01*
X9427431Y-10961971D01*
X9418029Y-10952569D01*
X9406973Y-10945182D01*
X9394689Y-10940094D01*
X9390986Y-10939357D01*
X9392659Y-10930946D01*
X9392659Y-10917649D01*
X9390065Y-10904609D01*
X9384976Y-10892324D01*
X9377589Y-10881269D01*
X9368187Y-10871867D01*
X9357132Y-10864480D01*
X9344848Y-10859392D01*
X9331807Y-10856798D01*
X9318511Y-10856798D01*
X9305470Y-10859392D01*
X9293186Y-10864480D01*
X9289717Y-10866798D01*
X7771527Y-10866798D01*
X7768702Y-10866519D01*
X7765878Y-10866798D01*
X7765878Y-10866798D01*
X7757430Y-10867630D01*
X7746592Y-10870917D01*
X7736603Y-10876257D01*
X7727847Y-10883442D01*
X7726046Y-10885636D01*
X7355339Y-11256344D01*
X7353145Y-11258145D01*
X7351344Y-11260339D01*
X7345959Y-11266900D01*
X7340620Y-11276889D01*
X7337332Y-11287728D01*
X7336222Y-11299000D01*
X7336500Y-11301825D01*
X7336500Y-12493558D01*
X7334182Y-12497027D01*
X7329094Y-12509311D01*
X7326500Y-12522352D01*
X7326500Y-12535648D01*
X7329094Y-12548689D01*
X7334182Y-12560973D01*
X7341569Y-12572029D01*
X7350971Y-12581431D01*
X7362027Y-12588818D01*
X7374311Y-12593906D01*
X7387352Y-12596500D01*
X7400648Y-12596500D01*
X7413689Y-12593906D01*
X7425973Y-12588818D01*
X7437029Y-12581431D01*
X7446431Y-12572029D01*
X7453818Y-12560973D01*
X7458906Y-12548689D01*
X7461500Y-12535648D01*
X7461500Y-12522352D01*
X7458906Y-12509311D01*
X7453818Y-12497027D01*
X7451500Y-12493558D01*
X7451500Y-12484920D01*
X8032500Y-12484920D01*
X8032500Y-12507080D01*
X8036823Y-12528815D01*
X8045304Y-12549289D01*
X8057616Y-12567714D01*
X8073285Y-12583384D01*
X8091711Y-12595696D01*
X8112185Y-12604177D01*
X8133920Y-12608500D01*
X8156080Y-12608500D01*
X8177815Y-12604177D01*
X8198289Y-12595696D01*
X8216714Y-12583384D01*
X8232384Y-12567714D01*
X8244696Y-12549289D01*
X8245000Y-12548555D01*
X8245304Y-12549289D01*
X8257616Y-12567714D01*
X8273285Y-12583384D01*
X8291711Y-12595696D01*
X8312185Y-12604177D01*
X8333920Y-12608500D01*
X8356080Y-12608500D01*
X8377815Y-12604177D01*
X8398289Y-12595696D01*
X8416715Y-12583384D01*
X8432343Y-12567756D01*
X8432343Y-12576000D01*
X8432970Y-12582371D01*
X8434829Y-12588497D01*
X8437847Y-12594143D01*
X8441908Y-12599092D01*
X8446857Y-12603153D01*
X8452503Y-12606171D01*
X8458629Y-12608030D01*
X8465000Y-12608657D01*
X8625000Y-12608657D01*
X8631371Y-12608030D01*
X8637497Y-12606171D01*
X8643143Y-12603153D01*
X8648092Y-12599092D01*
X8652154Y-12594143D01*
X8655171Y-12588497D01*
X8657030Y-12582371D01*
X8657657Y-12576000D01*
X8657657Y-12416000D01*
X8657030Y-12409629D01*
X8655171Y-12403503D01*
X8652154Y-12397857D01*
X8648092Y-12392908D01*
X8643143Y-12388846D01*
X8637497Y-12385829D01*
X8631371Y-12383970D01*
X8625000Y-12383343D01*
X8465000Y-12383343D01*
X8458629Y-12383970D01*
X8452503Y-12385829D01*
X8446857Y-12388846D01*
X8441908Y-12392908D01*
X8437847Y-12397857D01*
X8434829Y-12403503D01*
X8432970Y-12409629D01*
X8432343Y-12416000D01*
X8432343Y-12424244D01*
X8416715Y-12408616D01*
X8398289Y-12396304D01*
X8377815Y-12387823D01*
X8356080Y-12383500D01*
X8333920Y-12383500D01*
X8312185Y-12387823D01*
X8291711Y-12396304D01*
X8273285Y-12408616D01*
X8257616Y-12424285D01*
X8245304Y-12442711D01*
X8245000Y-12443445D01*
X8244696Y-12442711D01*
X8232384Y-12424285D01*
X8216714Y-12408616D01*
X8198289Y-12396304D01*
X8177815Y-12387823D01*
X8156080Y-12383500D01*
X8133920Y-12383500D01*
X8112185Y-12387823D01*
X8091711Y-12396304D01*
X8073285Y-12408616D01*
X8057616Y-12424285D01*
X8045304Y-12442711D01*
X8036823Y-12463185D01*
X8032500Y-12484920D01*
X7451500Y-12484920D01*
X7451500Y-11754208D01*
X7995500Y-11754208D01*
X7995500Y-11774792D01*
X7999516Y-11794981D01*
X8007393Y-11813999D01*
X8018830Y-11831115D01*
X8033385Y-11845670D01*
X8050501Y-11857107D01*
X8069518Y-11864984D01*
X8089708Y-11869000D01*
X8110292Y-11869000D01*
X8130481Y-11864984D01*
X8149499Y-11857107D01*
X8166615Y-11845670D01*
X8181170Y-11831115D01*
X8192607Y-11813999D01*
X8200484Y-11794981D01*
X8204500Y-11774792D01*
X8204500Y-11754208D01*
X8249500Y-11754208D01*
X8249500Y-11774792D01*
X8253516Y-11794981D01*
X8261393Y-11813999D01*
X8272830Y-11831115D01*
X8287385Y-11845670D01*
X8304501Y-11857107D01*
X8323518Y-11864984D01*
X8343708Y-11869000D01*
X8364292Y-11869000D01*
X8384481Y-11864984D01*
X8403499Y-11857107D01*
X8420615Y-11845670D01*
X8435170Y-11831115D01*
X8446607Y-11813999D01*
X8454484Y-11794981D01*
X8458500Y-11774792D01*
X8458500Y-11754208D01*
X8503500Y-11754208D01*
X8503500Y-11774792D01*
X8507516Y-11794981D01*
X8515393Y-11813999D01*
X8526830Y-11831115D01*
X8541385Y-11845670D01*
X8558501Y-11857107D01*
X8577519Y-11864984D01*
X8597708Y-11869000D01*
X8618292Y-11869000D01*
X8638482Y-11864984D01*
X8657499Y-11857107D01*
X8674615Y-11845670D01*
X8689170Y-11831115D01*
X8700607Y-11813999D01*
X8708484Y-11794981D01*
X8712500Y-11774792D01*
X8712500Y-11754208D01*
X8708484Y-11734018D01*
X8700607Y-11715001D01*
X8689170Y-11697885D01*
X8674615Y-11683330D01*
X8657499Y-11671893D01*
X8638482Y-11664016D01*
X8618292Y-11660000D01*
X8597708Y-11660000D01*
X8577519Y-11664016D01*
X8558501Y-11671893D01*
X8541385Y-11683330D01*
X8526830Y-11697885D01*
X8515393Y-11715001D01*
X8507516Y-11734018D01*
X8503500Y-11754208D01*
X8458500Y-11754208D01*
X8454484Y-11734018D01*
X8446607Y-11715001D01*
X8435170Y-11697885D01*
X8420615Y-11683330D01*
X8403499Y-11671893D01*
X8384481Y-11664016D01*
X8364292Y-11660000D01*
X8343708Y-11660000D01*
X8323518Y-11664016D01*
X8304501Y-11671893D01*
X8287385Y-11683330D01*
X8272830Y-11697885D01*
X8261393Y-11715001D01*
X8253516Y-11734018D01*
X8249500Y-11754208D01*
X8204500Y-11754208D01*
X8200484Y-11734018D01*
X8192607Y-11715001D01*
X8181170Y-11697885D01*
X8166615Y-11683330D01*
X8149499Y-11671893D01*
X8130481Y-11664016D01*
X8110292Y-11660000D01*
X8089708Y-11660000D01*
X8069518Y-11664016D01*
X8050501Y-11671893D01*
X8033385Y-11683330D01*
X8018830Y-11697885D01*
X8007393Y-11715001D01*
X7999516Y-11734018D01*
X7995500Y-11754208D01*
X7451500Y-11754208D01*
X7451500Y-11322817D01*
X7577609Y-11196708D01*
X7995500Y-11196708D01*
X7995500Y-11217292D01*
X7999516Y-11237481D01*
X8007393Y-11256499D01*
X8018830Y-11273615D01*
X8033385Y-11288170D01*
X8050501Y-11299607D01*
X8069518Y-11307484D01*
X8089708Y-11311500D01*
X8110292Y-11311500D01*
X8130481Y-11307484D01*
X8149499Y-11299607D01*
X8166615Y-11288170D01*
X8181170Y-11273615D01*
X8192607Y-11256499D01*
X8200484Y-11237481D01*
X8204500Y-11217292D01*
X8204500Y-11196708D01*
X8249500Y-11196708D01*
X8249500Y-11217292D01*
X8253516Y-11237481D01*
X8261393Y-11256499D01*
X8272830Y-11273615D01*
X8287385Y-11288170D01*
X8304501Y-11299607D01*
X8323518Y-11307484D01*
X8343708Y-11311500D01*
X8364292Y-11311500D01*
X8384481Y-11307484D01*
X8403499Y-11299607D01*
X8420615Y-11288170D01*
X8431535Y-11277250D01*
X8541286Y-11277250D01*
X8548319Y-11293397D01*
X8566321Y-11303380D01*
X8585925Y-11309659D01*
X8606377Y-11311993D01*
X8626891Y-11310292D01*
X8646679Y-11304622D01*
X8664981Y-11295200D01*
X8667681Y-11293397D01*
X8674714Y-11277250D01*
X8608000Y-11210535D01*
X8541286Y-11277250D01*
X8431535Y-11277250D01*
X8435170Y-11273615D01*
X8446607Y-11256499D01*
X8454484Y-11237481D01*
X8458500Y-11217292D01*
X8458500Y-11205377D01*
X8503007Y-11205377D01*
X8504708Y-11225891D01*
X8510378Y-11245679D01*
X8519800Y-11263981D01*
X8521603Y-11266681D01*
X8537750Y-11273714D01*
X8604465Y-11207000D01*
X8611536Y-11207000D01*
X8678250Y-11273714D01*
X8694397Y-11266681D01*
X8704380Y-11248679D01*
X8710659Y-11229075D01*
X8712993Y-11208623D01*
X8711292Y-11188109D01*
X8705622Y-11168321D01*
X8696200Y-11150019D01*
X8694397Y-11147319D01*
X8678250Y-11140286D01*
X8611536Y-11207000D01*
X8604465Y-11207000D01*
X8537750Y-11140286D01*
X8521603Y-11147319D01*
X8511620Y-11165321D01*
X8505341Y-11184925D01*
X8503007Y-11205377D01*
X8458500Y-11205377D01*
X8458500Y-11196708D01*
X8454484Y-11176519D01*
X8446607Y-11157501D01*
X8435170Y-11140385D01*
X8431535Y-11136750D01*
X8541286Y-11136750D01*
X8608000Y-11203464D01*
X8674714Y-11136750D01*
X8667681Y-11120603D01*
X8649679Y-11110620D01*
X8630075Y-11104341D01*
X8609623Y-11102007D01*
X8589109Y-11103708D01*
X8569321Y-11109378D01*
X8551019Y-11118800D01*
X8548319Y-11120603D01*
X8541286Y-11136750D01*
X8431535Y-11136750D01*
X8420615Y-11125830D01*
X8403499Y-11114393D01*
X8384481Y-11106516D01*
X8364292Y-11102500D01*
X8343708Y-11102500D01*
X8323518Y-11106516D01*
X8304501Y-11114393D01*
X8287385Y-11125830D01*
X8272830Y-11140385D01*
X8261393Y-11157501D01*
X8253516Y-11176519D01*
X8249500Y-11196708D01*
X8204500Y-11196708D01*
X8200484Y-11176519D01*
X8192607Y-11157501D01*
X8181170Y-11140385D01*
X8166615Y-11125830D01*
X8149499Y-11114393D01*
X8130481Y-11106516D01*
X8110292Y-11102500D01*
X8089708Y-11102500D01*
X8069518Y-11106516D01*
X8050501Y-11114393D01*
X8033385Y-11125830D01*
X8018830Y-11140385D01*
X8007393Y-11157501D01*
X7999516Y-11176519D01*
X7995500Y-11196708D01*
X7577609Y-11196708D01*
X7792520Y-10981798D01*
X9289717Y-10981798D01*
X9293186Y-10984115D01*
X9305470Y-10989204D01*
X9309173Y-10989940D01*
X9307500Y-10998352D01*
X9307500Y-11008668D01*
X9306618Y-11009743D01*
X9306617Y-11009743D01*
X9302403Y-11014878D01*
X9298225Y-11022696D01*
X9295651Y-11031179D01*
X9294783Y-11040000D01*
X9295000Y-11042210D01*
X9295000Y-12471360D01*
X8981361Y-12785000D01*
X8263209Y-12785000D01*
X8261000Y-12784782D01*
X8258791Y-12785000D01*
X8258789Y-12785000D01*
X8252178Y-12785651D01*
X8243696Y-12788224D01*
X8235878Y-12792403D01*
X8230743Y-12796617D01*
X8230743Y-12796618D01*
X8229026Y-12798026D01*
X8227618Y-12799743D01*
X8186104Y-12841257D01*
X8177815Y-12837823D01*
X8156080Y-12833500D01*
X8133920Y-12833500D01*
X8112185Y-12837823D01*
X8091711Y-12846304D01*
X8073285Y-12858616D01*
X8057616Y-12874285D01*
X8045304Y-12892711D01*
X8036823Y-12913185D01*
X8032500Y-12934920D01*
X8032500Y-12957080D01*
X8036823Y-12978815D01*
X8045304Y-12999289D01*
X8057616Y-13017714D01*
X8073285Y-13033384D01*
X8087500Y-13042882D01*
X8087500Y-13343183D01*
X8008183Y-13422500D01*
X6894442Y-13422500D01*
X6890973Y-13420182D01*
X6878689Y-13415094D01*
X6865648Y-13412500D01*
X6852352Y-13412500D01*
X6839311Y-13415094D01*
X6827027Y-13420182D01*
X6815971Y-13427569D01*
X6806569Y-13436971D01*
X6799182Y-13448027D01*
X6794094Y-13460311D01*
X6791500Y-13473352D01*
X6791500Y-13486648D01*
X6794094Y-13499689D01*
X6799182Y-13511973D01*
X6806569Y-13523029D01*
X6815971Y-13532431D01*
X6827027Y-13539818D01*
X6839311Y-13544906D01*
X6852352Y-13547500D01*
X6865648Y-13547500D01*
X6878689Y-13544906D01*
X6890973Y-13539818D01*
X6894442Y-13537500D01*
X8029176Y-13537500D01*
X8032000Y-13537778D01*
X8034824Y-13537500D01*
X8034825Y-13537500D01*
X8043272Y-13536668D01*
X8054111Y-13533380D01*
X8064100Y-13528041D01*
X8072855Y-13520855D01*
X8074656Y-13518661D01*
X8183661Y-13409656D01*
X8185855Y-13407855D01*
X8189278Y-13403685D01*
X8193041Y-13399100D01*
X8198380Y-13389111D01*
X8201668Y-13378272D01*
X8202500Y-13369825D01*
X8202500Y-13369824D01*
X8202778Y-13367000D01*
X8202500Y-13364176D01*
X8202500Y-13042882D01*
X8216714Y-13033384D01*
X8232384Y-13017714D01*
X8244696Y-12999289D01*
X8245000Y-12998555D01*
X8245304Y-12999289D01*
X8257616Y-13017714D01*
X8262500Y-13022599D01*
X8262500Y-13464052D01*
X8263694Y-13476173D01*
X8268411Y-13491724D01*
X8276072Y-13506056D01*
X8286382Y-13518618D01*
X8298944Y-13528928D01*
X8313276Y-13536589D01*
X8328827Y-13541306D01*
X8345000Y-13542899D01*
X8361173Y-13541306D01*
X8376724Y-13536589D01*
X8391056Y-13528928D01*
X8403619Y-13518618D01*
X8413928Y-13506056D01*
X8421589Y-13491724D01*
X8426306Y-13476173D01*
X8427500Y-13464052D01*
X8427500Y-13022599D01*
X8432384Y-13017714D01*
X8444696Y-12999289D01*
X8445000Y-12998555D01*
X8445304Y-12999289D01*
X8457616Y-13017714D01*
X8473286Y-13033384D01*
X8487500Y-13042882D01*
X8487500Y-13465183D01*
X8383183Y-13569500D01*
X5889442Y-13569500D01*
X5885973Y-13567182D01*
X5873689Y-13562094D01*
X5860648Y-13559500D01*
X5847352Y-13559500D01*
X5834311Y-13562094D01*
X5822027Y-13567182D01*
X5810971Y-13574569D01*
X5801569Y-13583971D01*
X5794182Y-13595027D01*
X5789094Y-13607311D01*
X5786500Y-13620352D01*
X5112679Y-13620352D01*
X5112679Y-11134500D01*
X5559343Y-11134500D01*
X5559343Y-11284500D01*
X5559970Y-11290871D01*
X5561829Y-11296997D01*
X5564847Y-11302643D01*
X5568908Y-11307592D01*
X5573857Y-11311653D01*
X5579503Y-11314671D01*
X5585629Y-11316530D01*
X5592000Y-11317157D01*
X5742000Y-11317157D01*
X5748371Y-11316530D01*
X5754497Y-11314671D01*
X5760143Y-11311653D01*
X5765092Y-11307592D01*
X5769153Y-11302643D01*
X5772171Y-11296997D01*
X5774030Y-11290871D01*
X5774657Y-11284500D01*
X5774657Y-11281882D01*
X5852153Y-11281882D01*
X5859547Y-11298336D01*
X5878059Y-11308618D01*
X5898221Y-11315091D01*
X5919258Y-11317506D01*
X5940363Y-11315771D01*
X5960723Y-11309951D01*
X5979557Y-11300271D01*
X5982453Y-11298336D01*
X5989847Y-11281882D01*
X5921000Y-11213035D01*
X5852153Y-11281882D01*
X5774657Y-11281882D01*
X5774657Y-11207758D01*
X5812994Y-11207758D01*
X5814729Y-11228863D01*
X5820549Y-11249223D01*
X5830229Y-11268057D01*
X5832164Y-11270953D01*
X5848618Y-11278347D01*
X5917464Y-11209500D01*
X5924535Y-11209500D01*
X5993382Y-11278347D01*
X6009836Y-11270953D01*
X6020118Y-11252441D01*
X6026591Y-11232279D01*
X6029006Y-11211242D01*
X6027992Y-11198912D01*
X6067500Y-11198912D01*
X6067500Y-11220088D01*
X6071631Y-11240857D01*
X6079735Y-11260420D01*
X6091499Y-11278027D01*
X6106473Y-11293001D01*
X6124080Y-11304765D01*
X6143643Y-11312869D01*
X6164412Y-11317000D01*
X6185588Y-11317000D01*
X6195805Y-11314968D01*
X6189417Y-11336025D01*
X6186859Y-11362000D01*
X6187500Y-11368510D01*
X6187500Y-12978509D01*
X6189417Y-12997974D01*
X6196994Y-13022951D01*
X6209297Y-13045969D01*
X6225855Y-13066145D01*
X6246031Y-13082703D01*
X6269049Y-13095006D01*
X6294025Y-13102583D01*
X6320000Y-13105141D01*
X6345974Y-13102583D01*
X6370951Y-13095006D01*
X6393969Y-13082703D01*
X6414145Y-13066145D01*
X6430703Y-13045969D01*
X6443006Y-13022951D01*
X6450583Y-12997974D01*
X6452500Y-12978509D01*
X6452500Y-11416883D01*
X6769089Y-11100294D01*
X6774145Y-11096145D01*
X6790703Y-11075969D01*
X6803006Y-11052951D01*
X6807605Y-11037790D01*
X6810583Y-11027975D01*
X6813141Y-11002000D01*
X6812500Y-10995491D01*
X6812500Y-10377491D01*
X6810583Y-10358026D01*
X6803006Y-10333049D01*
X6790703Y-10310031D01*
X6774145Y-10289855D01*
X6753969Y-10273297D01*
X6730951Y-10260994D01*
X6705974Y-10253417D01*
X6680000Y-10250859D01*
X6654026Y-10253417D01*
X6629049Y-10260994D01*
X6606031Y-10273297D01*
X6585855Y-10289855D01*
X6569297Y-10310031D01*
X6556994Y-10333049D01*
X6549417Y-10358026D01*
X6547500Y-10377491D01*
X6547500Y-10947117D01*
X6282500Y-11212117D01*
X6282500Y-11198912D01*
X6278369Y-11178143D01*
X6270265Y-11158580D01*
X6258501Y-11140973D01*
X6243527Y-11125999D01*
X6225920Y-11114235D01*
X6206357Y-11106131D01*
X6185588Y-11102000D01*
X6164412Y-11102000D01*
X6143643Y-11106131D01*
X6124080Y-11114235D01*
X6106473Y-11125999D01*
X6091499Y-11140973D01*
X6079735Y-11158580D01*
X6071631Y-11178143D01*
X6067500Y-11198912D01*
X6027992Y-11198912D01*
X6027271Y-11190137D01*
X6021451Y-11169777D01*
X6011771Y-11150943D01*
X6009836Y-11148047D01*
X5993382Y-11140653D01*
X5924535Y-11209500D01*
X5917464Y-11209500D01*
X5848618Y-11140653D01*
X5832164Y-11148047D01*
X5821882Y-11166559D01*
X5815409Y-11186721D01*
X5812994Y-11207758D01*
X5774657Y-11207758D01*
X5774657Y-11137118D01*
X5852153Y-11137118D01*
X5921000Y-11205964D01*
X5989847Y-11137118D01*
X5982453Y-11120664D01*
X5963941Y-11110382D01*
X5943779Y-11103909D01*
X5922742Y-11101494D01*
X5901637Y-11103229D01*
X5881277Y-11109049D01*
X5862443Y-11118729D01*
X5859547Y-11120664D01*
X5852153Y-11137118D01*
X5774657Y-11137118D01*
X5774657Y-11134500D01*
X5774030Y-11128129D01*
X5772171Y-11122003D01*
X5769153Y-11116357D01*
X5765092Y-11111408D01*
X5760143Y-11107347D01*
X5754497Y-11104329D01*
X5748371Y-11102470D01*
X5742000Y-11101843D01*
X5592000Y-11101843D01*
X5585629Y-11102470D01*
X5579503Y-11104329D01*
X5573857Y-11107347D01*
X5568908Y-11111408D01*
X5564847Y-11116357D01*
X5561829Y-11122003D01*
X5559970Y-11128129D01*
X5559343Y-11134500D01*
X5112679Y-11134500D01*
X5112679Y-8478752D01*
X10127900Y-8478752D01*
X10127900Y-8492048D01*
X10130494Y-8505089D01*
X10135582Y-8517373D01*
X10142969Y-8528429D01*
X10150400Y-8535859D01*
X10150400Y-9193190D01*
X10150182Y-9195400D01*
X10151051Y-9204222D01*
X10153624Y-9212704D01*
X10157803Y-9220522D01*
X10162017Y-9225657D01*
X10162018Y-9225657D01*
X10163426Y-9227374D01*
X10165143Y-9228782D01*
X10606618Y-9670257D01*
X10608026Y-9671974D01*
X10609743Y-9673382D01*
X10609743Y-9673383D01*
X10614878Y-9677597D01*
X10618918Y-9679756D01*
X10622696Y-9681776D01*
X10631179Y-9684349D01*
X10637790Y-9685000D01*
X10637791Y-9685000D01*
X10640000Y-9685218D01*
X10642209Y-9685000D01*
X10829541Y-9685000D01*
X10836971Y-9692431D01*
X10848027Y-9699818D01*
X10860311Y-9704906D01*
X10873352Y-9707500D01*
X10886648Y-9707500D01*
X10899689Y-9704906D01*
X10911973Y-9699818D01*
X10923029Y-9692431D01*
X10932431Y-9683029D01*
X10939818Y-9671973D01*
X10944906Y-9659689D01*
X10947500Y-9646648D01*
X10947500Y-9633352D01*
X10947238Y-9632034D01*
X10947580Y-9632176D01*
X10960621Y-9634770D01*
X10973917Y-9634770D01*
X10986958Y-9632176D01*
X10999242Y-9627088D01*
X11010298Y-9619701D01*
X11019700Y-9610299D01*
X11027087Y-9599243D01*
X11032175Y-9586959D01*
X11034769Y-9573918D01*
X11034769Y-9560622D01*
X11032175Y-9547581D01*
X11027087Y-9535297D01*
X11019700Y-9524241D01*
X11010298Y-9514839D01*
X10999242Y-9507452D01*
X10986958Y-9502364D01*
X10973917Y-9499770D01*
X10960621Y-9499770D01*
X10947580Y-9502364D01*
X10935296Y-9507452D01*
X10924240Y-9514839D01*
X10916810Y-9522270D01*
X10655910Y-9522270D01*
X10345000Y-9211361D01*
X10345000Y-9150460D01*
X10352431Y-9143029D01*
X10359818Y-9131974D01*
X10364906Y-9119690D01*
X10367500Y-9106649D01*
X10367500Y-9093352D01*
X10364906Y-9080312D01*
X10359818Y-9068027D01*
X10352431Y-9056972D01*
X10343029Y-9047570D01*
X10331973Y-9040183D01*
X10319689Y-9035095D01*
X10306648Y-9032501D01*
X10293352Y-9032501D01*
X10280311Y-9035095D01*
X10268027Y-9040183D01*
X10256971Y-9047570D01*
X10247569Y-9056972D01*
X10240400Y-9067702D01*
X10240400Y-8535859D01*
X10247831Y-8528429D01*
X10255218Y-8517373D01*
X10260306Y-8505089D01*
X10262900Y-8492048D01*
X10262900Y-8478752D01*
X10260306Y-8465711D01*
X10255218Y-8453427D01*
X10247831Y-8442371D01*
X10238429Y-8432969D01*
X10227373Y-8425582D01*
X10215089Y-8420494D01*
X10202048Y-8417900D01*
X10188752Y-8417900D01*
X10175711Y-8420494D01*
X10163427Y-8425582D01*
X10152371Y-8432969D01*
X10142969Y-8442371D01*
X10135582Y-8453427D01*
X10130494Y-8465711D01*
X10127900Y-8478752D01*
X5112679Y-8478752D01*
X5112679Y-8073352D01*
X9112500Y-8073352D01*
X9112500Y-8086648D01*
X9115094Y-8099689D01*
X9120182Y-8111973D01*
X9127569Y-8123029D01*
X9136971Y-8132431D01*
X9148027Y-8139818D01*
X9160311Y-8144906D01*
X9173352Y-8147500D01*
X9186648Y-8147500D01*
X9199689Y-8144906D01*
X9211973Y-8139818D01*
X9223029Y-8132431D01*
X9230459Y-8125000D01*
X9367294Y-8125000D01*
X9365094Y-8130311D01*
X9362500Y-8143352D01*
X9362500Y-8156648D01*
X9365094Y-8169689D01*
X9370182Y-8181973D01*
X9377569Y-8193029D01*
X9386971Y-8202431D01*
X9398027Y-8209818D01*
X9410311Y-8214906D01*
X9423352Y-8217500D01*
X9436648Y-8217500D01*
X9449689Y-8214906D01*
X9461973Y-8209818D01*
X9473029Y-8202431D01*
X9480459Y-8195000D01*
X10647294Y-8195000D01*
X10645094Y-8200312D01*
X10642500Y-8213353D01*
X10642500Y-8226649D01*
X10645094Y-8239690D01*
X10647294Y-8245000D01*
X10500459Y-8245000D01*
X10493029Y-8237569D01*
X10481973Y-8230182D01*
X10469689Y-8225094D01*
X10456648Y-8222500D01*
X10443352Y-8222500D01*
X10430311Y-8225094D01*
X10418027Y-8230182D01*
X10406971Y-8237569D01*
X10397569Y-8246971D01*
X10390182Y-8258027D01*
X10385094Y-8270311D01*
X10382500Y-8283352D01*
X10382500Y-8296648D01*
X10385094Y-8309689D01*
X10386714Y-8313600D01*
X9991859Y-8313600D01*
X9984429Y-8306169D01*
X9973373Y-8298782D01*
X9961089Y-8293694D01*
X9948048Y-8291100D01*
X9934752Y-8291100D01*
X9921711Y-8293694D01*
X9909427Y-8298782D01*
X9898371Y-8306169D01*
X9888969Y-8315571D01*
X9881582Y-8326627D01*
X9876494Y-8338911D01*
X9873900Y-8351952D01*
X9873900Y-8365248D01*
X9876494Y-8378289D01*
X9881582Y-8390573D01*
X9888969Y-8401629D01*
X9898371Y-8411031D01*
X9909427Y-8418418D01*
X9921711Y-8423506D01*
X9934752Y-8426100D01*
X9948048Y-8426100D01*
X9961089Y-8423506D01*
X9973373Y-8418418D01*
X9984429Y-8411031D01*
X9991859Y-8403600D01*
X11067691Y-8403600D01*
X11069900Y-8403818D01*
X11072110Y-8403600D01*
X11072111Y-8403600D01*
X11078722Y-8402949D01*
X11087204Y-8400376D01*
X11095022Y-8396197D01*
X11101874Y-8390574D01*
X11103283Y-8388857D01*
X11132343Y-8359797D01*
X11132343Y-8470000D01*
X11132970Y-8476371D01*
X11134829Y-8482497D01*
X11137847Y-8488143D01*
X11141908Y-8493092D01*
X11146857Y-8497154D01*
X11152503Y-8500171D01*
X11158629Y-8502030D01*
X11165000Y-8502657D01*
X11173244Y-8502657D01*
X11157616Y-8518286D01*
X11145304Y-8536711D01*
X11136823Y-8557185D01*
X11132500Y-8578920D01*
X11132500Y-8601080D01*
X11136823Y-8622815D01*
X11145304Y-8643289D01*
X11157616Y-8661715D01*
X11173286Y-8677384D01*
X11191711Y-8689696D01*
X11192445Y-8690000D01*
X11191711Y-8690304D01*
X11173286Y-8702616D01*
X11157616Y-8718286D01*
X11145304Y-8736711D01*
X11136823Y-8757185D01*
X11132500Y-8778920D01*
X11132500Y-8801080D01*
X11136823Y-8822815D01*
X11145304Y-8843289D01*
X11157616Y-8861715D01*
X11173286Y-8877384D01*
X11191711Y-8889696D01*
X11212185Y-8898177D01*
X11233920Y-8902500D01*
X11256080Y-8902500D01*
X11277815Y-8898177D01*
X11298289Y-8889696D01*
X11316714Y-8877384D01*
X11332384Y-8861715D01*
X11344696Y-8843289D01*
X11353177Y-8822815D01*
X11357500Y-8801080D01*
X11357500Y-8778920D01*
X11353177Y-8757185D01*
X11344696Y-8736711D01*
X11332384Y-8718286D01*
X11316714Y-8702616D01*
X11298289Y-8690304D01*
X11297555Y-8690000D01*
X11298289Y-8689696D01*
X11316714Y-8677384D01*
X11332384Y-8661715D01*
X11344696Y-8643289D01*
X11353177Y-8622815D01*
X11357500Y-8601080D01*
X11357500Y-8578920D01*
X11353177Y-8557185D01*
X11344696Y-8536711D01*
X11332384Y-8518286D01*
X11316756Y-8502657D01*
X11325000Y-8502657D01*
X11331371Y-8502030D01*
X11337497Y-8500171D01*
X11343143Y-8497154D01*
X11348092Y-8493092D01*
X11352153Y-8488143D01*
X11355171Y-8482497D01*
X11357030Y-8476371D01*
X11357657Y-8470000D01*
X11357657Y-8310000D01*
X11357030Y-8303629D01*
X11356687Y-8302500D01*
X11623458Y-8302500D01*
X11623285Y-8302616D01*
X11607616Y-8318285D01*
X11595304Y-8336711D01*
X11586823Y-8357185D01*
X11582500Y-8378920D01*
X11582500Y-8401080D01*
X11586823Y-8422815D01*
X11595304Y-8443289D01*
X11607616Y-8461715D01*
X11623285Y-8477384D01*
X11641711Y-8489696D01*
X11642445Y-8490000D01*
X11641711Y-8490304D01*
X11623285Y-8502616D01*
X11607616Y-8518286D01*
X11595304Y-8536711D01*
X11586823Y-8557185D01*
X11582500Y-8578920D01*
X11582500Y-8601080D01*
X11586823Y-8622815D01*
X11595304Y-8643289D01*
X11607616Y-8661715D01*
X11623285Y-8677384D01*
X11641711Y-8689696D01*
X11642445Y-8690000D01*
X11641711Y-8690304D01*
X11623285Y-8702616D01*
X11607616Y-8718286D01*
X11595304Y-8736711D01*
X11586823Y-8757185D01*
X11582500Y-8778920D01*
X11582500Y-8801080D01*
X11586823Y-8822815D01*
X11595304Y-8843289D01*
X11607616Y-8861715D01*
X11612500Y-8866599D01*
X11612500Y-9060827D01*
X11533798Y-9139529D01*
X11526072Y-9148944D01*
X11518411Y-9163276D01*
X11513694Y-9178827D01*
X11512101Y-9195000D01*
X11513694Y-9211173D01*
X11518411Y-9226724D01*
X11526072Y-9241056D01*
X11536381Y-9253619D01*
X11548944Y-9263928D01*
X11563276Y-9271589D01*
X11578827Y-9276306D01*
X11595000Y-9277899D01*
X11611173Y-9276306D01*
X11626724Y-9271589D01*
X11641056Y-9263928D01*
X11650471Y-9256202D01*
X11750471Y-9156201D01*
X11753618Y-9153619D01*
X11756201Y-9150472D01*
X11756202Y-9150471D01*
X11759595Y-9146336D01*
X11763928Y-9141056D01*
X11771174Y-9127500D01*
X11771589Y-9126724D01*
X11776306Y-9111173D01*
X11777899Y-9095000D01*
X11777500Y-9090948D01*
X11777500Y-8866599D01*
X11782384Y-8861715D01*
X11794696Y-8843289D01*
X11801994Y-8825669D01*
X11801995Y-9441863D01*
X11523860Y-9719997D01*
X11513352Y-9719997D01*
X11500311Y-9722591D01*
X11488027Y-9727679D01*
X11476971Y-9735066D01*
X11467569Y-9744468D01*
X11460182Y-9755524D01*
X11455094Y-9767808D01*
X11452500Y-9780849D01*
X11452500Y-9794145D01*
X11455094Y-9807186D01*
X11460182Y-9819470D01*
X11467569Y-9830526D01*
X11476971Y-9839928D01*
X11488027Y-9847315D01*
X11500311Y-9852403D01*
X11513352Y-9854997D01*
X11526648Y-9854997D01*
X11539689Y-9852403D01*
X11551973Y-9847315D01*
X11552500Y-9846963D01*
X11552500Y-9851646D01*
X11555094Y-9864687D01*
X11560182Y-9876971D01*
X11567569Y-9888027D01*
X11576971Y-9897429D01*
X11588027Y-9904816D01*
X11600311Y-9909904D01*
X11613352Y-9912498D01*
X11626648Y-9912498D01*
X11639689Y-9909904D01*
X11643748Y-9908223D01*
X11645094Y-9914988D01*
X11650182Y-9927272D01*
X11657569Y-9938328D01*
X11666971Y-9947730D01*
X11678027Y-9955117D01*
X11690311Y-9960205D01*
X11703352Y-9962799D01*
X11716648Y-9962799D01*
X11729689Y-9960205D01*
X11732500Y-9959041D01*
X11732500Y-9966648D01*
X11735094Y-9979689D01*
X11740182Y-9991973D01*
X11740200Y-9992000D01*
X11525640Y-9992000D01*
X11255500Y-9721861D01*
X11255500Y-9711352D01*
X11252906Y-9698311D01*
X11247818Y-9686027D01*
X11240431Y-9674971D01*
X11231029Y-9665569D01*
X11219973Y-9658182D01*
X11207689Y-9653094D01*
X11194648Y-9650500D01*
X11181352Y-9650500D01*
X11168311Y-9653094D01*
X11156027Y-9658182D01*
X11144971Y-9665569D01*
X11135569Y-9674971D01*
X11128182Y-9686027D01*
X11123094Y-9698311D01*
X11120500Y-9711352D01*
X11120500Y-9724648D01*
X11123094Y-9737689D01*
X11128182Y-9749973D01*
X11135569Y-9761029D01*
X11144971Y-9770431D01*
X11156027Y-9777818D01*
X11168311Y-9782906D01*
X11181352Y-9785500D01*
X11191860Y-9785500D01*
X11473618Y-10067257D01*
X11475026Y-10068974D01*
X11476743Y-10070382D01*
X11476743Y-10070383D01*
X11481878Y-10074597D01*
X11489696Y-10078776D01*
X11498178Y-10081349D01*
X11504789Y-10082000D01*
X11504791Y-10082000D01*
X11507000Y-10082218D01*
X11509209Y-10082000D01*
X11774078Y-10082000D01*
X11643078Y-10213000D01*
X10820837Y-10213000D01*
X10816379Y-10208542D01*
X10805323Y-10201155D01*
X10793039Y-10196066D01*
X10779998Y-10193472D01*
X10766702Y-10193472D01*
X10753661Y-10196066D01*
X10741377Y-10201155D01*
X10730321Y-10208542D01*
X10720919Y-10217944D01*
X10713532Y-10228999D01*
X10708444Y-10241283D01*
X10705850Y-10254324D01*
X10705850Y-10267621D01*
X10708444Y-10280661D01*
X10713532Y-10292946D01*
X10720919Y-10304001D01*
X10730321Y-10313403D01*
X10741377Y-10320790D01*
X10753661Y-10325878D01*
X10766702Y-10328472D01*
X10779998Y-10328472D01*
X10793039Y-10325878D01*
X10805323Y-10320790D01*
X10816379Y-10313403D01*
X10825781Y-10304001D01*
X10826450Y-10303000D01*
X10831396Y-10303000D01*
X10830103Y-10306122D01*
X10827509Y-10319162D01*
X10827509Y-10332459D01*
X10830103Y-10345500D01*
X10835192Y-10357784D01*
X10842579Y-10368839D01*
X10851981Y-10378241D01*
X10863036Y-10385628D01*
X10875320Y-10390717D01*
X10888361Y-10393311D01*
X10901658Y-10393311D01*
X10914698Y-10390717D01*
X10926983Y-10385628D01*
X10938038Y-10378241D01*
X10945469Y-10370811D01*
X10972259Y-10370811D01*
X10971094Y-10373623D01*
X10968500Y-10386663D01*
X10968500Y-10399960D01*
X10971094Y-10413001D01*
X10976182Y-10425285D01*
X10983569Y-10436340D01*
X10992971Y-10445742D01*
X11004027Y-10453129D01*
X11016311Y-10458218D01*
X11029352Y-10460812D01*
X11042648Y-10460812D01*
X11055689Y-10458218D01*
X11067973Y-10453129D01*
X11079029Y-10445742D01*
X11088431Y-10436340D01*
X11089994Y-10434000D01*
X11655791Y-10434000D01*
X11658000Y-10434218D01*
X11660209Y-10434000D01*
X11660210Y-10434000D01*
X11666821Y-10433349D01*
X11675304Y-10430776D01*
X11683122Y-10426597D01*
X11689974Y-10420974D01*
X11691383Y-10419257D01*
X12554257Y-9556382D01*
X12555974Y-9554974D01*
X12557382Y-9553257D01*
X12557383Y-9553257D01*
X12561597Y-9548122D01*
X12563053Y-9545399D01*
X12565776Y-9540304D01*
X12568349Y-9531822D01*
X12569000Y-9525211D01*
X12569000Y-9525209D01*
X12569218Y-9523000D01*
X12569000Y-9520791D01*
X12569000Y-9430000D01*
X14192343Y-9430000D01*
X14192343Y-9600000D01*
X14192970Y-9606371D01*
X14194829Y-9612497D01*
X14197846Y-9618143D01*
X14201908Y-9623092D01*
X14206857Y-9627154D01*
X14212503Y-9630171D01*
X14218629Y-9632030D01*
X14225000Y-9632657D01*
X14395000Y-9632657D01*
X14401371Y-9632030D01*
X14407497Y-9630171D01*
X14413143Y-9627154D01*
X14418092Y-9623092D01*
X14422153Y-9618143D01*
X14425171Y-9612497D01*
X14427030Y-9606371D01*
X14427657Y-9600000D01*
X14427657Y-9430000D01*
X14427030Y-9423629D01*
X14425171Y-9417503D01*
X14422153Y-9411857D01*
X14418092Y-9406908D01*
X14413143Y-9402847D01*
X14407497Y-9399829D01*
X14401371Y-9397970D01*
X14395000Y-9397343D01*
X14225000Y-9397343D01*
X14218629Y-9397970D01*
X14212503Y-9399829D01*
X14206857Y-9402847D01*
X14201908Y-9406908D01*
X14197846Y-9411857D01*
X14194829Y-9417503D01*
X14192970Y-9423629D01*
X14192343Y-9430000D01*
X12569000Y-9430000D01*
X12569000Y-9249427D01*
X14192500Y-9249427D01*
X14192500Y-9272573D01*
X14197015Y-9295274D01*
X14205873Y-9316657D01*
X14218732Y-9335902D01*
X14235098Y-9352268D01*
X14254343Y-9365127D01*
X14275726Y-9373985D01*
X14298427Y-9378500D01*
X14321573Y-9378500D01*
X14344273Y-9373985D01*
X14365657Y-9365127D01*
X14384902Y-9352268D01*
X14401268Y-9335902D01*
X14414127Y-9316657D01*
X14422984Y-9295274D01*
X14427500Y-9272573D01*
X14427500Y-9249427D01*
X14422984Y-9226727D01*
X14414127Y-9205343D01*
X14401268Y-9186098D01*
X14384902Y-9169732D01*
X14365657Y-9156873D01*
X14344273Y-9148016D01*
X14321573Y-9143500D01*
X14298427Y-9143500D01*
X14275726Y-9148016D01*
X14254343Y-9156873D01*
X14235098Y-9169732D01*
X14218732Y-9186098D01*
X14205873Y-9205343D01*
X14197015Y-9226727D01*
X14192500Y-9249427D01*
X12569000Y-9249427D01*
X12569000Y-8995427D01*
X14192500Y-8995427D01*
X14192500Y-9018573D01*
X14197015Y-9041274D01*
X14205873Y-9062657D01*
X14218732Y-9081902D01*
X14235098Y-9098268D01*
X14254343Y-9111127D01*
X14275726Y-9119985D01*
X14298427Y-9124500D01*
X14321573Y-9124500D01*
X14344273Y-9119985D01*
X14365657Y-9111127D01*
X14384902Y-9098268D01*
X14401268Y-9081902D01*
X14414127Y-9062657D01*
X14422984Y-9041274D01*
X14427500Y-9018573D01*
X14427500Y-8995427D01*
X14422984Y-8972727D01*
X14414127Y-8951343D01*
X14401268Y-8932098D01*
X14384902Y-8915732D01*
X14365657Y-8902873D01*
X14344273Y-8894016D01*
X14321573Y-8889500D01*
X14298427Y-8889500D01*
X14275726Y-8894016D01*
X14254343Y-8902873D01*
X14235098Y-8915732D01*
X14218732Y-8932098D01*
X14205873Y-8951343D01*
X14197015Y-8972727D01*
X14192500Y-8995427D01*
X12569000Y-8995427D01*
X12569000Y-8773846D01*
X14194364Y-8773846D01*
X14195189Y-8777993D01*
X14202271Y-8799911D01*
X14213492Y-8820027D01*
X14228423Y-8837567D01*
X14246489Y-8851856D01*
X14266995Y-8862347D01*
X14289154Y-8868636D01*
X14307500Y-8862349D01*
X14307500Y-8755500D01*
X14312500Y-8755500D01*
X14312500Y-8862349D01*
X14330846Y-8868636D01*
X14353005Y-8862347D01*
X14373511Y-8851856D01*
X14391577Y-8837567D01*
X14406507Y-8820027D01*
X14417729Y-8799911D01*
X14424811Y-8777993D01*
X14425636Y-8773846D01*
X14419346Y-8755500D01*
X14312500Y-8755500D01*
X14307500Y-8755500D01*
X14200654Y-8755500D01*
X14194364Y-8773846D01*
X12569000Y-8773846D01*
X12569000Y-8732154D01*
X14194364Y-8732154D01*
X14200654Y-8750500D01*
X14307500Y-8750500D01*
X14307500Y-8643652D01*
X14312500Y-8643652D01*
X14312500Y-8750500D01*
X14419346Y-8750500D01*
X14425636Y-8732154D01*
X14424811Y-8728007D01*
X14417729Y-8706089D01*
X14406507Y-8685973D01*
X14391577Y-8668434D01*
X14373511Y-8654144D01*
X14353005Y-8643653D01*
X14330846Y-8637364D01*
X14312500Y-8643652D01*
X14307500Y-8643652D01*
X14289154Y-8637364D01*
X14266995Y-8643653D01*
X14246489Y-8654144D01*
X14228423Y-8668434D01*
X14213492Y-8685973D01*
X14202271Y-8706089D01*
X14195189Y-8728007D01*
X14194364Y-8732154D01*
X12569000Y-8732154D01*
X12569000Y-8250459D01*
X12576431Y-8243029D01*
X12583818Y-8231973D01*
X12588906Y-8219689D01*
X12591500Y-8206648D01*
X12591500Y-8193352D01*
X12588906Y-8180311D01*
X12583818Y-8168027D01*
X12576431Y-8156971D01*
X12567029Y-8147569D01*
X12555973Y-8140182D01*
X12543689Y-8135094D01*
X12530648Y-8132500D01*
X12517352Y-8132500D01*
X12504311Y-8135094D01*
X12492027Y-8140182D01*
X12480971Y-8147569D01*
X12471569Y-8156971D01*
X12464182Y-8168027D01*
X12459094Y-8180311D01*
X12456500Y-8193352D01*
X12456500Y-8206648D01*
X12459094Y-8219689D01*
X12464182Y-8231973D01*
X12471569Y-8243029D01*
X12479000Y-8250459D01*
X12479000Y-9504360D01*
X12353000Y-9630360D01*
X12353000Y-8250459D01*
X12360431Y-8243029D01*
X12367818Y-8231973D01*
X12372906Y-8219689D01*
X12375500Y-8206648D01*
X12375500Y-8193352D01*
X12372906Y-8180311D01*
X12367818Y-8168027D01*
X12360431Y-8156971D01*
X12351029Y-8147569D01*
X12339973Y-8140182D01*
X12327689Y-8135094D01*
X12314648Y-8132500D01*
X12301352Y-8132500D01*
X12288311Y-8135094D01*
X12276027Y-8140182D01*
X12264971Y-8147569D01*
X12255569Y-8156971D01*
X12248182Y-8168027D01*
X12243094Y-8180311D01*
X12240500Y-8193352D01*
X12240500Y-8206648D01*
X12243094Y-8219689D01*
X12248182Y-8231973D01*
X12255569Y-8243029D01*
X12263000Y-8250459D01*
X12263000Y-9656719D01*
X12137000Y-9782719D01*
X12137000Y-8250459D01*
X12144431Y-8243029D01*
X12151818Y-8231973D01*
X12156906Y-8219689D01*
X12159500Y-8206648D01*
X12159500Y-8193352D01*
X12156906Y-8180311D01*
X12151818Y-8168027D01*
X12144431Y-8156971D01*
X12135029Y-8147569D01*
X12123973Y-8140182D01*
X12111689Y-8135094D01*
X12098648Y-8132500D01*
X12085352Y-8132500D01*
X12072311Y-8135094D01*
X12060027Y-8140182D01*
X12048971Y-8147569D01*
X12039569Y-8156971D01*
X12032182Y-8168027D01*
X12029378Y-8174798D01*
X12020973Y-8169182D01*
X12008689Y-8164094D01*
X11995648Y-8161500D01*
X11982352Y-8161500D01*
X11969311Y-8164094D01*
X11957027Y-8169182D01*
X11945971Y-8176569D01*
X11936569Y-8185971D01*
X11929182Y-8197027D01*
X11927398Y-8201335D01*
X11838263Y-8112200D01*
X13694543Y-8112200D01*
X13695170Y-8118571D01*
X13697029Y-8124697D01*
X13700046Y-8130343D01*
X13704108Y-8135292D01*
X13709057Y-8139354D01*
X13714703Y-8142371D01*
X13720829Y-8144230D01*
X13727200Y-8144857D01*
X13791575Y-8144700D01*
X13799700Y-8136575D01*
X13799700Y-8039700D01*
X13804700Y-8039700D01*
X13804700Y-8136575D01*
X13812825Y-8144700D01*
X13877200Y-8144857D01*
X13883571Y-8144230D01*
X13889697Y-8142371D01*
X13895343Y-8139354D01*
X13900292Y-8135292D01*
X13904354Y-8130343D01*
X13907371Y-8124697D01*
X13909230Y-8118571D01*
X13909857Y-8112200D01*
X13909700Y-8047825D01*
X13901575Y-8039700D01*
X13804700Y-8039700D01*
X13799700Y-8039700D01*
X13702825Y-8039700D01*
X13694700Y-8047825D01*
X13694543Y-8112200D01*
X11838263Y-8112200D01*
X11818303Y-8092240D01*
X11816894Y-8090523D01*
X11810042Y-8084899D01*
X11802224Y-8080721D01*
X11793742Y-8078148D01*
X11787131Y-8077497D01*
X11787129Y-8077497D01*
X11784920Y-8077279D01*
X11782711Y-8077497D01*
X11117500Y-8077497D01*
X11117500Y-8073352D01*
X11114906Y-8060311D01*
X11109818Y-8048027D01*
X11102431Y-8036971D01*
X11093029Y-8027569D01*
X11081973Y-8020182D01*
X11069689Y-8015094D01*
X11056648Y-8012500D01*
X11043352Y-8012500D01*
X11030311Y-8015094D01*
X11018027Y-8020182D01*
X11006971Y-8027569D01*
X10999540Y-8035000D01*
X9230459Y-8035000D01*
X9223029Y-8027569D01*
X9211973Y-8020182D01*
X9199689Y-8015094D01*
X9186648Y-8012500D01*
X9173352Y-8012500D01*
X9160311Y-8015094D01*
X9148027Y-8020182D01*
X9136971Y-8027569D01*
X9127569Y-8036971D01*
X9120182Y-8048027D01*
X9115094Y-8060311D01*
X9112500Y-8073352D01*
X5112679Y-8073352D01*
X5112679Y-7962200D01*
X13694543Y-7962200D01*
X13694700Y-8026575D01*
X13702825Y-8034700D01*
X13799700Y-8034700D01*
X13799700Y-7937825D01*
X13804700Y-7937825D01*
X13804700Y-8034700D01*
X13901575Y-8034700D01*
X13909663Y-8026612D01*
X13948700Y-8026612D01*
X13948700Y-8047788D01*
X13952831Y-8068557D01*
X13960935Y-8088120D01*
X13972699Y-8105727D01*
X13987673Y-8120701D01*
X14005280Y-8132465D01*
X14024843Y-8140569D01*
X14045612Y-8144700D01*
X14066788Y-8144700D01*
X14087557Y-8140569D01*
X14107120Y-8132465D01*
X14124727Y-8120701D01*
X14139701Y-8105727D01*
X14151465Y-8088120D01*
X14159569Y-8068557D01*
X14163700Y-8047788D01*
X14163700Y-8026612D01*
X14202700Y-8026612D01*
X14202700Y-8047788D01*
X14206831Y-8068557D01*
X14214935Y-8088120D01*
X14226699Y-8105727D01*
X14241673Y-8120701D01*
X14259280Y-8132465D01*
X14278843Y-8140569D01*
X14299612Y-8144700D01*
X14320788Y-8144700D01*
X14341557Y-8140569D01*
X14361120Y-8132465D01*
X14378727Y-8120701D01*
X14393701Y-8105727D01*
X14405465Y-8088120D01*
X14413569Y-8068557D01*
X14417700Y-8047788D01*
X14417700Y-8026612D01*
X14413569Y-8005843D01*
X14405465Y-7986280D01*
X14393701Y-7968673D01*
X14378727Y-7953699D01*
X14361120Y-7941935D01*
X14341557Y-7933831D01*
X14320788Y-7929700D01*
X14299612Y-7929700D01*
X14278843Y-7933831D01*
X14259280Y-7941935D01*
X14241673Y-7953699D01*
X14226699Y-7968673D01*
X14214935Y-7986280D01*
X14206831Y-8005843D01*
X14202700Y-8026612D01*
X14163700Y-8026612D01*
X14159569Y-8005843D01*
X14151465Y-7986280D01*
X14139701Y-7968673D01*
X14124727Y-7953699D01*
X14107120Y-7941935D01*
X14087557Y-7933831D01*
X14066788Y-7929700D01*
X14045612Y-7929700D01*
X14024843Y-7933831D01*
X14005280Y-7941935D01*
X13987673Y-7953699D01*
X13972699Y-7968673D01*
X13960935Y-7986280D01*
X13952831Y-8005843D01*
X13948700Y-8026612D01*
X13909663Y-8026612D01*
X13909700Y-8026575D01*
X13909857Y-7962200D01*
X13909230Y-7955829D01*
X13907371Y-7949703D01*
X13904354Y-7944057D01*
X13900292Y-7939108D01*
X13895343Y-7935046D01*
X13889697Y-7932029D01*
X13883571Y-7930170D01*
X13877200Y-7929543D01*
X13812825Y-7929700D01*
X13804700Y-7937825D01*
X13799700Y-7937825D01*
X13791575Y-7929700D01*
X13727200Y-7929543D01*
X13720829Y-7930170D01*
X13714703Y-7932029D01*
X13709057Y-7935046D01*
X13704108Y-7939108D01*
X13700046Y-7944057D01*
X13697029Y-7949703D01*
X13695170Y-7955829D01*
X13694543Y-7962200D01*
X5112679Y-7962200D01*
X5112679Y-7451800D01*
X13694543Y-7451800D01*
X13695170Y-7458171D01*
X13697029Y-7464297D01*
X13700046Y-7469943D01*
X13704108Y-7474892D01*
X13709057Y-7478954D01*
X13714703Y-7481971D01*
X13720829Y-7483830D01*
X13727200Y-7484457D01*
X13791575Y-7484300D01*
X13799700Y-7476175D01*
X13799700Y-7379300D01*
X13804700Y-7379300D01*
X13804700Y-7476175D01*
X13812825Y-7484300D01*
X13877200Y-7484457D01*
X13883571Y-7483830D01*
X13889697Y-7481971D01*
X13895343Y-7478954D01*
X13900292Y-7474892D01*
X13904354Y-7469943D01*
X13907371Y-7464297D01*
X13909230Y-7458171D01*
X13909857Y-7451800D01*
X13909700Y-7387425D01*
X13901575Y-7379300D01*
X13804700Y-7379300D01*
X13799700Y-7379300D01*
X13702825Y-7379300D01*
X13694700Y-7387425D01*
X13694543Y-7451800D01*
X5112679Y-7451800D01*
X5112679Y-7225600D01*
X9325743Y-7225600D01*
X9325743Y-7375600D01*
X9326370Y-7381971D01*
X9328229Y-7388097D01*
X9331247Y-7393743D01*
X9335308Y-7398692D01*
X9340257Y-7402753D01*
X9345903Y-7405771D01*
X9352029Y-7407630D01*
X9358400Y-7408257D01*
X9508400Y-7408257D01*
X9514771Y-7407630D01*
X9520897Y-7405771D01*
X9526543Y-7402753D01*
X9531492Y-7398692D01*
X9535554Y-7393743D01*
X9538571Y-7388097D01*
X9540430Y-7381971D01*
X9541057Y-7375600D01*
X9541057Y-7290012D01*
X9579900Y-7290012D01*
X9579900Y-7311188D01*
X9584031Y-7331957D01*
X9592135Y-7351520D01*
X9603899Y-7369127D01*
X9618873Y-7384101D01*
X9636480Y-7395865D01*
X9656043Y-7403969D01*
X9676812Y-7408100D01*
X9697988Y-7408100D01*
X9718757Y-7403969D01*
X9738320Y-7395865D01*
X9755927Y-7384101D01*
X9770901Y-7369127D01*
X9782665Y-7351520D01*
X9790769Y-7331957D01*
X9794900Y-7311188D01*
X9794900Y-7290012D01*
X9833900Y-7290012D01*
X9833900Y-7311188D01*
X9838031Y-7331957D01*
X9846135Y-7351520D01*
X9857899Y-7369127D01*
X9872873Y-7384101D01*
X9890480Y-7395865D01*
X9910043Y-7403969D01*
X9930812Y-7408100D01*
X9951988Y-7408100D01*
X9972757Y-7403969D01*
X9992320Y-7395865D01*
X10009927Y-7384101D01*
X10024901Y-7369127D01*
X10036665Y-7351520D01*
X10044769Y-7331957D01*
X10048900Y-7311188D01*
X10048900Y-7290012D01*
X10087900Y-7290012D01*
X10087900Y-7311188D01*
X10092031Y-7331957D01*
X10100135Y-7351520D01*
X10111899Y-7369127D01*
X10126873Y-7384101D01*
X10144480Y-7395865D01*
X10164043Y-7403969D01*
X10184812Y-7408100D01*
X10205988Y-7408100D01*
X10226757Y-7403969D01*
X10246320Y-7395865D01*
X10263927Y-7384101D01*
X10278901Y-7369127D01*
X10290665Y-7351520D01*
X10298769Y-7331957D01*
X10302900Y-7311188D01*
X10302900Y-7290012D01*
X10341900Y-7290012D01*
X10341900Y-7311188D01*
X10346031Y-7331957D01*
X10354135Y-7351520D01*
X10365899Y-7369127D01*
X10380873Y-7384101D01*
X10398480Y-7395865D01*
X10418043Y-7403969D01*
X10438812Y-7408100D01*
X10459988Y-7408100D01*
X10480757Y-7403969D01*
X10500320Y-7395865D01*
X10517927Y-7384101D01*
X10532901Y-7369127D01*
X10544665Y-7351520D01*
X10552769Y-7331957D01*
X10556900Y-7311188D01*
X10556900Y-7290012D01*
X10595900Y-7290012D01*
X10595900Y-7311188D01*
X10600031Y-7331957D01*
X10608135Y-7351520D01*
X10619899Y-7369127D01*
X10634873Y-7384101D01*
X10652480Y-7395865D01*
X10672043Y-7403969D01*
X10692812Y-7408100D01*
X10713988Y-7408100D01*
X10734757Y-7403969D01*
X10754320Y-7395865D01*
X10771927Y-7384101D01*
X10786901Y-7369127D01*
X10798665Y-7351520D01*
X10806769Y-7331957D01*
X10810900Y-7311188D01*
X10810900Y-7301800D01*
X13694543Y-7301800D01*
X13694700Y-7366175D01*
X13702825Y-7374300D01*
X13799700Y-7374300D01*
X13799700Y-7277425D01*
X13804700Y-7277425D01*
X13804700Y-7374300D01*
X13901575Y-7374300D01*
X13909663Y-7366212D01*
X13948700Y-7366212D01*
X13948700Y-7387388D01*
X13952831Y-7408157D01*
X13960935Y-7427720D01*
X13972699Y-7445327D01*
X13987673Y-7460301D01*
X14005280Y-7472065D01*
X14024843Y-7480169D01*
X14045612Y-7484300D01*
X14066788Y-7484300D01*
X14087557Y-7480169D01*
X14107120Y-7472065D01*
X14124727Y-7460301D01*
X14139701Y-7445327D01*
X14151465Y-7427720D01*
X14159569Y-7408157D01*
X14163700Y-7387388D01*
X14163700Y-7366212D01*
X14202700Y-7366212D01*
X14202700Y-7387388D01*
X14206831Y-7408157D01*
X14214935Y-7427720D01*
X14226699Y-7445327D01*
X14241673Y-7460301D01*
X14259280Y-7472065D01*
X14278843Y-7480169D01*
X14299612Y-7484300D01*
X14320788Y-7484300D01*
X14341557Y-7480169D01*
X14361120Y-7472065D01*
X14378727Y-7460301D01*
X14393701Y-7445327D01*
X14405465Y-7427720D01*
X14413569Y-7408157D01*
X14417700Y-7387388D01*
X14417700Y-7366212D01*
X14413569Y-7345443D01*
X14405465Y-7325880D01*
X14393701Y-7308273D01*
X14378727Y-7293299D01*
X14361120Y-7281535D01*
X14341557Y-7273431D01*
X14320788Y-7269300D01*
X14299612Y-7269300D01*
X14278843Y-7273431D01*
X14259280Y-7281535D01*
X14241673Y-7293299D01*
X14226699Y-7308273D01*
X14214935Y-7325880D01*
X14206831Y-7345443D01*
X14202700Y-7366212D01*
X14163700Y-7366212D01*
X14159569Y-7345443D01*
X14151465Y-7325880D01*
X14139701Y-7308273D01*
X14124727Y-7293299D01*
X14107120Y-7281535D01*
X14087557Y-7273431D01*
X14066788Y-7269300D01*
X14045612Y-7269300D01*
X14024843Y-7273431D01*
X14005280Y-7281535D01*
X13987673Y-7293299D01*
X13972699Y-7308273D01*
X13960935Y-7325880D01*
X13952831Y-7345443D01*
X13948700Y-7366212D01*
X13909663Y-7366212D01*
X13909700Y-7366175D01*
X13909857Y-7301800D01*
X13909230Y-7295429D01*
X13907371Y-7289303D01*
X13904354Y-7283657D01*
X13900292Y-7278708D01*
X13895343Y-7274646D01*
X13889697Y-7271629D01*
X13883571Y-7269770D01*
X13877200Y-7269143D01*
X13812825Y-7269300D01*
X13804700Y-7277425D01*
X13799700Y-7277425D01*
X13791575Y-7269300D01*
X13727200Y-7269143D01*
X13720829Y-7269770D01*
X13714703Y-7271629D01*
X13709057Y-7274646D01*
X13704108Y-7278708D01*
X13700046Y-7283657D01*
X13697029Y-7289303D01*
X13695170Y-7295429D01*
X13694543Y-7301800D01*
X10810900Y-7301800D01*
X10810900Y-7290012D01*
X10806769Y-7269243D01*
X10798665Y-7249680D01*
X10786901Y-7232073D01*
X10771927Y-7217099D01*
X10754320Y-7205335D01*
X10734757Y-7197231D01*
X10713988Y-7193100D01*
X10692812Y-7193100D01*
X10672043Y-7197231D01*
X10652480Y-7205335D01*
X10634873Y-7217099D01*
X10619899Y-7232073D01*
X10608135Y-7249680D01*
X10600031Y-7269243D01*
X10595900Y-7290012D01*
X10556900Y-7290012D01*
X10552769Y-7269243D01*
X10544665Y-7249680D01*
X10532901Y-7232073D01*
X10517927Y-7217099D01*
X10500320Y-7205335D01*
X10480757Y-7197231D01*
X10459988Y-7193100D01*
X10438812Y-7193100D01*
X10418043Y-7197231D01*
X10398480Y-7205335D01*
X10380873Y-7217099D01*
X10365899Y-7232073D01*
X10354135Y-7249680D01*
X10346031Y-7269243D01*
X10341900Y-7290012D01*
X10302900Y-7290012D01*
X10298769Y-7269243D01*
X10290665Y-7249680D01*
X10278901Y-7232073D01*
X10263927Y-7217099D01*
X10246320Y-7205335D01*
X10226757Y-7197231D01*
X10205988Y-7193100D01*
X10184812Y-7193100D01*
X10164043Y-7197231D01*
X10144480Y-7205335D01*
X10126873Y-7217099D01*
X10111899Y-7232073D01*
X10100135Y-7249680D01*
X10092031Y-7269243D01*
X10087900Y-7290012D01*
X10048900Y-7290012D01*
X10044769Y-7269243D01*
X10036665Y-7249680D01*
X10024901Y-7232073D01*
X10009927Y-7217099D01*
X9992320Y-7205335D01*
X9972757Y-7197231D01*
X9951988Y-7193100D01*
X9930812Y-7193100D01*
X9910043Y-7197231D01*
X9890480Y-7205335D01*
X9872873Y-7217099D01*
X9857899Y-7232073D01*
X9846135Y-7249680D01*
X9838031Y-7269243D01*
X9833900Y-7290012D01*
X9794900Y-7290012D01*
X9790769Y-7269243D01*
X9782665Y-7249680D01*
X9770901Y-7232073D01*
X9755927Y-7217099D01*
X9738320Y-7205335D01*
X9718757Y-7197231D01*
X9697988Y-7193100D01*
X9676812Y-7193100D01*
X9656043Y-7197231D01*
X9636480Y-7205335D01*
X9618873Y-7217099D01*
X9603899Y-7232073D01*
X9592135Y-7249680D01*
X9584031Y-7269243D01*
X9579900Y-7290012D01*
X9541057Y-7290012D01*
X9541057Y-7225600D01*
X9540430Y-7219229D01*
X9538571Y-7213103D01*
X9535554Y-7207457D01*
X9531492Y-7202508D01*
X9526543Y-7198446D01*
X9520897Y-7195429D01*
X9514771Y-7193570D01*
X9508400Y-7192943D01*
X9358400Y-7192943D01*
X9352029Y-7193570D01*
X9345903Y-7195429D01*
X9340257Y-7198446D01*
X9335308Y-7202508D01*
X9331247Y-7207457D01*
X9328229Y-7213103D01*
X9326370Y-7219229D01*
X9325743Y-7225600D01*
X5112679Y-7225600D01*
X5112679Y-6791400D01*
X13694543Y-6791400D01*
X13695170Y-6797771D01*
X13697029Y-6803897D01*
X13700046Y-6809543D01*
X13704108Y-6814492D01*
X13709057Y-6818554D01*
X13714703Y-6821571D01*
X13720829Y-6823430D01*
X13727200Y-6824057D01*
X13791575Y-6823900D01*
X13799700Y-6815775D01*
X13799700Y-6718900D01*
X13804700Y-6718900D01*
X13804700Y-6815775D01*
X13812825Y-6823900D01*
X13877200Y-6824057D01*
X13883571Y-6823430D01*
X13889697Y-6821571D01*
X13895343Y-6818554D01*
X13900292Y-6814492D01*
X13904354Y-6809543D01*
X13907371Y-6803897D01*
X13909230Y-6797771D01*
X13909857Y-6791400D01*
X13909700Y-6727025D01*
X13901575Y-6718900D01*
X13804700Y-6718900D01*
X13799700Y-6718900D01*
X13702825Y-6718900D01*
X13694700Y-6727025D01*
X13694543Y-6791400D01*
X5112679Y-6791400D01*
X5112679Y-6641400D01*
X13694543Y-6641400D01*
X13694700Y-6705775D01*
X13702825Y-6713900D01*
X13799700Y-6713900D01*
X13799700Y-6617025D01*
X13804700Y-6617025D01*
X13804700Y-6713900D01*
X13901575Y-6713900D01*
X13909663Y-6705812D01*
X13948700Y-6705812D01*
X13948700Y-6726988D01*
X13952831Y-6747757D01*
X13960935Y-6767320D01*
X13972699Y-6784927D01*
X13987673Y-6799901D01*
X14005280Y-6811665D01*
X14024843Y-6819769D01*
X14045612Y-6823900D01*
X14066788Y-6823900D01*
X14087557Y-6819769D01*
X14107120Y-6811665D01*
X14124727Y-6799901D01*
X14139701Y-6784927D01*
X14151465Y-6767320D01*
X14159569Y-6747757D01*
X14163700Y-6726988D01*
X14163700Y-6705812D01*
X14202700Y-6705812D01*
X14202700Y-6726988D01*
X14206831Y-6747757D01*
X14214935Y-6767320D01*
X14226699Y-6784927D01*
X14241673Y-6799901D01*
X14259280Y-6811665D01*
X14278843Y-6819769D01*
X14299612Y-6823900D01*
X14320788Y-6823900D01*
X14341557Y-6819769D01*
X14361120Y-6811665D01*
X14378727Y-6799901D01*
X14393701Y-6784927D01*
X14405465Y-6767320D01*
X14413569Y-6747757D01*
X14417700Y-6726988D01*
X14417700Y-6705812D01*
X14413569Y-6685043D01*
X14405465Y-6665480D01*
X14393701Y-6647873D01*
X14378727Y-6632899D01*
X14361120Y-6621135D01*
X14341557Y-6613031D01*
X14320788Y-6608900D01*
X14299612Y-6608900D01*
X14278843Y-6613031D01*
X14259280Y-6621135D01*
X14241673Y-6632899D01*
X14226699Y-6647873D01*
X14214935Y-6665480D01*
X14206831Y-6685043D01*
X14202700Y-6705812D01*
X14163700Y-6705812D01*
X14159569Y-6685043D01*
X14151465Y-6665480D01*
X14139701Y-6647873D01*
X14124727Y-6632899D01*
X14107120Y-6621135D01*
X14087557Y-6613031D01*
X14066788Y-6608900D01*
X14045612Y-6608900D01*
X14024843Y-6613031D01*
X14005280Y-6621135D01*
X13987673Y-6632899D01*
X13972699Y-6647873D01*
X13960935Y-6665480D01*
X13952831Y-6685043D01*
X13948700Y-6705812D01*
X13909663Y-6705812D01*
X13909700Y-6705775D01*
X13909857Y-6641400D01*
X13909230Y-6635029D01*
X13907371Y-6628903D01*
X13904354Y-6623257D01*
X13900292Y-6618308D01*
X13895343Y-6614246D01*
X13889697Y-6611229D01*
X13883571Y-6609370D01*
X13877200Y-6608743D01*
X13812825Y-6608900D01*
X13804700Y-6617025D01*
X13799700Y-6617025D01*
X13791575Y-6608900D01*
X13727200Y-6608743D01*
X13720829Y-6609370D01*
X13714703Y-6611229D01*
X13709057Y-6614246D01*
X13704108Y-6618308D01*
X13700046Y-6623257D01*
X13697029Y-6628903D01*
X13695170Y-6635029D01*
X13694543Y-6641400D01*
X5112679Y-6641400D01*
X5112679Y-6131000D01*
X13694543Y-6131000D01*
X13695170Y-6137371D01*
X13697029Y-6143497D01*
X13700046Y-6149143D01*
X13704108Y-6154092D01*
X13709057Y-6158154D01*
X13714703Y-6161171D01*
X13720829Y-6163030D01*
X13727200Y-6163657D01*
X13791575Y-6163500D01*
X13799700Y-6155375D01*
X13799700Y-6058500D01*
X13804700Y-6058500D01*
X13804700Y-6155375D01*
X13812825Y-6163500D01*
X13877200Y-6163657D01*
X13883571Y-6163030D01*
X13889697Y-6161171D01*
X13895343Y-6158154D01*
X13900292Y-6154092D01*
X13904354Y-6149143D01*
X13907371Y-6143497D01*
X13909230Y-6137371D01*
X13909857Y-6131000D01*
X13909700Y-6066625D01*
X13901575Y-6058500D01*
X13804700Y-6058500D01*
X13799700Y-6058500D01*
X13702825Y-6058500D01*
X13694700Y-6066625D01*
X13694543Y-6131000D01*
X5112679Y-6131000D01*
X5112679Y-5981000D01*
X13694543Y-5981000D01*
X13694700Y-6045375D01*
X13702825Y-6053500D01*
X13799700Y-6053500D01*
X13799700Y-5956625D01*
X13804700Y-5956625D01*
X13804700Y-6053500D01*
X13901575Y-6053500D01*
X13909663Y-6045412D01*
X13948700Y-6045412D01*
X13948700Y-6066588D01*
X13952831Y-6087357D01*
X13960935Y-6106920D01*
X13972699Y-6124527D01*
X13987673Y-6139501D01*
X14005280Y-6151265D01*
X14024843Y-6159369D01*
X14045612Y-6163500D01*
X14066788Y-6163500D01*
X14087557Y-6159369D01*
X14107120Y-6151265D01*
X14124727Y-6139501D01*
X14139701Y-6124527D01*
X14151465Y-6106920D01*
X14159569Y-6087357D01*
X14163700Y-6066588D01*
X14163700Y-6045412D01*
X14202700Y-6045412D01*
X14202700Y-6066588D01*
X14206831Y-6087357D01*
X14214935Y-6106920D01*
X14226699Y-6124527D01*
X14241673Y-6139501D01*
X14259280Y-6151265D01*
X14278843Y-6159369D01*
X14299612Y-6163500D01*
X14320788Y-6163500D01*
X14341557Y-6159369D01*
X14361120Y-6151265D01*
X14378727Y-6139501D01*
X14393701Y-6124527D01*
X14405465Y-6106920D01*
X14413569Y-6087357D01*
X14417700Y-6066588D01*
X14417700Y-6045412D01*
X14413569Y-6024643D01*
X14405465Y-6005080D01*
X14393701Y-5987473D01*
X14378727Y-5972499D01*
X14361120Y-5960735D01*
X14341557Y-5952631D01*
X14320788Y-5948500D01*
X14299612Y-5948500D01*
X14278843Y-5952631D01*
X14259280Y-5960735D01*
X14241673Y-5972499D01*
X14226699Y-5987473D01*
X14214935Y-6005080D01*
X14206831Y-6024643D01*
X14202700Y-6045412D01*
X14163700Y-6045412D01*
X14159569Y-6024643D01*
X14151465Y-6005080D01*
X14139701Y-5987473D01*
X14124727Y-5972499D01*
X14107120Y-5960735D01*
X14087557Y-5952631D01*
X14066788Y-5948500D01*
X14045612Y-5948500D01*
X14024843Y-5952631D01*
X14005280Y-5960735D01*
X13987673Y-5972499D01*
X13972699Y-5987473D01*
X13960935Y-6005080D01*
X13952831Y-6024643D01*
X13948700Y-6045412D01*
X13909663Y-6045412D01*
X13909700Y-6045375D01*
X13909857Y-5981000D01*
X13909230Y-5974629D01*
X13907371Y-5968503D01*
X13904354Y-5962857D01*
X13900292Y-5957908D01*
X13895343Y-5953846D01*
X13889697Y-5950829D01*
X13883571Y-5948970D01*
X13877200Y-5948343D01*
X13812825Y-5948500D01*
X13804700Y-5956625D01*
X13799700Y-5956625D01*
X13791575Y-5948500D01*
X13727200Y-5948343D01*
X13720829Y-5948970D01*
X13714703Y-5950829D01*
X13709057Y-5953846D01*
X13704108Y-5957908D01*
X13700046Y-5962857D01*
X13697029Y-5968503D01*
X13695170Y-5974629D01*
X13694543Y-5981000D01*
X5112679Y-5981000D01*
X5112679Y-5766012D01*
X9325900Y-5766012D01*
X9325900Y-5787188D01*
X9330031Y-5807957D01*
X9338135Y-5827520D01*
X9349899Y-5845127D01*
X9364873Y-5860101D01*
X9382480Y-5871865D01*
X9402043Y-5879969D01*
X9422812Y-5884100D01*
X9443988Y-5884100D01*
X9464757Y-5879969D01*
X9484320Y-5871865D01*
X9501927Y-5860101D01*
X9516901Y-5845127D01*
X9528665Y-5827520D01*
X9536769Y-5807957D01*
X9540900Y-5787188D01*
X9540900Y-5766012D01*
X9579900Y-5766012D01*
X9579900Y-5787188D01*
X9584031Y-5807957D01*
X9592135Y-5827520D01*
X9603899Y-5845127D01*
X9618873Y-5860101D01*
X9636480Y-5871865D01*
X9656043Y-5879969D01*
X9676812Y-5884100D01*
X9697988Y-5884100D01*
X9718757Y-5879969D01*
X9738320Y-5871865D01*
X9755927Y-5860101D01*
X9770901Y-5845127D01*
X9782665Y-5827520D01*
X9790769Y-5807957D01*
X9794900Y-5787188D01*
X9794900Y-5766012D01*
X9833900Y-5766012D01*
X9833900Y-5787188D01*
X9838031Y-5807957D01*
X9846135Y-5827520D01*
X9857899Y-5845127D01*
X9872873Y-5860101D01*
X9890480Y-5871865D01*
X9910043Y-5879969D01*
X9930812Y-5884100D01*
X9951988Y-5884100D01*
X9972757Y-5879969D01*
X9992320Y-5871865D01*
X10009927Y-5860101D01*
X10024901Y-5845127D01*
X10036665Y-5827520D01*
X10044769Y-5807957D01*
X10048900Y-5787188D01*
X10048900Y-5766012D01*
X10087900Y-5766012D01*
X10087900Y-5787188D01*
X10092031Y-5807957D01*
X10100135Y-5827520D01*
X10111899Y-5845127D01*
X10126873Y-5860101D01*
X10144480Y-5871865D01*
X10164043Y-5879969D01*
X10184812Y-5884100D01*
X10205988Y-5884100D01*
X10226757Y-5879969D01*
X10246320Y-5871865D01*
X10263927Y-5860101D01*
X10278901Y-5845127D01*
X10290665Y-5827520D01*
X10298769Y-5807957D01*
X10302900Y-5787188D01*
X10302900Y-5766012D01*
X10341900Y-5766012D01*
X10341900Y-5787188D01*
X10346031Y-5807957D01*
X10354135Y-5827520D01*
X10365899Y-5845127D01*
X10380873Y-5860101D01*
X10398480Y-5871865D01*
X10418043Y-5879969D01*
X10438812Y-5884100D01*
X10459988Y-5884100D01*
X10480757Y-5879969D01*
X10500320Y-5871865D01*
X10517927Y-5860101D01*
X10532901Y-5845127D01*
X10544665Y-5827520D01*
X10552769Y-5807957D01*
X10556900Y-5787188D01*
X10556900Y-5766012D01*
X10595900Y-5766012D01*
X10595900Y-5787188D01*
X10600031Y-5807957D01*
X10608135Y-5827520D01*
X10619899Y-5845127D01*
X10634873Y-5860101D01*
X10652480Y-5871865D01*
X10672043Y-5879969D01*
X10692812Y-5884100D01*
X10713988Y-5884100D01*
X10734757Y-5879969D01*
X10754320Y-5871865D01*
X10771927Y-5860101D01*
X10786901Y-5845127D01*
X10798665Y-5827520D01*
X10806769Y-5807957D01*
X10810900Y-5787188D01*
X10810900Y-5766012D01*
X10806769Y-5745243D01*
X10798665Y-5725680D01*
X10786901Y-5708073D01*
X10771927Y-5693099D01*
X10754320Y-5681335D01*
X10734757Y-5673231D01*
X10713988Y-5669100D01*
X10692812Y-5669100D01*
X10672043Y-5673231D01*
X10652480Y-5681335D01*
X10634873Y-5693099D01*
X10619899Y-5708073D01*
X10608135Y-5725680D01*
X10600031Y-5745243D01*
X10595900Y-5766012D01*
X10556900Y-5766012D01*
X10552769Y-5745243D01*
X10544665Y-5725680D01*
X10532901Y-5708073D01*
X10517927Y-5693099D01*
X10500320Y-5681335D01*
X10480757Y-5673231D01*
X10459988Y-5669100D01*
X10438812Y-5669100D01*
X10418043Y-5673231D01*
X10398480Y-5681335D01*
X10380873Y-5693099D01*
X10365899Y-5708073D01*
X10354135Y-5725680D01*
X10346031Y-5745243D01*
X10341900Y-5766012D01*
X10302900Y-5766012D01*
X10298769Y-5745243D01*
X10290665Y-5725680D01*
X10278901Y-5708073D01*
X10263927Y-5693099D01*
X10246320Y-5681335D01*
X10226757Y-5673231D01*
X10205988Y-5669100D01*
X10184812Y-5669100D01*
X10164043Y-5673231D01*
X10144480Y-5681335D01*
X10126873Y-5693099D01*
X10111899Y-5708073D01*
X10100135Y-5725680D01*
X10092031Y-5745243D01*
X10087900Y-5766012D01*
X10048900Y-5766012D01*
X10044769Y-5745243D01*
X10036665Y-5725680D01*
X10024901Y-5708073D01*
X10009927Y-5693099D01*
X9992320Y-5681335D01*
X9972757Y-5673231D01*
X9951988Y-5669100D01*
X9930812Y-5669100D01*
X9910043Y-5673231D01*
X9890480Y-5681335D01*
X9872873Y-5693099D01*
X9857899Y-5708073D01*
X9846135Y-5725680D01*
X9838031Y-5745243D01*
X9833900Y-5766012D01*
X9794900Y-5766012D01*
X9790769Y-5745243D01*
X9782665Y-5725680D01*
X9770901Y-5708073D01*
X9755927Y-5693099D01*
X9738320Y-5681335D01*
X9718757Y-5673231D01*
X9697988Y-5669100D01*
X9676812Y-5669100D01*
X9656043Y-5673231D01*
X9636480Y-5681335D01*
X9618873Y-5693099D01*
X9603899Y-5708073D01*
X9592135Y-5725680D01*
X9584031Y-5745243D01*
X9579900Y-5766012D01*
X9540900Y-5766012D01*
X9536769Y-5745243D01*
X9528665Y-5725680D01*
X9516901Y-5708073D01*
X9501927Y-5693099D01*
X9484320Y-5681335D01*
X9464757Y-5673231D01*
X9443988Y-5669100D01*
X9422812Y-5669100D01*
X9402043Y-5673231D01*
X9382480Y-5681335D01*
X9364873Y-5693099D01*
X9349899Y-5708073D01*
X9338135Y-5725680D01*
X9330031Y-5745243D01*
X9325900Y-5766012D01*
X5112679Y-5766012D01*
X5112679Y-5112500D01*
X14395001Y-5112500D01*
X14887679Y-5605178D01*
G37*
G04 #@! TD.AperFunction*
G04 #@! TD*
M02*
