G04 #@! TF.GenerationSoftware,KiCad,Pcbnew,(5.1.10)-1*
G04 #@! TF.CreationDate,2021-08-06T21:51:28+08:00*
G04 #@! TF.ProjectId,digital_thermometer,64696769-7461-46c5-9f74-6865726d6f6d,rev?*
G04 #@! TF.SameCoordinates,Original*
G04 #@! TF.FileFunction,Paste,Top*
G04 #@! TF.FilePolarity,Positive*
%FSLAX45Y45*%
G04 Gerber Fmt 4.5, Leading zero omitted, Abs format (unit mm)*
G04 Created by KiCad (PCBNEW (5.1.10)-1) date 2021-08-06 21:51:28*
%MOMM*%
%LPD*%
G01*
G04 APERTURE LIST*
%ADD10R,1.500000X1.400000*%
%ADD11R,2.000000X4.500000*%
%ADD12R,2.000000X1.500000*%
%ADD13R,2.000000X3.800000*%
%ADD14R,1.450000X1.150000*%
%ADD15R,1.900000X1.750000*%
%ADD16R,2.000000X0.400000*%
G04 APERTURE END LIST*
G04 #@! TO.C,R16*
G36*
G01*
X11926000Y-7941500D02*
X11836000Y-7941500D01*
G75*
G02*
X11811000Y-7916500I0J25000D01*
G01*
X11811000Y-7851500D01*
G75*
G02*
X11836000Y-7826500I25000J0D01*
G01*
X11926000Y-7826500D01*
G75*
G02*
X11951000Y-7851500I0J-25000D01*
G01*
X11951000Y-7916500D01*
G75*
G02*
X11926000Y-7941500I-25000J0D01*
G01*
G37*
G36*
G01*
X11926000Y-8146500D02*
X11836000Y-8146500D01*
G75*
G02*
X11811000Y-8121500I0J25000D01*
G01*
X11811000Y-8056500D01*
G75*
G02*
X11836000Y-8031500I25000J0D01*
G01*
X11926000Y-8031500D01*
G75*
G02*
X11951000Y-8056500I0J-25000D01*
G01*
X11951000Y-8121500D01*
G75*
G02*
X11926000Y-8146500I-25000J0D01*
G01*
G37*
G04 #@! TD*
G04 #@! TO.C,R34*
G36*
G01*
X12569000Y-7937000D02*
X12479000Y-7937000D01*
G75*
G02*
X12454000Y-7912000I0J25000D01*
G01*
X12454000Y-7847000D01*
G75*
G02*
X12479000Y-7822000I25000J0D01*
G01*
X12569000Y-7822000D01*
G75*
G02*
X12594000Y-7847000I0J-25000D01*
G01*
X12594000Y-7912000D01*
G75*
G02*
X12569000Y-7937000I-25000J0D01*
G01*
G37*
G36*
G01*
X12569000Y-8142000D02*
X12479000Y-8142000D01*
G75*
G02*
X12454000Y-8117000I0J25000D01*
G01*
X12454000Y-8052000D01*
G75*
G02*
X12479000Y-8027000I25000J0D01*
G01*
X12569000Y-8027000D01*
G75*
G02*
X12594000Y-8052000I0J-25000D01*
G01*
X12594000Y-8117000D01*
G75*
G02*
X12569000Y-8142000I-25000J0D01*
G01*
G37*
G04 #@! TD*
G04 #@! TO.C,R33*
G36*
G01*
X12354667Y-7936500D02*
X12264666Y-7936500D01*
G75*
G02*
X12239667Y-7911500I0J25000D01*
G01*
X12239667Y-7846500D01*
G75*
G02*
X12264666Y-7821500I25000J0D01*
G01*
X12354667Y-7821500D01*
G75*
G02*
X12379667Y-7846500I0J-25000D01*
G01*
X12379667Y-7911500D01*
G75*
G02*
X12354667Y-7936500I-25000J0D01*
G01*
G37*
G36*
G01*
X12354667Y-8141500D02*
X12264666Y-8141500D01*
G75*
G02*
X12239667Y-8116500I0J25000D01*
G01*
X12239667Y-8051500D01*
G75*
G02*
X12264666Y-8026500I25000J0D01*
G01*
X12354667Y-8026500D01*
G75*
G02*
X12379667Y-8051500I0J-25000D01*
G01*
X12379667Y-8116500D01*
G75*
G02*
X12354667Y-8141500I-25000J0D01*
G01*
G37*
G04 #@! TD*
G04 #@! TO.C,R32*
G36*
G01*
X12140333Y-7936500D02*
X12050333Y-7936500D01*
G75*
G02*
X12025333Y-7911500I0J25000D01*
G01*
X12025333Y-7846500D01*
G75*
G02*
X12050333Y-7821500I25000J0D01*
G01*
X12140333Y-7821500D01*
G75*
G02*
X12165333Y-7846500I0J-25000D01*
G01*
X12165333Y-7911500D01*
G75*
G02*
X12140333Y-7936500I-25000J0D01*
G01*
G37*
G36*
G01*
X12140333Y-8141500D02*
X12050333Y-8141500D01*
G75*
G02*
X12025333Y-8116500I0J25000D01*
G01*
X12025333Y-8051500D01*
G75*
G02*
X12050333Y-8026500I25000J0D01*
G01*
X12140333Y-8026500D01*
G75*
G02*
X12165333Y-8051500I0J-25000D01*
G01*
X12165333Y-8116500D01*
G75*
G02*
X12140333Y-8141500I-25000J0D01*
G01*
G37*
G04 #@! TD*
G04 #@! TO.C,D6*
G36*
G01*
X11502000Y-7929625D02*
X11502000Y-7838375D01*
G75*
G02*
X11526375Y-7814000I24375J0D01*
G01*
X11575125Y-7814000D01*
G75*
G02*
X11599500Y-7838375I0J-24375D01*
G01*
X11599500Y-7929625D01*
G75*
G02*
X11575125Y-7954000I-24375J0D01*
G01*
X11526375Y-7954000D01*
G75*
G02*
X11502000Y-7929625I0J24375D01*
G01*
G37*
G36*
G01*
X11314500Y-7929625D02*
X11314500Y-7838375D01*
G75*
G02*
X11338875Y-7814000I24375J0D01*
G01*
X11387625Y-7814000D01*
G75*
G02*
X11412000Y-7838375I0J-24375D01*
G01*
X11412000Y-7929625D01*
G75*
G02*
X11387625Y-7954000I-24375J0D01*
G01*
X11338875Y-7954000D01*
G75*
G02*
X11314500Y-7929625I0J24375D01*
G01*
G37*
G04 #@! TD*
G04 #@! TO.C,D5*
G36*
G01*
X12777750Y-6184375D02*
X12777750Y-6275625D01*
G75*
G02*
X12753375Y-6300000I-24375J0D01*
G01*
X12704625Y-6300000D01*
G75*
G02*
X12680250Y-6275625I0J24375D01*
G01*
X12680250Y-6184375D01*
G75*
G02*
X12704625Y-6160000I24375J0D01*
G01*
X12753375Y-6160000D01*
G75*
G02*
X12777750Y-6184375I0J-24375D01*
G01*
G37*
G36*
G01*
X12965250Y-6184375D02*
X12965250Y-6275625D01*
G75*
G02*
X12940875Y-6300000I-24375J0D01*
G01*
X12892125Y-6300000D01*
G75*
G02*
X12867750Y-6275625I0J24375D01*
G01*
X12867750Y-6184375D01*
G75*
G02*
X12892125Y-6160000I24375J0D01*
G01*
X12940875Y-6160000D01*
G75*
G02*
X12965250Y-6184375I0J-24375D01*
G01*
G37*
G04 #@! TD*
G04 #@! TO.C,D4*
G36*
G01*
X12777750Y-5946375D02*
X12777750Y-6037625D01*
G75*
G02*
X12753375Y-6062000I-24375J0D01*
G01*
X12704625Y-6062000D01*
G75*
G02*
X12680250Y-6037625I0J24375D01*
G01*
X12680250Y-5946375D01*
G75*
G02*
X12704625Y-5922000I24375J0D01*
G01*
X12753375Y-5922000D01*
G75*
G02*
X12777750Y-5946375I0J-24375D01*
G01*
G37*
G36*
G01*
X12965250Y-5946375D02*
X12965250Y-6037625D01*
G75*
G02*
X12940875Y-6062000I-24375J0D01*
G01*
X12892125Y-6062000D01*
G75*
G02*
X12867750Y-6037625I0J24375D01*
G01*
X12867750Y-5946375D01*
G75*
G02*
X12892125Y-5922000I24375J0D01*
G01*
X12940875Y-5922000D01*
G75*
G02*
X12965250Y-5946375I0J-24375D01*
G01*
G37*
G04 #@! TD*
G04 #@! TO.C,D3*
G36*
G01*
X12777750Y-5699375D02*
X12777750Y-5790625D01*
G75*
G02*
X12753375Y-5815000I-24375J0D01*
G01*
X12704625Y-5815000D01*
G75*
G02*
X12680250Y-5790625I0J24375D01*
G01*
X12680250Y-5699375D01*
G75*
G02*
X12704625Y-5675000I24375J0D01*
G01*
X12753375Y-5675000D01*
G75*
G02*
X12777750Y-5699375I0J-24375D01*
G01*
G37*
G36*
G01*
X12965250Y-5699375D02*
X12965250Y-5790625D01*
G75*
G02*
X12940875Y-5815000I-24375J0D01*
G01*
X12892125Y-5815000D01*
G75*
G02*
X12867750Y-5790625I0J24375D01*
G01*
X12867750Y-5699375D01*
G75*
G02*
X12892125Y-5675000I24375J0D01*
G01*
X12940875Y-5675000D01*
G75*
G02*
X12965250Y-5699375I0J-24375D01*
G01*
G37*
G04 #@! TD*
G04 #@! TO.C,R31*
G36*
G01*
X7006500Y-13664000D02*
X7006500Y-13574000D01*
G75*
G02*
X7031500Y-13549000I25000J0D01*
G01*
X7096500Y-13549000D01*
G75*
G02*
X7121500Y-13574000I0J-25000D01*
G01*
X7121500Y-13664000D01*
G75*
G02*
X7096500Y-13689000I-25000J0D01*
G01*
X7031500Y-13689000D01*
G75*
G02*
X7006500Y-13664000I0J25000D01*
G01*
G37*
G36*
G01*
X6801500Y-13664000D02*
X6801500Y-13574000D01*
G75*
G02*
X6826500Y-13549000I25000J0D01*
G01*
X6891500Y-13549000D01*
G75*
G02*
X6916500Y-13574000I0J-25000D01*
G01*
X6916500Y-13664000D01*
G75*
G02*
X6891500Y-13689000I-25000J0D01*
G01*
X6826500Y-13689000D01*
G75*
G02*
X6801500Y-13664000I0J25000D01*
G01*
G37*
G04 #@! TD*
G04 #@! TO.C,R30*
G36*
G01*
X6156500Y-13671000D02*
X6156500Y-13581000D01*
G75*
G02*
X6181500Y-13556000I25000J0D01*
G01*
X6246500Y-13556000D01*
G75*
G02*
X6271500Y-13581000I0J-25000D01*
G01*
X6271500Y-13671000D01*
G75*
G02*
X6246500Y-13696000I-25000J0D01*
G01*
X6181500Y-13696000D01*
G75*
G02*
X6156500Y-13671000I0J25000D01*
G01*
G37*
G36*
G01*
X5951500Y-13671000D02*
X5951500Y-13581000D01*
G75*
G02*
X5976500Y-13556000I25000J0D01*
G01*
X6041500Y-13556000D01*
G75*
G02*
X6066500Y-13581000I0J-25000D01*
G01*
X6066500Y-13671000D01*
G75*
G02*
X6041500Y-13696000I-25000J0D01*
G01*
X5976500Y-13696000D01*
G75*
G02*
X5951500Y-13671000I0J25000D01*
G01*
G37*
G04 #@! TD*
G04 #@! TO.C,D2*
G36*
G01*
X7015000Y-13901625D02*
X7015000Y-13810375D01*
G75*
G02*
X7039375Y-13786000I24375J0D01*
G01*
X7088125Y-13786000D01*
G75*
G02*
X7112500Y-13810375I0J-24375D01*
G01*
X7112500Y-13901625D01*
G75*
G02*
X7088125Y-13926000I-24375J0D01*
G01*
X7039375Y-13926000D01*
G75*
G02*
X7015000Y-13901625I0J24375D01*
G01*
G37*
G36*
G01*
X6827500Y-13901625D02*
X6827500Y-13810375D01*
G75*
G02*
X6851875Y-13786000I24375J0D01*
G01*
X6900625Y-13786000D01*
G75*
G02*
X6925000Y-13810375I0J-24375D01*
G01*
X6925000Y-13901625D01*
G75*
G02*
X6900625Y-13926000I-24375J0D01*
G01*
X6851875Y-13926000D01*
G75*
G02*
X6827500Y-13901625I0J24375D01*
G01*
G37*
G04 #@! TD*
G04 #@! TO.C,D1*
G36*
G01*
X6164000Y-13901625D02*
X6164000Y-13810375D01*
G75*
G02*
X6188375Y-13786000I24375J0D01*
G01*
X6237125Y-13786000D01*
G75*
G02*
X6261500Y-13810375I0J-24375D01*
G01*
X6261500Y-13901625D01*
G75*
G02*
X6237125Y-13926000I-24375J0D01*
G01*
X6188375Y-13926000D01*
G75*
G02*
X6164000Y-13901625I0J24375D01*
G01*
G37*
G36*
G01*
X5976500Y-13901625D02*
X5976500Y-13810375D01*
G75*
G02*
X6000875Y-13786000I24375J0D01*
G01*
X6049625Y-13786000D01*
G75*
G02*
X6074000Y-13810375I0J-24375D01*
G01*
X6074000Y-13901625D01*
G75*
G02*
X6049625Y-13926000I-24375J0D01*
G01*
X6000875Y-13926000D01*
G75*
G02*
X5976500Y-13901625I0J24375D01*
G01*
G37*
G04 #@! TD*
G04 #@! TO.C,R28*
G36*
G01*
X6925500Y-11160000D02*
X6925500Y-11250000D01*
G75*
G02*
X6900500Y-11275000I-25000J0D01*
G01*
X6835500Y-11275000D01*
G75*
G02*
X6810500Y-11250000I0J25000D01*
G01*
X6810500Y-11160000D01*
G75*
G02*
X6835500Y-11135000I25000J0D01*
G01*
X6900500Y-11135000D01*
G75*
G02*
X6925500Y-11160000I0J-25000D01*
G01*
G37*
G36*
G01*
X7130500Y-11160000D02*
X7130500Y-11250000D01*
G75*
G02*
X7105500Y-11275000I-25000J0D01*
G01*
X7040500Y-11275000D01*
G75*
G02*
X7015500Y-11250000I0J25000D01*
G01*
X7015500Y-11160000D01*
G75*
G02*
X7040500Y-11135000I25000J0D01*
G01*
X7105500Y-11135000D01*
G75*
G02*
X7130500Y-11160000I0J-25000D01*
G01*
G37*
G04 #@! TD*
D10*
G04 #@! TO.C,SW2*
X10813000Y-11532000D03*
X11573000Y-11532000D03*
G04 #@! TD*
G04 #@! TO.C,SW1*
X10575000Y-11530000D03*
X9815000Y-11530000D03*
G04 #@! TD*
G04 #@! TO.C,R14*
G36*
G01*
X10957500Y-11174000D02*
X10957500Y-11084000D01*
G75*
G02*
X10982500Y-11059000I25000J0D01*
G01*
X11047500Y-11059000D01*
G75*
G02*
X11072500Y-11084000I0J-25000D01*
G01*
X11072500Y-11174000D01*
G75*
G02*
X11047500Y-11199000I-25000J0D01*
G01*
X10982500Y-11199000D01*
G75*
G02*
X10957500Y-11174000I0J25000D01*
G01*
G37*
G36*
G01*
X10752500Y-11174000D02*
X10752500Y-11084000D01*
G75*
G02*
X10777500Y-11059000I25000J0D01*
G01*
X10842500Y-11059000D01*
G75*
G02*
X10867500Y-11084000I0J-25000D01*
G01*
X10867500Y-11174000D01*
G75*
G02*
X10842500Y-11199000I-25000J0D01*
G01*
X10777500Y-11199000D01*
G75*
G02*
X10752500Y-11174000I0J25000D01*
G01*
G37*
G04 #@! TD*
G04 #@! TO.C,R13*
G36*
G01*
X10428500Y-11079000D02*
X10428500Y-11169000D01*
G75*
G02*
X10403500Y-11194000I-25000J0D01*
G01*
X10338500Y-11194000D01*
G75*
G02*
X10313500Y-11169000I0J25000D01*
G01*
X10313500Y-11079000D01*
G75*
G02*
X10338500Y-11054000I25000J0D01*
G01*
X10403500Y-11054000D01*
G75*
G02*
X10428500Y-11079000I0J-25000D01*
G01*
G37*
G36*
G01*
X10633500Y-11079000D02*
X10633500Y-11169000D01*
G75*
G02*
X10608500Y-11194000I-25000J0D01*
G01*
X10543500Y-11194000D01*
G75*
G02*
X10518500Y-11169000I0J25000D01*
G01*
X10518500Y-11079000D01*
G75*
G02*
X10543500Y-11054000I25000J0D01*
G01*
X10608500Y-11054000D01*
G75*
G02*
X10633500Y-11079000I0J-25000D01*
G01*
G37*
G04 #@! TD*
D11*
G04 #@! TO.C,Y1*
X9470000Y-9890000D03*
X9470000Y-9040000D03*
G04 #@! TD*
G04 #@! TO.C,U2*
G36*
G01*
X10640850Y-9337800D02*
X10640850Y-9205300D01*
G75*
G02*
X10648350Y-9197800I7500J0D01*
G01*
X10663350Y-9197800D01*
G75*
G02*
X10670850Y-9205300I0J-7500D01*
G01*
X10670850Y-9337800D01*
G75*
G02*
X10663350Y-9345300I-7500J0D01*
G01*
X10648350Y-9345300D01*
G75*
G02*
X10640850Y-9337800I0J7500D01*
G01*
G37*
G36*
G01*
X10690850Y-9337800D02*
X10690850Y-9205300D01*
G75*
G02*
X10698350Y-9197800I7500J0D01*
G01*
X10713350Y-9197800D01*
G75*
G02*
X10720850Y-9205300I0J-7500D01*
G01*
X10720850Y-9337800D01*
G75*
G02*
X10713350Y-9345300I-7500J0D01*
G01*
X10698350Y-9345300D01*
G75*
G02*
X10690850Y-9337800I0J7500D01*
G01*
G37*
G36*
G01*
X10740850Y-9337800D02*
X10740850Y-9205300D01*
G75*
G02*
X10748350Y-9197800I7500J0D01*
G01*
X10763350Y-9197800D01*
G75*
G02*
X10770850Y-9205300I0J-7500D01*
G01*
X10770850Y-9337800D01*
G75*
G02*
X10763350Y-9345300I-7500J0D01*
G01*
X10748350Y-9345300D01*
G75*
G02*
X10740850Y-9337800I0J7500D01*
G01*
G37*
G36*
G01*
X10790850Y-9337800D02*
X10790850Y-9205300D01*
G75*
G02*
X10798350Y-9197800I7500J0D01*
G01*
X10813350Y-9197800D01*
G75*
G02*
X10820850Y-9205300I0J-7500D01*
G01*
X10820850Y-9337800D01*
G75*
G02*
X10813350Y-9345300I-7500J0D01*
G01*
X10798350Y-9345300D01*
G75*
G02*
X10790850Y-9337800I0J7500D01*
G01*
G37*
G36*
G01*
X10840850Y-9337800D02*
X10840850Y-9205300D01*
G75*
G02*
X10848350Y-9197800I7500J0D01*
G01*
X10863350Y-9197800D01*
G75*
G02*
X10870850Y-9205300I0J-7500D01*
G01*
X10870850Y-9337800D01*
G75*
G02*
X10863350Y-9345300I-7500J0D01*
G01*
X10848350Y-9345300D01*
G75*
G02*
X10840850Y-9337800I0J7500D01*
G01*
G37*
G36*
G01*
X10890850Y-9337800D02*
X10890850Y-9205300D01*
G75*
G02*
X10898350Y-9197800I7500J0D01*
G01*
X10913350Y-9197800D01*
G75*
G02*
X10920850Y-9205300I0J-7500D01*
G01*
X10920850Y-9337800D01*
G75*
G02*
X10913350Y-9345300I-7500J0D01*
G01*
X10898350Y-9345300D01*
G75*
G02*
X10890850Y-9337800I0J7500D01*
G01*
G37*
G36*
G01*
X10940850Y-9337800D02*
X10940850Y-9205300D01*
G75*
G02*
X10948350Y-9197800I7500J0D01*
G01*
X10963350Y-9197800D01*
G75*
G02*
X10970850Y-9205300I0J-7500D01*
G01*
X10970850Y-9337800D01*
G75*
G02*
X10963350Y-9345300I-7500J0D01*
G01*
X10948350Y-9345300D01*
G75*
G02*
X10940850Y-9337800I0J7500D01*
G01*
G37*
G36*
G01*
X10990850Y-9337800D02*
X10990850Y-9205300D01*
G75*
G02*
X10998350Y-9197800I7500J0D01*
G01*
X11013350Y-9197800D01*
G75*
G02*
X11020850Y-9205300I0J-7500D01*
G01*
X11020850Y-9337800D01*
G75*
G02*
X11013350Y-9345300I-7500J0D01*
G01*
X10998350Y-9345300D01*
G75*
G02*
X10990850Y-9337800I0J7500D01*
G01*
G37*
G36*
G01*
X11040850Y-9337800D02*
X11040850Y-9205300D01*
G75*
G02*
X11048350Y-9197800I7500J0D01*
G01*
X11063350Y-9197800D01*
G75*
G02*
X11070850Y-9205300I0J-7500D01*
G01*
X11070850Y-9337800D01*
G75*
G02*
X11063350Y-9345300I-7500J0D01*
G01*
X11048350Y-9345300D01*
G75*
G02*
X11040850Y-9337800I0J7500D01*
G01*
G37*
G36*
G01*
X11090850Y-9337800D02*
X11090850Y-9205300D01*
G75*
G02*
X11098350Y-9197800I7500J0D01*
G01*
X11113350Y-9197800D01*
G75*
G02*
X11120850Y-9205300I0J-7500D01*
G01*
X11120850Y-9337800D01*
G75*
G02*
X11113350Y-9345300I-7500J0D01*
G01*
X11098350Y-9345300D01*
G75*
G02*
X11090850Y-9337800I0J7500D01*
G01*
G37*
G36*
G01*
X11140850Y-9337800D02*
X11140850Y-9205300D01*
G75*
G02*
X11148350Y-9197800I7500J0D01*
G01*
X11163350Y-9197800D01*
G75*
G02*
X11170850Y-9205300I0J-7500D01*
G01*
X11170850Y-9337800D01*
G75*
G02*
X11163350Y-9345300I-7500J0D01*
G01*
X11148350Y-9345300D01*
G75*
G02*
X11140850Y-9337800I0J7500D01*
G01*
G37*
G36*
G01*
X11190850Y-9337800D02*
X11190850Y-9205300D01*
G75*
G02*
X11198350Y-9197800I7500J0D01*
G01*
X11213350Y-9197800D01*
G75*
G02*
X11220850Y-9205300I0J-7500D01*
G01*
X11220850Y-9337800D01*
G75*
G02*
X11213350Y-9345300I-7500J0D01*
G01*
X11198350Y-9345300D01*
G75*
G02*
X11190850Y-9337800I0J7500D01*
G01*
G37*
G36*
G01*
X11273350Y-9420300D02*
X11273350Y-9405300D01*
G75*
G02*
X11280850Y-9397800I7500J0D01*
G01*
X11413350Y-9397800D01*
G75*
G02*
X11420850Y-9405300I0J-7500D01*
G01*
X11420850Y-9420300D01*
G75*
G02*
X11413350Y-9427800I-7500J0D01*
G01*
X11280850Y-9427800D01*
G75*
G02*
X11273350Y-9420300I0J7500D01*
G01*
G37*
G36*
G01*
X11273350Y-9470300D02*
X11273350Y-9455300D01*
G75*
G02*
X11280850Y-9447800I7500J0D01*
G01*
X11413350Y-9447800D01*
G75*
G02*
X11420850Y-9455300I0J-7500D01*
G01*
X11420850Y-9470300D01*
G75*
G02*
X11413350Y-9477800I-7500J0D01*
G01*
X11280850Y-9477800D01*
G75*
G02*
X11273350Y-9470300I0J7500D01*
G01*
G37*
G36*
G01*
X11273350Y-9520300D02*
X11273350Y-9505300D01*
G75*
G02*
X11280850Y-9497800I7500J0D01*
G01*
X11413350Y-9497800D01*
G75*
G02*
X11420850Y-9505300I0J-7500D01*
G01*
X11420850Y-9520300D01*
G75*
G02*
X11413350Y-9527800I-7500J0D01*
G01*
X11280850Y-9527800D01*
G75*
G02*
X11273350Y-9520300I0J7500D01*
G01*
G37*
G36*
G01*
X11273350Y-9570300D02*
X11273350Y-9555300D01*
G75*
G02*
X11280850Y-9547800I7500J0D01*
G01*
X11413350Y-9547800D01*
G75*
G02*
X11420850Y-9555300I0J-7500D01*
G01*
X11420850Y-9570300D01*
G75*
G02*
X11413350Y-9577800I-7500J0D01*
G01*
X11280850Y-9577800D01*
G75*
G02*
X11273350Y-9570300I0J7500D01*
G01*
G37*
G36*
G01*
X11273350Y-9620300D02*
X11273350Y-9605300D01*
G75*
G02*
X11280850Y-9597800I7500J0D01*
G01*
X11413350Y-9597800D01*
G75*
G02*
X11420850Y-9605300I0J-7500D01*
G01*
X11420850Y-9620300D01*
G75*
G02*
X11413350Y-9627800I-7500J0D01*
G01*
X11280850Y-9627800D01*
G75*
G02*
X11273350Y-9620300I0J7500D01*
G01*
G37*
G36*
G01*
X11273350Y-9670300D02*
X11273350Y-9655300D01*
G75*
G02*
X11280850Y-9647800I7500J0D01*
G01*
X11413350Y-9647800D01*
G75*
G02*
X11420850Y-9655300I0J-7500D01*
G01*
X11420850Y-9670300D01*
G75*
G02*
X11413350Y-9677800I-7500J0D01*
G01*
X11280850Y-9677800D01*
G75*
G02*
X11273350Y-9670300I0J7500D01*
G01*
G37*
G36*
G01*
X11273350Y-9720300D02*
X11273350Y-9705300D01*
G75*
G02*
X11280850Y-9697800I7500J0D01*
G01*
X11413350Y-9697800D01*
G75*
G02*
X11420850Y-9705300I0J-7500D01*
G01*
X11420850Y-9720300D01*
G75*
G02*
X11413350Y-9727800I-7500J0D01*
G01*
X11280850Y-9727800D01*
G75*
G02*
X11273350Y-9720300I0J7500D01*
G01*
G37*
G36*
G01*
X11273350Y-9770300D02*
X11273350Y-9755300D01*
G75*
G02*
X11280850Y-9747800I7500J0D01*
G01*
X11413350Y-9747800D01*
G75*
G02*
X11420850Y-9755300I0J-7500D01*
G01*
X11420850Y-9770300D01*
G75*
G02*
X11413350Y-9777800I-7500J0D01*
G01*
X11280850Y-9777800D01*
G75*
G02*
X11273350Y-9770300I0J7500D01*
G01*
G37*
G36*
G01*
X11273350Y-9820300D02*
X11273350Y-9805300D01*
G75*
G02*
X11280850Y-9797800I7500J0D01*
G01*
X11413350Y-9797800D01*
G75*
G02*
X11420850Y-9805300I0J-7500D01*
G01*
X11420850Y-9820300D01*
G75*
G02*
X11413350Y-9827800I-7500J0D01*
G01*
X11280850Y-9827800D01*
G75*
G02*
X11273350Y-9820300I0J7500D01*
G01*
G37*
G36*
G01*
X11273350Y-9870300D02*
X11273350Y-9855300D01*
G75*
G02*
X11280850Y-9847800I7500J0D01*
G01*
X11413350Y-9847800D01*
G75*
G02*
X11420850Y-9855300I0J-7500D01*
G01*
X11420850Y-9870300D01*
G75*
G02*
X11413350Y-9877800I-7500J0D01*
G01*
X11280850Y-9877800D01*
G75*
G02*
X11273350Y-9870300I0J7500D01*
G01*
G37*
G36*
G01*
X11273350Y-9920300D02*
X11273350Y-9905300D01*
G75*
G02*
X11280850Y-9897800I7500J0D01*
G01*
X11413350Y-9897800D01*
G75*
G02*
X11420850Y-9905300I0J-7500D01*
G01*
X11420850Y-9920300D01*
G75*
G02*
X11413350Y-9927800I-7500J0D01*
G01*
X11280850Y-9927800D01*
G75*
G02*
X11273350Y-9920300I0J7500D01*
G01*
G37*
G36*
G01*
X11273350Y-9970300D02*
X11273350Y-9955300D01*
G75*
G02*
X11280850Y-9947800I7500J0D01*
G01*
X11413350Y-9947800D01*
G75*
G02*
X11420850Y-9955300I0J-7500D01*
G01*
X11420850Y-9970300D01*
G75*
G02*
X11413350Y-9977800I-7500J0D01*
G01*
X11280850Y-9977800D01*
G75*
G02*
X11273350Y-9970300I0J7500D01*
G01*
G37*
G36*
G01*
X11190850Y-10170300D02*
X11190850Y-10037800D01*
G75*
G02*
X11198350Y-10030300I7500J0D01*
G01*
X11213350Y-10030300D01*
G75*
G02*
X11220850Y-10037800I0J-7500D01*
G01*
X11220850Y-10170300D01*
G75*
G02*
X11213350Y-10177800I-7500J0D01*
G01*
X11198350Y-10177800D01*
G75*
G02*
X11190850Y-10170300I0J7500D01*
G01*
G37*
G36*
G01*
X11140850Y-10170300D02*
X11140850Y-10037800D01*
G75*
G02*
X11148350Y-10030300I7500J0D01*
G01*
X11163350Y-10030300D01*
G75*
G02*
X11170850Y-10037800I0J-7500D01*
G01*
X11170850Y-10170300D01*
G75*
G02*
X11163350Y-10177800I-7500J0D01*
G01*
X11148350Y-10177800D01*
G75*
G02*
X11140850Y-10170300I0J7500D01*
G01*
G37*
G36*
G01*
X11090850Y-10170300D02*
X11090850Y-10037800D01*
G75*
G02*
X11098350Y-10030300I7500J0D01*
G01*
X11113350Y-10030300D01*
G75*
G02*
X11120850Y-10037800I0J-7500D01*
G01*
X11120850Y-10170300D01*
G75*
G02*
X11113350Y-10177800I-7500J0D01*
G01*
X11098350Y-10177800D01*
G75*
G02*
X11090850Y-10170300I0J7500D01*
G01*
G37*
G36*
G01*
X11040850Y-10170300D02*
X11040850Y-10037800D01*
G75*
G02*
X11048350Y-10030300I7500J0D01*
G01*
X11063350Y-10030300D01*
G75*
G02*
X11070850Y-10037800I0J-7500D01*
G01*
X11070850Y-10170300D01*
G75*
G02*
X11063350Y-10177800I-7500J0D01*
G01*
X11048350Y-10177800D01*
G75*
G02*
X11040850Y-10170300I0J7500D01*
G01*
G37*
G36*
G01*
X10990850Y-10170300D02*
X10990850Y-10037800D01*
G75*
G02*
X10998350Y-10030300I7500J0D01*
G01*
X11013350Y-10030300D01*
G75*
G02*
X11020850Y-10037800I0J-7500D01*
G01*
X11020850Y-10170300D01*
G75*
G02*
X11013350Y-10177800I-7500J0D01*
G01*
X10998350Y-10177800D01*
G75*
G02*
X10990850Y-10170300I0J7500D01*
G01*
G37*
G36*
G01*
X10940850Y-10170300D02*
X10940850Y-10037800D01*
G75*
G02*
X10948350Y-10030300I7500J0D01*
G01*
X10963350Y-10030300D01*
G75*
G02*
X10970850Y-10037800I0J-7500D01*
G01*
X10970850Y-10170300D01*
G75*
G02*
X10963350Y-10177800I-7500J0D01*
G01*
X10948350Y-10177800D01*
G75*
G02*
X10940850Y-10170300I0J7500D01*
G01*
G37*
G36*
G01*
X10890850Y-10170300D02*
X10890850Y-10037800D01*
G75*
G02*
X10898350Y-10030300I7500J0D01*
G01*
X10913350Y-10030300D01*
G75*
G02*
X10920850Y-10037800I0J-7500D01*
G01*
X10920850Y-10170300D01*
G75*
G02*
X10913350Y-10177800I-7500J0D01*
G01*
X10898350Y-10177800D01*
G75*
G02*
X10890850Y-10170300I0J7500D01*
G01*
G37*
G36*
G01*
X10840850Y-10170300D02*
X10840850Y-10037800D01*
G75*
G02*
X10848350Y-10030300I7500J0D01*
G01*
X10863350Y-10030300D01*
G75*
G02*
X10870850Y-10037800I0J-7500D01*
G01*
X10870850Y-10170300D01*
G75*
G02*
X10863350Y-10177800I-7500J0D01*
G01*
X10848350Y-10177800D01*
G75*
G02*
X10840850Y-10170300I0J7500D01*
G01*
G37*
G36*
G01*
X10790850Y-10170300D02*
X10790850Y-10037800D01*
G75*
G02*
X10798350Y-10030300I7500J0D01*
G01*
X10813350Y-10030300D01*
G75*
G02*
X10820850Y-10037800I0J-7500D01*
G01*
X10820850Y-10170300D01*
G75*
G02*
X10813350Y-10177800I-7500J0D01*
G01*
X10798350Y-10177800D01*
G75*
G02*
X10790850Y-10170300I0J7500D01*
G01*
G37*
G36*
G01*
X10740850Y-10170300D02*
X10740850Y-10037800D01*
G75*
G02*
X10748350Y-10030300I7500J0D01*
G01*
X10763350Y-10030300D01*
G75*
G02*
X10770850Y-10037800I0J-7500D01*
G01*
X10770850Y-10170300D01*
G75*
G02*
X10763350Y-10177800I-7500J0D01*
G01*
X10748350Y-10177800D01*
G75*
G02*
X10740850Y-10170300I0J7500D01*
G01*
G37*
G36*
G01*
X10690850Y-10170300D02*
X10690850Y-10037800D01*
G75*
G02*
X10698350Y-10030300I7500J0D01*
G01*
X10713350Y-10030300D01*
G75*
G02*
X10720850Y-10037800I0J-7500D01*
G01*
X10720850Y-10170300D01*
G75*
G02*
X10713350Y-10177800I-7500J0D01*
G01*
X10698350Y-10177800D01*
G75*
G02*
X10690850Y-10170300I0J7500D01*
G01*
G37*
G36*
G01*
X10640850Y-10170300D02*
X10640850Y-10037800D01*
G75*
G02*
X10648350Y-10030300I7500J0D01*
G01*
X10663350Y-10030300D01*
G75*
G02*
X10670850Y-10037800I0J-7500D01*
G01*
X10670850Y-10170300D01*
G75*
G02*
X10663350Y-10177800I-7500J0D01*
G01*
X10648350Y-10177800D01*
G75*
G02*
X10640850Y-10170300I0J7500D01*
G01*
G37*
G36*
G01*
X10440850Y-9970300D02*
X10440850Y-9955300D01*
G75*
G02*
X10448350Y-9947800I7500J0D01*
G01*
X10580850Y-9947800D01*
G75*
G02*
X10588350Y-9955300I0J-7500D01*
G01*
X10588350Y-9970300D01*
G75*
G02*
X10580850Y-9977800I-7500J0D01*
G01*
X10448350Y-9977800D01*
G75*
G02*
X10440850Y-9970300I0J7500D01*
G01*
G37*
G36*
G01*
X10440850Y-9920300D02*
X10440850Y-9905300D01*
G75*
G02*
X10448350Y-9897800I7500J0D01*
G01*
X10580850Y-9897800D01*
G75*
G02*
X10588350Y-9905300I0J-7500D01*
G01*
X10588350Y-9920300D01*
G75*
G02*
X10580850Y-9927800I-7500J0D01*
G01*
X10448350Y-9927800D01*
G75*
G02*
X10440850Y-9920300I0J7500D01*
G01*
G37*
G36*
G01*
X10440850Y-9870300D02*
X10440850Y-9855300D01*
G75*
G02*
X10448350Y-9847800I7500J0D01*
G01*
X10580850Y-9847800D01*
G75*
G02*
X10588350Y-9855300I0J-7500D01*
G01*
X10588350Y-9870300D01*
G75*
G02*
X10580850Y-9877800I-7500J0D01*
G01*
X10448350Y-9877800D01*
G75*
G02*
X10440850Y-9870300I0J7500D01*
G01*
G37*
G36*
G01*
X10440850Y-9820300D02*
X10440850Y-9805300D01*
G75*
G02*
X10448350Y-9797800I7500J0D01*
G01*
X10580850Y-9797800D01*
G75*
G02*
X10588350Y-9805300I0J-7500D01*
G01*
X10588350Y-9820300D01*
G75*
G02*
X10580850Y-9827800I-7500J0D01*
G01*
X10448350Y-9827800D01*
G75*
G02*
X10440850Y-9820300I0J7500D01*
G01*
G37*
G36*
G01*
X10440850Y-9770300D02*
X10440850Y-9755300D01*
G75*
G02*
X10448350Y-9747800I7500J0D01*
G01*
X10580850Y-9747800D01*
G75*
G02*
X10588350Y-9755300I0J-7500D01*
G01*
X10588350Y-9770300D01*
G75*
G02*
X10580850Y-9777800I-7500J0D01*
G01*
X10448350Y-9777800D01*
G75*
G02*
X10440850Y-9770300I0J7500D01*
G01*
G37*
G36*
G01*
X10440850Y-9720300D02*
X10440850Y-9705300D01*
G75*
G02*
X10448350Y-9697800I7500J0D01*
G01*
X10580850Y-9697800D01*
G75*
G02*
X10588350Y-9705300I0J-7500D01*
G01*
X10588350Y-9720300D01*
G75*
G02*
X10580850Y-9727800I-7500J0D01*
G01*
X10448350Y-9727800D01*
G75*
G02*
X10440850Y-9720300I0J7500D01*
G01*
G37*
G36*
G01*
X10440850Y-9670300D02*
X10440850Y-9655300D01*
G75*
G02*
X10448350Y-9647800I7500J0D01*
G01*
X10580850Y-9647800D01*
G75*
G02*
X10588350Y-9655300I0J-7500D01*
G01*
X10588350Y-9670300D01*
G75*
G02*
X10580850Y-9677800I-7500J0D01*
G01*
X10448350Y-9677800D01*
G75*
G02*
X10440850Y-9670300I0J7500D01*
G01*
G37*
G36*
G01*
X10440850Y-9620300D02*
X10440850Y-9605300D01*
G75*
G02*
X10448350Y-9597800I7500J0D01*
G01*
X10580850Y-9597800D01*
G75*
G02*
X10588350Y-9605300I0J-7500D01*
G01*
X10588350Y-9620300D01*
G75*
G02*
X10580850Y-9627800I-7500J0D01*
G01*
X10448350Y-9627800D01*
G75*
G02*
X10440850Y-9620300I0J7500D01*
G01*
G37*
G36*
G01*
X10440850Y-9570300D02*
X10440850Y-9555300D01*
G75*
G02*
X10448350Y-9547800I7500J0D01*
G01*
X10580850Y-9547800D01*
G75*
G02*
X10588350Y-9555300I0J-7500D01*
G01*
X10588350Y-9570300D01*
G75*
G02*
X10580850Y-9577800I-7500J0D01*
G01*
X10448350Y-9577800D01*
G75*
G02*
X10440850Y-9570300I0J7500D01*
G01*
G37*
G36*
G01*
X10440850Y-9520300D02*
X10440850Y-9505300D01*
G75*
G02*
X10448350Y-9497800I7500J0D01*
G01*
X10580850Y-9497800D01*
G75*
G02*
X10588350Y-9505300I0J-7500D01*
G01*
X10588350Y-9520300D01*
G75*
G02*
X10580850Y-9527800I-7500J0D01*
G01*
X10448350Y-9527800D01*
G75*
G02*
X10440850Y-9520300I0J7500D01*
G01*
G37*
G36*
G01*
X10440850Y-9470300D02*
X10440850Y-9455300D01*
G75*
G02*
X10448350Y-9447800I7500J0D01*
G01*
X10580850Y-9447800D01*
G75*
G02*
X10588350Y-9455300I0J-7500D01*
G01*
X10588350Y-9470300D01*
G75*
G02*
X10580850Y-9477800I-7500J0D01*
G01*
X10448350Y-9477800D01*
G75*
G02*
X10440850Y-9470300I0J7500D01*
G01*
G37*
G36*
G01*
X10440850Y-9420300D02*
X10440850Y-9405300D01*
G75*
G02*
X10448350Y-9397800I7500J0D01*
G01*
X10580850Y-9397800D01*
G75*
G02*
X10588350Y-9405300I0J-7500D01*
G01*
X10588350Y-9420300D01*
G75*
G02*
X10580850Y-9427800I-7500J0D01*
G01*
X10448350Y-9427800D01*
G75*
G02*
X10440850Y-9420300I0J7500D01*
G01*
G37*
G04 #@! TD*
G04 #@! TO.C,U3*
G36*
G01*
X7086800Y-12545300D02*
X7086800Y-12515300D01*
G75*
G02*
X7101800Y-12500300I15000J0D01*
G01*
X7266800Y-12500300D01*
G75*
G02*
X7281800Y-12515300I0J-15000D01*
G01*
X7281800Y-12545300D01*
G75*
G02*
X7266800Y-12560300I-15000J0D01*
G01*
X7101800Y-12560300D01*
G75*
G02*
X7086800Y-12545300I0J15000D01*
G01*
G37*
G36*
G01*
X7086800Y-12672300D02*
X7086800Y-12642300D01*
G75*
G02*
X7101800Y-12627300I15000J0D01*
G01*
X7266800Y-12627300D01*
G75*
G02*
X7281800Y-12642300I0J-15000D01*
G01*
X7281800Y-12672300D01*
G75*
G02*
X7266800Y-12687300I-15000J0D01*
G01*
X7101800Y-12687300D01*
G75*
G02*
X7086800Y-12672300I0J15000D01*
G01*
G37*
G36*
G01*
X7086800Y-12799300D02*
X7086800Y-12769300D01*
G75*
G02*
X7101800Y-12754300I15000J0D01*
G01*
X7266800Y-12754300D01*
G75*
G02*
X7281800Y-12769300I0J-15000D01*
G01*
X7281800Y-12799300D01*
G75*
G02*
X7266800Y-12814300I-15000J0D01*
G01*
X7101800Y-12814300D01*
G75*
G02*
X7086800Y-12799300I0J15000D01*
G01*
G37*
G36*
G01*
X7086800Y-12926300D02*
X7086800Y-12896300D01*
G75*
G02*
X7101800Y-12881300I15000J0D01*
G01*
X7266800Y-12881300D01*
G75*
G02*
X7281800Y-12896300I0J-15000D01*
G01*
X7281800Y-12926300D01*
G75*
G02*
X7266800Y-12941300I-15000J0D01*
G01*
X7101800Y-12941300D01*
G75*
G02*
X7086800Y-12926300I0J15000D01*
G01*
G37*
G36*
G01*
X7086800Y-13053300D02*
X7086800Y-13023300D01*
G75*
G02*
X7101800Y-13008300I15000J0D01*
G01*
X7266800Y-13008300D01*
G75*
G02*
X7281800Y-13023300I0J-15000D01*
G01*
X7281800Y-13053300D01*
G75*
G02*
X7266800Y-13068300I-15000J0D01*
G01*
X7101800Y-13068300D01*
G75*
G02*
X7086800Y-13053300I0J15000D01*
G01*
G37*
G36*
G01*
X7086800Y-13180300D02*
X7086800Y-13150300D01*
G75*
G02*
X7101800Y-13135300I15000J0D01*
G01*
X7266800Y-13135300D01*
G75*
G02*
X7281800Y-13150300I0J-15000D01*
G01*
X7281800Y-13180300D01*
G75*
G02*
X7266800Y-13195300I-15000J0D01*
G01*
X7101800Y-13195300D01*
G75*
G02*
X7086800Y-13180300I0J15000D01*
G01*
G37*
G36*
G01*
X7086800Y-13307300D02*
X7086800Y-13277300D01*
G75*
G02*
X7101800Y-13262300I15000J0D01*
G01*
X7266800Y-13262300D01*
G75*
G02*
X7281800Y-13277300I0J-15000D01*
G01*
X7281800Y-13307300D01*
G75*
G02*
X7266800Y-13322300I-15000J0D01*
G01*
X7101800Y-13322300D01*
G75*
G02*
X7086800Y-13307300I0J15000D01*
G01*
G37*
G36*
G01*
X6591800Y-13307300D02*
X6591800Y-13277300D01*
G75*
G02*
X6606800Y-13262300I15000J0D01*
G01*
X6771800Y-13262300D01*
G75*
G02*
X6786800Y-13277300I0J-15000D01*
G01*
X6786800Y-13307300D01*
G75*
G02*
X6771800Y-13322300I-15000J0D01*
G01*
X6606800Y-13322300D01*
G75*
G02*
X6591800Y-13307300I0J15000D01*
G01*
G37*
G36*
G01*
X6591800Y-13180300D02*
X6591800Y-13150300D01*
G75*
G02*
X6606800Y-13135300I15000J0D01*
G01*
X6771800Y-13135300D01*
G75*
G02*
X6786800Y-13150300I0J-15000D01*
G01*
X6786800Y-13180300D01*
G75*
G02*
X6771800Y-13195300I-15000J0D01*
G01*
X6606800Y-13195300D01*
G75*
G02*
X6591800Y-13180300I0J15000D01*
G01*
G37*
G36*
G01*
X6591800Y-13053300D02*
X6591800Y-13023300D01*
G75*
G02*
X6606800Y-13008300I15000J0D01*
G01*
X6771800Y-13008300D01*
G75*
G02*
X6786800Y-13023300I0J-15000D01*
G01*
X6786800Y-13053300D01*
G75*
G02*
X6771800Y-13068300I-15000J0D01*
G01*
X6606800Y-13068300D01*
G75*
G02*
X6591800Y-13053300I0J15000D01*
G01*
G37*
G36*
G01*
X6591800Y-12926300D02*
X6591800Y-12896300D01*
G75*
G02*
X6606800Y-12881300I15000J0D01*
G01*
X6771800Y-12881300D01*
G75*
G02*
X6786800Y-12896300I0J-15000D01*
G01*
X6786800Y-12926300D01*
G75*
G02*
X6771800Y-12941300I-15000J0D01*
G01*
X6606800Y-12941300D01*
G75*
G02*
X6591800Y-12926300I0J15000D01*
G01*
G37*
G36*
G01*
X6591800Y-12799300D02*
X6591800Y-12769300D01*
G75*
G02*
X6606800Y-12754300I15000J0D01*
G01*
X6771800Y-12754300D01*
G75*
G02*
X6786800Y-12769300I0J-15000D01*
G01*
X6786800Y-12799300D01*
G75*
G02*
X6771800Y-12814300I-15000J0D01*
G01*
X6606800Y-12814300D01*
G75*
G02*
X6591800Y-12799300I0J15000D01*
G01*
G37*
G36*
G01*
X6591800Y-12672300D02*
X6591800Y-12642300D01*
G75*
G02*
X6606800Y-12627300I15000J0D01*
G01*
X6771800Y-12627300D01*
G75*
G02*
X6786800Y-12642300I0J-15000D01*
G01*
X6786800Y-12672300D01*
G75*
G02*
X6771800Y-12687300I-15000J0D01*
G01*
X6606800Y-12687300D01*
G75*
G02*
X6591800Y-12672300I0J15000D01*
G01*
G37*
G36*
G01*
X6591800Y-12545300D02*
X6591800Y-12515300D01*
G75*
G02*
X6606800Y-12500300I15000J0D01*
G01*
X6771800Y-12500300D01*
G75*
G02*
X6786800Y-12515300I0J-15000D01*
G01*
X6786800Y-12545300D01*
G75*
G02*
X6771800Y-12560300I-15000J0D01*
G01*
X6606800Y-12560300D01*
G75*
G02*
X6591800Y-12545300I0J15000D01*
G01*
G37*
G04 #@! TD*
G04 #@! TO.C,U6*
G36*
G01*
X13679500Y-11500600D02*
X13679500Y-11530600D01*
G75*
G02*
X13664500Y-11545600I-15000J0D01*
G01*
X13519500Y-11545600D01*
G75*
G02*
X13504500Y-11530600I0J15000D01*
G01*
X13504500Y-11500600D01*
G75*
G02*
X13519500Y-11485600I15000J0D01*
G01*
X13664500Y-11485600D01*
G75*
G02*
X13679500Y-11500600I0J-15000D01*
G01*
G37*
G36*
G01*
X13679500Y-11373600D02*
X13679500Y-11403600D01*
G75*
G02*
X13664500Y-11418600I-15000J0D01*
G01*
X13519500Y-11418600D01*
G75*
G02*
X13504500Y-11403600I0J15000D01*
G01*
X13504500Y-11373600D01*
G75*
G02*
X13519500Y-11358600I15000J0D01*
G01*
X13664500Y-11358600D01*
G75*
G02*
X13679500Y-11373600I0J-15000D01*
G01*
G37*
G36*
G01*
X13679500Y-11246600D02*
X13679500Y-11276600D01*
G75*
G02*
X13664500Y-11291600I-15000J0D01*
G01*
X13519500Y-11291600D01*
G75*
G02*
X13504500Y-11276600I0J15000D01*
G01*
X13504500Y-11246600D01*
G75*
G02*
X13519500Y-11231600I15000J0D01*
G01*
X13664500Y-11231600D01*
G75*
G02*
X13679500Y-11246600I0J-15000D01*
G01*
G37*
G36*
G01*
X13679500Y-11119600D02*
X13679500Y-11149600D01*
G75*
G02*
X13664500Y-11164600I-15000J0D01*
G01*
X13519500Y-11164600D01*
G75*
G02*
X13504500Y-11149600I0J15000D01*
G01*
X13504500Y-11119600D01*
G75*
G02*
X13519500Y-11104600I15000J0D01*
G01*
X13664500Y-11104600D01*
G75*
G02*
X13679500Y-11119600I0J-15000D01*
G01*
G37*
G36*
G01*
X14194500Y-11119600D02*
X14194500Y-11149600D01*
G75*
G02*
X14179500Y-11164600I-15000J0D01*
G01*
X14034500Y-11164600D01*
G75*
G02*
X14019500Y-11149600I0J15000D01*
G01*
X14019500Y-11119600D01*
G75*
G02*
X14034500Y-11104600I15000J0D01*
G01*
X14179500Y-11104600D01*
G75*
G02*
X14194500Y-11119600I0J-15000D01*
G01*
G37*
G36*
G01*
X14194500Y-11246600D02*
X14194500Y-11276600D01*
G75*
G02*
X14179500Y-11291600I-15000J0D01*
G01*
X14034500Y-11291600D01*
G75*
G02*
X14019500Y-11276600I0J15000D01*
G01*
X14019500Y-11246600D01*
G75*
G02*
X14034500Y-11231600I15000J0D01*
G01*
X14179500Y-11231600D01*
G75*
G02*
X14194500Y-11246600I0J-15000D01*
G01*
G37*
G36*
G01*
X14194500Y-11373600D02*
X14194500Y-11403600D01*
G75*
G02*
X14179500Y-11418600I-15000J0D01*
G01*
X14034500Y-11418600D01*
G75*
G02*
X14019500Y-11403600I0J15000D01*
G01*
X14019500Y-11373600D01*
G75*
G02*
X14034500Y-11358600I15000J0D01*
G01*
X14179500Y-11358600D01*
G75*
G02*
X14194500Y-11373600I0J-15000D01*
G01*
G37*
G36*
G01*
X14194500Y-11500600D02*
X14194500Y-11530600D01*
G75*
G02*
X14179500Y-11545600I-15000J0D01*
G01*
X14034500Y-11545600D01*
G75*
G02*
X14019500Y-11530600I0J15000D01*
G01*
X14019500Y-11500600D01*
G75*
G02*
X14034500Y-11485600I15000J0D01*
G01*
X14179500Y-11485600D01*
G75*
G02*
X14194500Y-11500600I0J-15000D01*
G01*
G37*
G04 #@! TD*
D12*
G04 #@! TO.C,U5*
X13619400Y-13602800D03*
X13619400Y-13142800D03*
X13619400Y-13372800D03*
D13*
X12989400Y-13372800D03*
G04 #@! TD*
G04 #@! TO.C,R29*
G36*
G01*
X7329000Y-12332000D02*
X7329000Y-12242000D01*
G75*
G02*
X7354000Y-12217000I25000J0D01*
G01*
X7419000Y-12217000D01*
G75*
G02*
X7444000Y-12242000I0J-25000D01*
G01*
X7444000Y-12332000D01*
G75*
G02*
X7419000Y-12357000I-25000J0D01*
G01*
X7354000Y-12357000D01*
G75*
G02*
X7329000Y-12332000I0J25000D01*
G01*
G37*
G36*
G01*
X7124000Y-12332000D02*
X7124000Y-12242000D01*
G75*
G02*
X7149000Y-12217000I25000J0D01*
G01*
X7214000Y-12217000D01*
G75*
G02*
X7239000Y-12242000I0J-25000D01*
G01*
X7239000Y-12332000D01*
G75*
G02*
X7214000Y-12357000I-25000J0D01*
G01*
X7149000Y-12357000D01*
G75*
G02*
X7124000Y-12332000I0J25000D01*
G01*
G37*
G04 #@! TD*
G04 #@! TO.C,R27*
G36*
G01*
X7790000Y-13337000D02*
X7790000Y-13247000D01*
G75*
G02*
X7815000Y-13222000I25000J0D01*
G01*
X7880000Y-13222000D01*
G75*
G02*
X7905000Y-13247000I0J-25000D01*
G01*
X7905000Y-13337000D01*
G75*
G02*
X7880000Y-13362000I-25000J0D01*
G01*
X7815000Y-13362000D01*
G75*
G02*
X7790000Y-13337000I0J25000D01*
G01*
G37*
G36*
G01*
X7585000Y-13337000D02*
X7585000Y-13247000D01*
G75*
G02*
X7610000Y-13222000I25000J0D01*
G01*
X7675000Y-13222000D01*
G75*
G02*
X7700000Y-13247000I0J-25000D01*
G01*
X7700000Y-13337000D01*
G75*
G02*
X7675000Y-13362000I-25000J0D01*
G01*
X7610000Y-13362000D01*
G75*
G02*
X7585000Y-13337000I0J25000D01*
G01*
G37*
G04 #@! TD*
G04 #@! TO.C,R26*
G36*
G01*
X7330000Y-12082000D02*
X7330000Y-11992000D01*
G75*
G02*
X7355000Y-11967000I25000J0D01*
G01*
X7420000Y-11967000D01*
G75*
G02*
X7445000Y-11992000I0J-25000D01*
G01*
X7445000Y-12082000D01*
G75*
G02*
X7420000Y-12107000I-25000J0D01*
G01*
X7355000Y-12107000D01*
G75*
G02*
X7330000Y-12082000I0J25000D01*
G01*
G37*
G36*
G01*
X7125000Y-12082000D02*
X7125000Y-11992000D01*
G75*
G02*
X7150000Y-11967000I25000J0D01*
G01*
X7215000Y-11967000D01*
G75*
G02*
X7240000Y-11992000I0J-25000D01*
G01*
X7240000Y-12082000D01*
G75*
G02*
X7215000Y-12107000I-25000J0D01*
G01*
X7150000Y-12107000D01*
G75*
G02*
X7125000Y-12082000I0J25000D01*
G01*
G37*
G04 #@! TD*
G04 #@! TO.C,R25*
G36*
G01*
X6628700Y-11534500D02*
X6628700Y-11444500D01*
G75*
G02*
X6653700Y-11419500I25000J0D01*
G01*
X6718700Y-11419500D01*
G75*
G02*
X6743700Y-11444500I0J-25000D01*
G01*
X6743700Y-11534500D01*
G75*
G02*
X6718700Y-11559500I-25000J0D01*
G01*
X6653700Y-11559500D01*
G75*
G02*
X6628700Y-11534500I0J25000D01*
G01*
G37*
G36*
G01*
X6423700Y-11534500D02*
X6423700Y-11444500D01*
G75*
G02*
X6448700Y-11419500I25000J0D01*
G01*
X6513700Y-11419500D01*
G75*
G02*
X6538700Y-11444500I0J-25000D01*
G01*
X6538700Y-11534500D01*
G75*
G02*
X6513700Y-11559500I-25000J0D01*
G01*
X6448700Y-11559500D01*
G75*
G02*
X6423700Y-11534500I0J25000D01*
G01*
G37*
G04 #@! TD*
G04 #@! TO.C,R24*
G36*
G01*
X6063300Y-13337300D02*
X6063300Y-13247300D01*
G75*
G02*
X6088300Y-13222300I25000J0D01*
G01*
X6153300Y-13222300D01*
G75*
G02*
X6178300Y-13247300I0J-25000D01*
G01*
X6178300Y-13337300D01*
G75*
G02*
X6153300Y-13362300I-25000J0D01*
G01*
X6088300Y-13362300D01*
G75*
G02*
X6063300Y-13337300I0J25000D01*
G01*
G37*
G36*
G01*
X5858300Y-13337300D02*
X5858300Y-13247300D01*
G75*
G02*
X5883300Y-13222300I25000J0D01*
G01*
X5948300Y-13222300D01*
G75*
G02*
X5973300Y-13247300I0J-25000D01*
G01*
X5973300Y-13337300D01*
G75*
G02*
X5948300Y-13362300I-25000J0D01*
G01*
X5883300Y-13362300D01*
G75*
G02*
X5858300Y-13337300I0J25000D01*
G01*
G37*
G04 #@! TD*
G04 #@! TO.C,R23*
G36*
G01*
X6626900Y-11862500D02*
X6626900Y-11772500D01*
G75*
G02*
X6651900Y-11747500I25000J0D01*
G01*
X6716900Y-11747500D01*
G75*
G02*
X6741900Y-11772500I0J-25000D01*
G01*
X6741900Y-11862500D01*
G75*
G02*
X6716900Y-11887500I-25000J0D01*
G01*
X6651900Y-11887500D01*
G75*
G02*
X6626900Y-11862500I0J25000D01*
G01*
G37*
G36*
G01*
X6421900Y-11862500D02*
X6421900Y-11772500D01*
G75*
G02*
X6446900Y-11747500I25000J0D01*
G01*
X6511900Y-11747500D01*
G75*
G02*
X6536900Y-11772500I0J-25000D01*
G01*
X6536900Y-11862500D01*
G75*
G02*
X6511900Y-11887500I-25000J0D01*
G01*
X6446900Y-11887500D01*
G75*
G02*
X6421900Y-11862500I0J25000D01*
G01*
G37*
G04 #@! TD*
G04 #@! TO.C,R22*
G36*
G01*
X6063300Y-12534500D02*
X6063300Y-12444500D01*
G75*
G02*
X6088300Y-12419500I25000J0D01*
G01*
X6153300Y-12419500D01*
G75*
G02*
X6178300Y-12444500I0J-25000D01*
G01*
X6178300Y-12534500D01*
G75*
G02*
X6153300Y-12559500I-25000J0D01*
G01*
X6088300Y-12559500D01*
G75*
G02*
X6063300Y-12534500I0J25000D01*
G01*
G37*
G36*
G01*
X5858300Y-12534500D02*
X5858300Y-12444500D01*
G75*
G02*
X5883300Y-12419500I25000J0D01*
G01*
X5948300Y-12419500D01*
G75*
G02*
X5973300Y-12444500I0J-25000D01*
G01*
X5973300Y-12534500D01*
G75*
G02*
X5948300Y-12559500I-25000J0D01*
G01*
X5883300Y-12559500D01*
G75*
G02*
X5858300Y-12534500I0J25000D01*
G01*
G37*
G04 #@! TD*
G04 #@! TO.C,R21*
G36*
G01*
X6628700Y-12130500D02*
X6628700Y-12040500D01*
G75*
G02*
X6653700Y-12015500I25000J0D01*
G01*
X6718700Y-12015500D01*
G75*
G02*
X6743700Y-12040500I0J-25000D01*
G01*
X6743700Y-12130500D01*
G75*
G02*
X6718700Y-12155500I-25000J0D01*
G01*
X6653700Y-12155500D01*
G75*
G02*
X6628700Y-12130500I0J25000D01*
G01*
G37*
G36*
G01*
X6423700Y-12130500D02*
X6423700Y-12040500D01*
G75*
G02*
X6448700Y-12015500I25000J0D01*
G01*
X6513700Y-12015500D01*
G75*
G02*
X6538700Y-12040500I0J-25000D01*
G01*
X6538700Y-12130500D01*
G75*
G02*
X6513700Y-12155500I-25000J0D01*
G01*
X6448700Y-12155500D01*
G75*
G02*
X6423700Y-12130500I0J25000D01*
G01*
G37*
G04 #@! TD*
G04 #@! TO.C,R20*
G36*
G01*
X6924500Y-10908000D02*
X6924500Y-10998000D01*
G75*
G02*
X6899500Y-11023000I-25000J0D01*
G01*
X6834500Y-11023000D01*
G75*
G02*
X6809500Y-10998000I0J25000D01*
G01*
X6809500Y-10908000D01*
G75*
G02*
X6834500Y-10883000I25000J0D01*
G01*
X6899500Y-10883000D01*
G75*
G02*
X6924500Y-10908000I0J-25000D01*
G01*
G37*
G36*
G01*
X7129500Y-10908000D02*
X7129500Y-10998000D01*
G75*
G02*
X7104500Y-11023000I-25000J0D01*
G01*
X7039500Y-11023000D01*
G75*
G02*
X7014500Y-10998000I0J25000D01*
G01*
X7014500Y-10908000D01*
G75*
G02*
X7039500Y-10883000I25000J0D01*
G01*
X7104500Y-10883000D01*
G75*
G02*
X7129500Y-10908000I0J-25000D01*
G01*
G37*
G04 #@! TD*
G04 #@! TO.C,R18*
G36*
G01*
X5973300Y-11944500D02*
X5973300Y-12034500D01*
G75*
G02*
X5948300Y-12059500I-25000J0D01*
G01*
X5883300Y-12059500D01*
G75*
G02*
X5858300Y-12034500I0J25000D01*
G01*
X5858300Y-11944500D01*
G75*
G02*
X5883300Y-11919500I25000J0D01*
G01*
X5948300Y-11919500D01*
G75*
G02*
X5973300Y-11944500I0J-25000D01*
G01*
G37*
G36*
G01*
X6178300Y-11944500D02*
X6178300Y-12034500D01*
G75*
G02*
X6153300Y-12059500I-25000J0D01*
G01*
X6088300Y-12059500D01*
G75*
G02*
X6063300Y-12034500I0J25000D01*
G01*
X6063300Y-11944500D01*
G75*
G02*
X6088300Y-11919500I25000J0D01*
G01*
X6153300Y-11919500D01*
G75*
G02*
X6178300Y-11944500I0J-25000D01*
G01*
G37*
G04 #@! TD*
G04 #@! TO.C,R17*
G36*
G01*
X6063300Y-12284500D02*
X6063300Y-12194500D01*
G75*
G02*
X6088300Y-12169500I25000J0D01*
G01*
X6153300Y-12169500D01*
G75*
G02*
X6178300Y-12194500I0J-25000D01*
G01*
X6178300Y-12284500D01*
G75*
G02*
X6153300Y-12309500I-25000J0D01*
G01*
X6088300Y-12309500D01*
G75*
G02*
X6063300Y-12284500I0J25000D01*
G01*
G37*
G36*
G01*
X5858300Y-12284500D02*
X5858300Y-12194500D01*
G75*
G02*
X5883300Y-12169500I25000J0D01*
G01*
X5948300Y-12169500D01*
G75*
G02*
X5973300Y-12194500I0J-25000D01*
G01*
X5973300Y-12284500D01*
G75*
G02*
X5948300Y-12309500I-25000J0D01*
G01*
X5883300Y-12309500D01*
G75*
G02*
X5858300Y-12284500I0J25000D01*
G01*
G37*
G04 #@! TD*
G04 #@! TO.C,C16*
G36*
G01*
X13155000Y-11677500D02*
X13245000Y-11677500D01*
G75*
G02*
X13270000Y-11702500I0J-25000D01*
G01*
X13270000Y-11767500D01*
G75*
G02*
X13245000Y-11792500I-25000J0D01*
G01*
X13155000Y-11792500D01*
G75*
G02*
X13130000Y-11767500I0J25000D01*
G01*
X13130000Y-11702500D01*
G75*
G02*
X13155000Y-11677500I25000J0D01*
G01*
G37*
G36*
G01*
X13155000Y-11472500D02*
X13245000Y-11472500D01*
G75*
G02*
X13270000Y-11497500I0J-25000D01*
G01*
X13270000Y-11562500D01*
G75*
G02*
X13245000Y-11587500I-25000J0D01*
G01*
X13155000Y-11587500D01*
G75*
G02*
X13130000Y-11562500I0J25000D01*
G01*
X13130000Y-11497500D01*
G75*
G02*
X13155000Y-11472500I25000J0D01*
G01*
G37*
G04 #@! TD*
G04 #@! TO.C,C15*
G36*
G01*
X13245000Y-10972500D02*
X13155000Y-10972500D01*
G75*
G02*
X13130000Y-10947500I0J25000D01*
G01*
X13130000Y-10882500D01*
G75*
G02*
X13155000Y-10857500I25000J0D01*
G01*
X13245000Y-10857500D01*
G75*
G02*
X13270000Y-10882500I0J-25000D01*
G01*
X13270000Y-10947500D01*
G75*
G02*
X13245000Y-10972500I-25000J0D01*
G01*
G37*
G36*
G01*
X13245000Y-11177500D02*
X13155000Y-11177500D01*
G75*
G02*
X13130000Y-11152500I0J25000D01*
G01*
X13130000Y-11087500D01*
G75*
G02*
X13155000Y-11062500I25000J0D01*
G01*
X13245000Y-11062500D01*
G75*
G02*
X13270000Y-11087500I0J-25000D01*
G01*
X13270000Y-11152500D01*
G75*
G02*
X13245000Y-11177500I-25000J0D01*
G01*
G37*
G04 #@! TD*
G04 #@! TO.C,R19*
G36*
G01*
X10991000Y-8655500D02*
X10901000Y-8655500D01*
G75*
G02*
X10876000Y-8630500I0J25000D01*
G01*
X10876000Y-8565500D01*
G75*
G02*
X10901000Y-8540500I25000J0D01*
G01*
X10991000Y-8540500D01*
G75*
G02*
X11016000Y-8565500I0J-25000D01*
G01*
X11016000Y-8630500D01*
G75*
G02*
X10991000Y-8655500I-25000J0D01*
G01*
G37*
G36*
G01*
X10991000Y-8860500D02*
X10901000Y-8860500D01*
G75*
G02*
X10876000Y-8835500I0J25000D01*
G01*
X10876000Y-8770500D01*
G75*
G02*
X10901000Y-8745500I25000J0D01*
G01*
X10991000Y-8745500D01*
G75*
G02*
X11016000Y-8770500I0J-25000D01*
G01*
X11016000Y-8835500D01*
G75*
G02*
X10991000Y-8860500I-25000J0D01*
G01*
G37*
G04 #@! TD*
G04 #@! TO.C,R15*
G36*
G01*
X9594400Y-10479800D02*
X9504400Y-10479800D01*
G75*
G02*
X9479400Y-10454800I0J25000D01*
G01*
X9479400Y-10389800D01*
G75*
G02*
X9504400Y-10364800I25000J0D01*
G01*
X9594400Y-10364800D01*
G75*
G02*
X9619400Y-10389800I0J-25000D01*
G01*
X9619400Y-10454800D01*
G75*
G02*
X9594400Y-10479800I-25000J0D01*
G01*
G37*
G36*
G01*
X9594400Y-10684800D02*
X9504400Y-10684800D01*
G75*
G02*
X9479400Y-10659800I0J25000D01*
G01*
X9479400Y-10594800D01*
G75*
G02*
X9504400Y-10569800I25000J0D01*
G01*
X9594400Y-10569800D01*
G75*
G02*
X9619400Y-10594800I0J-25000D01*
G01*
X9619400Y-10659800D01*
G75*
G02*
X9594400Y-10684800I-25000J0D01*
G01*
G37*
G04 #@! TD*
G04 #@! TO.C,R12*
G36*
G01*
X13349900Y-6315800D02*
X13349900Y-6405800D01*
G75*
G02*
X13324900Y-6430800I-25000J0D01*
G01*
X13259900Y-6430800D01*
G75*
G02*
X13234900Y-6405800I0J25000D01*
G01*
X13234900Y-6315800D01*
G75*
G02*
X13259900Y-6290800I25000J0D01*
G01*
X13324900Y-6290800D01*
G75*
G02*
X13349900Y-6315800I0J-25000D01*
G01*
G37*
G36*
G01*
X13554900Y-6315800D02*
X13554900Y-6405800D01*
G75*
G02*
X13529900Y-6430800I-25000J0D01*
G01*
X13464900Y-6430800D01*
G75*
G02*
X13439900Y-6405800I0J25000D01*
G01*
X13439900Y-6315800D01*
G75*
G02*
X13464900Y-6290800I25000J0D01*
G01*
X13529900Y-6290800D01*
G75*
G02*
X13554900Y-6315800I0J-25000D01*
G01*
G37*
G04 #@! TD*
G04 #@! TO.C,R11*
G36*
G01*
X13349900Y-6976200D02*
X13349900Y-7066200D01*
G75*
G02*
X13324900Y-7091200I-25000J0D01*
G01*
X13259900Y-7091200D01*
G75*
G02*
X13234900Y-7066200I0J25000D01*
G01*
X13234900Y-6976200D01*
G75*
G02*
X13259900Y-6951200I25000J0D01*
G01*
X13324900Y-6951200D01*
G75*
G02*
X13349900Y-6976200I0J-25000D01*
G01*
G37*
G36*
G01*
X13554900Y-6976200D02*
X13554900Y-7066200D01*
G75*
G02*
X13529900Y-7091200I-25000J0D01*
G01*
X13464900Y-7091200D01*
G75*
G02*
X13439900Y-7066200I0J25000D01*
G01*
X13439900Y-6976200D01*
G75*
G02*
X13464900Y-6951200I25000J0D01*
G01*
X13529900Y-6951200D01*
G75*
G02*
X13554900Y-6976200I0J-25000D01*
G01*
G37*
G04 #@! TD*
G04 #@! TO.C,R10*
G36*
G01*
X13349900Y-7636600D02*
X13349900Y-7726600D01*
G75*
G02*
X13324900Y-7751600I-25000J0D01*
G01*
X13259900Y-7751600D01*
G75*
G02*
X13234900Y-7726600I0J25000D01*
G01*
X13234900Y-7636600D01*
G75*
G02*
X13259900Y-7611600I25000J0D01*
G01*
X13324900Y-7611600D01*
G75*
G02*
X13349900Y-7636600I0J-25000D01*
G01*
G37*
G36*
G01*
X13554900Y-7636600D02*
X13554900Y-7726600D01*
G75*
G02*
X13529900Y-7751600I-25000J0D01*
G01*
X13464900Y-7751600D01*
G75*
G02*
X13439900Y-7726600I0J25000D01*
G01*
X13439900Y-7636600D01*
G75*
G02*
X13464900Y-7611600I25000J0D01*
G01*
X13529900Y-7611600D01*
G75*
G02*
X13554900Y-7636600I0J-25000D01*
G01*
G37*
G04 #@! TD*
G04 #@! TO.C,R9*
G36*
G01*
X13349900Y-8297000D02*
X13349900Y-8387000D01*
G75*
G02*
X13324900Y-8412000I-25000J0D01*
G01*
X13259900Y-8412000D01*
G75*
G02*
X13234900Y-8387000I0J25000D01*
G01*
X13234900Y-8297000D01*
G75*
G02*
X13259900Y-8272000I25000J0D01*
G01*
X13324900Y-8272000D01*
G75*
G02*
X13349900Y-8297000I0J-25000D01*
G01*
G37*
G36*
G01*
X13554900Y-8297000D02*
X13554900Y-8387000D01*
G75*
G02*
X13529900Y-8412000I-25000J0D01*
G01*
X13464900Y-8412000D01*
G75*
G02*
X13439900Y-8387000I0J25000D01*
G01*
X13439900Y-8297000D01*
G75*
G02*
X13464900Y-8272000I25000J0D01*
G01*
X13529900Y-8272000D01*
G75*
G02*
X13554900Y-8297000I0J-25000D01*
G01*
G37*
G04 #@! TD*
G04 #@! TO.C,R8*
G36*
G01*
X9896400Y-7883100D02*
X9986400Y-7883100D01*
G75*
G02*
X10011400Y-7908100I0J-25000D01*
G01*
X10011400Y-7973100D01*
G75*
G02*
X9986400Y-7998100I-25000J0D01*
G01*
X9896400Y-7998100D01*
G75*
G02*
X9871400Y-7973100I0J25000D01*
G01*
X9871400Y-7908100D01*
G75*
G02*
X9896400Y-7883100I25000J0D01*
G01*
G37*
G36*
G01*
X9896400Y-7678100D02*
X9986400Y-7678100D01*
G75*
G02*
X10011400Y-7703100I0J-25000D01*
G01*
X10011400Y-7768100D01*
G75*
G02*
X9986400Y-7793100I-25000J0D01*
G01*
X9896400Y-7793100D01*
G75*
G02*
X9871400Y-7768100I0J25000D01*
G01*
X9871400Y-7703100D01*
G75*
G02*
X9896400Y-7678100I25000J0D01*
G01*
G37*
G04 #@! TD*
G04 #@! TO.C,R7*
G36*
G01*
X10404400Y-7883100D02*
X10494400Y-7883100D01*
G75*
G02*
X10519400Y-7908100I0J-25000D01*
G01*
X10519400Y-7973100D01*
G75*
G02*
X10494400Y-7998100I-25000J0D01*
G01*
X10404400Y-7998100D01*
G75*
G02*
X10379400Y-7973100I0J25000D01*
G01*
X10379400Y-7908100D01*
G75*
G02*
X10404400Y-7883100I25000J0D01*
G01*
G37*
G36*
G01*
X10404400Y-7678100D02*
X10494400Y-7678100D01*
G75*
G02*
X10519400Y-7703100I0J-25000D01*
G01*
X10519400Y-7768100D01*
G75*
G02*
X10494400Y-7793100I-25000J0D01*
G01*
X10404400Y-7793100D01*
G75*
G02*
X10379400Y-7768100I0J25000D01*
G01*
X10379400Y-7703100D01*
G75*
G02*
X10404400Y-7678100I25000J0D01*
G01*
G37*
G04 #@! TD*
G04 #@! TO.C,R6*
G36*
G01*
X10658400Y-7883100D02*
X10748400Y-7883100D01*
G75*
G02*
X10773400Y-7908100I0J-25000D01*
G01*
X10773400Y-7973100D01*
G75*
G02*
X10748400Y-7998100I-25000J0D01*
G01*
X10658400Y-7998100D01*
G75*
G02*
X10633400Y-7973100I0J25000D01*
G01*
X10633400Y-7908100D01*
G75*
G02*
X10658400Y-7883100I25000J0D01*
G01*
G37*
G36*
G01*
X10658400Y-7678100D02*
X10748400Y-7678100D01*
G75*
G02*
X10773400Y-7703100I0J-25000D01*
G01*
X10773400Y-7768100D01*
G75*
G02*
X10748400Y-7793100I-25000J0D01*
G01*
X10658400Y-7793100D01*
G75*
G02*
X10633400Y-7768100I0J25000D01*
G01*
X10633400Y-7703100D01*
G75*
G02*
X10658400Y-7678100I25000J0D01*
G01*
G37*
G04 #@! TD*
G04 #@! TO.C,R5*
G36*
G01*
X9388400Y-7883100D02*
X9478400Y-7883100D01*
G75*
G02*
X9503400Y-7908100I0J-25000D01*
G01*
X9503400Y-7973100D01*
G75*
G02*
X9478400Y-7998100I-25000J0D01*
G01*
X9388400Y-7998100D01*
G75*
G02*
X9363400Y-7973100I0J25000D01*
G01*
X9363400Y-7908100D01*
G75*
G02*
X9388400Y-7883100I25000J0D01*
G01*
G37*
G36*
G01*
X9388400Y-7678100D02*
X9478400Y-7678100D01*
G75*
G02*
X9503400Y-7703100I0J-25000D01*
G01*
X9503400Y-7768100D01*
G75*
G02*
X9478400Y-7793100I-25000J0D01*
G01*
X9388400Y-7793100D01*
G75*
G02*
X9363400Y-7768100I0J25000D01*
G01*
X9363400Y-7703100D01*
G75*
G02*
X9388400Y-7678100I25000J0D01*
G01*
G37*
G04 #@! TD*
G04 #@! TO.C,R4*
G36*
G01*
X9642400Y-7883100D02*
X9732400Y-7883100D01*
G75*
G02*
X9757400Y-7908100I0J-25000D01*
G01*
X9757400Y-7973100D01*
G75*
G02*
X9732400Y-7998100I-25000J0D01*
G01*
X9642400Y-7998100D01*
G75*
G02*
X9617400Y-7973100I0J25000D01*
G01*
X9617400Y-7908100D01*
G75*
G02*
X9642400Y-7883100I25000J0D01*
G01*
G37*
G36*
G01*
X9642400Y-7678100D02*
X9732400Y-7678100D01*
G75*
G02*
X9757400Y-7703100I0J-25000D01*
G01*
X9757400Y-7768100D01*
G75*
G02*
X9732400Y-7793100I-25000J0D01*
G01*
X9642400Y-7793100D01*
G75*
G02*
X9617400Y-7768100I0J25000D01*
G01*
X9617400Y-7703100D01*
G75*
G02*
X9642400Y-7678100I25000J0D01*
G01*
G37*
G04 #@! TD*
G04 #@! TO.C,R3*
G36*
G01*
X10150400Y-7883100D02*
X10240400Y-7883100D01*
G75*
G02*
X10265400Y-7908100I0J-25000D01*
G01*
X10265400Y-7973100D01*
G75*
G02*
X10240400Y-7998100I-25000J0D01*
G01*
X10150400Y-7998100D01*
G75*
G02*
X10125400Y-7973100I0J25000D01*
G01*
X10125400Y-7908100D01*
G75*
G02*
X10150400Y-7883100I25000J0D01*
G01*
G37*
G36*
G01*
X10150400Y-7678100D02*
X10240400Y-7678100D01*
G75*
G02*
X10265400Y-7703100I0J-25000D01*
G01*
X10265400Y-7768100D01*
G75*
G02*
X10240400Y-7793100I-25000J0D01*
G01*
X10150400Y-7793100D01*
G75*
G02*
X10125400Y-7768100I0J25000D01*
G01*
X10125400Y-7703100D01*
G75*
G02*
X10150400Y-7678100I25000J0D01*
G01*
G37*
G04 #@! TD*
G04 #@! TO.C,R2*
G36*
G01*
X10912400Y-7883100D02*
X11002400Y-7883100D01*
G75*
G02*
X11027400Y-7908100I0J-25000D01*
G01*
X11027400Y-7973100D01*
G75*
G02*
X11002400Y-7998100I-25000J0D01*
G01*
X10912400Y-7998100D01*
G75*
G02*
X10887400Y-7973100I0J25000D01*
G01*
X10887400Y-7908100D01*
G75*
G02*
X10912400Y-7883100I25000J0D01*
G01*
G37*
G36*
G01*
X10912400Y-7678100D02*
X11002400Y-7678100D01*
G75*
G02*
X11027400Y-7703100I0J-25000D01*
G01*
X11027400Y-7768100D01*
G75*
G02*
X11002400Y-7793100I-25000J0D01*
G01*
X10912400Y-7793100D01*
G75*
G02*
X10887400Y-7768100I0J25000D01*
G01*
X10887400Y-7703100D01*
G75*
G02*
X10912400Y-7678100I25000J0D01*
G01*
G37*
G04 #@! TD*
G04 #@! TO.C,R1*
G36*
G01*
X9134400Y-7883100D02*
X9224400Y-7883100D01*
G75*
G02*
X9249400Y-7908100I0J-25000D01*
G01*
X9249400Y-7973100D01*
G75*
G02*
X9224400Y-7998100I-25000J0D01*
G01*
X9134400Y-7998100D01*
G75*
G02*
X9109400Y-7973100I0J25000D01*
G01*
X9109400Y-7908100D01*
G75*
G02*
X9134400Y-7883100I25000J0D01*
G01*
G37*
G36*
G01*
X9134400Y-7678100D02*
X9224400Y-7678100D01*
G75*
G02*
X9249400Y-7703100I0J-25000D01*
G01*
X9249400Y-7768100D01*
G75*
G02*
X9224400Y-7793100I-25000J0D01*
G01*
X9134400Y-7793100D01*
G75*
G02*
X9109400Y-7768100I0J25000D01*
G01*
X9109400Y-7703100D01*
G75*
G02*
X9134400Y-7678100I25000J0D01*
G01*
G37*
G04 #@! TD*
G04 #@! TO.C,C14*
G36*
G01*
X14100300Y-13621000D02*
X14100300Y-13531000D01*
G75*
G02*
X14125300Y-13506000I25000J0D01*
G01*
X14190300Y-13506000D01*
G75*
G02*
X14215300Y-13531000I0J-25000D01*
G01*
X14215300Y-13621000D01*
G75*
G02*
X14190300Y-13646000I-25000J0D01*
G01*
X14125300Y-13646000D01*
G75*
G02*
X14100300Y-13621000I0J25000D01*
G01*
G37*
G36*
G01*
X13895300Y-13621000D02*
X13895300Y-13531000D01*
G75*
G02*
X13920300Y-13506000I25000J0D01*
G01*
X13985300Y-13506000D01*
G75*
G02*
X14010300Y-13531000I0J-25000D01*
G01*
X14010300Y-13621000D01*
G75*
G02*
X13985300Y-13646000I-25000J0D01*
G01*
X13920300Y-13646000D01*
G75*
G02*
X13895300Y-13621000I0J25000D01*
G01*
G37*
G04 #@! TD*
G04 #@! TO.C,C13*
G36*
G01*
X14100000Y-13417800D02*
X14100000Y-13327800D01*
G75*
G02*
X14125000Y-13302800I25000J0D01*
G01*
X14190000Y-13302800D01*
G75*
G02*
X14215000Y-13327800I0J-25000D01*
G01*
X14215000Y-13417800D01*
G75*
G02*
X14190000Y-13442800I-25000J0D01*
G01*
X14125000Y-13442800D01*
G75*
G02*
X14100000Y-13417800I0J25000D01*
G01*
G37*
G36*
G01*
X13895000Y-13417800D02*
X13895000Y-13327800D01*
G75*
G02*
X13920000Y-13302800I25000J0D01*
G01*
X13985000Y-13302800D01*
G75*
G02*
X14010000Y-13327800I0J-25000D01*
G01*
X14010000Y-13417800D01*
G75*
G02*
X13985000Y-13442800I-25000J0D01*
G01*
X13920000Y-13442800D01*
G75*
G02*
X13895000Y-13417800I0J25000D01*
G01*
G37*
G04 #@! TD*
G04 #@! TO.C,C12*
G36*
G01*
X14095000Y-12984600D02*
X14095000Y-12894600D01*
G75*
G02*
X14120000Y-12869600I25000J0D01*
G01*
X14185000Y-12869600D01*
G75*
G02*
X14210000Y-12894600I0J-25000D01*
G01*
X14210000Y-12984600D01*
G75*
G02*
X14185000Y-13009600I-25000J0D01*
G01*
X14120000Y-13009600D01*
G75*
G02*
X14095000Y-12984600I0J25000D01*
G01*
G37*
G36*
G01*
X13890000Y-12984600D02*
X13890000Y-12894600D01*
G75*
G02*
X13915000Y-12869600I25000J0D01*
G01*
X13980000Y-12869600D01*
G75*
G02*
X14005000Y-12894600I0J-25000D01*
G01*
X14005000Y-12984600D01*
G75*
G02*
X13980000Y-13009600I-25000J0D01*
G01*
X13915000Y-13009600D01*
G75*
G02*
X13890000Y-12984600I0J25000D01*
G01*
G37*
G04 #@! TD*
G04 #@! TO.C,C11*
G36*
G01*
X14095000Y-13187800D02*
X14095000Y-13097800D01*
G75*
G02*
X14120000Y-13072800I25000J0D01*
G01*
X14185000Y-13072800D01*
G75*
G02*
X14210000Y-13097800I0J-25000D01*
G01*
X14210000Y-13187800D01*
G75*
G02*
X14185000Y-13212800I-25000J0D01*
G01*
X14120000Y-13212800D01*
G75*
G02*
X14095000Y-13187800I0J25000D01*
G01*
G37*
G36*
G01*
X13890000Y-13187800D02*
X13890000Y-13097800D01*
G75*
G02*
X13915000Y-13072800I25000J0D01*
G01*
X13980000Y-13072800D01*
G75*
G02*
X14005000Y-13097800I0J-25000D01*
G01*
X14005000Y-13187800D01*
G75*
G02*
X13980000Y-13212800I-25000J0D01*
G01*
X13915000Y-13212800D01*
G75*
G02*
X13890000Y-13187800I0J25000D01*
G01*
G37*
G04 #@! TD*
G04 #@! TO.C,C10*
G36*
G01*
X5973300Y-12993300D02*
X5973300Y-13083300D01*
G75*
G02*
X5948300Y-13108300I-25000J0D01*
G01*
X5883300Y-13108300D01*
G75*
G02*
X5858300Y-13083300I0J25000D01*
G01*
X5858300Y-12993300D01*
G75*
G02*
X5883300Y-12968300I25000J0D01*
G01*
X5948300Y-12968300D01*
G75*
G02*
X5973300Y-12993300I0J-25000D01*
G01*
G37*
G36*
G01*
X6178300Y-12993300D02*
X6178300Y-13083300D01*
G75*
G02*
X6153300Y-13108300I-25000J0D01*
G01*
X6088300Y-13108300D01*
G75*
G02*
X6063300Y-13083300I0J25000D01*
G01*
X6063300Y-12993300D01*
G75*
G02*
X6088300Y-12968300I25000J0D01*
G01*
X6153300Y-12968300D01*
G75*
G02*
X6178300Y-12993300I0J-25000D01*
G01*
G37*
G04 #@! TD*
G04 #@! TO.C,C9*
G36*
G01*
X5973300Y-12744500D02*
X5973300Y-12834500D01*
G75*
G02*
X5948300Y-12859500I-25000J0D01*
G01*
X5883300Y-12859500D01*
G75*
G02*
X5858300Y-12834500I0J25000D01*
G01*
X5858300Y-12744500D01*
G75*
G02*
X5883300Y-12719500I25000J0D01*
G01*
X5948300Y-12719500D01*
G75*
G02*
X5973300Y-12744500I0J-25000D01*
G01*
G37*
G36*
G01*
X6178300Y-12744500D02*
X6178300Y-12834500D01*
G75*
G02*
X6153300Y-12859500I-25000J0D01*
G01*
X6088300Y-12859500D01*
G75*
G02*
X6063300Y-12834500I0J25000D01*
G01*
X6063300Y-12744500D01*
G75*
G02*
X6088300Y-12719500I25000J0D01*
G01*
X6153300Y-12719500D01*
G75*
G02*
X6178300Y-12744500I0J-25000D01*
G01*
G37*
G04 #@! TD*
G04 #@! TO.C,C8*
G36*
G01*
X9809200Y-9808700D02*
X9899200Y-9808700D01*
G75*
G02*
X9924200Y-9833700I0J-25000D01*
G01*
X9924200Y-9898700D01*
G75*
G02*
X9899200Y-9923700I-25000J0D01*
G01*
X9809200Y-9923700D01*
G75*
G02*
X9784200Y-9898700I0J25000D01*
G01*
X9784200Y-9833700D01*
G75*
G02*
X9809200Y-9808700I25000J0D01*
G01*
G37*
G36*
G01*
X9809200Y-9603700D02*
X9899200Y-9603700D01*
G75*
G02*
X9924200Y-9628700I0J-25000D01*
G01*
X9924200Y-9693700D01*
G75*
G02*
X9899200Y-9718700I-25000J0D01*
G01*
X9809200Y-9718700D01*
G75*
G02*
X9784200Y-9693700I0J25000D01*
G01*
X9784200Y-9628700D01*
G75*
G02*
X9809200Y-9603700I25000J0D01*
G01*
G37*
G04 #@! TD*
G04 #@! TO.C,C7*
G36*
G01*
X9899200Y-9159000D02*
X9809200Y-9159000D01*
G75*
G02*
X9784200Y-9134000I0J25000D01*
G01*
X9784200Y-9069000D01*
G75*
G02*
X9809200Y-9044000I25000J0D01*
G01*
X9899200Y-9044000D01*
G75*
G02*
X9924200Y-9069000I0J-25000D01*
G01*
X9924200Y-9134000D01*
G75*
G02*
X9899200Y-9159000I-25000J0D01*
G01*
G37*
G36*
G01*
X9899200Y-9364000D02*
X9809200Y-9364000D01*
G75*
G02*
X9784200Y-9339000I0J25000D01*
G01*
X9784200Y-9274000D01*
G75*
G02*
X9809200Y-9249000I25000J0D01*
G01*
X9899200Y-9249000D01*
G75*
G02*
X9924200Y-9274000I0J-25000D01*
G01*
X9924200Y-9339000D01*
G75*
G02*
X9899200Y-9364000I-25000J0D01*
G01*
G37*
G04 #@! TD*
G04 #@! TO.C,C6*
G36*
G01*
X9809200Y-10569800D02*
X9899200Y-10569800D01*
G75*
G02*
X9924200Y-10594800I0J-25000D01*
G01*
X9924200Y-10659800D01*
G75*
G02*
X9899200Y-10684800I-25000J0D01*
G01*
X9809200Y-10684800D01*
G75*
G02*
X9784200Y-10659800I0J25000D01*
G01*
X9784200Y-10594800D01*
G75*
G02*
X9809200Y-10569800I25000J0D01*
G01*
G37*
G36*
G01*
X9809200Y-10364800D02*
X9899200Y-10364800D01*
G75*
G02*
X9924200Y-10389800I0J-25000D01*
G01*
X9924200Y-10454800D01*
G75*
G02*
X9899200Y-10479800I-25000J0D01*
G01*
X9809200Y-10479800D01*
G75*
G02*
X9784200Y-10454800I0J25000D01*
G01*
X9784200Y-10389800D01*
G75*
G02*
X9809200Y-10364800I25000J0D01*
G01*
G37*
G04 #@! TD*
G04 #@! TO.C,C5*
G36*
G01*
X10155000Y-10469100D02*
X10245000Y-10469100D01*
G75*
G02*
X10270000Y-10494100I0J-25000D01*
G01*
X10270000Y-10559100D01*
G75*
G02*
X10245000Y-10584100I-25000J0D01*
G01*
X10155000Y-10584100D01*
G75*
G02*
X10130000Y-10559100I0J25000D01*
G01*
X10130000Y-10494100D01*
G75*
G02*
X10155000Y-10469100I25000J0D01*
G01*
G37*
G36*
G01*
X10155000Y-10264100D02*
X10245000Y-10264100D01*
G75*
G02*
X10270000Y-10289100I0J-25000D01*
G01*
X10270000Y-10354100D01*
G75*
G02*
X10245000Y-10379100I-25000J0D01*
G01*
X10155000Y-10379100D01*
G75*
G02*
X10130000Y-10354100I0J25000D01*
G01*
X10130000Y-10289100D01*
G75*
G02*
X10155000Y-10264100I25000J0D01*
G01*
G37*
G04 #@! TD*
G04 #@! TO.C,C4*
G36*
G01*
X10248000Y-9860500D02*
X10158000Y-9860500D01*
G75*
G02*
X10133000Y-9835500I0J25000D01*
G01*
X10133000Y-9770500D01*
G75*
G02*
X10158000Y-9745500I25000J0D01*
G01*
X10248000Y-9745500D01*
G75*
G02*
X10273000Y-9770500I0J-25000D01*
G01*
X10273000Y-9835500D01*
G75*
G02*
X10248000Y-9860500I-25000J0D01*
G01*
G37*
G36*
G01*
X10248000Y-10065500D02*
X10158000Y-10065500D01*
G75*
G02*
X10133000Y-10040500I0J25000D01*
G01*
X10133000Y-9975500D01*
G75*
G02*
X10158000Y-9950500I25000J0D01*
G01*
X10248000Y-9950500D01*
G75*
G02*
X10273000Y-9975500I0J-25000D01*
G01*
X10273000Y-10040500D01*
G75*
G02*
X10248000Y-10065500I-25000J0D01*
G01*
G37*
G04 #@! TD*
G04 #@! TO.C,C3*
G36*
G01*
X10640000Y-8667500D02*
X10550000Y-8667500D01*
G75*
G02*
X10525000Y-8642500I0J25000D01*
G01*
X10525000Y-8577500D01*
G75*
G02*
X10550000Y-8552500I25000J0D01*
G01*
X10640000Y-8552500D01*
G75*
G02*
X10665000Y-8577500I0J-25000D01*
G01*
X10665000Y-8642500D01*
G75*
G02*
X10640000Y-8667500I-25000J0D01*
G01*
G37*
G36*
G01*
X10640000Y-8872500D02*
X10550000Y-8872500D01*
G75*
G02*
X10525000Y-8847500I0J25000D01*
G01*
X10525000Y-8782500D01*
G75*
G02*
X10550000Y-8757500I25000J0D01*
G01*
X10640000Y-8757500D01*
G75*
G02*
X10665000Y-8782500I0J-25000D01*
G01*
X10665000Y-8847500D01*
G75*
G02*
X10640000Y-8872500I-25000J0D01*
G01*
G37*
G04 #@! TD*
G04 #@! TO.C,C2*
G36*
G01*
X11741500Y-9446000D02*
X11741500Y-9356000D01*
G75*
G02*
X11766500Y-9331000I25000J0D01*
G01*
X11831500Y-9331000D01*
G75*
G02*
X11856500Y-9356000I0J-25000D01*
G01*
X11856500Y-9446000D01*
G75*
G02*
X11831500Y-9471000I-25000J0D01*
G01*
X11766500Y-9471000D01*
G75*
G02*
X11741500Y-9446000I0J25000D01*
G01*
G37*
G36*
G01*
X11536500Y-9446000D02*
X11536500Y-9356000D01*
G75*
G02*
X11561500Y-9331000I25000J0D01*
G01*
X11626500Y-9331000D01*
G75*
G02*
X11651500Y-9356000I0J-25000D01*
G01*
X11651500Y-9446000D01*
G75*
G02*
X11626500Y-9471000I-25000J0D01*
G01*
X11561500Y-9471000D01*
G75*
G02*
X11536500Y-9446000I0J25000D01*
G01*
G37*
G04 #@! TD*
G04 #@! TO.C,C1*
G36*
G01*
X11355000Y-10547500D02*
X11445000Y-10547500D01*
G75*
G02*
X11470000Y-10572500I0J-25000D01*
G01*
X11470000Y-10637500D01*
G75*
G02*
X11445000Y-10662500I-25000J0D01*
G01*
X11355000Y-10662500D01*
G75*
G02*
X11330000Y-10637500I0J25000D01*
G01*
X11330000Y-10572500D01*
G75*
G02*
X11355000Y-10547500I25000J0D01*
G01*
G37*
G36*
G01*
X11355000Y-10342500D02*
X11445000Y-10342500D01*
G75*
G02*
X11470000Y-10367500I0J-25000D01*
G01*
X11470000Y-10432500D01*
G75*
G02*
X11445000Y-10457500I-25000J0D01*
G01*
X11355000Y-10457500D01*
G75*
G02*
X11330000Y-10432500I0J25000D01*
G01*
X11330000Y-10367500D01*
G75*
G02*
X11355000Y-10342500I25000J0D01*
G01*
G37*
G04 #@! TD*
D14*
G04 #@! TO.C,J4*
X14636600Y-11691600D03*
X14636600Y-11091600D03*
D15*
X14836600Y-11504100D03*
D16*
X14556600Y-11391600D03*
X14556600Y-11326600D03*
X14556600Y-11261600D03*
X14556600Y-11521600D03*
X14556600Y-11456600D03*
D15*
X14836600Y-11279100D03*
G04 #@! TD*
M02*
